<?xml version="1.0" encoding="utf-8" standalone="no"?>
<!DOCTYPE svg PUBLIC "-//W3C//DTD SVG 1.1//EN"
  "http://www.w3.org/Graphics/SVG/1.1/DTD/svg11.dtd">
<svg xmlns:xlink="http://www.w3.org/1999/xlink" width="1038.24pt" height="609.12pt" viewBox="0 0 1038.24 609.12" xmlns="http://www.w3.org/2000/svg" version="1.1">
 <metadata>
  <rdf:RDF xmlns:dc="http://purl.org/dc/elements/1.1/" xmlns:cc="http://creativecommons.org/ns#" xmlns:rdf="http://www.w3.org/1999/02/22-rdf-syntax-ns#">
   <cc:Work>
    <dc:type rdf:resource="http://purl.org/dc/dcmitype/StillImage"/>
    <dc:date>2024-04-13T11:38:15.574515</dc:date>
    <dc:format>image/svg+xml</dc:format>
    <dc:creator>
     <cc:Agent>
      <dc:title>Matplotlib v3.8.0, https://matplotlib.org/</dc:title>
     </cc:Agent>
    </dc:creator>
   </cc:Work>
  </rdf:RDF>
 </metadata>
 <defs>
  <style type="text/css">*{stroke-linejoin: round; stroke-linecap: butt}</style>
 </defs>
 <g id="figure_1">
  <g id="patch_1">
   <path d="M 0 609.12 
L 1038.24 609.12 
L 1038.24 0 
L 0 0 
z
" style="fill: #ffffff"/>
  </g>
  <g id="axes_1">
   <g id="patch_2">
    <path d="M 155.823678 537.05101 
L 1035.23976 537.05101 
L 1035.23976 3.00024 
L 155.823678 3.00024 
z
" style="fill: #ffffff"/>
   </g>
   <g id="matplotlib.axis_1">
    <g id="xtick_1">
     <g id="line2d_1">
      <path d="M 258.063002 537.05101 
L 258.063002 3.00024 
" clip-path="url(#pe1493f99d9)" style="fill: none; stroke: #b0b0b0; stroke-width: 0.8; stroke-linecap: square"/>
     </g>
     <g id="line2d_2">
      <defs>
       <path id="m3b16ee4b55" d="M 0 0 
L 0 3.5 
" style="stroke: #000000; stroke-width: 0.8"/>
      </defs>
      <g>
       <use xlink:href="#m3b16ee4b55" x="258.063002" y="537.05101" style="stroke: #000000; stroke-width: 0.8"/>
      </g>
     </g>
     <g id="text_1">
      <!-- 12000 -->
      <g transform="translate(210.344252 566.846323) scale(0.3 -0.3)">
       <defs>
        <path id="DejaVuSans-31" d="M 794 531 
L 1825 531 
L 1825 4091 
L 703 3866 
L 703 4441 
L 1819 4666 
L 2450 4666 
L 2450 531 
L 3481 531 
L 3481 0 
L 794 0 
L 794 531 
z
" transform="scale(0.015625)"/>
        <path id="DejaVuSans-32" d="M 1228 531 
L 3431 531 
L 3431 0 
L 469 0 
L 469 531 
Q 828 903 1448 1529 
Q 2069 2156 2228 2338 
Q 2531 2678 2651 2914 
Q 2772 3150 2772 3378 
Q 2772 3750 2511 3984 
Q 2250 4219 1831 4219 
Q 1534 4219 1204 4116 
Q 875 4013 500 3803 
L 500 4441 
Q 881 4594 1212 4672 
Q 1544 4750 1819 4750 
Q 2544 4750 2975 4387 
Q 3406 4025 3406 3419 
Q 3406 3131 3298 2873 
Q 3191 2616 2906 2266 
Q 2828 2175 2409 1742 
Q 1991 1309 1228 531 
z
" transform="scale(0.015625)"/>
        <path id="DejaVuSans-30" d="M 2034 4250 
Q 1547 4250 1301 3770 
Q 1056 3291 1056 2328 
Q 1056 1369 1301 889 
Q 1547 409 2034 409 
Q 2525 409 2770 889 
Q 3016 1369 3016 2328 
Q 3016 3291 2770 3770 
Q 2525 4250 2034 4250 
z
M 2034 4750 
Q 2819 4750 3233 4129 
Q 3647 3509 3647 2328 
Q 3647 1150 3233 529 
Q 2819 -91 2034 -91 
Q 1250 -91 836 529 
Q 422 1150 422 2328 
Q 422 3509 836 4129 
Q 1250 4750 2034 4750 
z
" transform="scale(0.015625)"/>
       </defs>
       <use xlink:href="#DejaVuSans-31"/>
       <use xlink:href="#DejaVuSans-32" x="63.623047"/>
       <use xlink:href="#DejaVuSans-30" x="127.246094"/>
       <use xlink:href="#DejaVuSans-30" x="190.869141"/>
       <use xlink:href="#DejaVuSans-30" x="254.492188"/>
      </g>
     </g>
    </g>
    <g id="xtick_2">
     <g id="line2d_3">
      <path d="M 373.899355 537.05101 
L 373.899355 3.00024 
" clip-path="url(#pe1493f99d9)" style="fill: none; stroke: #b0b0b0; stroke-width: 0.8; stroke-linecap: square"/>
     </g>
     <g id="line2d_4">
      <g>
       <use xlink:href="#m3b16ee4b55" x="373.899355" y="537.05101" style="stroke: #000000; stroke-width: 0.8"/>
      </g>
     </g>
     <g id="text_2">
      <!-- 13000 -->
      <g transform="translate(326.180605 566.846323) scale(0.3 -0.3)">
       <defs>
        <path id="DejaVuSans-33" d="M 2597 2516 
Q 3050 2419 3304 2112 
Q 3559 1806 3559 1356 
Q 3559 666 3084 287 
Q 2609 -91 1734 -91 
Q 1441 -91 1130 -33 
Q 819 25 488 141 
L 488 750 
Q 750 597 1062 519 
Q 1375 441 1716 441 
Q 2309 441 2620 675 
Q 2931 909 2931 1356 
Q 2931 1769 2642 2001 
Q 2353 2234 1838 2234 
L 1294 2234 
L 1294 2753 
L 1863 2753 
Q 2328 2753 2575 2939 
Q 2822 3125 2822 3475 
Q 2822 3834 2567 4026 
Q 2313 4219 1838 4219 
Q 1578 4219 1281 4162 
Q 984 4106 628 3988 
L 628 4550 
Q 988 4650 1302 4700 
Q 1616 4750 1894 4750 
Q 2613 4750 3031 4423 
Q 3450 4097 3450 3541 
Q 3450 3153 3228 2886 
Q 3006 2619 2597 2516 
z
" transform="scale(0.015625)"/>
       </defs>
       <use xlink:href="#DejaVuSans-31"/>
       <use xlink:href="#DejaVuSans-33" x="63.623047"/>
       <use xlink:href="#DejaVuSans-30" x="127.246094"/>
       <use xlink:href="#DejaVuSans-30" x="190.869141"/>
       <use xlink:href="#DejaVuSans-30" x="254.492188"/>
      </g>
     </g>
    </g>
    <g id="xtick_3">
     <g id="line2d_5">
      <path d="M 489.735708 537.05101 
L 489.735708 3.00024 
" clip-path="url(#pe1493f99d9)" style="fill: none; stroke: #b0b0b0; stroke-width: 0.8; stroke-linecap: square"/>
     </g>
     <g id="line2d_6">
      <g>
       <use xlink:href="#m3b16ee4b55" x="489.735708" y="537.05101" style="stroke: #000000; stroke-width: 0.8"/>
      </g>
     </g>
     <g id="text_3">
      <!-- 14000 -->
      <g transform="translate(442.016958 566.846323) scale(0.3 -0.3)">
       <defs>
        <path id="DejaVuSans-34" d="M 2419 4116 
L 825 1625 
L 2419 1625 
L 2419 4116 
z
M 2253 4666 
L 3047 4666 
L 3047 1625 
L 3713 1625 
L 3713 1100 
L 3047 1100 
L 3047 0 
L 2419 0 
L 2419 1100 
L 313 1100 
L 313 1709 
L 2253 4666 
z
" transform="scale(0.015625)"/>
       </defs>
       <use xlink:href="#DejaVuSans-31"/>
       <use xlink:href="#DejaVuSans-34" x="63.623047"/>
       <use xlink:href="#DejaVuSans-30" x="127.246094"/>
       <use xlink:href="#DejaVuSans-30" x="190.869141"/>
       <use xlink:href="#DejaVuSans-30" x="254.492188"/>
      </g>
     </g>
    </g>
    <g id="xtick_4">
     <g id="line2d_7">
      <path d="M 605.572061 537.05101 
L 605.572061 3.00024 
" clip-path="url(#pe1493f99d9)" style="fill: none; stroke: #b0b0b0; stroke-width: 0.8; stroke-linecap: square"/>
     </g>
     <g id="line2d_8">
      <g>
       <use xlink:href="#m3b16ee4b55" x="605.572061" y="537.05101" style="stroke: #000000; stroke-width: 0.8"/>
      </g>
     </g>
     <g id="text_4">
      <!-- 15000 -->
      <g transform="translate(557.853311 566.846323) scale(0.3 -0.3)">
       <defs>
        <path id="DejaVuSans-35" d="M 691 4666 
L 3169 4666 
L 3169 4134 
L 1269 4134 
L 1269 2991 
Q 1406 3038 1543 3061 
Q 1681 3084 1819 3084 
Q 2600 3084 3056 2656 
Q 3513 2228 3513 1497 
Q 3513 744 3044 326 
Q 2575 -91 1722 -91 
Q 1428 -91 1123 -41 
Q 819 9 494 109 
L 494 744 
Q 775 591 1075 516 
Q 1375 441 1709 441 
Q 2250 441 2565 725 
Q 2881 1009 2881 1497 
Q 2881 1984 2565 2268 
Q 2250 2553 1709 2553 
Q 1456 2553 1204 2497 
Q 953 2441 691 2322 
L 691 4666 
z
" transform="scale(0.015625)"/>
       </defs>
       <use xlink:href="#DejaVuSans-31"/>
       <use xlink:href="#DejaVuSans-35" x="63.623047"/>
       <use xlink:href="#DejaVuSans-30" x="127.246094"/>
       <use xlink:href="#DejaVuSans-30" x="190.869141"/>
       <use xlink:href="#DejaVuSans-30" x="254.492188"/>
      </g>
     </g>
    </g>
    <g id="xtick_5">
     <g id="line2d_9">
      <path d="M 721.408413 537.05101 
L 721.408413 3.00024 
" clip-path="url(#pe1493f99d9)" style="fill: none; stroke: #b0b0b0; stroke-width: 0.8; stroke-linecap: square"/>
     </g>
     <g id="line2d_10">
      <g>
       <use xlink:href="#m3b16ee4b55" x="721.408413" y="537.05101" style="stroke: #000000; stroke-width: 0.8"/>
      </g>
     </g>
     <g id="text_5">
      <!-- 16000 -->
      <g transform="translate(673.689663 566.846323) scale(0.3 -0.3)">
       <defs>
        <path id="DejaVuSans-36" d="M 2113 2584 
Q 1688 2584 1439 2293 
Q 1191 2003 1191 1497 
Q 1191 994 1439 701 
Q 1688 409 2113 409 
Q 2538 409 2786 701 
Q 3034 994 3034 1497 
Q 3034 2003 2786 2293 
Q 2538 2584 2113 2584 
z
M 3366 4563 
L 3366 3988 
Q 3128 4100 2886 4159 
Q 2644 4219 2406 4219 
Q 1781 4219 1451 3797 
Q 1122 3375 1075 2522 
Q 1259 2794 1537 2939 
Q 1816 3084 2150 3084 
Q 2853 3084 3261 2657 
Q 3669 2231 3669 1497 
Q 3669 778 3244 343 
Q 2819 -91 2113 -91 
Q 1303 -91 875 529 
Q 447 1150 447 2328 
Q 447 3434 972 4092 
Q 1497 4750 2381 4750 
Q 2619 4750 2861 4703 
Q 3103 4656 3366 4563 
z
" transform="scale(0.015625)"/>
       </defs>
       <use xlink:href="#DejaVuSans-31"/>
       <use xlink:href="#DejaVuSans-36" x="63.623047"/>
       <use xlink:href="#DejaVuSans-30" x="127.246094"/>
       <use xlink:href="#DejaVuSans-30" x="190.869141"/>
       <use xlink:href="#DejaVuSans-30" x="254.492188"/>
      </g>
     </g>
    </g>
    <g id="xtick_6">
     <g id="line2d_11">
      <path d="M 837.244766 537.05101 
L 837.244766 3.00024 
" clip-path="url(#pe1493f99d9)" style="fill: none; stroke: #b0b0b0; stroke-width: 0.8; stroke-linecap: square"/>
     </g>
     <g id="line2d_12">
      <g>
       <use xlink:href="#m3b16ee4b55" x="837.244766" y="537.05101" style="stroke: #000000; stroke-width: 0.8"/>
      </g>
     </g>
     <g id="text_6">
      <!-- 17000 -->
      <g transform="translate(789.526016 566.846323) scale(0.3 -0.3)">
       <defs>
        <path id="DejaVuSans-37" d="M 525 4666 
L 3525 4666 
L 3525 4397 
L 1831 0 
L 1172 0 
L 2766 4134 
L 525 4134 
L 525 4666 
z
" transform="scale(0.015625)"/>
       </defs>
       <use xlink:href="#DejaVuSans-31"/>
       <use xlink:href="#DejaVuSans-37" x="63.623047"/>
       <use xlink:href="#DejaVuSans-30" x="127.246094"/>
       <use xlink:href="#DejaVuSans-30" x="190.869141"/>
       <use xlink:href="#DejaVuSans-30" x="254.492188"/>
      </g>
     </g>
    </g>
    <g id="xtick_7">
     <g id="line2d_13">
      <path d="M 953.081119 537.05101 
L 953.081119 3.00024 
" clip-path="url(#pe1493f99d9)" style="fill: none; stroke: #b0b0b0; stroke-width: 0.8; stroke-linecap: square"/>
     </g>
     <g id="line2d_14">
      <g>
       <use xlink:href="#m3b16ee4b55" x="953.081119" y="537.05101" style="stroke: #000000; stroke-width: 0.8"/>
      </g>
     </g>
     <g id="text_7">
      <!-- 18000 -->
      <g transform="translate(905.362369 566.846323) scale(0.3 -0.3)">
       <defs>
        <path id="DejaVuSans-38" d="M 2034 2216 
Q 1584 2216 1326 1975 
Q 1069 1734 1069 1313 
Q 1069 891 1326 650 
Q 1584 409 2034 409 
Q 2484 409 2743 651 
Q 3003 894 3003 1313 
Q 3003 1734 2745 1975 
Q 2488 2216 2034 2216 
z
M 1403 2484 
Q 997 2584 770 2862 
Q 544 3141 544 3541 
Q 544 4100 942 4425 
Q 1341 4750 2034 4750 
Q 2731 4750 3128 4425 
Q 3525 4100 3525 3541 
Q 3525 3141 3298 2862 
Q 3072 2584 2669 2484 
Q 3125 2378 3379 2068 
Q 3634 1759 3634 1313 
Q 3634 634 3220 271 
Q 2806 -91 2034 -91 
Q 1263 -91 848 271 
Q 434 634 434 1313 
Q 434 1759 690 2068 
Q 947 2378 1403 2484 
z
M 1172 3481 
Q 1172 3119 1398 2916 
Q 1625 2713 2034 2713 
Q 2441 2713 2670 2916 
Q 2900 3119 2900 3481 
Q 2900 3844 2670 4047 
Q 2441 4250 2034 4250 
Q 1625 4250 1398 4047 
Q 1172 3844 1172 3481 
z
" transform="scale(0.015625)"/>
       </defs>
       <use xlink:href="#DejaVuSans-31"/>
       <use xlink:href="#DejaVuSans-38" x="63.623047"/>
       <use xlink:href="#DejaVuSans-30" x="127.246094"/>
       <use xlink:href="#DejaVuSans-30" x="190.869141"/>
       <use xlink:href="#DejaVuSans-30" x="254.492188"/>
      </g>
     </g>
    </g>
    <g id="text_8">
     <!-- customer_request -->
     <g transform="translate(460.386406 599.046323) scale(0.3 -0.3)">
      <defs>
       <path id="DejaVuSans-63" d="M 3122 3366 
L 3122 2828 
Q 2878 2963 2633 3030 
Q 2388 3097 2138 3097 
Q 1578 3097 1268 2742 
Q 959 2388 959 1747 
Q 959 1106 1268 751 
Q 1578 397 2138 397 
Q 2388 397 2633 464 
Q 2878 531 3122 666 
L 3122 134 
Q 2881 22 2623 -34 
Q 2366 -91 2075 -91 
Q 1284 -91 818 406 
Q 353 903 353 1747 
Q 353 2603 823 3093 
Q 1294 3584 2113 3584 
Q 2378 3584 2631 3529 
Q 2884 3475 3122 3366 
z
" transform="scale(0.015625)"/>
       <path id="DejaVuSans-75" d="M 544 1381 
L 544 3500 
L 1119 3500 
L 1119 1403 
Q 1119 906 1312 657 
Q 1506 409 1894 409 
Q 2359 409 2629 706 
Q 2900 1003 2900 1516 
L 2900 3500 
L 3475 3500 
L 3475 0 
L 2900 0 
L 2900 538 
Q 2691 219 2414 64 
Q 2138 -91 1772 -91 
Q 1169 -91 856 284 
Q 544 659 544 1381 
z
M 1991 3584 
L 1991 3584 
z
" transform="scale(0.015625)"/>
       <path id="DejaVuSans-73" d="M 2834 3397 
L 2834 2853 
Q 2591 2978 2328 3040 
Q 2066 3103 1784 3103 
Q 1356 3103 1142 2972 
Q 928 2841 928 2578 
Q 928 2378 1081 2264 
Q 1234 2150 1697 2047 
L 1894 2003 
Q 2506 1872 2764 1633 
Q 3022 1394 3022 966 
Q 3022 478 2636 193 
Q 2250 -91 1575 -91 
Q 1294 -91 989 -36 
Q 684 19 347 128 
L 347 722 
Q 666 556 975 473 
Q 1284 391 1588 391 
Q 1994 391 2212 530 
Q 2431 669 2431 922 
Q 2431 1156 2273 1281 
Q 2116 1406 1581 1522 
L 1381 1569 
Q 847 1681 609 1914 
Q 372 2147 372 2553 
Q 372 3047 722 3315 
Q 1072 3584 1716 3584 
Q 2034 3584 2315 3537 
Q 2597 3491 2834 3397 
z
" transform="scale(0.015625)"/>
       <path id="DejaVuSans-74" d="M 1172 4494 
L 1172 3500 
L 2356 3500 
L 2356 3053 
L 1172 3053 
L 1172 1153 
Q 1172 725 1289 603 
Q 1406 481 1766 481 
L 2356 481 
L 2356 0 
L 1766 0 
Q 1100 0 847 248 
Q 594 497 594 1153 
L 594 3053 
L 172 3053 
L 172 3500 
L 594 3500 
L 594 4494 
L 1172 4494 
z
" transform="scale(0.015625)"/>
       <path id="DejaVuSans-6f" d="M 1959 3097 
Q 1497 3097 1228 2736 
Q 959 2375 959 1747 
Q 959 1119 1226 758 
Q 1494 397 1959 397 
Q 2419 397 2687 759 
Q 2956 1122 2956 1747 
Q 2956 2369 2687 2733 
Q 2419 3097 1959 3097 
z
M 1959 3584 
Q 2709 3584 3137 3096 
Q 3566 2609 3566 1747 
Q 3566 888 3137 398 
Q 2709 -91 1959 -91 
Q 1206 -91 779 398 
Q 353 888 353 1747 
Q 353 2609 779 3096 
Q 1206 3584 1959 3584 
z
" transform="scale(0.015625)"/>
       <path id="DejaVuSans-6d" d="M 3328 2828 
Q 3544 3216 3844 3400 
Q 4144 3584 4550 3584 
Q 5097 3584 5394 3201 
Q 5691 2819 5691 2113 
L 5691 0 
L 5113 0 
L 5113 2094 
Q 5113 2597 4934 2840 
Q 4756 3084 4391 3084 
Q 3944 3084 3684 2787 
Q 3425 2491 3425 1978 
L 3425 0 
L 2847 0 
L 2847 2094 
Q 2847 2600 2669 2842 
Q 2491 3084 2119 3084 
Q 1678 3084 1418 2786 
Q 1159 2488 1159 1978 
L 1159 0 
L 581 0 
L 581 3500 
L 1159 3500 
L 1159 2956 
Q 1356 3278 1631 3431 
Q 1906 3584 2284 3584 
Q 2666 3584 2933 3390 
Q 3200 3197 3328 2828 
z
" transform="scale(0.015625)"/>
       <path id="DejaVuSans-65" d="M 3597 1894 
L 3597 1613 
L 953 1613 
Q 991 1019 1311 708 
Q 1631 397 2203 397 
Q 2534 397 2845 478 
Q 3156 559 3463 722 
L 3463 178 
Q 3153 47 2828 -22 
Q 2503 -91 2169 -91 
Q 1331 -91 842 396 
Q 353 884 353 1716 
Q 353 2575 817 3079 
Q 1281 3584 2069 3584 
Q 2775 3584 3186 3129 
Q 3597 2675 3597 1894 
z
M 3022 2063 
Q 3016 2534 2758 2815 
Q 2500 3097 2075 3097 
Q 1594 3097 1305 2825 
Q 1016 2553 972 2059 
L 3022 2063 
z
" transform="scale(0.015625)"/>
       <path id="DejaVuSans-72" d="M 2631 2963 
Q 2534 3019 2420 3045 
Q 2306 3072 2169 3072 
Q 1681 3072 1420 2755 
Q 1159 2438 1159 1844 
L 1159 0 
L 581 0 
L 581 3500 
L 1159 3500 
L 1159 2956 
Q 1341 3275 1631 3429 
Q 1922 3584 2338 3584 
Q 2397 3584 2469 3576 
Q 2541 3569 2628 3553 
L 2631 2963 
z
" transform="scale(0.015625)"/>
       <path id="DejaVuSans-5f" d="M 3263 -1063 
L 3263 -1509 
L -63 -1509 
L -63 -1063 
L 3263 -1063 
z
" transform="scale(0.015625)"/>
       <path id="DejaVuSans-71" d="M 947 1747 
Q 947 1113 1208 752 
Q 1469 391 1925 391 
Q 2381 391 2643 752 
Q 2906 1113 2906 1747 
Q 2906 2381 2643 2742 
Q 2381 3103 1925 3103 
Q 1469 3103 1208 2742 
Q 947 2381 947 1747 
z
M 2906 525 
Q 2725 213 2448 61 
Q 2172 -91 1784 -91 
Q 1150 -91 751 415 
Q 353 922 353 1747 
Q 353 2572 751 3078 
Q 1150 3584 1784 3584 
Q 2172 3584 2448 3432 
Q 2725 3281 2906 2969 
L 2906 3500 
L 3481 3500 
L 3481 -1331 
L 2906 -1331 
L 2906 525 
z
" transform="scale(0.015625)"/>
      </defs>
      <use xlink:href="#DejaVuSans-63"/>
      <use xlink:href="#DejaVuSans-75" x="54.980469"/>
      <use xlink:href="#DejaVuSans-73" x="118.359375"/>
      <use xlink:href="#DejaVuSans-74" x="170.458984"/>
      <use xlink:href="#DejaVuSans-6f" x="209.667969"/>
      <use xlink:href="#DejaVuSans-6d" x="270.849609"/>
      <use xlink:href="#DejaVuSans-65" x="368.261719"/>
      <use xlink:href="#DejaVuSans-72" x="429.785156"/>
      <use xlink:href="#DejaVuSans-5f" x="470.898438"/>
      <use xlink:href="#DejaVuSans-72" x="520.898438"/>
      <use xlink:href="#DejaVuSans-65" x="559.761719"/>
      <use xlink:href="#DejaVuSans-71" x="621.285156"/>
      <use xlink:href="#DejaVuSans-75" x="684.761719"/>
      <use xlink:href="#DejaVuSans-65" x="748.140625"/>
      <use xlink:href="#DejaVuSans-73" x="809.664062"/>
      <use xlink:href="#DejaVuSans-74" x="861.763672"/>
     </g>
    </g>
   </g>
   <g id="matplotlib.axis_2">
    <g id="ytick_1">
     <g id="line2d_15">
      <path d="M 155.823678 504.5539 
L 1035.23976 504.5539 
" clip-path="url(#pe1493f99d9)" style="fill: none; stroke: #b0b0b0; stroke-width: 0.8; stroke-linecap: square"/>
     </g>
     <g id="line2d_16">
      <defs>
       <path id="m05f0fad437" d="M 0 0 
L -3.5 0 
" style="stroke: #000000; stroke-width: 0.8"/>
      </defs>
      <g>
       <use xlink:href="#m05f0fad437" x="155.823678" y="504.5539" style="stroke: #000000; stroke-width: 0.8"/>
      </g>
     </g>
     <g id="text_9">
      <!-- 0.0000 -->
      <g transform="translate(26.35649 517.851165) scale(0.35 -0.35)">
       <defs>
        <path id="DejaVuSans-2e" d="M 684 794 
L 1344 794 
L 1344 0 
L 684 0 
L 684 794 
z
" transform="scale(0.015625)"/>
       </defs>
       <use xlink:href="#DejaVuSans-30"/>
       <use xlink:href="#DejaVuSans-2e" x="63.623047"/>
       <use xlink:href="#DejaVuSans-30" x="95.410156"/>
       <use xlink:href="#DejaVuSans-30" x="159.033203"/>
       <use xlink:href="#DejaVuSans-30" x="222.65625"/>
       <use xlink:href="#DejaVuSans-30" x="286.279297"/>
      </g>
     </g>
    </g>
    <g id="ytick_2">
     <g id="line2d_17">
      <path d="M 155.823678 444.603629 
L 1035.23976 444.603629 
" clip-path="url(#pe1493f99d9)" style="fill: none; stroke: #b0b0b0; stroke-width: 0.8; stroke-linecap: square"/>
     </g>
     <g id="line2d_18">
      <g>
       <use xlink:href="#m05f0fad437" x="155.823678" y="444.603629" style="stroke: #000000; stroke-width: 0.8"/>
      </g>
     </g>
     <g id="text_10">
      <!-- 0.0002 -->
      <g transform="translate(26.35649 457.900895) scale(0.35 -0.35)">
       <use xlink:href="#DejaVuSans-30"/>
       <use xlink:href="#DejaVuSans-2e" x="63.623047"/>
       <use xlink:href="#DejaVuSans-30" x="95.410156"/>
       <use xlink:href="#DejaVuSans-30" x="159.033203"/>
       <use xlink:href="#DejaVuSans-30" x="222.65625"/>
       <use xlink:href="#DejaVuSans-32" x="286.279297"/>
      </g>
     </g>
    </g>
    <g id="ytick_3">
     <g id="line2d_19">
      <path d="M 155.823678 384.653359 
L 1035.23976 384.653359 
" clip-path="url(#pe1493f99d9)" style="fill: none; stroke: #b0b0b0; stroke-width: 0.8; stroke-linecap: square"/>
     </g>
     <g id="line2d_20">
      <g>
       <use xlink:href="#m05f0fad437" x="155.823678" y="384.653359" style="stroke: #000000; stroke-width: 0.8"/>
      </g>
     </g>
     <g id="text_11">
      <!-- 0.0004 -->
      <g transform="translate(26.35649 397.950624) scale(0.35 -0.35)">
       <use xlink:href="#DejaVuSans-30"/>
       <use xlink:href="#DejaVuSans-2e" x="63.623047"/>
       <use xlink:href="#DejaVuSans-30" x="95.410156"/>
       <use xlink:href="#DejaVuSans-30" x="159.033203"/>
       <use xlink:href="#DejaVuSans-30" x="222.65625"/>
       <use xlink:href="#DejaVuSans-34" x="286.279297"/>
      </g>
     </g>
    </g>
    <g id="ytick_4">
     <g id="line2d_21">
      <path d="M 155.823678 324.703088 
L 1035.23976 324.703088 
" clip-path="url(#pe1493f99d9)" style="fill: none; stroke: #b0b0b0; stroke-width: 0.8; stroke-linecap: square"/>
     </g>
     <g id="line2d_22">
      <g>
       <use xlink:href="#m05f0fad437" x="155.823678" y="324.703088" style="stroke: #000000; stroke-width: 0.8"/>
      </g>
     </g>
     <g id="text_12">
      <!-- 0.0006 -->
      <g transform="translate(26.35649 338.000354) scale(0.35 -0.35)">
       <use xlink:href="#DejaVuSans-30"/>
       <use xlink:href="#DejaVuSans-2e" x="63.623047"/>
       <use xlink:href="#DejaVuSans-30" x="95.410156"/>
       <use xlink:href="#DejaVuSans-30" x="159.033203"/>
       <use xlink:href="#DejaVuSans-30" x="222.65625"/>
       <use xlink:href="#DejaVuSans-36" x="286.279297"/>
      </g>
     </g>
    </g>
    <g id="ytick_5">
     <g id="line2d_23">
      <path d="M 155.823678 264.752818 
L 1035.23976 264.752818 
" clip-path="url(#pe1493f99d9)" style="fill: none; stroke: #b0b0b0; stroke-width: 0.8; stroke-linecap: square"/>
     </g>
     <g id="line2d_24">
      <g>
       <use xlink:href="#m05f0fad437" x="155.823678" y="264.752818" style="stroke: #000000; stroke-width: 0.8"/>
      </g>
     </g>
     <g id="text_13">
      <!-- 0.0008 -->
      <g transform="translate(26.35649 278.050083) scale(0.35 -0.35)">
       <use xlink:href="#DejaVuSans-30"/>
       <use xlink:href="#DejaVuSans-2e" x="63.623047"/>
       <use xlink:href="#DejaVuSans-30" x="95.410156"/>
       <use xlink:href="#DejaVuSans-30" x="159.033203"/>
       <use xlink:href="#DejaVuSans-30" x="222.65625"/>
       <use xlink:href="#DejaVuSans-38" x="286.279297"/>
      </g>
     </g>
    </g>
    <g id="ytick_6">
     <g id="line2d_25">
      <path d="M 155.823678 204.802547 
L 1035.23976 204.802547 
" clip-path="url(#pe1493f99d9)" style="fill: none; stroke: #b0b0b0; stroke-width: 0.8; stroke-linecap: square"/>
     </g>
     <g id="line2d_26">
      <g>
       <use xlink:href="#m05f0fad437" x="155.823678" y="204.802547" style="stroke: #000000; stroke-width: 0.8"/>
      </g>
     </g>
     <g id="text_14">
      <!-- 0.0010 -->
      <g transform="translate(26.35649 218.099813) scale(0.35 -0.35)">
       <use xlink:href="#DejaVuSans-30"/>
       <use xlink:href="#DejaVuSans-2e" x="63.623047"/>
       <use xlink:href="#DejaVuSans-30" x="95.410156"/>
       <use xlink:href="#DejaVuSans-30" x="159.033203"/>
       <use xlink:href="#DejaVuSans-31" x="222.65625"/>
       <use xlink:href="#DejaVuSans-30" x="286.279297"/>
      </g>
     </g>
    </g>
    <g id="ytick_7">
     <g id="line2d_27">
      <path d="M 155.823678 144.852277 
L 1035.23976 144.852277 
" clip-path="url(#pe1493f99d9)" style="fill: none; stroke: #b0b0b0; stroke-width: 0.8; stroke-linecap: square"/>
     </g>
     <g id="line2d_28">
      <g>
       <use xlink:href="#m05f0fad437" x="155.823678" y="144.852277" style="stroke: #000000; stroke-width: 0.8"/>
      </g>
     </g>
     <g id="text_15">
      <!-- 0.0012 -->
      <g transform="translate(26.35649 158.149542) scale(0.35 -0.35)">
       <use xlink:href="#DejaVuSans-30"/>
       <use xlink:href="#DejaVuSans-2e" x="63.623047"/>
       <use xlink:href="#DejaVuSans-30" x="95.410156"/>
       <use xlink:href="#DejaVuSans-30" x="159.033203"/>
       <use xlink:href="#DejaVuSans-31" x="222.65625"/>
       <use xlink:href="#DejaVuSans-32" x="286.279297"/>
      </g>
     </g>
    </g>
    <g id="ytick_8">
     <g id="line2d_29">
      <path d="M 155.823678 84.902006 
L 1035.23976 84.902006 
" clip-path="url(#pe1493f99d9)" style="fill: none; stroke: #b0b0b0; stroke-width: 0.8; stroke-linecap: square"/>
     </g>
     <g id="line2d_30">
      <g>
       <use xlink:href="#m05f0fad437" x="155.823678" y="84.902006" style="stroke: #000000; stroke-width: 0.8"/>
      </g>
     </g>
     <g id="text_16">
      <!-- 0.0014 -->
      <g transform="translate(26.35649 98.199272) scale(0.35 -0.35)">
       <use xlink:href="#DejaVuSans-30"/>
       <use xlink:href="#DejaVuSans-2e" x="63.623047"/>
       <use xlink:href="#DejaVuSans-30" x="95.410156"/>
       <use xlink:href="#DejaVuSans-30" x="159.033203"/>
       <use xlink:href="#DejaVuSans-31" x="222.65625"/>
       <use xlink:href="#DejaVuSans-34" x="286.279297"/>
      </g>
     </g>
    </g>
    <g id="ytick_9">
     <g id="line2d_31">
      <path d="M 155.823678 24.951736 
L 1035.23976 24.951736 
" clip-path="url(#pe1493f99d9)" style="fill: none; stroke: #b0b0b0; stroke-width: 0.8; stroke-linecap: square"/>
     </g>
     <g id="line2d_32">
      <g>
       <use xlink:href="#m05f0fad437" x="155.823678" y="24.951736" style="stroke: #000000; stroke-width: 0.8"/>
      </g>
     </g>
     <g id="text_17">
      <!-- 0.0016 -->
      <g transform="translate(26.35649 38.249001) scale(0.35 -0.35)">
       <use xlink:href="#DejaVuSans-30"/>
       <use xlink:href="#DejaVuSans-2e" x="63.623047"/>
       <use xlink:href="#DejaVuSans-30" x="95.410156"/>
       <use xlink:href="#DejaVuSans-30" x="159.033203"/>
       <use xlink:href="#DejaVuSans-31" x="222.65625"/>
       <use xlink:href="#DejaVuSans-36" x="286.279297"/>
      </g>
     </g>
    </g>
    <g id="text_18">
     <!-- Variance of NDCG -->
     <g transform="translate(18.197115 359.133438) rotate(-90) scale(0.2 -0.2)">
      <defs>
       <path id="DejaVuSans-56" d="M 1831 0 
L 50 4666 
L 709 4666 
L 2188 738 
L 3669 4666 
L 4325 4666 
L 2547 0 
L 1831 0 
z
" transform="scale(0.015625)"/>
       <path id="DejaVuSans-61" d="M 2194 1759 
Q 1497 1759 1228 1600 
Q 959 1441 959 1056 
Q 959 750 1161 570 
Q 1363 391 1709 391 
Q 2188 391 2477 730 
Q 2766 1069 2766 1631 
L 2766 1759 
L 2194 1759 
z
M 3341 1997 
L 3341 0 
L 2766 0 
L 2766 531 
Q 2569 213 2275 61 
Q 1981 -91 1556 -91 
Q 1019 -91 701 211 
Q 384 513 384 1019 
Q 384 1609 779 1909 
Q 1175 2209 1959 2209 
L 2766 2209 
L 2766 2266 
Q 2766 2663 2505 2880 
Q 2244 3097 1772 3097 
Q 1472 3097 1187 3025 
Q 903 2953 641 2809 
L 641 3341 
Q 956 3463 1253 3523 
Q 1550 3584 1831 3584 
Q 2591 3584 2966 3190 
Q 3341 2797 3341 1997 
z
" transform="scale(0.015625)"/>
       <path id="DejaVuSans-69" d="M 603 3500 
L 1178 3500 
L 1178 0 
L 603 0 
L 603 3500 
z
M 603 4863 
L 1178 4863 
L 1178 4134 
L 603 4134 
L 603 4863 
z
" transform="scale(0.015625)"/>
       <path id="DejaVuSans-6e" d="M 3513 2113 
L 3513 0 
L 2938 0 
L 2938 2094 
Q 2938 2591 2744 2837 
Q 2550 3084 2163 3084 
Q 1697 3084 1428 2787 
Q 1159 2491 1159 1978 
L 1159 0 
L 581 0 
L 581 3500 
L 1159 3500 
L 1159 2956 
Q 1366 3272 1645 3428 
Q 1925 3584 2291 3584 
Q 2894 3584 3203 3211 
Q 3513 2838 3513 2113 
z
" transform="scale(0.015625)"/>
       <path id="DejaVuSans-20" transform="scale(0.015625)"/>
       <path id="DejaVuSans-66" d="M 2375 4863 
L 2375 4384 
L 1825 4384 
Q 1516 4384 1395 4259 
Q 1275 4134 1275 3809 
L 1275 3500 
L 2222 3500 
L 2222 3053 
L 1275 3053 
L 1275 0 
L 697 0 
L 697 3053 
L 147 3053 
L 147 3500 
L 697 3500 
L 697 3744 
Q 697 4328 969 4595 
Q 1241 4863 1831 4863 
L 2375 4863 
z
" transform="scale(0.015625)"/>
       <path id="DejaVuSans-4e" d="M 628 4666 
L 1478 4666 
L 3547 763 
L 3547 4666 
L 4159 4666 
L 4159 0 
L 3309 0 
L 1241 3903 
L 1241 0 
L 628 0 
L 628 4666 
z
" transform="scale(0.015625)"/>
       <path id="DejaVuSans-44" d="M 1259 4147 
L 1259 519 
L 2022 519 
Q 2988 519 3436 956 
Q 3884 1394 3884 2338 
Q 3884 3275 3436 3711 
Q 2988 4147 2022 4147 
L 1259 4147 
z
M 628 4666 
L 1925 4666 
Q 3281 4666 3915 4102 
Q 4550 3538 4550 2338 
Q 4550 1131 3912 565 
Q 3275 0 1925 0 
L 628 0 
L 628 4666 
z
" transform="scale(0.015625)"/>
       <path id="DejaVuSans-43" d="M 4122 4306 
L 4122 3641 
Q 3803 3938 3442 4084 
Q 3081 4231 2675 4231 
Q 1875 4231 1450 3742 
Q 1025 3253 1025 2328 
Q 1025 1406 1450 917 
Q 1875 428 2675 428 
Q 3081 428 3442 575 
Q 3803 722 4122 1019 
L 4122 359 
Q 3791 134 3420 21 
Q 3050 -91 2638 -91 
Q 1578 -91 968 557 
Q 359 1206 359 2328 
Q 359 3453 968 4101 
Q 1578 4750 2638 4750 
Q 3056 4750 3426 4639 
Q 3797 4528 4122 4306 
z
" transform="scale(0.015625)"/>
       <path id="DejaVuSans-47" d="M 3809 666 
L 3809 1919 
L 2778 1919 
L 2778 2438 
L 4434 2438 
L 4434 434 
Q 4069 175 3628 42 
Q 3188 -91 2688 -91 
Q 1594 -91 976 548 
Q 359 1188 359 2328 
Q 359 3472 976 4111 
Q 1594 4750 2688 4750 
Q 3144 4750 3555 4637 
Q 3966 4525 4313 4306 
L 4313 3634 
Q 3963 3931 3569 4081 
Q 3175 4231 2741 4231 
Q 1884 4231 1454 3753 
Q 1025 3275 1025 2328 
Q 1025 1384 1454 906 
Q 1884 428 2741 428 
Q 3075 428 3337 486 
Q 3600 544 3809 666 
z
" transform="scale(0.015625)"/>
      </defs>
      <use xlink:href="#DejaVuSans-56"/>
      <use xlink:href="#DejaVuSans-61" x="60.658203"/>
      <use xlink:href="#DejaVuSans-72" x="121.9375"/>
      <use xlink:href="#DejaVuSans-69" x="163.050781"/>
      <use xlink:href="#DejaVuSans-61" x="190.833984"/>
      <use xlink:href="#DejaVuSans-6e" x="252.113281"/>
      <use xlink:href="#DejaVuSans-63" x="315.492188"/>
      <use xlink:href="#DejaVuSans-65" x="370.472656"/>
      <use xlink:href="#DejaVuSans-20" x="431.996094"/>
      <use xlink:href="#DejaVuSans-6f" x="463.783203"/>
      <use xlink:href="#DejaVuSans-66" x="524.964844"/>
      <use xlink:href="#DejaVuSans-20" x="560.169922"/>
      <use xlink:href="#DejaVuSans-4e" x="591.957031"/>
      <use xlink:href="#DejaVuSans-44" x="666.761719"/>
      <use xlink:href="#DejaVuSans-43" x="743.763672"/>
      <use xlink:href="#DejaVuSans-47" x="813.587891"/>
     </g>
    </g>
   </g>
   <g id="line2d_33">
    <path d="M -1 342.701165 
L 53.032658 342.701165 
L 53.148494 504.5539 
L 1012.041822 504.5539 
L 1012.041822 504.5539 
" clip-path="url(#pe1493f99d9)" style="fill: none; stroke: #000000; stroke-width: 5; stroke-linecap: square"/>
    <defs>
     <path id="mdb249e6435" d="M 0 17.67767 
L 17.67767 0 
L 0 -17.67767 
L -17.67767 0 
z
" style="stroke: #000000; stroke-linejoin: miter"/>
    </defs>
    <g clip-path="url(#pe1493f99d9)">
     <use xlink:href="#mdb249e6435" x="-1" y="187.209209" style="stroke: #000000; stroke-linejoin: miter"/>
     <use xlink:href="#mdb249e6435" x="84.308473" y="504.5539" style="stroke: #000000; stroke-linejoin: miter"/>
     <use xlink:href="#mdb249e6435" x="258.063002" y="504.5539" style="stroke: #000000; stroke-linejoin: miter"/>
     <use xlink:href="#mdb249e6435" x="431.817531" y="504.5539" style="stroke: #000000; stroke-linejoin: miter"/>
     <use xlink:href="#mdb249e6435" x="605.572061" y="504.5539" style="stroke: #000000; stroke-linejoin: miter"/>
     <use xlink:href="#mdb249e6435" x="779.32659" y="504.5539" style="stroke: #000000; stroke-linejoin: miter"/>
     <use xlink:href="#mdb249e6435" x="953.081119" y="504.5539" style="stroke: #000000; stroke-linejoin: miter"/>
    </g>
   </g>
   <g id="line2d_34">
    <path d="M 53.126124 -1 
L 53.148494 12.243391 
L 53.496003 12.587337 
L 53.727676 12.646684 
L 53.843512 12.726716 
L 54.075185 12.355991 
L 54.306858 12.413297 
L 54.538531 12.648577 
L 55.465221 12.740914 
L 55.696894 12.783724 
L 55.928567 12.745605 
L 56.391912 12.674875 
L 56.623585 12.524056 
L 57.08693 12.655966 
L 57.318603 12.743392 
L 57.897785 12.764482 
L 58.36113 12.494738 
L 58.592803 12.538681 
L 58.708639 12.430637 
L 58.940312 12.47363 
L 59.171985 12.477246 
L 59.403657 12.481648 
L 59.63533 12.723119 
L 59.867003 12.73742 
L 60.098676 12.822502 
L 60.90953 12.793437 
L 61.025366 12.845099 
L 61.141203 12.69275 
L 61.488712 12.718968 
L 61.952057 12.723629 
L 62.18373 13.182566 
L 62.762912 13.270603 
L 62.878748 13.407165 
L 63.110421 13.342647 
L 64.384621 13.532218 
L 64.616293 13.740074 
L 64.73213 13.726097 
L 64.847966 13.585819 
L 65.079639 13.641476 
L 65.311311 13.426268 
L 65.774657 13.438473 
L 66.122166 13.585951 
L 66.701348 13.55826 
L 66.93302 13.976276 
L 67.048857 13.95527 
L 67.164693 13.795181 
L 67.396366 13.916178 
L 67.628038 13.862349 
L 67.859711 13.67133 
L 68.091384 13.633586 
L 68.20722 13.835725 
L 68.438893 13.804885 
L 68.554729 13.988834 
L 68.670566 14.6495 
L 69.944765 14.572921 
L 70.176438 14.510259 
L 70.523947 14.083663 
L 70.871456 14.116523 
L 72.145656 14.254507 
L 72.377329 14.529559 
L 73.072347 14.384631 
L 73.30402 14.298463 
L 73.651529 14.41379 
L 74.114874 14.423513 
L 74.462383 14.44464 
L 75.620747 14.413742 
L 76.084092 14.390814 
L 76.431601 14.46546 
L 77.242456 14.270735 
L 78.169147 14.282379 
L 78.400819 13.925111 
L 78.516656 13.969998 
L 78.632492 14.545619 
L 78.980001 14.474229 
L 79.095837 14.702201 
L 79.32751 14.678666 
L 79.675019 14.894099 
L 79.790855 15.013694 
L 80.022528 14.881686 
L 80.485874 14.794672 
L 80.717546 14.779944 
L 81.412564 14.798235 
L 82.455092 14.825015 
L 82.570928 15.06249 
L 82.802601 15.010377 
L 83.034273 15.110179 
L 83.265946 14.881819 
L 83.497619 14.799017 
L 83.729291 14.787393 
L 84.192637 14.98794 
L 86.161855 15.037202 
L 86.393528 15.194727 
L 87.551891 15.175322 
L 87.667727 14.789835 
L 87.8994 14.770847 
L 88.131073 14.579371 
L 88.362746 14.56682 
L 88.478582 14.700407 
L 88.594418 14.431037 
L 89.289436 14.689147 
L 89.636945 14.635043 
L 90.100291 14.764812 
L 90.216127 14.768435 
L 90.4478 14.624148 
L 91.258654 14.684874 
L 91.490327 14.695568 
L 91.722 14.845643 
L 92.417018 14.775523 
L 92.532854 14.999003 
L 92.648691 14.977902 
L 92.764527 15.114666 
L 93.112036 15.032213 
L 93.343709 15.03963 
L 93.459545 14.929189 
L 94.154563 15.133619 
L 94.617909 15.065242 
L 94.849581 15.224719 
L 95.312927 15.179938 
L 96.587127 15.179069 
L 96.818799 15.035484 
L 98.440508 14.882322 
L 98.672181 15.019692 
L 99.251363 15.066069 
L 99.367199 15.086728 
L 99.598872 14.890728 
L 99.830544 14.947293 
L 100.409726 15.055256 
L 100.873072 14.989778 
L 100.988908 15.225948 
L 101.220581 15.248361 
L 102.378944 15.119826 
L 103.421471 15.322211 
L 103.76898 15.212145 
L 104.11649 15.341212 
L 104.695671 15.361389 
L 104.811508 15.260749 
L 105.04318 15.271003 
L 105.854035 15.358051 
L 105.969871 15.298126 
L 106.201544 15.415627 
L 107.128235 15.257449 
L 107.475744 15.013593 
L 108.054926 15.136557 
L 108.402435 15.242945 
L 108.981616 15.309411 
L 109.213289 15.080799 
L 109.444962 15.088101 
L 109.676634 14.71232 
L 109.792471 14.847939 
L 110.024144 14.602421 
L 110.487489 14.603425 
L 110.834998 14.568398 
L 111.066671 14.886766 
L 112.804216 15.11403 
L 112.920052 15.161316 
L 113.151725 15.571649 
L 113.499234 15.537475 
L 114.541761 15.164695 
L 114.657598 15.323661 
L 115.236779 15.237557 
L 115.468452 15.321416 
L 115.584288 15.326051 
L 115.815961 15.483276 
L 116.047634 15.668761 
L 117.205997 15.704367 
L 117.785179 15.995563 
L 118.248525 16.059764 
L 118.596034 16.189999 
L 119.754397 16.194969 
L 119.98607 15.645119 
L 120.333579 15.730123 
L 120.681088 15.762929 
L 121.144433 15.705689 
L 121.26027 16.066524 
L 121.607779 16.086608 
L 121.955288 16.228751 
L 123.229488 16.182827 
L 123.576997 16.38583 
L 123.692833 16.356368 
L 123.924506 16.688509 
L 124.967033 16.600309 
L 125.198706 16.62736 
L 125.430378 16.615165 
L 125.662051 16.708912 
L 125.777888 16.713047 
L 126.125397 16.96766 
L 126.704578 16.879732 
L 127.052087 16.89845 
L 127.28376 17.070451 
L 127.747106 17.087587 
L 128.094615 17.128605 
L 129.484651 17.048369 
L 129.716324 17.22019 
L 130.411342 17.111562 
L 130.527178 17.147738 
L 130.643014 17.029954 
L 130.874687 17.12658 
L 131.917214 16.962493 
L 132.38056 17.025945 
L 133.075578 17.13419 
L 134.813123 16.959354 
L 135.160632 17.03597 
L 135.276468 16.990925 
L 135.508141 17.088841 
L 135.739814 17.091421 
L 136.087323 16.987519 
L 136.434832 16.969793 
L 136.550668 17.939991 
L 136.666505 17.956402 
L 136.898177 18.084482 
L 137.12985 18.102122 
L 137.245686 18.043545 
L 137.361523 18.372631 
L 137.709032 18.412798 
L 137.824868 18.446777 
L 138.056541 18.593618 
L 140.489104 18.510765 
L 141.068286 18.452575 
L 141.299959 18.602338 
L 141.415795 18.504093 
L 141.531631 18.554985 
L 141.647468 19.113413 
L 141.879141 19.044823 
L 142.110813 19.257821 
L 142.574159 19.214385 
L 142.805831 19.13747 
L 142.921668 19.209071 
L 143.15334 19.450095 
L 143.848359 19.481413 
L 144.080031 19.589646 
L 144.890886 19.55049 
L 145.006722 19.211473 
L 145.70174 19.224898 
L 147.091776 19.01081 
L 147.323449 19.02321 
L 147.555122 18.871204 
L 147.902631 18.892611 
L 148.25014 18.852056 
L 148.365976 19.181599 
L 149.408503 19.088451 
L 149.640176 19.240712 
L 149.871849 19.176667 
L 150.103522 19.3057 
L 150.682703 19.233516 
L 150.79854 19.514974 
L 151.146049 19.55077 
L 151.493558 19.658915 
L 152.420249 19.456439 
L 152.651921 19.563028 
L 152.883594 19.552714 
L 153.115267 19.47936 
L 153.462776 19.449578 
L 153.694449 19.440658 
L 154.157794 19.229022 
L 154.621139 19.273212 
L 154.736976 19.113228 
L 154.968648 19.142035 
L 155.431994 18.726999 
L 156.011176 18.621956 
L 156.127012 18.506536 
L 156.358685 18.574244 
L 156.590357 18.526692 
L 156.82203 18.255375 
L 156.937866 18.329872 
L 157.169539 18.26365 
L 157.632885 18.333353 
L 157.748721 18.142524 
L 158.675412 18.558357 
L 159.949612 18.567549 
L 160.297121 18.856563 
L 160.528793 18.91516 
L 160.64463 19.321405 
L 160.876302 19.379321 
L 161.107975 19.414451 
L 161.455484 19.381056 
L 162.382175 19.409776 
L 162.613848 19.587868 
L 163.077193 19.603574 
L 163.424702 19.377048 
L 163.888048 19.446749 
L 164.11972 19.431429 
L 165.162247 19.463809 
L 165.39392 19.287335 
L 168.058156 19.416588 
L 168.405665 19.078712 
L 168.637338 18.9243 
L 170.143211 18.630034 
L 170.374883 19.012576 
L 171.301574 19.007676 
L 171.996592 18.991338 
L 172.575774 19.109053 
L 172.923283 18.947558 
L 174.081647 19.059656 
L 175.24001 19.339113 
L 175.471683 19.414484 
L 176.745883 19.406077 
L 176.977555 19.443572 
L 178.135919 19.205437 
L 178.367592 19.253409 
L 178.830937 19.152122 
L 179.757628 19.145244 
L 181.031828 19.019688 
L 181.61101 19.264134 
L 181.726846 19.173594 
L 181.958519 19.327133 
L 182.306028 19.265974 
L 182.421864 19.295952 
L 182.5377 19.743193 
L 183.464391 19.715332 
L 183.8119 19.768772 
L 183.927737 19.765404 
L 184.159409 19.857519 
L 184.622755 19.863376 
L 184.738591 19.864097 
L 184.970264 20.127781 
L 185.201936 20.139275 
L 185.549446 20.219495 
L 186.012791 20.268688 
L 186.244464 19.604018 
L 188.9087 19.667654 
L 189.140372 19.352709 
L 189.487882 19.389602 
L 189.603718 19.31634 
L 189.719554 19.47252 
L 190.067063 19.339379 
L 190.646245 19.273885 
L 190.877918 19.27035 
L 190.993754 19.286896 
L 191.225427 19.042491 
L 192.036281 18.869788 
L 192.152118 19.313035 
L 192.38379 19.321618 
L 192.731299 19.311242 
L 192.962972 19.153694 
L 193.194645 18.613367 
L 193.773827 18.552795 
L 194.005499 18.392425 
L 194.237172 18.393766 
L 194.468845 18.548005 
L 194.584681 18.421666 
L 194.816354 18.70501 
L 195.163863 18.778457 
L 195.627208 18.834225 
L 195.743045 19.028461 
L 196.20639 18.837465 
L 196.553899 18.858995 
L 196.901408 18.839901 
L 197.133081 19.026658 
L 197.828099 19.038633 
L 198.291444 19.017115 
L 198.638953 19.317767 
L 198.870626 19.309652 
L 199.102299 19.218464 
L 199.333972 19.24897 
L 199.681481 19.304299 
L 199.913153 19.215601 
L 200.260662 19.276772 
L 200.492335 19.511716 
L 200.839844 19.471686 
L 202.22988 19.562085 
L 202.461553 19.287025 
L 202.809062 19.325946 
L 203.040735 19.523774 
L 205.009953 19.673012 
L 205.704971 19.723926 
L 205.820807 19.658507 
L 206.05248 19.820991 
L 207.674189 19.754352 
L 208.021698 19.798333 
L 208.369207 19.596818 
L 208.60088 19.589106 
L 209.527571 19.731069 
L 209.87508 19.673951 
L 209.990916 19.842294 
L 210.80177 19.710373 
L 211.149279 19.713742 
L 211.265116 19.428626 
L 212.423479 19.422384 
L 213.35017 19.490674 
L 213.581843 19.74383 
L 213.813516 19.874107 
L 214.161025 19.865955 
L 214.856043 20.008887 
L 215.203552 19.955036 
L 215.551061 19.961679 
L 215.782734 19.857682 
L 216.130243 19.918291 
L 216.477752 19.875146 
L 217.636115 19.912822 
L 217.751952 19.690162 
L 218.331133 19.707461 
L 218.678642 19.721301 
L 220.532024 19.66473 
L 220.763697 19.581652 
L 220.995369 19.813215 
L 221.227042 19.732032 
L 221.574551 19.758292 
L 222.964587 19.946585 
L 223.080424 20.263676 
L 223.19626 20.20773 
L 223.427933 20.384466 
L 225.976333 20.671932 
L 226.208005 20.891282 
L 227.01886 20.812109 
L 227.366369 21.102264 
L 227.945551 21.095827 
L 228.177223 21.283684 
L 228.640569 21.348425 
L 228.872241 21.128089 
L 229.103914 21.02875 
L 229.335587 21.06394 
L 229.451423 20.784358 
L 229.683096 20.895028 
L 229.914769 20.916718 
L 230.146441 21.150408 
L 231.304805 21.009896 
L 231.536478 21.13904 
L 231.652314 21.139634 
L 231.883987 20.906124 
L 234.084877 20.977663 
L 234.432386 21.250373 
L 235.127404 21.354172 
L 235.59075 21.550069 
L 235.822423 21.89476 
L 236.285768 21.841853 
L 236.401604 21.49762 
L 236.749113 21.545208 
L 236.980786 21.446569 
L 237.559968 21.613689 
L 239.992531 21.4579 
L 240.224204 21.692329 
L 240.455877 21.594768 
L 240.571713 21.632743 
L 240.803386 21.55385 
L 241.730077 21.595761 
L 242.656767 21.680586 
L 242.88844 21.910742 
L 243.930967 21.880379 
L 244.394313 21.769193 
L 244.857658 21.808724 
L 245.089331 21.898073 
L 245.321004 21.85819 
L 245.552676 22.14865 
L 245.668513 22.269211 
L 246.016022 22.094441 
L 246.247694 21.912962 
L 247.174385 21.893412 
L 247.406058 22.029615 
L 247.753567 22.13698 
L 247.869403 22.199086 
L 248.332749 21.994382 
L 250.070294 21.91172 
L 250.765312 21.866133 
L 251.344494 22.132044 
L 252.155348 22.151788 
L 252.502857 21.858853 
L 252.618694 21.879262 
L 252.73453 21.500402 
L 253.082039 21.530363 
L 253.313712 21.554107 
L 255.051257 21.590942 
L 255.167094 21.823249 
L 255.514603 21.674474 
L 255.630439 21.872251 
L 256.325457 21.76983 
L 256.672966 21.863012 
L 257.367984 21.923521 
L 257.599657 21.951017 
L 257.83133 21.734169 
L 259.337202 21.734623 
L 259.684711 21.756792 
L 260.379729 21.649662 
L 260.958911 21.639803 
L 262.001438 21.484399 
L 262.117275 21.07296 
L 262.464784 21.204703 
L 262.812293 21.279448 
L 263.159802 21.353152 
L 263.623147 21.349013 
L 263.85482 21.444377 
L 264.202329 21.47944 
L 264.434002 21.623134 
L 265.360693 21.637874 
L 265.476529 21.615234 
L 265.708202 21.719485 
L 265.939874 21.613959 
L 266.171547 21.549516 
L 266.40322 21.646958 
L 266.866565 21.789539 
L 267.098238 21.630006 
L 267.329911 21.656834 
L 267.793256 21.438791 
L 269.183292 21.547027 
L 269.87831 21.531797 
L 270.109983 21.408125 
L 270.341656 21.887756 
L 271.731692 21.715151 
L 272.195037 21.87414 
L 272.42671 21.993685 
L 273.70091 21.956855 
L 273.932583 21.853973 
L 274.859273 21.832118 
L 275.206783 21.710449 
L 275.670128 21.56435 
L 275.901801 21.679139 
L 276.365146 21.724271 
L 276.596819 21.633382 
L 276.828491 21.716704 
L 277.176001 21.687096 
L 277.639346 21.706983 
L 277.871019 21.569373 
L 278.913546 21.67979 
L 279.145219 21.795128 
L 279.376891 21.762935 
L 280.766927 21.798281 
L 281.346109 21.768729 
L 282.504473 21.871001 
L 282.851982 22.028501 
L 282.967818 22.025225 
L 283.199491 22.215971 
L 283.431164 22.08721 
L 283.778673 22.187688 
L 284.126182 22.254418 
L 284.357854 22.476924 
L 284.589527 22.611383 
L 285.168709 22.437682 
L 285.400382 22.598222 
L 286.790418 22.557107 
L 287.022091 22.483502 
L 287.717109 22.526844 
L 287.948781 22.666186 
L 288.875472 22.720328 
L 288.991309 22.949606 
L 289.57049 22.920971 
L 290.497181 22.900077 
L 290.728854 22.895012 
L 291.539708 22.801203 
L 291.771381 22.765174 
L 292.003054 22.830451 
L 293.740599 22.858669 
L 293.856435 22.858008 
L 294.088108 22.742393 
L 294.783126 22.615206 
L 295.014799 22.833663 
L 295.246472 22.918413 
L 295.478144 22.822494 
L 295.709817 22.888032 
L 295.825653 22.924849 
L 295.94149 22.735834 
L 296.636508 22.849349 
L 297.099853 22.862194 
L 297.563199 23.389036 
L 297.910708 23.069698 
L 298.026544 23.114768 
L 298.837399 22.703216 
L 299.648253 22.608391 
L 299.879926 22.943825 
L 300.227435 22.873336 
L 300.459107 22.552157 
L 301.038289 22.520371 
L 301.269962 22.412722 
L 302.428325 22.285214 
L 302.891671 22.28767 
L 303.470853 22.209588 
L 303.702525 22.236839 
L 303.818362 22.104733 
L 304.050034 22.659313 
L 304.165871 22.563088 
L 304.281707 22.789981 
L 304.629216 22.701199 
L 305.092562 22.759489 
L 306.019252 22.505512 
L 306.250925 22.612403 
L 306.71427 22.613486 
L 306.945943 22.668706 
L 307.06178 22.647033 
L 307.177616 22.797528 
L 307.409289 22.715737 
L 307.98847 22.826855 
L 308.567652 22.751712 
L 308.683488 22.445275 
L 308.915161 22.470652 
L 309.146834 22.188301 
L 310.073525 22.213548 
L 310.305197 22.428928 
L 311.579397 22.550809 
L 311.695234 22.428839 
L 311.926906 22.527836 
L 312.042743 22.51102 
L 312.158579 22.263325 
L 312.621924 22.28387 
L 312.853597 22.268155 
L 313.08527 22.35052 
L 313.316943 22.298221 
L 313.548615 22.37462 
L 314.243633 22.363603 
L 314.475306 22.46447 
L 315.865342 22.543246 
L 316.212851 22.799645 
L 316.676197 22.945988 
L 316.90787 23.044574 
L 317.139542 23.015097 
L 317.371215 23.021934 
L 317.602888 23.28756 
L 318.645415 23.454559 
L 319.10876 23.567878 
L 320.498796 23.508383 
L 320.730469 23.549768 
L 321.077978 23.492006 
L 321.193815 23.576459 
L 321.425487 23.536231 
L 321.772996 23.52058 
L 322.004669 23.451201 
L 322.236342 23.593669 
L 322.468014 23.705994 
L 322.815524 23.677935 
L 323.394705 23.551304 
L 323.742214 23.621058 
L 323.858051 23.598423 
L 324.089723 23.717485 
L 325.016414 23.496533 
L 325.248087 23.616577 
L 327.448978 23.496283 
L 328.491505 23.385434 
L 328.607341 23.708914 
L 328.723178 23.682876 
L 328.95485 23.460548 
L 330.924068 23.668233 
L 331.271577 23.850737 
L 334.283322 23.772149 
L 334.978341 23.638559 
L 335.210013 23.7942 
L 335.32585 23.856767 
L 335.441686 24.204936 
L 335.557522 24.182801 
L 335.789195 24.317434 
L 336.25254 24.396563 
L 336.715886 24.323048 
L 337.063395 24.311188 
L 337.642577 24.345285 
L 337.874249 24.363667 
L 338.221758 24.312845 
L 338.685104 24.425148 
L 338.916777 24.303004 
L 339.148449 24.372679 
L 339.264286 24.354374 
L 339.495958 24.571538 
L 340.422649 24.646829 
L 340.885995 24.724204 
L 341.001831 24.612244 
L 341.117667 24.66135 
L 341.34934 24.960291 
L 342.044358 25.119444 
L 342.62354 25.144377 
L 343.318558 25.107914 
L 343.434394 25.029861 
L 343.666067 25.132017 
L 344.129412 25.376434 
L 344.361085 25.301013 
L 344.824431 25.3544 
L 345.056103 25.189517 
L 345.866958 25.210601 
L 346.214467 25.118751 
L 347.256994 25.058496 
L 347.488667 25.090327 
L 348.067848 25.056685 
L 348.531194 25.043822 
L 348.762867 25.201612 
L 349.573721 25.153565 
L 349.805394 25.043729 
L 350.500412 25.032608 
L 350.616248 24.598138 
L 350.847921 24.629068 
L 350.963757 24.829018 
L 351.19543 24.857757 
L 351.774612 24.940087 
L 352.46963 25.015118 
L 352.585466 25.080263 
L 352.932975 24.898425 
L 353.512157 24.983982 
L 353.74383 24.857353 
L 354.091339 24.86247 
L 354.323011 24.948372 
L 354.670521 25.030463 
L 356.523902 25.674244 
L 356.871411 25.626021 
L 357.103084 25.605519 
L 357.334757 25.817466 
L 357.798102 25.852344 
L 358.029775 25.94899 
L 358.49312 25.720674 
L 359.535647 25.685253 
L 359.883156 25.676835 
L 360.230665 25.528587 
L 360.925684 25.42509 
L 361.157356 25.457732 
L 361.389029 25.421267 
L 361.620702 25.350869 
L 362.894902 25.496103 
L 363.242411 25.60833 
L 363.58992 25.559479 
L 363.821592 25.704371 
L 364.169101 25.636247 
L 364.516611 25.459834 
L 364.632447 25.446277 
L 364.748283 25.591137 
L 365.211629 25.525845 
L 365.559138 25.421417 
L 365.906647 25.393022 
L 366.022483 25.447428 
L 366.254156 25.305613 
L 366.601665 25.33691 
L 367.760028 25.375025 
L 367.991701 25.113361 
L 368.223374 25.103742 
L 369.61341 25.180439 
L 369.729246 25.194643 
L 369.960919 25.388945 
L 370.308428 25.448285 
L 371.003446 25.483639 
L 371.350955 25.517301 
L 372.277646 25.510467 
L 372.509319 25.630725 
L 373.088501 25.428405 
L 374.015191 25.350388 
L 375.289391 25.231171 
L 375.6369 25.34663 
L 375.984409 25.25937 
L 376.216082 25.267414 
L 376.679428 25.294492 
L 376.795264 25.489686 
L 377.142773 25.462801 
L 377.490282 25.755368 
L 377.606118 25.713863 
L 377.721955 25.860312 
L 378.1853 25.810339 
L 378.532809 25.965911 
L 378.996155 25.92512 
L 379.227827 26.067841 
L 379.922845 26.034964 
L 380.270354 26.15561 
L 380.617864 26.127136 
L 380.849536 26.285411 
L 381.428718 26.332108 
L 381.544554 26.231791 
L 381.660391 26.292126 
L 382.0079 26.038464 
L 382.471245 26.185086 
L 382.702918 26.121725 
L 383.166263 26.130697 
L 383.397936 26.216153 
L 383.629609 26.02057 
L 383.861281 26.046782 
L 384.092954 25.944986 
L 384.672136 25.956926 
L 384.903809 25.811855 
L 385.135481 25.788369 
L 385.251318 25.696718 
L 385.367154 25.748061 
L 385.714663 25.570889 
L 388.610572 25.570645 
L 388.726408 25.868048 
L 388.958081 25.856625 
L 389.653099 25.810928 
L 389.884772 25.842852 
L 390.116444 26.135869 
L 390.57979 26.072034 
L 390.927299 26.099675 
L 391.158972 26.231047 
L 391.390644 26.130952 
L 391.622317 26.003289 
L 392.085662 25.983584 
L 393.012353 26.078478 
L 393.359862 26.184258 
L 393.591535 26.20243 
L 393.823208 26.327838 
L 393.939044 26.320594 
L 394.170717 26.16456 
L 394.634062 26.278991 
L 396.139935 26.363972 
L 396.371608 26.25341 
L 397.87748 26.266373 
L 398.224989 26.351945 
L 398.804171 26.46445 
L 399.15168 26.622003 
L 399.383353 26.693205 
L 399.846698 26.841042 
L 400.194207 26.753641 
L 401.584243 26.712524 
L 401.815916 26.937889 
L 402.97428 26.834477 
L 403.437625 26.918412 
L 403.669298 26.875729 
L 404.132643 26.898769 
L 404.595989 26.832145 
L 404.943498 26.878675 
L 405.17517 26.810055 
L 406.217698 26.649813 
L 406.44937 26.327636 
L 406.912716 26.392552 
L 407.260225 26.340221 
L 407.72357 26.433984 
L 408.071079 26.452425 
L 408.534425 26.359448 
L 408.766097 26.531714 
L 408.881934 26.487075 
L 409.113606 26.586986 
L 409.345279 26.478788 
L 409.576952 27.008152 
L 411.082824 26.895709 
L 411.54617 26.776736 
L 412.936206 26.978901 
L 413.167879 27.051078 
L 413.399551 27.481792 
L 413.515388 27.510606 
L 413.631224 27.416917 
L 413.978733 27.497268 
L 414.094569 27.480296 
L 414.210406 27.591637 
L 414.442079 27.323298 
L 415.252933 27.397861 
L 415.484606 27.541587 
L 417.222151 27.687925 
L 417.801333 27.660589 
L 418.148842 27.649518 
L 418.380515 27.571333 
L 419.654714 27.533317 
L 421.739769 27.463385 
L 421.855605 27.507379 
L 422.087278 27.712148 
L 422.66646 27.705733 
L 422.898132 27.610581 
L 424.172332 27.583355 
L 424.404005 27.614694 
L 424.635678 27.415396 
L 425.909877 27.34883 
L 426.025714 27.050472 
L 427.763259 27.142012 
L 428.226605 27.014482 
L 428.574114 27.021782 
L 428.68995 26.757921 
L 429.384968 26.917669 
L 429.616641 26.998772 
L 430.311659 27.093639 
L 430.543332 27.442716 
L 431.701695 27.234067 
L 432.049204 27.221674 
L 432.628386 27.059973 
L 433.902586 27.576639 
L 434.134259 27.490538 
L 434.597604 27.481513 
L 437.377676 27.175913 
L 437.609349 27.277022 
L 437.956858 27.31446 
L 438.188531 27.639158 
L 438.651876 27.596682 
L 438.999385 27.640431 
L 439.231058 27.292632 
L 439.462731 27.521105 
L 439.81024 27.557565 
L 440.041913 27.402483 
L 440.157749 27.421138 
L 440.389422 27.781626 
L 442.937821 27.800983 
L 443.28533 27.668708 
L 443.517003 27.719078 
L 443.748676 27.493213 
L 443.864512 27.494768 
L 444.096185 27.637286 
L 445.138712 27.642807 
L 445.370385 27.759511 
L 445.949566 27.783934 
L 448.034621 27.746205 
L 448.266294 27.705335 
L 448.613803 27.646525 
L 448.845475 27.835601 
L 449.424657 27.858036 
L 449.65633 27.95911 
L 450.119675 28.030691 
L 450.351348 28.109569 
L 451.162202 28.069 
L 451.393875 28.303333 
L 451.741384 28.322912 
L 451.973057 28.315669 
L 452.20473 28.24554 
L 453.594766 28.176008 
L 454.173948 28.226627 
L 454.521457 28.477039 
L 454.984802 28.487873 
L 455.216475 28.587174 
L 455.563984 28.523433 
L 455.795656 28.674479 
L 456.027329 28.654599 
L 456.722347 28.686853 
L 456.838184 28.763103 
L 457.069856 28.715296 
L 457.417365 28.840458 
L 457.880711 28.983571 
L 458.459893 28.897271 
L 458.691565 28.741559 
L 459.154911 28.825154 
L 459.270747 28.954576 
L 459.618256 28.909645 
L 459.965765 28.954155 
L 460.197438 29.226615 
L 461.587474 29.382656 
L 461.70331 29.429263 
L 461.934983 29.731271 
L 462.514165 29.733961 
L 462.861674 29.634609 
L 463.093347 29.501808 
L 463.788365 29.557958 
L 464.020038 29.455461 
L 465.178401 29.443291 
L 465.641746 29.557408 
L 466.684274 29.545195 
L 466.80011 29.292824 
L 467.263455 29.35884 
L 468.421819 29.134066 
L 469.001001 29.235805 
L 469.696019 29.185339 
L 469.811855 29.067187 
L 470.159364 29.184623 
L 470.738546 29.103844 
L 471.781073 29.13815 
L 472.244419 29.315521 
L 472.591928 29.290172 
L 472.8236 29.321859 
L 473.518618 29.283098 
L 474.908655 29.508898 
L 475.140327 29.40572 
L 475.951182 29.213805 
L 477.804563 29.309616 
L 478.036236 29.341966 
L 478.267909 29.326483 
L 478.499582 29.585607 
L 478.847091 29.642394 
L 478.962927 29.386078 
L 479.1946 29.401797 
L 479.310436 29.834444 
L 479.542109 29.696811 
L 480.352963 29.828753 
L 480.700472 29.85139 
L 480.816309 30.115676 
L 481.047981 29.838815 
L 482.322181 29.921994 
L 483.017199 30.148096 
L 483.596381 30.137226 
L 483.828054 30.381033 
L 484.291399 30.452173 
L 485.102254 30.330198 
L 485.333926 30.352436 
L 485.681435 30.324614 
L 485.913108 30.198264 
L 486.260617 30.200513 
L 486.723963 30.265592 
L 487.418981 30.155941 
L 488.693181 30.180726 
L 488.809017 30.366962 
L 489.04069 30.250164 
L 489.272362 30.334167 
L 489.619871 30.439998 
L 490.083217 30.427068 
L 490.199053 30.256568 
L 490.894071 30.341835 
L 491.009908 30.339162 
L 491.125744 30.196179 
L 491.473253 30.384086 
L 493.674144 30.579398 
L 493.905817 30.555104 
L 494.137489 30.699461 
L 494.484998 30.658192 
L 495.643362 30.621998 
L 495.875035 30.470459 
L 497.033398 30.439852 
L 497.265071 30.585103 
L 497.496743 30.663589 
L 497.728416 30.520499 
L 498.075925 30.71858 
L 499.813471 30.759669 
L 500.855998 30.502856 
L 501.551016 30.606012 
L 501.898525 30.531066 
L 502.593543 30.456066 
L 502.825216 30.518769 
L 505.952797 30.786356 
L 506.068634 30.856067 
L 506.763652 30.452672 
L 507.111161 30.497925 
L 507.342833 30.487556 
L 507.574506 30.331038 
L 507.922015 30.381077 
L 508.269524 30.423147 
L 508.617033 30.498041 
L 509.312051 30.553885 
L 509.543724 30.655058 
L 509.891233 30.663638 
L 510.238742 30.629911 
L 510.702088 30.618372 
L 512.092124 30.871195 
L 512.323797 30.771516 
L 512.787142 30.817915 
L 513.48216 30.870784 
L 513.597996 31.129067 
L 513.945506 31.156252 
L 514.293015 31.229452 
L 514.872196 31.168965 
L 514.988033 31.103341 
L 515.219705 31.156947 
L 516.262233 31.167562 
L 517.073087 31.20468 
L 517.188923 30.884096 
L 517.420596 30.926402 
L 518.57896 30.974834 
L 519.85316 30.985146 
L 520.084832 31.185705 
L 520.316505 31.175512 
L 521.359032 31.251779 
L 521.938214 31.197721 
L 522.169887 30.644737 
L 522.517396 30.656834 
L 522.633232 30.643092 
L 522.864905 30.98483 
L 523.212414 30.921234 
L 523.444086 31.012446 
L 523.675759 30.747795 
L 525.413304 30.880692 
L 525.760814 30.940069 
L 525.992486 30.984941 
L 526.224159 31.089573 
L 526.339995 31.055939 
L 526.571668 31.191271 
L 527.498359 31.279629 
L 527.730032 31.362686 
L 528.193377 31.397316 
L 528.309213 31.056951 
L 528.656722 31.063957 
L 528.888395 30.99851 
L 529.120068 30.821585 
L 529.467577 30.876689 
L 529.69925 30.990985 
L 530.046759 31.00764 
L 530.62594 30.948678 
L 530.857613 30.893226 
L 531.552631 30.986629 
L 532.015977 30.96285 
L 532.247649 30.925161 
L 532.363486 30.948971 
L 532.595158 30.751539 
L 533.058504 30.77767 
L 533.17434 30.640269 
L 533.406013 30.669049 
L 533.869358 30.752668 
L 534.332704 30.773014 
L 534.680213 30.735657 
L 535.491067 30.758912 
L 535.606904 30.688211 
L 535.838576 30.361274 
L 535.954413 30.362916 
L 536.186085 30.55617 
L 536.99694 30.592522 
L 537.228612 30.705166 
L 537.923631 30.690231 
L 539.777012 30.802658 
L 540.356194 30.727305 
L 540.47203 31.095884 
L 540.587867 31.076061 
L 540.703703 30.870289 
L 540.935376 30.950161 
L 542.093739 30.963997 
L 542.672921 30.949533 
L 542.904594 31.170988 
L 543.136266 31.198073 
L 543.367939 31.264096 
L 543.831285 31.277915 
L 544.526303 31.250243 
L 544.757975 31.52265 
L 545.56883 31.67302 
L 545.800503 31.875253 
L 546.032175 31.947042 
L 546.148012 31.901135 
L 546.379684 32.09767 
L 547.306375 31.984102 
L 547.653884 31.901746 
L 548.696411 32.003319 
L 549.159757 31.933626 
L 549.854775 31.963453 
L 550.086448 32.123476 
L 550.549793 32.199703 
L 550.781466 32.66357 
L 550.897302 32.571563 
L 551.59232 32.868843 
L 552.519011 32.882937 
L 552.750684 32.462366 
L 553.329865 32.533767 
L 553.561538 32.60655 
L 553.793211 32.603593 
L 554.024884 32.729629 
L 554.256556 32.720575 
L 554.719902 32.811759 
L 554.951574 32.920209 
L 555.41492 32.953654 
L 555.530756 32.911177 
L 555.646593 33.15599 
L 555.878265 33.106159 
L 557.384138 33.197884 
L 557.731647 33.233425 
L 558.774174 33.198093 
L 559.121683 32.920319 
L 559.700865 32.822677 
L 559.932538 32.778728 
L 560.395883 32.892734 
L 560.627556 32.756807 
L 561.785919 32.966243 
L 562.017592 32.80841 
L 562.480937 32.786322 
L 562.71261 33.055031 
L 565.492683 33.223268 
L 565.608519 33.055155 
L 565.840192 33.158854 
L 566.187701 33.117227 
L 566.419373 33.007403 
L 567.114391 33.034367 
L 567.230228 32.502236 
L 569.199446 32.439787 
L 569.546955 32.468746 
L 569.662791 32.411296 
L 569.894464 32.560514 
L 570.126137 32.579385 
L 570.473646 32.971805 
L 570.589482 32.887342 
L 571.052827 33.059637 
L 571.400337 33.18606 
L 571.863682 33.375846 
L 573.948736 33.301788 
L 574.991263 33.197765 
L 575.222936 33.348346 
L 575.454609 33.193945 
L 575.802118 33.260425 
L 575.917954 33.180832 
L 576.149627 33.215803 
L 576.612972 33.154481 
L 576.960481 33.150646 
L 577.307991 33.169521 
L 577.6555 33.109377 
L 577.887172 33.149833 
L 578.003009 33.173016 
L 578.234681 33.781372 
L 578.929699 33.831329 
L 579.972227 33.917765 
L 580.203899 33.809168 
L 580.898917 33.761531 
L 581.246426 33.701814 
L 581.825608 33.790856 
L 582.057281 33.950242 
L 582.288954 33.941784 
L 582.520626 34.102464 
L 583.331481 34.025565 
L 583.67899 34.016031 
L 583.910663 34.123159 
L 584.489844 34.159499 
L 584.837353 34.34017 
L 585.879881 34.429505 
L 590.049989 34.651918 
L 590.629171 34.86235 
L 590.860844 34.883593 
L 591.092516 35.221004 
L 592.135044 35.224235 
L 592.830062 35.133765 
L 593.061734 34.869589 
L 593.293407 34.855091 
L 593.409244 35.069725 
L 593.52508 35.0105 
L 593.640916 35.156381 
L 593.872589 35.120738 
L 594.567607 35.228894 
L 595.378462 35.095781 
L 596.884334 34.989507 
L 597.00017 35.275755 
L 597.811025 35.241379 
L 598.27437 35.328776 
L 598.737716 35.107412 
L 599.316898 35.104542 
L 599.780243 35.043375 
L 603.139497 35.272956 
L 603.718679 35.145969 
L 604.066188 35.104907 
L 604.413697 35.163407 
L 604.761206 35.038824 
L 604.992879 34.86555 
L 605.456224 34.740819 
L 605.803733 34.776768 
L 606.382915 34.720741 
L 609.510497 34.72561 
L 609.742169 35.057423 
L 611.94306 35.035967 
L 612.290569 35.432066 
L 613.796442 35.524012 
L 614.143951 35.428335 
L 614.838969 35.254168 
L 615.070641 35.117843 
L 615.997332 35.192637 
L 616.344841 35.238872 
L 617.271532 35.369845 
L 617.850714 35.508175 
L 618.314059 35.503276 
L 618.545732 35.552868 
L 618.777405 35.499336 
L 619.124914 35.526464 
L 619.24075 35.42853 
L 619.472423 35.561785 
L 620.167441 35.836934 
L 621.78915 35.935248 
L 622.484168 36.037873 
L 622.715841 35.961755 
L 623.990041 35.861639 
L 624.221713 36.149914 
L 624.685059 36.114372 
L 625.032568 36.101039 
L 625.61175 36.110908 
L 626.306768 36.052574 
L 627.696804 35.884174 
L 627.928477 35.778803 
L 628.160149 35.8539 
L 628.971004 35.815984 
L 629.434349 35.752439 
L 630.245204 35.782106 
L 630.36104 35.778148 
L 630.476876 35.929835 
L 630.708549 35.930352 
L 631.171895 35.941495 
L 631.403567 36.401201 
L 631.751076 36.473148 
L 631.982749 36.511387 
L 632.446094 36.499913 
L 633.836131 36.657262 
L 634.531149 36.658381 
L 635.226167 36.68282 
L 635.45784 36.847355 
L 635.921185 36.835503 
L 636.38453 36.806579 
L 636.616203 37.101827 
L 637.195385 37.115426 
L 637.311221 37.099502 
L 637.427058 37.508155 
L 638.122076 37.356783 
L 638.353748 37.241497 
L 638.585421 37.361215 
L 638.817094 37.246578 
L 639.512112 37.269745 
L 639.743785 37.162726 
L 639.975457 37.173753 
L 640.091294 37.132463 
L 640.322966 37.373731 
L 644.145566 37.419916 
L 644.493075 37.491932 
L 644.724748 37.424103 
L 645.072257 37.431079 
L 646.578129 37.499674 
L 647.157311 37.50546 
L 647.388984 37.45201 
L 647.620657 37.490975 
L 647.852329 37.613473 
L 649.358202 37.642558 
L 649.821547 37.875518 
L 650.169056 37.83254 
L 650.284893 37.8571 
L 650.516565 37.788731 
L 651.443256 38.009913 
L 651.790765 38.046594 
L 651.906602 38.316183 
L 652.485783 38.114662 
L 652.949129 38.055583 
L 653.528311 38.144881 
L 653.991656 38.123643 
L 654.455001 38.18182 
L 654.918347 38.16479 
L 655.381692 38.191789 
L 655.497529 38.188412 
L 655.729201 38.525413 
L 657.698419 38.478553 
L 657.814256 38.447882 
L 658.277601 39.030159 
L 658.62511 38.985747 
L 658.856783 39.211809 
L 659.088456 39.075829 
L 659.320128 39.034869 
L 659.551801 39.304733 
L 659.783474 39.267428 
L 660.246819 39.284053 
L 660.594328 39.244126 
L 661.17351 39.267955 
L 661.521019 39.341716 
L 661.984364 39.539326 
L 662.44771 39.390858 
L 663.142728 39.31531 
L 663.374401 39.521963 
L 666.386146 39.509095 
L 666.617818 39.231943 
L 667.776182 39.192304 
L 667.892018 39.108074 
L 668.123691 39.178202 
L 668.355364 39.170892 
L 668.4712 39.05304 
L 668.702873 39.279013 
L 670.556254 39.301076 
L 670.787927 39.208812 
L 670.903764 39.619874 
L 671.135436 39.651768 
L 671.482945 39.661177 
L 672.525472 39.634415 
L 673.915509 39.600991 
L 674.958036 39.707023 
L 675.305545 39.941681 
L 676.463908 39.741577 
L 676.927254 39.792629 
L 677.158927 39.444743 
L 677.390599 39.424868 
L 677.506436 39.543274 
L 677.853945 39.502895 
L 678.31729 39.622923 
L 678.548963 39.556153 
L 679.243981 39.687723 
L 679.59149 39.787967 
L 679.938999 39.6644 
L 681.097363 39.694249 
L 681.329035 39.830409 
L 681.444872 39.834842 
L 681.676544 40.034507 
L 682.024053 39.918825 
L 683.993271 39.529188 
L 684.109108 39.500282 
L 684.34078 39.760285 
L 684.688289 39.768127 
L 684.919962 39.72551 
L 685.035799 39.957205 
L 685.730817 39.908545 
L 685.846653 39.906852 
L 686.078326 39.606951 
L 686.309998 39.510867 
L 686.773344 39.57017 
L 687.120853 39.554601 
L 687.700035 39.488434 
L 690.595943 39.424735 
L 690.827616 39.366673 
L 692.449325 39.608582 
L 694.997725 39.248851 
L 695.46107 39.298559 
L 695.692743 39.455533 
L 699.631179 39.272235 
L 700.210361 39.310795 
L 701.368724 39.413614 
L 701.600397 39.54672 
L 704.612142 39.401963 
L 705.191324 39.315053 
L 706.465524 39.331055 
L 706.697197 39.54775 
L 707.623887 39.502073 
L 707.85556 39.490466 
L 708.434742 39.591826 
L 709.708942 39.5332 
L 709.824778 39.558108 
L 710.056451 39.849329 
L 711.330651 39.892857 
L 711.562323 40.02036 
L 712.025669 40.033663 
L 712.257341 39.786588 
L 712.836523 39.89905 
L 713.299869 39.938079 
L 713.647378 39.972092 
L 714.689905 39.955161 
L 715.037414 40.151782 
L 715.269087 40.283624 
L 715.500759 40.327096 
L 716.42745 40.119283 
L 716.659123 40.140734 
L 717.006632 40.148813 
L 717.122468 40.283537 
L 717.585814 40.251688 
L 717.933323 40.397244 
L 718.280832 40.234958 
L 719.091686 40.246051 
L 719.323359 40.264881 
L 720.25005 40.405999 
L 721.176741 40.321685 
L 721.408413 40.651894 
L 721.755922 40.670663 
L 722.45094 40.575111 
L 723.030122 40.674837 
L 723.261795 40.599573 
L 723.609304 40.455881 
L 724.767668 40.465358 
L 724.99934 40.57679 
L 725.462686 40.604118 
L 726.157704 40.631442 
L 726.621049 40.628083 
L 726.852722 40.871375 
L 728.242758 41.059023 
L 728.474431 40.978587 
L 728.706104 40.94752 
L 728.937776 41.067099 
L 730.906994 41.060335 
L 731.254503 41.118099 
L 731.717849 41.137282 
L 732.065358 41.061155 
L 732.528703 41.039288 
L 732.876212 41.070769 
L 733.107885 40.838663 
L 735.424612 40.701843 
L 735.656285 40.538742 
L 736.351303 40.604861 
L 736.698812 40.513404 
L 739.015539 40.826992 
L 739.478884 40.889984 
L 739.94223 40.922258 
L 740.058066 40.962186 
L 740.289739 41.152055 
L 742.258957 41.074477 
L 742.49063 41.170741 
L 742.722302 41.153575 
L 742.953975 41.192014 
L 743.185648 41.0022 
L 743.648993 41.212997 
L 743.996502 41.291235 
L 744.807357 41.515643 
L 745.154866 41.502679 
L 746.313229 41.499088 
L 747.934938 41.666763 
L 748.282447 41.70381 
L 750.019992 41.686199 
L 750.367501 41.782212 
L 751.525865 41.645856 
L 751.873374 41.579765 
L 752.568392 41.582968 
L 752.800065 41.295561 
L 753.031738 41.259372 
L 753.610919 41.340265 
L 753.842592 41.213462 
L 754.653447 41.263269 
L 754.769283 41.179268 
L 755.116792 41.271337 
L 756.390992 41.295456 
L 756.506828 41.039562 
L 756.854337 41.113237 
L 757.08601 41.037096 
L 757.433519 41.082198 
L 758.012701 41.032017 
L 758.36021 40.965142 
L 758.707719 41.032561 
L 758.939392 40.969829 
L 759.286901 41.022382 
L 759.750246 40.95564 
L 759.866082 40.926967 
L 760.097755 41.118222 
L 762.182809 41.110825 
L 762.298646 41.23494 
L 762.530319 41.139786 
L 762.761991 41.246008 
L 763.1095 41.287624 
L 764.615373 41.330517 
L 764.962882 41.57352 
L 765.310391 41.558292 
L 765.542064 41.460675 
L 765.889573 41.454851 
L 766.121245 41.340313 
L 766.468755 41.440046 
L 766.700427 41.491859 
L 767.047936 41.468121 
L 770.7547 41.554459 
L 770.986372 41.670916 
L 773.187263 41.827523 
L 773.998117 41.956664 
L 774.345627 41.915082 
L 774.577299 41.740366 
L 776.314845 41.735576 
L 776.430681 41.836675 
L 776.662354 41.791893 
L 777.704881 41.969548 
L 778.05239 41.995402 
L 778.284063 42.062054 
L 780.716626 42.141772 
L 781.064135 42.240281 
L 781.52748 42.102014 
L 781.874989 42.126982 
L 782.222499 42.184501 
L 783.844207 42.307066 
L 784.770898 42.405739 
L 785.118407 42.313626 
L 785.813425 42.314488 
L 786.045098 42.371499 
L 787.087625 42.277428 
L 787.782643 42.210855 
L 788.941007 42.055067 
L 789.404352 42.049865 
L 789.867698 42.131669 
L 789.983534 42.159827 
L 790.215207 41.951044 
L 791.489407 41.903454 
L 792.300261 41.793227 
L 792.531934 41.720078 
L 793.806134 41.801769 
L 794.501152 41.912351 
L 795.080334 41.933766 
L 796.007024 42.034139 
L 796.586206 41.925765 
L 797.860406 41.764857 
L 798.092079 41.82382 
L 799.94546 41.902952 
L 800.640479 41.942215 
L 801.103824 41.964271 
L 801.335497 41.942622 
L 801.567169 41.753528 
L 802.609697 41.825766 
L 802.957206 42.34504 
L 803.536387 42.17614 
L 805.737278 42.109499 
L 806.31646 41.949315 
L 807.358987 41.867743 
L 808.749023 41.937905 
L 808.980696 42.017835 
L 809.212369 42.379297 
L 809.444041 42.44983 
L 809.675714 42.463226 
L 810.13906 42.548967 
L 810.370732 42.548212 
L 810.602405 42.426937 
L 811.297423 42.440091 
L 811.529096 42.172473 
L 813.034968 42.154766 
L 813.382477 42.179462 
L 813.729986 42.17014 
L 813.961659 42.172006 
L 814.193332 42.409738 
L 814.772514 42.371536 
L 815.004186 42.418332 
L 815.351695 42.386813 
L 815.815041 42.411687 
L 816.16255 42.467764 
L 816.857568 42.498536 
L 818.247604 42.4726 
L 818.71095 42.442384 
L 818.942622 42.439193 
L 819.174295 42.308016 
L 819.521804 42.26971 
L 819.869313 42.299937 
L 820.100986 42.23532 
L 820.796004 42.471597 
L 821.491022 42.542796 
L 822.18604 42.551986 
L 822.649386 42.575117 
L 824.039422 42.613716 
L 824.386931 42.721231 
L 824.966113 42.59119 
L 825.313622 42.711268 
L 825.661131 42.602006 
L 826.00864 42.646897 
L 826.240313 42.444816 
L 826.471985 42.598541 
L 826.703658 42.673958 
L 827.051167 42.715599 
L 827.28284 42.692777 
L 828.325367 42.766694 
L 830.178749 42.856258 
L 830.294585 42.793321 
L 830.526258 42.842626 
L 831.452948 42.78122 
L 832.379639 42.676981 
L 832.842985 42.655812 
L 833.190494 42.684377 
L 834.812203 42.726286 
L 835.391384 42.623617 
L 835.738893 42.642296 
L 836.781421 42.725656 
L 837.013093 42.82926 
L 837.360602 42.810431 
L 837.708111 43.001487 
L 838.171457 43.070883 
L 839.32982 43.216383 
L 839.561493 43.54655 
L 839.677329 43.554231 
L 839.909002 43.430439 
L 840.488184 43.350947 
L 841.183202 43.44394 
L 842.109893 43.401022 
L 842.457402 43.344035 
L 843.036584 43.384515 
L 843.384093 43.518656 
L 843.615765 43.499497 
L 844.42662 43.6088 
L 845.121638 43.717227 
L 845.353311 43.620845 
L 845.584983 43.627239 
L 845.70082 43.490117 
L 845.932493 43.573218 
L 846.395838 43.460069 
L 846.627511 43.430814 
L 847.090856 43.480313 
L 847.206692 43.231339 
L 847.901711 43.252372 
L 848.24922 43.244558 
L 848.596729 43.340469 
L 849.291747 43.423737 
L 849.639256 43.386679 
L 850.565947 43.447013 
L 851.376801 43.577018 
L 852.766837 43.525975 
L 852.882674 43.435219 
L 853.114346 43.540082 
L 854.736055 43.508945 
L 855.083564 43.487279 
L 855.778582 43.44693 
L 856.241928 43.510319 
L 856.705273 43.524074 
L 856.936946 43.68304 
L 858.09531 43.725238 
L 858.326982 43.685842 
L 858.790328 43.714217 
L 859.137837 43.636354 
L 860.527873 43.553552 
L 860.759546 43.922252 
L 862.381255 43.981099 
L 862.612927 43.951161 
L 863.076273 43.939979 
L 863.539618 43.942298 
L 863.771291 44.136101 
L 865.624672 44.125952 
L 865.856345 44.402263 
L 866.088018 44.443951 
L 866.203854 44.407983 
L 866.435527 44.570347 
L 866.6672 44.409562 
L 867.246381 44.404246 
L 867.478054 44.003823 
L 869.794781 44.133391 
L 870.373963 44.436255 
L 870.837308 44.487858 
L 871.068981 44.584543 
L 872.69069 44.512452 
L 874.080726 44.414178 
L 874.544072 44.398617 
L 875.23909 44.394313 
L 875.586599 44.450405 
L 876.049944 44.420423 
L 876.281617 44.254447 
L 877.092471 44.314279 
L 877.208308 44.859298 
L 878.134999 44.820162 
L 878.250835 44.821534 
L 878.482508 44.447751 
L 879.177526 44.414191 
L 879.293362 44.809043 
L 879.525035 44.73812 
L 880.799235 44.795631 
L 881.030907 44.901951 
L 881.494253 44.785481 
L 881.725926 44.815757 
L 882.189271 44.84942 
L 882.652616 44.916286 
L 883.347634 45.056091 
L 886.243543 45.225134 
L 886.822725 45.217948 
L 887.054398 45.070073 
L 887.865252 45.001082 
L 888.328598 44.956253 
L 888.907779 45.001254 
L 889.371125 44.878726 
L 889.486961 45.073568 
L 889.718634 45.079671 
L 890.181979 45.128891 
L 891.572015 45.058116 
L 891.919525 45.024973 
L 892.151197 45.23395 
L 892.730379 45.238089 
L 894.236252 45.475584 
L 894.467924 45.385222 
L 896.900488 45.352241 
L 897.363833 45.316073 
L 897.943015 45.182368 
L 898.40636 45.148733 
L 898.753869 45.11066 
L 898.985542 44.981757 
L 899.68056 45.00532 
L 899.912233 45.062997 
L 901.186433 45.136212 
L 901.649778 45.185621 
L 902.344796 45.302255 
L 902.808142 45.304119 
L 904.893196 45.098495 
L 905.009032 45.160299 
L 905.240705 45.466054 
L 905.472378 45.520659 
L 907.325759 45.515969 
L 907.557432 45.762317 
L 907.789105 45.736019 
L 910.80085 45.737741 
L 911.032523 45.96872 
L 911.148359 45.919782 
L 911.380032 46.068215 
L 911.843377 46.041081 
L 914.970959 46.079307 
L 915.202631 46.131725 
L 915.781813 46.237329 
L 916.013486 46.338053 
L 916.82434 46.493079 
L 917.056013 46.479727 
L 918.09854 46.639892 
L 919.37274 46.613854 
L 919.951922 46.57772 
L 922.036976 46.728466 
L 923.658685 46.685943 
L 923.890358 46.788575 
L 924.353703 46.776304 
L 924.701212 46.845518 
L 924.932885 46.861809 
L 926.091249 47.089885 
L 926.438758 47.139391 
L 927.597121 47.257447 
L 927.94463 47.264442 
L 929.566339 47.381062 
L 930.029685 47.503692 
L 930.49303 47.56912 
L 930.724703 47.587456 
L 930.956375 47.560853 
L 931.188048 47.620176 
L 931.651394 47.662786 
L 931.883066 47.749268 
L 933.852284 47.619962 
L 933.968121 47.837988 
L 934.663139 47.733335 
L 935.473993 47.731023 
L 935.705666 47.389769 
L 935.937339 47.425859 
L 936.51652 47.240061 
L 936.864029 47.273039 
L 937.095702 47.416417 
L 940.918302 47.365734 
L 941.149974 47.132179 
L 941.265811 47.224381 
L 941.497484 47.217776 
L 941.844993 47.307704 
L 942.192502 47.347308 
L 942.540011 47.410925 
L 943.003356 47.415954 
L 943.235029 47.484592 
L 944.625065 47.611145 
L 944.972574 47.674786 
L 952.617773 47.781176 
L 952.965282 47.8824 
L 953.776137 47.834685 
L 954.00781 47.698998 
L 954.239482 47.618606 
L 954.355319 47.604609 
L 954.586991 47.714036 
L 955.28201 47.627443 
L 955.513682 47.610168 
L 955.745355 47.628007 
L 955.977028 47.687039 
L 956.324537 47.667108 
L 959.336282 47.938151 
L 959.452118 47.658539 
L 959.915464 47.717823 
L 960.147136 47.545613 
L 960.610482 47.716369 
L 960.842154 47.600365 
L 962.000518 47.626494 
L 962.232191 47.737338 
L 963.622227 47.636004 
L 964.78059 47.704281 
L 965.128099 47.665509 
L 965.707281 47.687279 
L 967.097317 47.776584 
L 967.560663 47.89947 
L 967.676499 47.749451 
L 967.908172 47.8904 
L 968.719026 47.89048 
L 969.298208 47.87388 
L 969.761554 47.894555 
L 969.993226 47.901292 
L 970.572408 48.019958 
L 970.919917 47.964543 
L 971.15159 48.255365 
L 971.383263 48.237441 
L 972.078281 48.618499 
L 975.785044 48.522391 
L 976.016717 48.759202 
L 976.480062 48.744125 
L 976.711735 48.980546 
L 977.290917 48.987054 
L 977.638426 49.010584 
L 979.144298 49.003639 
L 979.375971 48.931036 
L 979.491807 48.928064 
L 979.607644 49.040398 
L 979.955153 48.972167 
L 980.766007 48.980764 
L 981.461025 48.962591 
L 981.692698 48.86753 
L 982.27188 48.837231 
L 983.198571 48.84771 
L 984.241098 48.798081 
L 984.588607 48.838661 
L 984.936116 48.839874 
L 985.051952 48.620826 
L 985.283625 48.913581 
L 987.484516 49.10988 
L 987.716188 49.296734 
L 988.063697 49.336442 
L 988.29537 49.434283 
L 988.874552 49.534381 
L 989.222061 49.433356 
L 989.56957 49.509105 
L 990.148752 49.506909 
L 990.496261 49.449232 
L 990.727933 49.403216 
L 990.84377 48.31583 
L 991.191279 48.396509 
L 991.422952 48.438679 
L 991.654624 48.393641 
L 992.697151 48.350184 
L 993.04466 48.358294 
L 994.31886 48.446654 
L 994.434697 48.501235 
L 994.666369 48.374853 
L 995.245551 48.380323 
L 996.403915 48.371594 
L 996.519751 48.470102 
L 996.751424 48.349238 
L 998.257296 48.334526 
L 998.720642 48.235955 
L 1000.342351 48.06553 
L 1000.68986 47.932257 
L 1001.269042 47.972765 
L 1001.500714 48.028939 
L 1002.195732 48.086961 
L 1002.427405 47.882145 
L 1003.817441 47.942899 
L 1003.933278 48.291009 
L 1005.207478 48.179821 
L 1005.554987 48.323299 
L 1007.408368 48.346352 
L 1007.640041 48.364669 
L 1009.609259 48.494657 
L 1009.840932 48.643815 
L 1010.072604 48.477618 
L 1010.420113 48.505323 
L 1010.999295 48.438126 
L 1011.115132 48.432545 
L 1011.346804 48.316459 
L 1012.041822 48.3508 
L 1012.041822 48.3508 
" clip-path="url(#pe1493f99d9)" style="fill: none; stroke: #9400d3; stroke-width: 5; stroke-linecap: square"/>
    <defs>
     <path id="mda6ba16655" d="M 0 12.5 
C 3.315039 12.5 6.494748 11.182921 8.838835 8.838835 
C 11.182921 6.494748 12.5 3.315039 12.5 0 
C 12.5 -3.315039 11.182921 -6.494748 8.838835 -8.838835 
C 6.494748 -11.182921 3.315039 -12.5 0 -12.5 
C -3.315039 -12.5 -6.494748 -11.182921 -8.838835 -8.838835 
C -11.182921 -6.494748 -12.5 -3.315039 -12.5 0 
C -12.5 3.315039 -11.182921 6.494748 -8.838835 8.838835 
C -6.494748 11.182921 -3.315039 12.5 0 12.5 
z
" style="stroke: #9400d3"/>
    </defs>
    <g clip-path="url(#pe1493f99d9)">
     <use xlink:href="#mda6ba16655" x="74.69229" y="-1" style="fill: #9400d3; stroke: #9400d3"/>
     <use xlink:href="#mda6ba16655" x="84.308473" y="14.990258" style="fill: #9400d3; stroke: #9400d3"/>
     <use xlink:href="#mda6ba16655" x="258.063002" y="21.693044" style="fill: #9400d3; stroke: #9400d3"/>
     <use xlink:href="#mda6ba16655" x="431.817531" y="27.253667" style="fill: #9400d3; stroke: #9400d3"/>
     <use xlink:href="#mda6ba16655" x="605.572061" y="34.793001" style="fill: #9400d3; stroke: #9400d3"/>
     <use xlink:href="#mda6ba16655" x="779.32659" y="42.074077" style="fill: #9400d3; stroke: #9400d3"/>
     <use xlink:href="#mda6ba16655" x="953.081119" y="47.881243" style="fill: #9400d3; stroke: #9400d3"/>
    </g>
   </g>
   <g id="line2d_35">
    <path d="M -1 318.706543 
L 17.818407 318.798038 
L 19.555952 318.859931 
L 46.777495 318.978368 
L 48.051695 318.99386 
L 49.557567 318.98345 
L 53.032658 318.985646 
L 53.148494 462.87393 
L 56.855258 462.938838 
L 59.171985 462.951647 
L 66.238002 463.140021 
L 67.280529 463.209088 
L 67.743875 463.226999 
L 72.261493 463.177009 
L 72.840674 463.215131 
L 89.636945 463.221318 
L 90.4478 463.265709 
L 91.837836 463.311028 
L 92.532854 463.33442 
L 93.575381 463.334921 
L 94.154563 463.341545 
L 98.903854 463.424195 
L 99.367199 463.445 
L 106.664889 463.433501 
L 107.012398 463.478412 
L 153.346939 463.583754 
L 154.621139 463.597244 
L 157.169539 463.6084 
L 181.2635 463.842701 
L 182.190191 463.862491 
L 190.993754 463.943736 
L 191.4571 463.981697 
L 193.889663 464.068539 
L 202.577389 464.114888 
L 207.905862 464.089192 
L 209.527571 464.122696 
L 210.80177 464.094591 
L 227.945551 464.174967 
L 228.756405 464.208404 
L 230.030605 464.20531 
L 232.926514 464.317248 
L 233.389859 464.33442 
L 233.853205 464.32841 
L 244.16264 464.384756 
L 253.082039 464.440481 
L 253.892894 464.431071 
L 260.03222 464.453083 
L 290.149672 464.456706 
L 290.613017 464.481102 
L 308.915161 464.603453 
L 310.652706 464.575939 
L 315.63367 464.559406 
L 317.023706 464.552777 
L 320.267124 464.543936 
L 323.626378 464.567348 
L 324.668905 464.61701 
L 328.143996 464.611987 
L 334.978341 464.582636 
L 341.928522 464.779456 
L 343.202722 464.769291 
L 343.781903 464.82047 
L 350.847921 464.842415 
L 352.237957 464.887905 
L 357.450593 464.937973 
L 364.169101 464.925246 
L 366.485829 464.909343 
L 373.088501 464.928639 
L 375.173555 464.960599 
L 377.606118 464.951134 
L 379.343664 464.933197 
L 382.355409 464.915936 
L 383.861281 464.940143 
L 387.683881 464.965619 
L 388.263063 464.98082 
L 393.939044 465.056472 
L 453.942275 465.513299 
L 454.868966 465.497639 
L 455.795656 465.513915 
L 456.722347 465.465297 
L 480.700472 465.803227 
L 481.39549 465.7836 
L 537.460285 466.006684 
L 538.850321 466.013411 
L 597.34768 466.208389 
L 599.316898 466.235186 
L 606.382915 466.374676 
L 610.784696 466.334497 
L 618.545732 466.264895 
L 621.325805 466.258129 
L 625.959259 466.289301 
L 627.349295 466.313188 
L 637.079549 466.309826 
L 638.585421 466.300758 
L 650.516565 466.405392 
L 664.416928 466.331124 
L 665.806964 466.349712 
L 707.160542 466.468441 
L 708.318905 466.5041 
L 714.921578 466.538815 
L 716.195777 466.521612 
L 716.890796 466.558519 
L 736.467139 466.486033 
L 743.880666 466.44416 
L 773.534772 466.454216 
L 774.924808 466.470607 
L 798.323752 466.54766 
L 798.902933 466.571391 
L 804.347242 466.572065 
L 814.425005 466.56181 
L 823.807749 466.525562 
L 825.081949 466.517917 
L 827.977858 466.50733 
L 832.495476 466.459624 
L 840.256511 466.446612 
L 848.365056 466.474197 
L 850.218438 466.486888 
L 857.284455 466.515568 
L 858.211146 466.514599 
L 866.783036 466.53878 
L 870.373963 466.535944 
L 877.208308 466.530678 
L 879.061689 466.565622 
L 905.240705 466.734255 
L 906.97825 466.751954 
L 915.665977 466.757816 
L 1000.68986 466.875131 
L 1001.269042 466.905713 
L 1002.311569 466.899719 
L 1012.041822 466.921704 
L 1012.041822 466.921704 
" clip-path="url(#pe1493f99d9)" style="fill: none; stroke: #ffa500; stroke-width: 5; stroke-linecap: square"/>
    <defs>
     <path id="m49bfda2ca5" d="M 12.5 0 
L -12.5 -12.5 
L -12.5 12.5 
z
" style="stroke: #ffa500; stroke-linejoin: miter"/>
    </defs>
    <g clip-path="url(#pe1493f99d9)">
     <use xlink:href="#m49bfda2ca5" x="-1" y="179.846227" style="fill: #ffa500; stroke: #ffa500; stroke-linejoin: miter"/>
     <use xlink:href="#m49bfda2ca5" x="84.308473" y="463.223922" style="fill: #ffa500; stroke: #ffa500; stroke-linejoin: miter"/>
     <use xlink:href="#m49bfda2ca5" x="258.063002" y="464.459345" style="fill: #ffa500; stroke: #ffa500; stroke-linejoin: miter"/>
     <use xlink:href="#m49bfda2ca5" x="431.817531" y="465.330166" style="fill: #ffa500; stroke: #ffa500; stroke-linejoin: miter"/>
     <use xlink:href="#m49bfda2ca5" x="605.572061" y="466.372775" style="fill: #ffa500; stroke: #ffa500; stroke-linejoin: miter"/>
     <use xlink:href="#m49bfda2ca5" x="779.32659" y="466.516357" style="fill: #ffa500; stroke: #ffa500; stroke-linejoin: miter"/>
     <use xlink:href="#m49bfda2ca5" x="953.081119" y="466.705801" style="fill: #ffa500; stroke: #ffa500; stroke-linejoin: miter"/>
    </g>
   </g>
   <g id="line2d_36">
    <path d="M -1 319.703423 
L 2.875517 319.803638 
L 4.38139 319.872857 
L 6.582281 319.91889 
L 8.203989 319.95958 
L 16.660043 320.043641 
L 17.470898 320.074319 
L 18.050079 320.053286 
L 18.97677 320.132627 
L 20.019297 320.163036 
L 22.336025 320.190484 
L 24.189406 320.252268 
L 52.33764 320.130889 
L 53.032658 320.137366 
L 53.148494 464.241712 
L 59.751166 464.367924 
L 62.994584 464.335904 
L 63.226257 464.414763 
L 67.512202 464.524367 
L 67.975547 464.557077 
L 76.084092 464.608314 
L 77.474128 464.607715 
L 79.559183 464.593756 
L 80.60171 464.538019 
L 98.788017 464.550659 
L 101.799762 464.526561 
L 106.31738 464.532359 
L 108.170762 464.581812 
L 108.86578 464.554255 
L 112.804216 464.60449 
L 135.508141 464.836893 
L 144.195868 465.017044 
L 149.060994 465.027234 
L 150.219358 465.002369 
L 153.694449 465.013454 
L 154.852812 465.006498 
L 160.065448 465.091873 
L 165.973102 465.086528 
L 171.301574 465.166949 
L 171.76492 465.196139 
L 173.502465 465.203842 
L 177.440901 465.245408 
L 260.727238 465.3997 
L 264.665674 465.40975 
L 300.922453 465.478431 
L 302.080816 465.563226 
L 311.463561 465.637842 
L 317.371215 465.62357 
L 325.943105 465.703931 
L 326.290614 465.74953 
L 336.947559 465.756465 
L 365.674974 465.730228 
L 366.138319 465.774333 
L 367.644192 465.784031 
L 370.771774 465.808639 
L 386.525518 465.888343 
L 387.568045 465.914704 
L 390.463954 465.936105 
L 396.719117 465.971657 
L 441.779458 466.1339 
L 444.55953 466.143887 
L 450.235512 466.128925 
L 454.521457 466.126759 
L 457.764874 466.114502 
L 458.923238 466.117067 
L 474.445309 466.174586 
L 475.603673 466.217506 
L 497.728416 466.338753 
L 499.697634 466.358619 
L 518.231451 466.338847 
L 535.72274 466.434973 
L 536.417758 466.448038 
L 543.367939 466.421603 
L 546.958866 466.467132 
L 547.769721 466.453494 
L 550.781466 466.479509 
L 555.646593 466.506816 
L 559.700865 466.537947 
L 562.71261 466.58767 
L 564.450155 466.581115 
L 568.388591 466.592441 
L 580.435572 466.636606 
L 589.239135 466.750832 
L 590.397498 466.744439 
L 600.82277 466.858481 
L 604.066188 466.886945 
L 648.547347 466.998753 
L 652.022438 467.015954 
L 654.107492 467.019099 
L 698.588652 467.155886 
L 711.330651 467.106353 
L 744.344011 467.094209 
L 745.618211 467.116235 
L 769.943845 467.101221 
L 770.638863 467.123906 
L 784.423389 467.221573 
L 785.118407 467.237472 
L 829.947076 467.267744 
L 832.263803 467.285292 
L 833.653839 467.278579 
L 834.928039 467.288422 
L 837.013093 467.265752 
L 838.518966 467.274914 
L 845.005802 467.29813 
L 848.596729 467.290902 
L 849.870929 467.306606 
L 1012.041822 467.606691 
L 1012.041822 467.606691 
" clip-path="url(#pe1493f99d9)" style="fill: none; stroke: #ff1493; stroke-width: 5; stroke-linecap: square"/>
    <defs>
     <path id="m913f234f18" d="M -12.5 -0 
L 12.5 12.5 
L 12.5 -12.5 
z
" style="stroke: #ff1493; stroke-linejoin: miter"/>
    </defs>
    <g clip-path="url(#pe1493f99d9)">
     <use xlink:href="#m913f234f18" x="-1" y="181.108283" style="fill: #ff1493; stroke: #ff1493; stroke-linejoin: miter"/>
     <use xlink:href="#m913f234f18" x="84.308473" y="464.533461" style="fill: #ff1493; stroke: #ff1493; stroke-linejoin: miter"/>
     <use xlink:href="#m913f234f18" x="258.063002" y="465.385562" style="fill: #ff1493; stroke: #ff1493; stroke-linejoin: miter"/>
     <use xlink:href="#m913f234f18" x="431.817531" y="466.030407" style="fill: #ff1493; stroke: #ff1493; stroke-linejoin: miter"/>
     <use xlink:href="#m913f234f18" x="605.572061" y="466.943093" style="fill: #ff1493; stroke: #ff1493; stroke-linejoin: miter"/>
     <use xlink:href="#m913f234f18" x="779.32659" y="467.130167" style="fill: #ff1493; stroke: #ff1493; stroke-linejoin: miter"/>
     <use xlink:href="#m913f234f18" x="953.081119" y="467.501377" style="fill: #ff1493; stroke: #ff1493; stroke-linejoin: miter"/>
    </g>
   </g>
   <g id="line2d_37">
    <path d="M -1 355.022299 
L 44.460768 355.126703 
L 45.503295 355.137922 
L 50.136749 355.141522 
L 53.032658 355.144342 
L 53.148494 502.885078 
L 86.161855 502.923389 
L 87.667727 502.937646 
L 308.451816 503.047415 
L 310.768543 503.04646 
L 334.167486 503.0448 
L 348.64703 503.054018 
L 357.913938 503.064419 
L 416.990478 503.117454 
L 459.618256 503.139133 
L 725.346849 503.291531 
L 864.002964 503.352094 
L 1012.041822 503.40153 
L 1012.041822 503.40153 
" clip-path="url(#pe1493f99d9)" style="fill: none; stroke: #0000ff; stroke-width: 5; stroke-linecap: square"/>
    <defs>
     <path id="m515bbcf549" d="M 0 -12.5 
L -12.5 12.5 
L 12.5 12.5 
z
" style="stroke: #0000ff; stroke-linejoin: miter"/>
    </defs>
    <g clip-path="url(#pe1493f99d9)">
     <use xlink:href="#m515bbcf549" x="-1" y="213.091961" style="fill: #0000ff; stroke: #0000ff; stroke-linejoin: miter"/>
     <use xlink:href="#m515bbcf549" x="84.308473" y="502.915014" style="fill: #0000ff; stroke: #0000ff; stroke-linejoin: miter"/>
     <use xlink:href="#m515bbcf549" x="258.063002" y="503.037903" style="fill: #0000ff; stroke: #0000ff; stroke-linejoin: miter"/>
     <use xlink:href="#m515bbcf549" x="431.817531" y="503.134245" style="fill: #0000ff; stroke: #0000ff; stroke-linejoin: miter"/>
     <use xlink:href="#m515bbcf549" x="605.572061" y="503.237493" style="fill: #0000ff; stroke: #0000ff; stroke-linejoin: miter"/>
     <use xlink:href="#m515bbcf549" x="779.32659" y="503.31427" style="fill: #0000ff; stroke: #0000ff; stroke-linejoin: miter"/>
     <use xlink:href="#m515bbcf549" x="953.081119" y="503.377874" style="fill: #0000ff; stroke: #0000ff; stroke-linejoin: miter"/>
    </g>
   </g>
   <g id="line2d_38">
    <path d="M -1 342.309894 
L 2.064663 342.294566 
L 5.076408 342.341739 
L 6.698117 342.347055 
L 22.336025 342.387194 
L 22.915206 342.421145 
L 50.368422 342.348376 
L 51.295113 342.374641 
L 53.032658 342.381704 
L 53.148494 492.834658 
L 73.999038 492.918174 
L 77.358292 492.961722 
L 129.137142 493.038896 
L 130.527178 493.032156 
L 143.732522 493.01848 
L 150.566867 492.987527 
L 164.467229 493.054451 
L 166.320611 493.101695 
L 186.012791 493.253481 
L 186.823645 493.273857 
L 218.215297 493.258024 
L 225.74466 493.251914 
L 226.671351 493.276063 
L 235.706586 493.359723 
L 240.224204 493.372064 
L 249.838621 493.455785 
L 250.533639 493.478303 
L 252.618694 493.487919 
L 259.800548 493.567622 
L 264.318165 493.605932 
L 295.246472 493.737534 
L 296.752344 493.740027 
L 311.926906 493.838802 
L 314.243633 493.847042 
L 321.193815 493.889836 
L 322.699687 493.909166 
L 326.522287 493.934623 
L 348.994539 493.9797 
L 351.311266 493.99524 
L 356.523902 493.999001 
L 366.949174 494.073818 
L 367.760028 494.083293 
L 378.1853 494.072686 
L 379.4595 494.08748 
L 406.912716 494.294214 
L 408.418588 494.311097 
L 412.241188 494.330221 
L 416.063787 494.353313 
L 443.980348 494.449037 
L 458.112384 494.458026 
L 475.487836 494.477137 
L 479.1946 494.489622 
L 485.333926 494.498799 
L 487.76649 494.499581 
L 500.045143 494.528676 
L 505.257779 494.547069 
L 549.275593 494.660111 
L 564.913501 494.729743 
L 601.517788 494.842123 
L 611.595551 494.871321 
L 642.639693 494.764966 
L 689.321744 494.822749 
L 689.785089 494.862837 
L 762.877828 495.056217 
L 770.870536 495.086449 
L 816.510059 495.076885 
L 825.661131 495.05042 
L 827.167003 495.055694 
L 927.828794 495.117534 
L 928.987157 495.136101 
L 937.79072 495.141044 
L 955.861191 495.134082 
L 968.487354 495.103537 
L 973.584153 495.099444 
L 979.028462 495.082238 
L 993.39217 495.058827 
L 995.477224 495.056789 
L 1012.041822 495.081242 
L 1012.041822 495.081242 
" clip-path="url(#pe1493f99d9)" style="fill: none; stroke: #008000; stroke-width: 5; stroke-linecap: square"/>
    <defs>
     <path id="m46970af201" d="M -0 12.5 
L 12.5 -12.5 
L -12.5 -12.5 
z
" style="stroke: #008000; stroke-linejoin: miter"/>
    </defs>
    <g clip-path="url(#pe1493f99d9)">
     <use xlink:href="#m46970af201" x="-1" y="197.653957" style="fill: #008000; stroke: #008000; stroke-linejoin: miter"/>
     <use xlink:href="#m46970af201" x="84.308473" y="493.003155" style="fill: #008000; stroke: #008000; stroke-linejoin: miter"/>
     <use xlink:href="#m46970af201" x="258.063002" y="493.540199" style="fill: #008000; stroke: #008000; stroke-linejoin: miter"/>
     <use xlink:href="#m46970af201" x="431.817531" y="494.435516" style="fill: #008000; stroke: #008000; stroke-linejoin: miter"/>
     <use xlink:href="#m46970af201" x="605.572061" y="494.854558" style="fill: #008000; stroke: #008000; stroke-linejoin: miter"/>
     <use xlink:href="#m46970af201" x="779.32659" y="495.088454" style="fill: #008000; stroke: #008000; stroke-linejoin: miter"/>
     <use xlink:href="#m46970af201" x="953.081119" y="495.135646" style="fill: #008000; stroke: #008000; stroke-linejoin: miter"/>
    </g>
   </g>
   <g id="patch_3">
    <path d="M 155.823678 537.05101 
L 155.823678 3.00024 
" style="fill: none; stroke: #000000; stroke-width: 0.8; stroke-linejoin: miter; stroke-linecap: square"/>
   </g>
   <g id="patch_4">
    <path d="M 1035.23976 537.05101 
L 1035.23976 3.00024 
" style="fill: none; stroke: #000000; stroke-width: 0.8; stroke-linejoin: miter; stroke-linecap: square"/>
   </g>
   <g id="patch_5">
    <path d="M 155.823678 537.05101 
L 1035.23976 537.05101 
" style="fill: none; stroke: #000000; stroke-width: 0.8; stroke-linejoin: miter; stroke-linecap: square"/>
   </g>
   <g id="patch_6">
    <path d="M 155.823678 3.00024 
L 1035.23976 3.00024 
" style="fill: none; stroke: #000000; stroke-width: 0.8; stroke-linejoin: miter; stroke-linecap: square"/>
   </g>
  </g>
 </g>
 <defs>
  <clipPath id="pe1493f99d9">
   <rect x="155.823678" y="3.00024" width="879.416082" height="534.05077"/>
  </clipPath>
 </defs>
</svg>
