<?xml version="1.0" encoding="utf-8" standalone="no"?>
<!DOCTYPE svg PUBLIC "-//W3C//DTD SVG 1.1//EN"
  "http://www.w3.org/Graphics/SVG/1.1/DTD/svg11.dtd">
<svg xmlns:xlink="http://www.w3.org/1999/xlink" width="1036.8pt" height="607.68pt" viewBox="0 0 1036.8 607.68" xmlns="http://www.w3.org/2000/svg" version="1.1">
 <metadata>
  <rdf:RDF xmlns:dc="http://purl.org/dc/elements/1.1/" xmlns:cc="http://creativecommons.org/ns#" xmlns:rdf="http://www.w3.org/1999/02/22-rdf-syntax-ns#">
   <cc:Work>
    <dc:type rdf:resource="http://purl.org/dc/dcmitype/StillImage"/>
    <dc:date>2024-04-13T11:04:55.152907</dc:date>
    <dc:format>image/svg+xml</dc:format>
    <dc:creator>
     <cc:Agent>
      <dc:title>Matplotlib v3.8.0, https://matplotlib.org/</dc:title>
     </cc:Agent>
    </dc:creator>
   </cc:Work>
  </rdf:RDF>
 </metadata>
 <defs>
  <style type="text/css">*{stroke-linejoin: round; stroke-linecap: butt}</style>
 </defs>
 <g id="figure_1">
  <g id="patch_1">
   <path d="M 0 607.68 
L 1036.8 607.68 
L 1036.8 0 
L 0 0 
z
" style="fill: #ffffff"/>
  </g>
  <g id="axes_1">
   <g id="patch_2">
    <path d="M 133.554928 535.61101 
L 1017.56941 535.61101 
L 1017.56941 3.00024 
L 133.554928 3.00024 
z
" style="fill: #ffffff"/>
   </g>
   <g id="matplotlib.axis_1">
    <g id="xtick_1">
     <g id="line2d_1">
      <path d="M 191.499443 535.61101 
L 191.499443 3.00024 
" clip-path="url(#pa383907cde)" style="fill: none; stroke: #b0b0b0; stroke-width: 0.8; stroke-linecap: square"/>
     </g>
     <g id="line2d_2">
      <defs>
       <path id="m088b7b080a" d="M 0 0 
L 0 3.5 
" style="stroke: #000000; stroke-width: 0.8"/>
      </defs>
      <g>
       <use xlink:href="#m088b7b080a" x="191.499443" y="535.61101" style="stroke: #000000; stroke-width: 0.8"/>
      </g>
     </g>
     <g id="text_1">
      <!-- 24000 -->
      <g transform="translate(143.780693 565.406322) scale(0.3 -0.3)">
       <defs>
        <path id="DejaVuSans-32" d="M 1228 531 
L 3431 531 
L 3431 0 
L 469 0 
L 469 531 
Q 828 903 1448 1529 
Q 2069 2156 2228 2338 
Q 2531 2678 2651 2914 
Q 2772 3150 2772 3378 
Q 2772 3750 2511 3984 
Q 2250 4219 1831 4219 
Q 1534 4219 1204 4116 
Q 875 4013 500 3803 
L 500 4441 
Q 881 4594 1212 4672 
Q 1544 4750 1819 4750 
Q 2544 4750 2975 4387 
Q 3406 4025 3406 3419 
Q 3406 3131 3298 2873 
Q 3191 2616 2906 2266 
Q 2828 2175 2409 1742 
Q 1991 1309 1228 531 
z
" transform="scale(0.015625)"/>
        <path id="DejaVuSans-34" d="M 2419 4116 
L 825 1625 
L 2419 1625 
L 2419 4116 
z
M 2253 4666 
L 3047 4666 
L 3047 1625 
L 3713 1625 
L 3713 1100 
L 3047 1100 
L 3047 0 
L 2419 0 
L 2419 1100 
L 313 1100 
L 313 1709 
L 2253 4666 
z
" transform="scale(0.015625)"/>
        <path id="DejaVuSans-30" d="M 2034 4250 
Q 1547 4250 1301 3770 
Q 1056 3291 1056 2328 
Q 1056 1369 1301 889 
Q 1547 409 2034 409 
Q 2525 409 2770 889 
Q 3016 1369 3016 2328 
Q 3016 3291 2770 3770 
Q 2525 4250 2034 4250 
z
M 2034 4750 
Q 2819 4750 3233 4129 
Q 3647 3509 3647 2328 
Q 3647 1150 3233 529 
Q 2819 -91 2034 -91 
Q 1250 -91 836 529 
Q 422 1150 422 2328 
Q 422 3509 836 4129 
Q 1250 4750 2034 4750 
z
" transform="scale(0.015625)"/>
       </defs>
       <use xlink:href="#DejaVuSans-32"/>
       <use xlink:href="#DejaVuSans-34" x="63.623047"/>
       <use xlink:href="#DejaVuSans-30" x="127.246094"/>
       <use xlink:href="#DejaVuSans-30" x="190.869141"/>
       <use xlink:href="#DejaVuSans-30" x="254.492188"/>
      </g>
     </g>
    </g>
    <g id="xtick_2">
     <g id="line2d_3">
      <path d="M 305.01108 535.61101 
L 305.01108 3.00024 
" clip-path="url(#pa383907cde)" style="fill: none; stroke: #b0b0b0; stroke-width: 0.8; stroke-linecap: square"/>
     </g>
     <g id="line2d_4">
      <g>
       <use xlink:href="#m088b7b080a" x="305.01108" y="535.61101" style="stroke: #000000; stroke-width: 0.8"/>
      </g>
     </g>
     <g id="text_2">
      <!-- 26000 -->
      <g transform="translate(257.29233 565.406322) scale(0.3 -0.3)">
       <defs>
        <path id="DejaVuSans-36" d="M 2113 2584 
Q 1688 2584 1439 2293 
Q 1191 2003 1191 1497 
Q 1191 994 1439 701 
Q 1688 409 2113 409 
Q 2538 409 2786 701 
Q 3034 994 3034 1497 
Q 3034 2003 2786 2293 
Q 2538 2584 2113 2584 
z
M 3366 4563 
L 3366 3988 
Q 3128 4100 2886 4159 
Q 2644 4219 2406 4219 
Q 1781 4219 1451 3797 
Q 1122 3375 1075 2522 
Q 1259 2794 1537 2939 
Q 1816 3084 2150 3084 
Q 2853 3084 3261 2657 
Q 3669 2231 3669 1497 
Q 3669 778 3244 343 
Q 2819 -91 2113 -91 
Q 1303 -91 875 529 
Q 447 1150 447 2328 
Q 447 3434 972 4092 
Q 1497 4750 2381 4750 
Q 2619 4750 2861 4703 
Q 3103 4656 3366 4563 
z
" transform="scale(0.015625)"/>
       </defs>
       <use xlink:href="#DejaVuSans-32"/>
       <use xlink:href="#DejaVuSans-36" x="63.623047"/>
       <use xlink:href="#DejaVuSans-30" x="127.246094"/>
       <use xlink:href="#DejaVuSans-30" x="190.869141"/>
       <use xlink:href="#DejaVuSans-30" x="254.492188"/>
      </g>
     </g>
    </g>
    <g id="xtick_3">
     <g id="line2d_5">
      <path d="M 418.522718 535.61101 
L 418.522718 3.00024 
" clip-path="url(#pa383907cde)" style="fill: none; stroke: #b0b0b0; stroke-width: 0.8; stroke-linecap: square"/>
     </g>
     <g id="line2d_6">
      <g>
       <use xlink:href="#m088b7b080a" x="418.522718" y="535.61101" style="stroke: #000000; stroke-width: 0.8"/>
      </g>
     </g>
     <g id="text_3">
      <!-- 28000 -->
      <g transform="translate(370.803968 565.406322) scale(0.3 -0.3)">
       <defs>
        <path id="DejaVuSans-38" d="M 2034 2216 
Q 1584 2216 1326 1975 
Q 1069 1734 1069 1313 
Q 1069 891 1326 650 
Q 1584 409 2034 409 
Q 2484 409 2743 651 
Q 3003 894 3003 1313 
Q 3003 1734 2745 1975 
Q 2488 2216 2034 2216 
z
M 1403 2484 
Q 997 2584 770 2862 
Q 544 3141 544 3541 
Q 544 4100 942 4425 
Q 1341 4750 2034 4750 
Q 2731 4750 3128 4425 
Q 3525 4100 3525 3541 
Q 3525 3141 3298 2862 
Q 3072 2584 2669 2484 
Q 3125 2378 3379 2068 
Q 3634 1759 3634 1313 
Q 3634 634 3220 271 
Q 2806 -91 2034 -91 
Q 1263 -91 848 271 
Q 434 634 434 1313 
Q 434 1759 690 2068 
Q 947 2378 1403 2484 
z
M 1172 3481 
Q 1172 3119 1398 2916 
Q 1625 2713 2034 2713 
Q 2441 2713 2670 2916 
Q 2900 3119 2900 3481 
Q 2900 3844 2670 4047 
Q 2441 4250 2034 4250 
Q 1625 4250 1398 4047 
Q 1172 3844 1172 3481 
z
" transform="scale(0.015625)"/>
       </defs>
       <use xlink:href="#DejaVuSans-32"/>
       <use xlink:href="#DejaVuSans-38" x="63.623047"/>
       <use xlink:href="#DejaVuSans-30" x="127.246094"/>
       <use xlink:href="#DejaVuSans-30" x="190.869141"/>
       <use xlink:href="#DejaVuSans-30" x="254.492188"/>
      </g>
     </g>
    </g>
    <g id="xtick_4">
     <g id="line2d_7">
      <path d="M 532.034355 535.61101 
L 532.034355 3.00024 
" clip-path="url(#pa383907cde)" style="fill: none; stroke: #b0b0b0; stroke-width: 0.8; stroke-linecap: square"/>
     </g>
     <g id="line2d_8">
      <g>
       <use xlink:href="#m088b7b080a" x="532.034355" y="535.61101" style="stroke: #000000; stroke-width: 0.8"/>
      </g>
     </g>
     <g id="text_4">
      <!-- 30000 -->
      <g transform="translate(484.315605 565.406322) scale(0.3 -0.3)">
       <defs>
        <path id="DejaVuSans-33" d="M 2597 2516 
Q 3050 2419 3304 2112 
Q 3559 1806 3559 1356 
Q 3559 666 3084 287 
Q 2609 -91 1734 -91 
Q 1441 -91 1130 -33 
Q 819 25 488 141 
L 488 750 
Q 750 597 1062 519 
Q 1375 441 1716 441 
Q 2309 441 2620 675 
Q 2931 909 2931 1356 
Q 2931 1769 2642 2001 
Q 2353 2234 1838 2234 
L 1294 2234 
L 1294 2753 
L 1863 2753 
Q 2328 2753 2575 2939 
Q 2822 3125 2822 3475 
Q 2822 3834 2567 4026 
Q 2313 4219 1838 4219 
Q 1578 4219 1281 4162 
Q 984 4106 628 3988 
L 628 4550 
Q 988 4650 1302 4700 
Q 1616 4750 1894 4750 
Q 2613 4750 3031 4423 
Q 3450 4097 3450 3541 
Q 3450 3153 3228 2886 
Q 3006 2619 2597 2516 
z
" transform="scale(0.015625)"/>
       </defs>
       <use xlink:href="#DejaVuSans-33"/>
       <use xlink:href="#DejaVuSans-30" x="63.623047"/>
       <use xlink:href="#DejaVuSans-30" x="127.246094"/>
       <use xlink:href="#DejaVuSans-30" x="190.869141"/>
       <use xlink:href="#DejaVuSans-30" x="254.492188"/>
      </g>
     </g>
    </g>
    <g id="xtick_5">
     <g id="line2d_9">
      <path d="M 645.545992 535.61101 
L 645.545992 3.00024 
" clip-path="url(#pa383907cde)" style="fill: none; stroke: #b0b0b0; stroke-width: 0.8; stroke-linecap: square"/>
     </g>
     <g id="line2d_10">
      <g>
       <use xlink:href="#m088b7b080a" x="645.545992" y="535.61101" style="stroke: #000000; stroke-width: 0.8"/>
      </g>
     </g>
     <g id="text_5">
      <!-- 32000 -->
      <g transform="translate(597.827242 565.406322) scale(0.3 -0.3)">
       <use xlink:href="#DejaVuSans-33"/>
       <use xlink:href="#DejaVuSans-32" x="63.623047"/>
       <use xlink:href="#DejaVuSans-30" x="127.246094"/>
       <use xlink:href="#DejaVuSans-30" x="190.869141"/>
       <use xlink:href="#DejaVuSans-30" x="254.492188"/>
      </g>
     </g>
    </g>
    <g id="xtick_6">
     <g id="line2d_11">
      <path d="M 759.05763 535.61101 
L 759.05763 3.00024 
" clip-path="url(#pa383907cde)" style="fill: none; stroke: #b0b0b0; stroke-width: 0.8; stroke-linecap: square"/>
     </g>
     <g id="line2d_12">
      <g>
       <use xlink:href="#m088b7b080a" x="759.05763" y="535.61101" style="stroke: #000000; stroke-width: 0.8"/>
      </g>
     </g>
     <g id="text_6">
      <!-- 34000 -->
      <g transform="translate(711.33888 565.406322) scale(0.3 -0.3)">
       <use xlink:href="#DejaVuSans-33"/>
       <use xlink:href="#DejaVuSans-34" x="63.623047"/>
       <use xlink:href="#DejaVuSans-30" x="127.246094"/>
       <use xlink:href="#DejaVuSans-30" x="190.869141"/>
       <use xlink:href="#DejaVuSans-30" x="254.492188"/>
      </g>
     </g>
    </g>
    <g id="xtick_7">
     <g id="line2d_13">
      <path d="M 872.569267 535.61101 
L 872.569267 3.00024 
" clip-path="url(#pa383907cde)" style="fill: none; stroke: #b0b0b0; stroke-width: 0.8; stroke-linecap: square"/>
     </g>
     <g id="line2d_14">
      <g>
       <use xlink:href="#m088b7b080a" x="872.569267" y="535.61101" style="stroke: #000000; stroke-width: 0.8"/>
      </g>
     </g>
     <g id="text_7">
      <!-- 36000 -->
      <g transform="translate(824.850517 565.406322) scale(0.3 -0.3)">
       <use xlink:href="#DejaVuSans-33"/>
       <use xlink:href="#DejaVuSans-36" x="63.623047"/>
       <use xlink:href="#DejaVuSans-30" x="127.246094"/>
       <use xlink:href="#DejaVuSans-30" x="190.869141"/>
       <use xlink:href="#DejaVuSans-30" x="254.492188"/>
      </g>
     </g>
    </g>
    <g id="xtick_8">
     <g id="line2d_15">
      <path d="M 986.080904 535.61101 
L 986.080904 3.00024 
" clip-path="url(#pa383907cde)" style="fill: none; stroke: #b0b0b0; stroke-width: 0.8; stroke-linecap: square"/>
     </g>
     <g id="line2d_16">
      <g>
       <use xlink:href="#m088b7b080a" x="986.080904" y="535.61101" style="stroke: #000000; stroke-width: 0.8"/>
      </g>
     </g>
     <g id="text_8">
      <!-- 38000 -->
      <g transform="translate(938.362154 565.406322) scale(0.3 -0.3)">
       <use xlink:href="#DejaVuSans-33"/>
       <use xlink:href="#DejaVuSans-38" x="63.623047"/>
       <use xlink:href="#DejaVuSans-30" x="127.246094"/>
       <use xlink:href="#DejaVuSans-30" x="190.869141"/>
       <use xlink:href="#DejaVuSans-30" x="254.492188"/>
      </g>
     </g>
    </g>
    <g id="text_9">
     <!-- customer_request -->
     <g transform="translate(440.416856 597.606322) scale(0.3 -0.3)">
      <defs>
       <path id="DejaVuSans-63" d="M 3122 3366 
L 3122 2828 
Q 2878 2963 2633 3030 
Q 2388 3097 2138 3097 
Q 1578 3097 1268 2742 
Q 959 2388 959 1747 
Q 959 1106 1268 751 
Q 1578 397 2138 397 
Q 2388 397 2633 464 
Q 2878 531 3122 666 
L 3122 134 
Q 2881 22 2623 -34 
Q 2366 -91 2075 -91 
Q 1284 -91 818 406 
Q 353 903 353 1747 
Q 353 2603 823 3093 
Q 1294 3584 2113 3584 
Q 2378 3584 2631 3529 
Q 2884 3475 3122 3366 
z
" transform="scale(0.015625)"/>
       <path id="DejaVuSans-75" d="M 544 1381 
L 544 3500 
L 1119 3500 
L 1119 1403 
Q 1119 906 1312 657 
Q 1506 409 1894 409 
Q 2359 409 2629 706 
Q 2900 1003 2900 1516 
L 2900 3500 
L 3475 3500 
L 3475 0 
L 2900 0 
L 2900 538 
Q 2691 219 2414 64 
Q 2138 -91 1772 -91 
Q 1169 -91 856 284 
Q 544 659 544 1381 
z
M 1991 3584 
L 1991 3584 
z
" transform="scale(0.015625)"/>
       <path id="DejaVuSans-73" d="M 2834 3397 
L 2834 2853 
Q 2591 2978 2328 3040 
Q 2066 3103 1784 3103 
Q 1356 3103 1142 2972 
Q 928 2841 928 2578 
Q 928 2378 1081 2264 
Q 1234 2150 1697 2047 
L 1894 2003 
Q 2506 1872 2764 1633 
Q 3022 1394 3022 966 
Q 3022 478 2636 193 
Q 2250 -91 1575 -91 
Q 1294 -91 989 -36 
Q 684 19 347 128 
L 347 722 
Q 666 556 975 473 
Q 1284 391 1588 391 
Q 1994 391 2212 530 
Q 2431 669 2431 922 
Q 2431 1156 2273 1281 
Q 2116 1406 1581 1522 
L 1381 1569 
Q 847 1681 609 1914 
Q 372 2147 372 2553 
Q 372 3047 722 3315 
Q 1072 3584 1716 3584 
Q 2034 3584 2315 3537 
Q 2597 3491 2834 3397 
z
" transform="scale(0.015625)"/>
       <path id="DejaVuSans-74" d="M 1172 4494 
L 1172 3500 
L 2356 3500 
L 2356 3053 
L 1172 3053 
L 1172 1153 
Q 1172 725 1289 603 
Q 1406 481 1766 481 
L 2356 481 
L 2356 0 
L 1766 0 
Q 1100 0 847 248 
Q 594 497 594 1153 
L 594 3053 
L 172 3053 
L 172 3500 
L 594 3500 
L 594 4494 
L 1172 4494 
z
" transform="scale(0.015625)"/>
       <path id="DejaVuSans-6f" d="M 1959 3097 
Q 1497 3097 1228 2736 
Q 959 2375 959 1747 
Q 959 1119 1226 758 
Q 1494 397 1959 397 
Q 2419 397 2687 759 
Q 2956 1122 2956 1747 
Q 2956 2369 2687 2733 
Q 2419 3097 1959 3097 
z
M 1959 3584 
Q 2709 3584 3137 3096 
Q 3566 2609 3566 1747 
Q 3566 888 3137 398 
Q 2709 -91 1959 -91 
Q 1206 -91 779 398 
Q 353 888 353 1747 
Q 353 2609 779 3096 
Q 1206 3584 1959 3584 
z
" transform="scale(0.015625)"/>
       <path id="DejaVuSans-6d" d="M 3328 2828 
Q 3544 3216 3844 3400 
Q 4144 3584 4550 3584 
Q 5097 3584 5394 3201 
Q 5691 2819 5691 2113 
L 5691 0 
L 5113 0 
L 5113 2094 
Q 5113 2597 4934 2840 
Q 4756 3084 4391 3084 
Q 3944 3084 3684 2787 
Q 3425 2491 3425 1978 
L 3425 0 
L 2847 0 
L 2847 2094 
Q 2847 2600 2669 2842 
Q 2491 3084 2119 3084 
Q 1678 3084 1418 2786 
Q 1159 2488 1159 1978 
L 1159 0 
L 581 0 
L 581 3500 
L 1159 3500 
L 1159 2956 
Q 1356 3278 1631 3431 
Q 1906 3584 2284 3584 
Q 2666 3584 2933 3390 
Q 3200 3197 3328 2828 
z
" transform="scale(0.015625)"/>
       <path id="DejaVuSans-65" d="M 3597 1894 
L 3597 1613 
L 953 1613 
Q 991 1019 1311 708 
Q 1631 397 2203 397 
Q 2534 397 2845 478 
Q 3156 559 3463 722 
L 3463 178 
Q 3153 47 2828 -22 
Q 2503 -91 2169 -91 
Q 1331 -91 842 396 
Q 353 884 353 1716 
Q 353 2575 817 3079 
Q 1281 3584 2069 3584 
Q 2775 3584 3186 3129 
Q 3597 2675 3597 1894 
z
M 3022 2063 
Q 3016 2534 2758 2815 
Q 2500 3097 2075 3097 
Q 1594 3097 1305 2825 
Q 1016 2553 972 2059 
L 3022 2063 
z
" transform="scale(0.015625)"/>
       <path id="DejaVuSans-72" d="M 2631 2963 
Q 2534 3019 2420 3045 
Q 2306 3072 2169 3072 
Q 1681 3072 1420 2755 
Q 1159 2438 1159 1844 
L 1159 0 
L 581 0 
L 581 3500 
L 1159 3500 
L 1159 2956 
Q 1341 3275 1631 3429 
Q 1922 3584 2338 3584 
Q 2397 3584 2469 3576 
Q 2541 3569 2628 3553 
L 2631 2963 
z
" transform="scale(0.015625)"/>
       <path id="DejaVuSans-5f" d="M 3263 -1063 
L 3263 -1509 
L -63 -1509 
L -63 -1063 
L 3263 -1063 
z
" transform="scale(0.015625)"/>
       <path id="DejaVuSans-71" d="M 947 1747 
Q 947 1113 1208 752 
Q 1469 391 1925 391 
Q 2381 391 2643 752 
Q 2906 1113 2906 1747 
Q 2906 2381 2643 2742 
Q 2381 3103 1925 3103 
Q 1469 3103 1208 2742 
Q 947 2381 947 1747 
z
M 2906 525 
Q 2725 213 2448 61 
Q 2172 -91 1784 -91 
Q 1150 -91 751 415 
Q 353 922 353 1747 
Q 353 2572 751 3078 
Q 1150 3584 1784 3584 
Q 2172 3584 2448 3432 
Q 2725 3281 2906 2969 
L 2906 3500 
L 3481 3500 
L 3481 -1331 
L 2906 -1331 
L 2906 525 
z
" transform="scale(0.015625)"/>
      </defs>
      <use xlink:href="#DejaVuSans-63"/>
      <use xlink:href="#DejaVuSans-75" x="54.980469"/>
      <use xlink:href="#DejaVuSans-73" x="118.359375"/>
      <use xlink:href="#DejaVuSans-74" x="170.458984"/>
      <use xlink:href="#DejaVuSans-6f" x="209.667969"/>
      <use xlink:href="#DejaVuSans-6d" x="270.849609"/>
      <use xlink:href="#DejaVuSans-65" x="368.261719"/>
      <use xlink:href="#DejaVuSans-72" x="429.785156"/>
      <use xlink:href="#DejaVuSans-5f" x="470.898438"/>
      <use xlink:href="#DejaVuSans-72" x="520.898438"/>
      <use xlink:href="#DejaVuSans-65" x="559.761719"/>
      <use xlink:href="#DejaVuSans-71" x="621.285156"/>
      <use xlink:href="#DejaVuSans-75" x="684.761719"/>
      <use xlink:href="#DejaVuSans-65" x="748.140625"/>
      <use xlink:href="#DejaVuSans-73" x="809.664062"/>
      <use xlink:href="#DejaVuSans-74" x="861.763672"/>
     </g>
    </g>
   </g>
   <g id="matplotlib.axis_2">
    <g id="ytick_1">
     <g id="line2d_17">
      <path d="M 133.554928 484.284077 
L 1017.56941 484.284077 
" clip-path="url(#pa383907cde)" style="fill: none; stroke: #b0b0b0; stroke-width: 0.8; stroke-linecap: square"/>
     </g>
     <g id="line2d_18">
      <defs>
       <path id="m6cf6a392c6" d="M 0 0 
L -3.5 0 
" style="stroke: #000000; stroke-width: 0.8"/>
      </defs>
      <g>
       <use xlink:href="#m6cf6a392c6" x="133.554928" y="484.284077" style="stroke: #000000; stroke-width: 0.8"/>
      </g>
     </g>
     <g id="text_10">
      <!-- 0.000 -->
      <g transform="translate(26.35649 497.581343) scale(0.35 -0.35)">
       <defs>
        <path id="DejaVuSans-2e" d="M 684 794 
L 1344 794 
L 1344 0 
L 684 0 
L 684 794 
z
" transform="scale(0.015625)"/>
       </defs>
       <use xlink:href="#DejaVuSans-30"/>
       <use xlink:href="#DejaVuSans-2e" x="63.623047"/>
       <use xlink:href="#DejaVuSans-30" x="95.410156"/>
       <use xlink:href="#DejaVuSans-30" x="159.033203"/>
       <use xlink:href="#DejaVuSans-30" x="222.65625"/>
      </g>
     </g>
    </g>
    <g id="ytick_2">
     <g id="line2d_19">
      <path d="M 133.554928 399.17392 
L 1017.56941 399.17392 
" clip-path="url(#pa383907cde)" style="fill: none; stroke: #b0b0b0; stroke-width: 0.8; stroke-linecap: square"/>
     </g>
     <g id="line2d_20">
      <g>
       <use xlink:href="#m6cf6a392c6" x="133.554928" y="399.17392" style="stroke: #000000; stroke-width: 0.8"/>
      </g>
     </g>
     <g id="text_11">
      <!-- 0.002 -->
      <g transform="translate(26.35649 412.471186) scale(0.35 -0.35)">
       <use xlink:href="#DejaVuSans-30"/>
       <use xlink:href="#DejaVuSans-2e" x="63.623047"/>
       <use xlink:href="#DejaVuSans-30" x="95.410156"/>
       <use xlink:href="#DejaVuSans-30" x="159.033203"/>
       <use xlink:href="#DejaVuSans-32" x="222.65625"/>
      </g>
     </g>
    </g>
    <g id="ytick_3">
     <g id="line2d_21">
      <path d="M 133.554928 314.063763 
L 1017.56941 314.063763 
" clip-path="url(#pa383907cde)" style="fill: none; stroke: #b0b0b0; stroke-width: 0.8; stroke-linecap: square"/>
     </g>
     <g id="line2d_22">
      <g>
       <use xlink:href="#m6cf6a392c6" x="133.554928" y="314.063763" style="stroke: #000000; stroke-width: 0.8"/>
      </g>
     </g>
     <g id="text_12">
      <!-- 0.004 -->
      <g transform="translate(26.35649 327.361029) scale(0.35 -0.35)">
       <use xlink:href="#DejaVuSans-30"/>
       <use xlink:href="#DejaVuSans-2e" x="63.623047"/>
       <use xlink:href="#DejaVuSans-30" x="95.410156"/>
       <use xlink:href="#DejaVuSans-30" x="159.033203"/>
       <use xlink:href="#DejaVuSans-34" x="222.65625"/>
      </g>
     </g>
    </g>
    <g id="ytick_4">
     <g id="line2d_23">
      <path d="M 133.554928 228.953606 
L 1017.56941 228.953606 
" clip-path="url(#pa383907cde)" style="fill: none; stroke: #b0b0b0; stroke-width: 0.8; stroke-linecap: square"/>
     </g>
     <g id="line2d_24">
      <g>
       <use xlink:href="#m6cf6a392c6" x="133.554928" y="228.953606" style="stroke: #000000; stroke-width: 0.8"/>
      </g>
     </g>
     <g id="text_13">
      <!-- 0.006 -->
      <g transform="translate(26.35649 242.250872) scale(0.35 -0.35)">
       <use xlink:href="#DejaVuSans-30"/>
       <use xlink:href="#DejaVuSans-2e" x="63.623047"/>
       <use xlink:href="#DejaVuSans-30" x="95.410156"/>
       <use xlink:href="#DejaVuSans-30" x="159.033203"/>
       <use xlink:href="#DejaVuSans-36" x="222.65625"/>
      </g>
     </g>
    </g>
    <g id="ytick_5">
     <g id="line2d_25">
      <path d="M 133.554928 143.843449 
L 1017.56941 143.843449 
" clip-path="url(#pa383907cde)" style="fill: none; stroke: #b0b0b0; stroke-width: 0.8; stroke-linecap: square"/>
     </g>
     <g id="line2d_26">
      <g>
       <use xlink:href="#m6cf6a392c6" x="133.554928" y="143.843449" style="stroke: #000000; stroke-width: 0.8"/>
      </g>
     </g>
     <g id="text_14">
      <!-- 0.008 -->
      <g transform="translate(26.35649 157.140715) scale(0.35 -0.35)">
       <use xlink:href="#DejaVuSans-30"/>
       <use xlink:href="#DejaVuSans-2e" x="63.623047"/>
       <use xlink:href="#DejaVuSans-30" x="95.410156"/>
       <use xlink:href="#DejaVuSans-30" x="159.033203"/>
       <use xlink:href="#DejaVuSans-38" x="222.65625"/>
      </g>
     </g>
    </g>
    <g id="ytick_6">
     <g id="line2d_27">
      <path d="M 133.554928 58.733292 
L 1017.56941 58.733292 
" clip-path="url(#pa383907cde)" style="fill: none; stroke: #b0b0b0; stroke-width: 0.8; stroke-linecap: square"/>
     </g>
     <g id="line2d_28">
      <g>
       <use xlink:href="#m6cf6a392c6" x="133.554928" y="58.733292" style="stroke: #000000; stroke-width: 0.8"/>
      </g>
     </g>
     <g id="text_15">
      <!-- 0.010 -->
      <g transform="translate(26.35649 72.030557) scale(0.35 -0.35)">
       <defs>
        <path id="DejaVuSans-31" d="M 794 531 
L 1825 531 
L 1825 4091 
L 703 3866 
L 703 4441 
L 1819 4666 
L 2450 4666 
L 2450 531 
L 3481 531 
L 3481 0 
L 794 0 
L 794 531 
z
" transform="scale(0.015625)"/>
       </defs>
       <use xlink:href="#DejaVuSans-30"/>
       <use xlink:href="#DejaVuSans-2e" x="63.623047"/>
       <use xlink:href="#DejaVuSans-30" x="95.410156"/>
       <use xlink:href="#DejaVuSans-31" x="159.033203"/>
       <use xlink:href="#DejaVuSans-30" x="222.65625"/>
      </g>
     </g>
    </g>
    <g id="text_16">
     <!-- Variance of NDCG -->
     <g transform="translate(18.197115 358.413437) rotate(-90) scale(0.2 -0.2)">
      <defs>
       <path id="DejaVuSans-56" d="M 1831 0 
L 50 4666 
L 709 4666 
L 2188 738 
L 3669 4666 
L 4325 4666 
L 2547 0 
L 1831 0 
z
" transform="scale(0.015625)"/>
       <path id="DejaVuSans-61" d="M 2194 1759 
Q 1497 1759 1228 1600 
Q 959 1441 959 1056 
Q 959 750 1161 570 
Q 1363 391 1709 391 
Q 2188 391 2477 730 
Q 2766 1069 2766 1631 
L 2766 1759 
L 2194 1759 
z
M 3341 1997 
L 3341 0 
L 2766 0 
L 2766 531 
Q 2569 213 2275 61 
Q 1981 -91 1556 -91 
Q 1019 -91 701 211 
Q 384 513 384 1019 
Q 384 1609 779 1909 
Q 1175 2209 1959 2209 
L 2766 2209 
L 2766 2266 
Q 2766 2663 2505 2880 
Q 2244 3097 1772 3097 
Q 1472 3097 1187 3025 
Q 903 2953 641 2809 
L 641 3341 
Q 956 3463 1253 3523 
Q 1550 3584 1831 3584 
Q 2591 3584 2966 3190 
Q 3341 2797 3341 1997 
z
" transform="scale(0.015625)"/>
       <path id="DejaVuSans-69" d="M 603 3500 
L 1178 3500 
L 1178 0 
L 603 0 
L 603 3500 
z
M 603 4863 
L 1178 4863 
L 1178 4134 
L 603 4134 
L 603 4863 
z
" transform="scale(0.015625)"/>
       <path id="DejaVuSans-6e" d="M 3513 2113 
L 3513 0 
L 2938 0 
L 2938 2094 
Q 2938 2591 2744 2837 
Q 2550 3084 2163 3084 
Q 1697 3084 1428 2787 
Q 1159 2491 1159 1978 
L 1159 0 
L 581 0 
L 581 3500 
L 1159 3500 
L 1159 2956 
Q 1366 3272 1645 3428 
Q 1925 3584 2291 3584 
Q 2894 3584 3203 3211 
Q 3513 2838 3513 2113 
z
" transform="scale(0.015625)"/>
       <path id="DejaVuSans-20" transform="scale(0.015625)"/>
       <path id="DejaVuSans-66" d="M 2375 4863 
L 2375 4384 
L 1825 4384 
Q 1516 4384 1395 4259 
Q 1275 4134 1275 3809 
L 1275 3500 
L 2222 3500 
L 2222 3053 
L 1275 3053 
L 1275 0 
L 697 0 
L 697 3053 
L 147 3053 
L 147 3500 
L 697 3500 
L 697 3744 
Q 697 4328 969 4595 
Q 1241 4863 1831 4863 
L 2375 4863 
z
" transform="scale(0.015625)"/>
       <path id="DejaVuSans-4e" d="M 628 4666 
L 1478 4666 
L 3547 763 
L 3547 4666 
L 4159 4666 
L 4159 0 
L 3309 0 
L 1241 3903 
L 1241 0 
L 628 0 
L 628 4666 
z
" transform="scale(0.015625)"/>
       <path id="DejaVuSans-44" d="M 1259 4147 
L 1259 519 
L 2022 519 
Q 2988 519 3436 956 
Q 3884 1394 3884 2338 
Q 3884 3275 3436 3711 
Q 2988 4147 2022 4147 
L 1259 4147 
z
M 628 4666 
L 1925 4666 
Q 3281 4666 3915 4102 
Q 4550 3538 4550 2338 
Q 4550 1131 3912 565 
Q 3275 0 1925 0 
L 628 0 
L 628 4666 
z
" transform="scale(0.015625)"/>
       <path id="DejaVuSans-43" d="M 4122 4306 
L 4122 3641 
Q 3803 3938 3442 4084 
Q 3081 4231 2675 4231 
Q 1875 4231 1450 3742 
Q 1025 3253 1025 2328 
Q 1025 1406 1450 917 
Q 1875 428 2675 428 
Q 3081 428 3442 575 
Q 3803 722 4122 1019 
L 4122 359 
Q 3791 134 3420 21 
Q 3050 -91 2638 -91 
Q 1578 -91 968 557 
Q 359 1206 359 2328 
Q 359 3453 968 4101 
Q 1578 4750 2638 4750 
Q 3056 4750 3426 4639 
Q 3797 4528 4122 4306 
z
" transform="scale(0.015625)"/>
       <path id="DejaVuSans-47" d="M 3809 666 
L 3809 1919 
L 2778 1919 
L 2778 2438 
L 4434 2438 
L 4434 434 
Q 4069 175 3628 42 
Q 3188 -91 2688 -91 
Q 1594 -91 976 548 
Q 359 1188 359 2328 
Q 359 3472 976 4111 
Q 1594 4750 2688 4750 
Q 3144 4750 3555 4637 
Q 3966 4525 4313 4306 
L 4313 3634 
Q 3963 3931 3569 4081 
Q 3175 4231 2741 4231 
Q 1884 4231 1454 3753 
Q 1025 3275 1025 2328 
Q 1025 1384 1454 906 
Q 1884 428 2741 428 
Q 3075 428 3337 486 
Q 3600 544 3809 666 
z
" transform="scale(0.015625)"/>
      </defs>
      <use xlink:href="#DejaVuSans-56"/>
      <use xlink:href="#DejaVuSans-61" x="60.658203"/>
      <use xlink:href="#DejaVuSans-72" x="121.9375"/>
      <use xlink:href="#DejaVuSans-69" x="163.050781"/>
      <use xlink:href="#DejaVuSans-61" x="190.833984"/>
      <use xlink:href="#DejaVuSans-6e" x="252.113281"/>
      <use xlink:href="#DejaVuSans-63" x="315.492188"/>
      <use xlink:href="#DejaVuSans-65" x="370.472656"/>
      <use xlink:href="#DejaVuSans-20" x="431.996094"/>
      <use xlink:href="#DejaVuSans-6f" x="463.783203"/>
      <use xlink:href="#DejaVuSans-66" x="524.964844"/>
      <use xlink:href="#DejaVuSans-20" x="560.169922"/>
      <use xlink:href="#DejaVuSans-4e" x="591.957031"/>
      <use xlink:href="#DejaVuSans-44" x="666.761719"/>
      <use xlink:href="#DejaVuSans-43" x="743.763672"/>
      <use xlink:href="#DejaVuSans-47" x="813.587891"/>
     </g>
    </g>
   </g>
   <g id="line2d_29">
    <path d="M -1 450.837612 
L 67.374467 450.837612 
L 67.487979 461.980583 
L 74.525701 461.980583 
L 74.639212 473.129405 
L 131.67881 473.129405 
L 131.792322 484.284077 
L 993.969963 484.284077 
L 993.969963 484.284077 
" clip-path="url(#pa383907cde)" style="fill: none; stroke: #000000; stroke-width: 5; stroke-linecap: square"/>
    <defs>
     <path id="m19556f63d5" d="M 0 17.67767 
L 17.67767 0 
L 0 -17.67767 
L -17.67767 0 
z
" style="stroke: #000000; stroke-linejoin: miter"/>
    </defs>
    <g clip-path="url(#pa383907cde)">
     <use xlink:href="#m19556f63d5" x="-1" y="445.022402" style="stroke: #000000; stroke-linejoin: miter"/>
     <use xlink:href="#m19556f63d5" x="21.231987" y="450.837612" style="stroke: #000000; stroke-linejoin: miter"/>
     <use xlink:href="#m19556f63d5" x="106.365715" y="473.129405" style="stroke: #000000; stroke-linejoin: miter"/>
     <use xlink:href="#m19556f63d5" x="191.499443" y="484.284077" style="stroke: #000000; stroke-linejoin: miter"/>
     <use xlink:href="#m19556f63d5" x="276.633171" y="484.284077" style="stroke: #000000; stroke-linejoin: miter"/>
     <use xlink:href="#m19556f63d5" x="361.766899" y="484.284077" style="stroke: #000000; stroke-linejoin: miter"/>
     <use xlink:href="#m19556f63d5" x="446.900627" y="484.284077" style="stroke: #000000; stroke-linejoin: miter"/>
     <use xlink:href="#m19556f63d5" x="532.034355" y="484.284077" style="stroke: #000000; stroke-linejoin: miter"/>
     <use xlink:href="#m19556f63d5" x="617.168083" y="484.284077" style="stroke: #000000; stroke-linejoin: miter"/>
     <use xlink:href="#m19556f63d5" x="702.301811" y="484.284077" style="stroke: #000000; stroke-linejoin: miter"/>
     <use xlink:href="#m19556f63d5" x="787.435539" y="484.284077" style="stroke: #000000; stroke-linejoin: miter"/>
     <use xlink:href="#m19556f63d5" x="872.569267" y="484.284077" style="stroke: #000000; stroke-linejoin: miter"/>
     <use xlink:href="#m19556f63d5" x="957.702995" y="484.284077" style="stroke: #000000; stroke-linejoin: miter"/>
    </g>
   </g>
   <g id="line2d_30">
    <path d="M -1 3.775422 
L -0.675759 3.829435 
L -0.164957 3.790932 
L 0.743136 3.832055 
L 1.36745 3.791228 
L 2.162032 3.817294 
L 2.389055 3.914332 
L 2.672834 3.903207 
L 2.843102 3.919491 
L 3.013369 3.981101 
L 3.637683 4.145626 
L 3.978218 4.14652 
L 4.318753 4.155167 
L 4.602532 4.183672 
L 6.645741 4.064596 
L 8.688951 4.231932 
L 8.97273 4.240095 
L 9.086242 4.452015 
L 9.142997 4.432154 
L 9.937579 4.394494 
L 10.221358 4.796302 
L 10.448381 4.680624 
L 11.640253 4.750457 
L 12.037544 4.782166 
L 12.434835 4.793853 
L 12.77537 4.760907 
L 13.626707 4.829995 
L 15.840184 4.580311 
L 16.464498 4.874876 
L 16.634766 5.049857 
L 17.599614 5.023114 
L 17.769882 4.942743 
L 18.280684 4.972526 
L 18.507708 4.874949 
L 18.564463 5.149188 
L 18.621219 5.128305 
L 19.302289 5.087476 
L 19.983359 5.079755 
L 20.550917 5.129308 
L 20.721184 5.208526 
L 21.061719 5.153437 
L 21.231987 5.173887 
L 21.969812 5.180764 
L 22.196836 5.172841 
L 22.480615 5.203256 
L 23.445464 5.144774 
L 23.615731 5.295246 
L 24.864359 5.275732 
L 25.091383 5.291232 
L 25.885964 5.400878 
L 25.999476 5.300189 
L 26.283255 5.399749 
L 27.077836 5.459211 
L 27.872418 5.459717 
L 29.06429 5.596398 
L 29.234557 5.665191 
L 30.256162 5.71076 
L 30.426429 5.61708 
L 30.766964 5.890336 
L 30.82372 5.784147 
L 31.164255 5.806043 
L 32.753418 5.750848 
L 33.150709 5.718096 
L 33.831779 5.777717 
L 34.058802 5.805047 
L 34.342581 5.912686 
L 35.874988 6.000204 
L 36.045256 6.075187 
L 36.215523 5.99407 
L 36.612814 5.965898 
L 38.031709 6.079822 
L 39.280337 6.071917 
L 39.50736 6.12967 
L 40.415454 6.122795 
L 41.210035 6.1109 
L 41.323547 5.921126 
L 41.664082 5.977801 
L 41.834349 5.887502 
L 42.174884 5.880296 
L 42.345151 5.98301 
L 42.969465 5.969326 
L 43.480268 5.897596 
L 44.728896 5.819884 
L 45.182942 6.129093 
L 45.920768 6.136066 
L 46.828861 6.163039 
L 46.999129 5.994196 
L 47.282908 6.062134 
L 48.588291 6.040898 
L 48.928826 6.07219 
L 50.745013 6.086865 
L 50.858524 6.015667 
L 51.085547 6.117971 
L 51.993641 6.108619 
L 52.163908 6.650157 
L 52.901734 6.680122 
L 54.150362 6.817696 
L 54.377385 6.861383 
L 54.774676 6.80279 
L 54.944943 6.879682 
L 55.171966 6.932935 
L 57.044908 7.062998 
L 57.271932 7.028767 
L 57.328688 6.809306 
L 57.385443 6.825479 
L 57.953002 6.873663 
L 58.123269 6.923613 
L 58.407048 6.988716 
L 58.861095 7.098771 
L 59.542164 7.006588 
L 62.606979 6.956421 
L 62.834002 6.927787 
L 63.061025 6.932609 
L 64.025874 6.827959 
L 64.7637 6.94366 
L 64.933967 6.893926 
L 65.047479 6.777181 
L 65.16099 6.865059 
L 65.274502 6.769618 
L 65.44477 6.802767 
L 65.728549 6.811892 
L 66.352863 6.844285 
L 66.579886 6.877945 
L 67.374467 6.926174 
L 67.431223 11.99157 
L 67.487979 11.983856 
L 67.88527 11.938407 
L 68.112293 11.919085 
L 68.339316 11.942672 
L 68.452828 11.930489 
L 68.56634 12.123179 
L 68.96363 12.045535 
L 70.041991 12.052421 
L 70.212258 11.768491 
L 70.439282 11.76892 
L 71.801421 11.8374 
L 71.971689 11.85573 
L 72.482491 11.910607 
L 72.652759 11.914609 
L 72.823026 11.957286 
L 72.993293 12.07728 
L 73.504096 12.021327 
L 73.731119 12.068711 
L 74.525701 12.234779 
L 74.639212 17.31405 
L 75.093259 17.380887 
L 75.377038 17.471444 
L 75.660817 17.449864 
L 75.831084 17.480316 
L 76.398643 17.461649 
L 76.625666 17.35857 
L 81.166131 17.412038 
L 81.336399 17.518245 
L 81.676934 17.509392 
L 81.903957 17.587424 
L 83.322852 17.60956 
L 83.606632 17.552422 
L 84.684992 17.663174 
L 87.466027 17.81027 
L 87.636295 17.836449 
L 88.260609 17.864396 
L 89.395725 17.745887 
L 89.565993 17.661091 
L 89.793016 17.672161 
L 90.303818 17.653421 
L 90.360574 17.775728 
L 90.41733 17.719065 
L 90.928132 17.737667 
L 91.0984 17.777051 
L 91.382179 17.829628 
L 92.290272 17.838132 
L 92.517295 17.880265 
L 92.687563 17.818039 
L 93.084853 17.816686 
L 93.255121 17.786347 
L 94.61726 18.040467 
L 95.071307 18.160849 
L 95.241574 18.141199 
L 96.887493 18.200839 
L 98.136121 18.375021 
L 98.306389 18.321622 
L 98.476656 18.372163 
L 99.214482 18.490305 
L 99.498261 18.483648 
L 100.065819 18.669709 
L 100.236086 18.95374 
L 100.406354 18.957994 
L 100.633377 18.925825 
L 100.803645 18.813825 
L 100.973912 18.911527 
L 101.427959 18.991678 
L 102.563075 19.124438 
L 103.073877 19.107432 
L 104.946819 19.183535 
L 105.117087 19.235331 
L 105.798157 19.207741 
L 106.02518 19.162465 
L 106.252203 19.236896 
L 106.592738 19.272735 
L 107.727854 19.467022 
L 107.954878 19.461619 
L 108.181901 19.514649 
L 108.295413 19.518902 
L 108.46568 19.383208 
L 108.692703 19.402264 
L 110.111599 19.324934 
L 111.189959 19.226023 
L 111.360227 19.274499 
L 111.416983 19.276633 
L 111.530494 19.037325 
L 111.58725 19.05408 
L 111.984541 19.116488 
L 112.154808 19.086117 
L 112.325076 19.155492 
L 118.057413 19.577611 
L 118.284437 19.607382 
L 118.908751 19.640614 
L 119.533065 19.594465 
L 119.703332 19.584141 
L 119.8736 19.811955 
L 120.043867 19.84054 
L 120.214135 19.930929 
L 120.384402 19.85836 
L 121.065472 19.862193 
L 121.178984 20.096515 
L 121.803298 20.090021 
L 122.99517 20.209598 
L 123.222193 20.166607 
L 123.562728 20.099542 
L 126.627542 19.899742 
L 127.478879 19.877842 
L 127.592391 20.016683 
L 127.762658 19.922159 
L 127.989682 20.019701 
L 128.159949 20.08656 
L 128.55724 20.135757 
L 129.522089 20.175656 
L 131.224763 20.140931 
L 131.338275 20.236195 
L 131.565298 20.192778 
L 131.67881 20.201516 
L 131.735566 25.353412 
L 131.792322 25.350312 
L 132.757171 25.370929 
L 133.267973 25.330799 
L 134.11931 25.243951 
L 134.80038 25.21638 
L 134.970647 25.214425 
L 135.48145 25.182856 
L 136.446299 25.222582 
L 136.503055 25.356817 
L 136.55981 25.31 
L 137.354392 25.290724 
L 137.524659 25.398388 
L 139.057066 25.30032 
L 139.340845 25.262967 
L 139.794892 25.278397 
L 140.646229 25.277355 
L 140.759741 25.318232 
L 141.270543 25.325401 
L 142.178636 25.31185 
L 142.348904 25.209914 
L 142.632683 25.150837 
L 142.859706 25.167118 
L 143.029974 25.217453 
L 143.767799 25.088789 
L 143.881311 24.947002 
L 143.994823 24.91393 
L 144.732648 24.947847 
L 145.016427 25.001415 
L 145.754253 24.945245 
L 146.321811 25.002348 
L 146.492079 25.020498 
L 148.137997 25.204293 
L 148.308265 25.130497 
L 149.500137 25.230488 
L 149.783916 25.217035 
L 151.429835 25.153233 
L 151.827126 25.165838 
L 151.997393 25.206222 
L 153.359533 25.253021 
L 153.5298 25.244755 
L 153.700068 25.350305 
L 156.537859 25.570982 
L 156.708126 25.60268 
L 157.162173 25.702118 
L 157.559463 25.644246 
L 157.672975 25.463918 
L 158.864847 25.628148 
L 159.148626 25.505832 
L 160.851301 25.772079 
L 161.248592 25.738792 
L 162.326952 25.72148 
L 162.780999 25.642631 
L 163.178289 25.622642 
L 163.689092 25.599529 
L 165.051231 25.790702 
L 165.33501 25.834184 
L 166.867418 25.900554 
L 167.434976 25.899971 
L 167.718755 25.912522 
L 169.591697 25.916477 
L 169.875476 26.014483 
L 170.329522 25.931884 
L 170.386278 25.970737 
L 170.556546 25.803982 
L 170.783569 25.76485 
L 171.010592 25.801689 
L 173.110558 25.895859 
L 173.167313 25.773095 
L 173.224069 25.809861 
L 173.394337 25.891322 
L 174.813232 25.991283 
L 175.040255 26.037514 
L 175.267279 26.063456 
L 176.799686 26.336037 
L 176.913197 26.509719 
L 177.196977 26.536681 
L 177.424 26.556289 
L 177.594267 26.42628 
L 179.069919 26.513737 
L 179.240186 26.443779 
L 179.467209 26.472971 
L 179.694233 26.433889 
L 180.261791 26.487579 
L 181.340151 26.537713 
L 181.510419 26.672589 
L 182.021221 26.616979 
L 182.418512 26.547374 
L 182.702291 26.492184 
L 183.610384 26.527371 
L 184.575233 26.690428 
L 185.767105 26.585326 
L 185.937373 26.702658 
L 186.618442 26.790682 
L 186.958977 26.92872 
L 187.923826 26.832205 
L 188.264361 27.106647 
L 188.434629 27.06033 
L 188.604896 27.218453 
L 188.831919 27.164947 
L 189.342722 27.315425 
L 189.512989 27.238422 
L 192.180513 27.540906 
L 192.577803 27.62678 
L 193.769676 27.484214 
L 194.110211 27.622375 
L 194.337234 27.666335 
L 194.564257 27.659135 
L 195.131815 27.666682 
L 195.302083 27.597542 
L 195.585862 27.621249 
L 197.742583 27.780983 
L 197.91285 27.748501 
L 199.27499 27.727254 
L 199.445257 27.622566 
L 199.842548 27.616546 
L 200.239839 27.703771 
L 201.942513 27.777534 
L 202.112781 27.867894 
L 202.793851 27.901416 
L 202.964118 28.017339 
L 203.474921 28.080979 
L 203.815456 28.089977 
L 204.15599 28.102588 
L 204.326258 28.140644 
L 204.553281 28.100849 
L 205.51813 28.173793 
L 205.688398 28.210198 
L 206.312712 28.231641 
L 206.426223 28.243748 
L 206.653246 28.187831 
L 212.896387 28.478588 
L 213.12341 28.428518 
L 213.180166 28.480489 
L 213.236921 28.393098 
L 213.463945 28.37577 
L 214.031503 28.485396 
L 214.372038 28.587264 
L 215.166619 28.588773 
L 215.336887 28.647249 
L 216.017957 28.654302 
L 216.301736 28.675596 
L 218.798992 28.512716 
L 219.139527 28.526112 
L 219.990864 28.631377 
L 220.161131 28.698269 
L 220.671934 28.70394 
L 220.785445 28.676795 
L 221.012469 28.788409 
L 222.658387 28.723763 
L 222.885411 28.762622 
L 223.112434 28.887832 
L 223.85026 28.919327 
L 224.020527 29.002629 
L 225.155643 29.000258 
L 225.723202 28.899273 
L 226.006981 28.930772 
L 226.915074 28.849825 
L 227.085341 29.093004 
L 227.936678 28.986183 
L 228.106946 28.969868 
L 229.639353 29.173331 
L 229.80962 29.357823 
L 230.150155 29.410743 
L 230.49069 29.516499 
L 230.887981 29.475553 
L 231.569051 29.44989 
L 231.739318 29.414493 
L 232.477144 29.328702 
L 233.044702 29.36033 
L 233.385237 29.381107 
L 233.669016 29.345003 
L 233.896039 29.389837 
L 234.463598 29.453657 
L 234.9744 29.44799 
L 235.087912 29.703321 
L 235.144667 29.68278 
L 235.712226 29.752354 
L 236.393295 29.71973 
L 236.563563 29.86519 
L 237.131121 29.885981 
L 237.812191 29.975907 
L 237.982458 30.161141 
L 239.117575 30.220016 
L 239.45811 30.200462 
L 239.8554 30.251536 
L 240.082424 30.350427 
L 240.649982 30.34936 
L 240.820249 30.398218 
L 241.21754 30.286703 
L 241.444563 30.232371 
L 241.728342 30.279021 
L 241.89861 30.435693 
L 242.295901 30.515791 
L 242.466168 30.539552 
L 243.65804 30.529489 
L 244.055331 30.62114 
L 246.439075 30.520757 
L 246.836366 30.516884 
L 247.290413 30.485762 
L 247.630948 30.570096 
L 247.914727 30.612053 
L 248.652552 30.682992 
L 250.525494 30.765592 
L 251.717366 30.79944 
L 251.887634 30.934006 
L 252.455192 30.850991 
L 255.236227 30.843323 
L 255.406495 30.972063 
L 255.690274 30.952216 
L 255.74703 31.074862 
L 255.803785 31.038417 
L 259.94696 31.330778 
L 260.401007 31.349343 
L 261.252344 31.385808 
L 261.536123 31.34715 
L 261.876658 31.332053 
L 262.046925 31.310814 
L 264.771205 31.34251 
L 264.998228 31.381266 
L 265.282007 31.352606 
L 265.452275 31.36216 
L 265.622542 31.317039 
L 265.963077 31.335286 
L 266.133344 31.412581 
L 266.417124 31.419993 
L 268.290066 31.533734 
L 268.460333 31.412699 
L 269.027891 31.402021 
L 269.254914 31.364156 
L 273.511601 31.423759 
L 273.79538 31.431471 
L 274.930496 31.54099 
L 277.711531 31.517987 
L 277.938555 31.526907 
L 281.854706 31.556369 
L 282.024974 31.671101 
L 283.330357 31.708091 
L 283.897916 31.649188 
L 284.749253 31.773096 
L 285.033032 31.71434 
L 286.054637 31.7832 
L 286.338416 31.871632 
L 286.849218 31.892053 
L 287.076242 31.898806 
L 292.808579 31.949968 
L 292.978847 31.849296 
L 294.227475 31.917204 
L 296.838242 31.819952 
L 297.122021 31.852326 
L 300.073324 31.894478 
L 300.186836 31.604001 
L 300.243591 31.617212 
L 301.775999 31.711873 
L 302.173289 31.626975 
L 302.457068 31.707795 
L 302.627336 31.684693 
L 302.797603 31.696448 
L 303.365161 31.653367 
L 304.102987 31.714424 
L 304.33001 31.786811 
L 305.465127 31.764554 
L 305.919173 31.790093 
L 306.884022 31.955842 
L 307.621848 31.951484 
L 309.324522 32.039232 
L 309.835325 32.086477 
L 311.027197 31.958444 
L 311.310976 31.886432 
L 311.708267 31.95585 
L 312.162313 31.967723 
L 312.389337 31.988479 
L 314.205523 32.061442 
L 314.432546 32.039361 
L 314.829837 32.086541 
L 315.227128 32.033186 
L 317.213581 31.964609 
L 317.270337 31.766429 
L 317.327093 31.791554 
L 318.17843 31.721789 
L 319.597326 31.509867 
L 319.767593 31.65055 
L 322.945919 32.018433 
L 323.229698 31.983103 
L 325.840466 32.007776 
L 326.067489 32.046182 
L 327.599896 32.107727 
L 327.770163 32.03555 
L 328.90528 32.101747 
L 329.302571 31.99214 
L 331.629559 32.046796 
L 331.799827 32.176657 
L 332.424141 32.241931 
L 334.297083 32.215686 
L 334.46735 32.109856 
L 334.637618 32.306853 
L 337.475408 32.394517 
L 339.745641 32.336501 
L 340.483467 32.393668 
L 340.880758 32.290626 
L 341.278048 32.257249 
L 341.618583 32.339391 
L 342.356409 32.279767 
L 342.867211 32.398783 
L 343.094235 32.365789 
L 343.434769 32.383477 
L 343.83206 32.360882 
L 344.115839 32.323627 
L 345.761758 32.351207 
L 348.372526 32.360627 
L 348.542793 32.305075 
L 349.621154 32.420449 
L 349.791421 32.597555 
L 350.188712 32.570407 
L 350.472491 32.513953 
L 350.926538 32.548167 
L 351.323828 32.556639 
L 353.423794 32.598209 
L 353.707573 32.642152 
L 354.218375 32.637606 
L 354.388642 32.582719 
L 355.296736 32.476936 
L 357.453457 32.335934 
L 357.737236 32.350971 
L 358.191282 32.354733 
L 358.588573 32.342097 
L 358.985864 32.387188 
L 359.212887 32.410014 
L 363.866864 32.475991 
L 364.037132 32.578738 
L 364.718201 32.592322 
L 365.172248 32.569131 
L 365.342515 32.541263 
L 366.647899 32.555718 
L 366.818167 32.532798 
L 367.158702 32.588474 
L 367.385725 32.564834 
L 369.315423 32.589769 
L 369.769469 32.596424 
L 372.664016 32.825428 
L 372.834284 32.861772 
L 373.004551 32.889577 
L 373.28833 32.896232 
L 373.628865 32.916356 
L 374.139667 32.899784 
L 374.480202 32.85873 
L 377.317993 32.981448 
L 377.488261 33.152763 
L 382.880063 33.195481 
L 383.561133 33.271548 
L 383.731401 33.275231 
L 383.901668 33.251841 
L 384.639494 33.31378 
L 384.923273 33.299974 
L 385.263808 33.368924 
L 385.717854 33.251859 
L 386.398924 33.440983 
L 386.739459 33.353378 
L 389.917785 33.405709 
L 390.031297 33.568435 
L 390.655611 33.552244 
L 391.450192 33.5804 
L 391.677215 33.548251 
L 396.50146 33.627881 
L 396.785239 33.608047 
L 396.955506 33.681042 
L 397.18253 33.725958 
L 398.771693 33.67393 
L 398.998716 33.6565 
L 399.055472 33.663515 
L 399.225739 33.493474 
L 402.801356 33.637235 
L 403.085135 33.675986 
L 403.766205 33.681208 
L 404.049984 33.670912 
L 404.333763 33.566824 
L 404.901321 33.641914 
L 405.128344 33.698595 
L 405.412123 33.62853 
L 406.206705 33.605817 
L 406.433728 33.659991 
L 406.660751 33.649796 
L 410.860682 34.005469 
L 411.030949 33.995282 
L 411.995798 34.08671 
L 412.222822 34.104245 
L 413.244426 34.077466 
L 413.641717 34.166614 
L 414.039008 34.100467 
L 419.147032 34.069977 
L 420.849706 34.004397 
L 422.268602 34.07246 
L 422.495625 34.021007 
L 423.063183 33.969885 
L 423.233451 34.063801 
L 423.460474 34.078298 
L 424.709102 33.907867 
L 424.936125 33.852269 
L 426.241509 33.955213 
L 426.468532 34.092081 
L 427.319869 34.246216 
L 427.490137 34.304979 
L 429.930637 34.358562 
L 431.917091 34.426732 
L 432.087358 34.573051 
L 433.108963 34.628412 
L 433.27923 34.677471 
L 435.32244 34.751802 
L 435.435952 34.585928 
L 435.889998 34.58767 
L 438.330498 34.574688 
L 440.316952 34.6559 
L 441.395312 34.589373 
L 441.906115 34.600234 
L 442.189894 34.607668 
L 442.360161 34.418826 
L 442.587185 34.44024 
L 444.119592 34.393402 
L 444.68715 34.362373 
L 444.914173 34.306208 
L 445.084441 34.374641 
L 445.651999 34.360789 
L 447.695208 34.457608 
L 448.660057 34.425131 
L 449.965441 34.332293 
L 456.889651 34.658322 
L 457.17343 34.716643 
L 458.308546 34.604611 
L 458.649081 34.618847 
L 460.522023 34.751147 
L 460.749047 34.814818 
L 461.203093 34.88217 
L 462.7355 34.992723 
L 462.905768 34.914588 
L 463.473326 34.935116 
L 466.878675 34.988461 
L 467.048943 35.080146 
L 467.673257 35.062939 
L 467.957036 35.139181 
L 470.170513 35.179028 
L 470.454292 35.192579 
L 472.043455 35.312538 
L 472.213722 35.384186 
L 473.121815 35.339009 
L 473.46235 35.339773 
L 475.675827 35.278306 
L 475.789339 35.342271 
L 477.26499 35.334597 
L 477.378502 35.367811 
L 477.435257 35.217189 
L 477.492013 35.248366 
L 478.513618 35.276053 
L 478.967664 35.262841 
L 479.194688 35.220645 
L 486.799967 34.961957 
L 486.970235 34.970683 
L 487.99184 35.0656 
L 488.502642 35.062635 
L 489.637758 34.957175 
L 489.921537 34.889543 
L 493.156619 35.040035 
L 496.618724 35.156746 
L 497.470061 35.13028 
L 497.980864 35.119535 
L 499.343003 35.184498 
L 499.513271 35.182639 
L 500.080829 35.251128 
L 500.988922 35.316354 
L 501.499724 35.300103 
L 501.783504 35.275768 
L 502.351062 35.325866 
L 503.202399 35.325767 
L 503.429422 35.399818 
L 504.167248 35.335714 
L 504.791562 35.259245 
L 505.132097 35.337019 
L 505.813167 35.391215 
L 508.367179 35.385814 
L 510.296876 35.39504 
L 512.396842 35.358724 
L 512.567109 35.292043 
L 513.588714 35.230995 
L 513.815737 35.17463 
L 514.326539 35.100897 
L 514.894098 34.944251 
L 515.121121 34.973157 
L 517.618377 35.0411 
L 517.8454 34.971665 
L 518.412958 34.95382 
L 518.583226 35.045505 
L 518.639982 35.047021 
L 518.810249 35.157445 
L 519.775098 35.282608 
L 520.683191 35.233859 
L 521.477773 35.249511 
L 522.385866 35.226667 
L 527.834424 35.316179 
L 529.877634 35.372742 
L 531.750576 35.512335 
L 532.37489 35.466301 
L 532.658669 35.463863 
L 534.191076 35.529283 
L 534.531611 35.588081 
L 534.928902 35.552165 
L 535.155925 35.576138 
L 535.609971 35.577106 
L 535.950506 35.636723 
L 536.291041 35.67487 
L 541.569332 35.718046 
L 541.7396 35.77906 
L 542.307158 35.827333 
L 542.477426 35.89784 
L 552.239426 35.99818 
L 552.409694 36.069165 
L 552.920496 36.096831 
L 553.885345 36.087893 
L 554.623171 36.072734 
L 554.793438 36.175194 
L 556.098822 36.278983 
L 556.382601 36.312486 
L 556.609624 36.275435 
L 557.801497 36.359898 
L 558.198787 36.413352 
L 558.369055 36.488937 
L 558.596078 36.598496 
L 558.936613 36.636372 
L 559.447415 36.646996 
L 559.78795 36.640716 
L 560.071729 36.631308 
L 560.923067 36.654491 
L 561.547381 36.617554 
L 561.717648 36.595063 
L 562.22845 36.486924 
L 563.023032 36.458767 
L 563.306811 36.441565 
L 563.420323 36.374 
L 563.59059 36.419838 
L 564.498683 36.512401 
L 565.179753 36.543649 
L 565.463532 36.495025 
L 566.371625 36.566814 
L 566.825672 36.67354 
L 568.017544 36.676559 
L 568.925637 36.645526 
L 569.322928 36.616362 
L 569.720219 36.666812 
L 574.090417 36.578443 
L 574.260684 36.43991 
L 575.3958 36.303038 
L 575.793091 36.366317 
L 577.382254 36.27555 
L 578.006568 36.352525 
L 580.447068 36.296678 
L 580.901115 36.315231 
L 582.376766 36.350258 
L 582.603789 36.514238 
L 582.887568 36.4168 
L 583.738906 36.430538 
L 583.909173 36.411839 
L 587.938836 36.401937 
L 588.336127 36.385085 
L 592.422546 36.290811 
L 592.990104 36.345416 
L 593.671174 36.3869 
L 594.011709 36.457972 
L 596.906256 36.559904 
L 597.246791 36.597855 
L 598.665686 36.589252 
L 598.835953 36.604706 
L 599.346756 36.636729 
L 600.765651 36.640742 
L 600.992675 36.768817 
L 602.241303 36.680583 
L 602.525082 36.681749 
L 603.943977 36.690521 
L 604.171 36.780611 
L 604.341268 36.768917 
L 604.795314 36.836274 
L 605.53314 36.891183 
L 605.760163 36.994105 
L 608.200664 36.986667 
L 608.427687 36.993103 
L 608.768222 37.018365 
L 609.279024 36.962499 
L 610.527652 36.957619 
L 610.924943 36.888599 
L 611.435745 36.913447 
L 611.77628 36.921428 
L 612.116815 36.933174 
L 614.89785 36.959783 
L 615.068118 36.768248 
L 615.692432 36.751236 
L 615.862699 36.678019 
L 616.94106 36.751488 
L 617.111327 36.797429 
L 620.630188 36.777996 
L 620.857211 36.850904 
L 621.424769 36.909278 
L 621.878816 36.90779 
L 624.035537 36.928667 
L 626.759816 36.825557 
L 627.327374 36.790126 
L 631.413793 36.843017 
L 631.584061 36.887456 
L 634.875898 36.840964 
L 635.273189 36.87304 
L 636.35155 36.914242 
L 636.578573 36.973627 
L 637.713689 36.888506 
L 638.224492 36.809275 
L 638.962317 36.826415 
L 639.756899 36.755921 
L 640.154189 36.682925 
L 640.55148 36.648458 
L 640.948771 36.732286 
L 642.310911 36.830437 
L 650.256725 36.940322 
L 650.370237 37.117507 
L 650.824283 37.081221 
L 651.335086 37.170228 
L 652.072911 37.115158 
L 653.378295 37.133305 
L 653.775586 37.138703 
L 654.967458 37.114326 
L 655.137726 37.127299 
L 655.818795 37.15298 
L 655.989063 37.153769 
L 656.216086 37.135862 
L 656.499865 37.176865 
L 657.010668 37.168885 
L 657.294447 37.164879 
L 657.634982 37.153116 
L 658.372807 37.103044 
L 659.053877 37.155186 
L 659.734947 37.080914 
L 661.551133 36.979905 
L 661.664645 37.078251 
L 661.834912 37.050673 
L 662.061935 37.084751 
L 666.034843 37.209205 
L 666.261866 37.324497 
L 668.305076 37.27268 
L 671.596913 37.367804 
L 671.994204 37.427311 
L 672.505006 37.367888 
L 672.845541 37.382522 
L 673.980657 37.43577 
L 674.150925 37.387788 
L 674.548216 37.387439 
L 677.499518 37.405422 
L 678.464367 37.411473 
L 678.69139 37.406017 
L 678.918414 37.490141 
L 683.458879 37.476386 
L 683.685902 37.554658 
L 685.502089 37.584917 
L 685.672356 37.644178 
L 686.012891 37.690679 
L 686.410182 37.730432 
L 692.993857 37.880561 
L 693.164124 37.87479 
L 698.045125 37.730222 
L 698.272148 37.672268 
L 699.009973 37.720933 
L 699.46402 37.819801 
L 700.939671 37.621512 
L 701.280206 37.654914 
L 702.188299 37.716474 
L 702.699102 37.785947 
L 702.982881 37.825623 
L 704.174753 37.807671 
L 704.34502 37.836969 
L 704.458532 37.826097 
L 705.70716 37.824273 
L 705.934183 37.892842 
L 712.858393 37.914824 
L 713.255684 37.907533 
L 714.504312 37.908869 
L 716.604277 37.912919 
L 718.250196 37.903323 
L 718.590731 37.964875 
L 719.952871 38.043823 
L 720.406917 38.030665 
L 722.336615 38.176986 
L 722.563638 38.252007 
L 722.904173 38.210073 
L 734.255337 38.487716 
L 734.48236 38.498136 
L 734.879651 38.513252 
L 737.093128 38.589699 
L 737.376907 38.659977 
L 738.001221 38.632613 
L 738.228244 38.609485 
L 738.398512 38.606887 
L 738.512023 38.710543 
L 739.306605 38.635668 
L 742.484931 38.785735 
L 742.655198 38.751254 
L 747.195664 38.851239 
L 747.536198 38.853554 
L 748.387536 38.762753 
L 748.841582 38.742331 
L 749.806431 38.751364 
L 749.976699 38.766099 
L 751.111815 38.792867 
L 751.565862 38.736948 
L 754.744187 38.669283 
L 755.084722 38.626858 
L 755.93606 38.572054 
L 756.106327 38.417429 
L 756.390106 38.421452 
L 756.617129 38.482601 
L 757.69549 38.467008 
L 759.171141 38.388674 
L 759.398165 38.347102 
L 759.908967 38.38602 
L 760.192746 38.38389 
L 760.419769 38.422313 
L 761.100839 38.445607 
L 761.271107 38.61661 
L 761.725153 38.59025 
L 762.803514 38.563932 
L 763.314316 38.551226 
L 763.825118 38.671765 
L 764.449432 38.778679 
L 764.733211 38.7589 
L 765.130502 38.786392 
L 770.465549 38.968259 
L 770.749328 39.047043 
L 771.146619 38.982196 
L 771.884445 38.957948 
L 774.551968 38.994242 
L 775.006015 38.988458 
L 776.368154 39.047703 
L 777.446515 39.112071 
L 779.376213 39.144449 
L 779.887015 39.149457 
L 780.22755 39.205136 
L 780.454573 39.218741 
L 781.646445 39.088241 
L 781.816713 39.110402 
L 781.98698 39.271545 
L 786.867981 39.40335 
L 787.15176 39.378874 
L 787.946341 39.393658 
L 801.510982 39.744796 
L 802.021784 39.744815 
L 802.362319 39.800414 
L 802.532587 39.916561 
L 804.235261 39.889716 
L 804.405529 39.959483 
L 804.916331 39.944763 
L 805.937936 40.084978 
L 806.846029 40.091742 
L 807.073052 40.144588 
L 810.024355 40.180497 
L 810.308134 40.276469 
L 810.705425 40.230341 
L 810.932448 40.28339 
L 812.408099 40.281004 
L 813.032413 40.26067 
L 818.140437 40.414241 
L 820.751205 40.303761 
L 821.602542 40.283167 
L 821.886321 40.326101 
L 822.283612 40.337607 
L 823.305216 40.409567 
L 823.53224 40.400317 
L 823.816019 40.41591 
L 825.405182 40.361709 
L 825.97274 40.298073 
L 826.199763 40.360944 
L 826.880833 40.350712 
L 827.107856 40.296578 
L 829.491601 40.206422 
L 829.77538 40.203352 
L 830.229426 40.157864 
L 830.740229 40.141016 
L 836.132031 40.204489 
L 836.41581 40.177234 
L 838.175241 40.242301 
L 838.629287 40.218239 
L 838.799555 40.215735 
L 839.934671 40.086162 
L 841.069788 40.107723 
L 841.296811 40.209058 
L 841.807613 40.22933 
L 842.26166 40.25354 
L 843.056241 40.218786 
L 844.361625 40.175156 
L 844.758916 40.140063 
L 851.058812 40.336574 
L 851.229079 40.450596 
L 851.456102 40.402547 
L 853.3858 40.20408 
L 853.839847 40.159927 
L 854.180382 40.118796 
L 857.755998 40.165284 
L 858.437068 40.221881 
L 858.664091 40.20273 
L 858.891115 40.243577 
L 859.23165 40.204639 
L 859.855964 40.202303 
L 860.366766 40.229888 
L 860.99108 40.236243 
L 861.899173 40.293951 
L 862.06944 40.360963 
L 864.226162 40.434888 
L 864.509941 40.408968 
L 865.645057 40.453792 
L 865.87208 40.462609 
L 868.880139 40.480091 
L 869.788232 40.550156 
L 871.093616 40.516357 
L 871.774685 40.60236 
L 872.569267 40.542243 
L 873.193581 40.631128 
L 881.423175 40.765877 
L 881.593442 40.707568 
L 882.898826 40.820949 
L 883.069093 40.825313 
L 884.431233 40.715553 
L 884.771768 40.711336 
L 886.701466 40.727167 
L 892.036513 40.852638 
L 892.20678 40.769994 
L 893.114873 40.736745 
L 893.966211 40.748239 
L 894.93106 40.745384 
L 896.066176 40.831324 
L 896.236443 40.863462 
L 896.576978 40.816304 
L 899.074234 40.88144 
L 899.528281 40.927249 
L 909.063258 41.042371 
L 909.347037 41.100195 
L 909.914596 41.099495 
L 910.765933 41.116325 
L 914.511817 41.154617 
L 914.682084 41.203928 
L 916.555026 41.184407 
L 917.803654 41.216607 
L 918.314457 41.123894 
L 918.768503 41.168323 
L 930.403446 41.427291 
L 930.630469 41.433807 
L 933.808795 41.528593 
L 933.979063 41.56655 
L 935.000667 41.585304 
L 936.930365 41.609845 
L 937.2709 41.604069 
L 937.781703 41.639479 
L 938.235749 41.660993 
L 938.860063 41.65357 
L 939.087086 41.682304 
L 939.484377 41.630362 
L 942.549191 41.689661 
L 942.946482 41.69599 
L 944.478889 41.802041 
L 944.932936 41.890933 
L 949.132866 41.915808 
L 949.416645 41.918629 
L 950.835541 41.883645 
L 951.686878 41.838753 
L 951.970657 41.882684 
L 952.197681 41.91384 
L 953.446309 41.880445 
L 953.616576 41.997374 
L 955.773297 42.053052 
L 956.113832 42.033463 
L 959.519181 42.178897 
L 959.746204 42.239513 
L 960.711053 42.328075 
L 961.051588 42.40455 
L 961.675902 42.418524 
L 962.300216 42.401748 
L 962.583995 42.451669 
L 963.662356 42.453758 
L 966.954193 42.427396 
L 967.181217 42.479928 
L 969.16767 42.57462 
L 969.337938 42.466106 
L 969.564961 42.447809 
L 969.735229 42.349667 
L 970.52981 42.380804 
L 983.810672 42.801532 
L 984.151206 42.787858 
L 987.726823 42.756709 
L 987.897091 42.808103 
L 988.294381 42.784103 
L 988.57816 42.831062 
L 988.805184 42.737114 
L 990.507858 42.731295 
L 990.961905 42.717838 
L 992.834847 42.810944 
L 993.005114 42.967226 
L 993.686184 42.978855 
L 993.969963 42.97143 
L 993.969963 42.97143 
" clip-path="url(#pa383907cde)" style="fill: none; stroke: #9400d3; stroke-width: 5; stroke-linecap: square"/>
    <defs>
     <path id="m53bde9d50d" d="M 0 12.5 
C 3.315039 12.5 6.494748 11.182921 8.838835 8.838835 
C 11.182921 6.494748 12.5 3.315039 12.5 0 
C 12.5 -3.315039 11.182921 -6.494748 8.838835 -8.838835 
C 6.494748 -11.182921 3.315039 -12.5 0 -12.5 
C -3.315039 -12.5 -6.494748 -11.182921 -8.838835 -8.838835 
C -11.182921 -6.494748 -12.5 -3.315039 -12.5 0 
C -12.5 3.315039 -11.182921 6.494748 -8.838835 8.838835 
C -6.494748 11.182921 -3.315039 12.5 0 12.5 
z
" style="stroke: #9400d3"/>
    </defs>
    <g clip-path="url(#pa383907cde)">
     <use xlink:href="#m53bde9d50d" x="-1" y="0.977835" style="fill: #9400d3; stroke: #9400d3"/>
     <use xlink:href="#m53bde9d50d" x="21.231987" y="5.173887" style="fill: #9400d3; stroke: #9400d3"/>
     <use xlink:href="#m53bde9d50d" x="106.365715" y="19.23295" style="fill: #9400d3; stroke: #9400d3"/>
     <use xlink:href="#m53bde9d50d" x="191.499443" y="27.33792" style="fill: #9400d3; stroke: #9400d3"/>
     <use xlink:href="#m53bde9d50d" x="276.633171" y="31.56047" style="fill: #9400d3; stroke: #9400d3"/>
     <use xlink:href="#m53bde9d50d" x="361.766899" y="32.499084" style="fill: #9400d3; stroke: #9400d3"/>
     <use xlink:href="#m53bde9d50d" x="446.900627" y="34.42377" style="fill: #9400d3; stroke: #9400d3"/>
     <use xlink:href="#m53bde9d50d" x="532.034355" y="35.486711" style="fill: #9400d3; stroke: #9400d3"/>
     <use xlink:href="#m53bde9d50d" x="617.168083" y="36.79548" style="fill: #9400d3; stroke: #9400d3"/>
     <use xlink:href="#m53bde9d50d" x="702.301811" y="37.767065" style="fill: #9400d3; stroke: #9400d3"/>
     <use xlink:href="#m53bde9d50d" x="787.435539" y="39.368309" style="fill: #9400d3; stroke: #9400d3"/>
     <use xlink:href="#m53bde9d50d" x="872.569267" y="40.542243" style="fill: #9400d3; stroke: #9400d3"/>
     <use xlink:href="#m53bde9d50d" x="957.702995" y="42.141647" style="fill: #9400d3; stroke: #9400d3"/>
    </g>
   </g>
   <g id="line2d_31">
    <path d="M -1 197.686766 
L -0.051445 197.700688 
L 5.680893 197.628569 
L 6.191695 197.654313 
L 12.207812 197.566119 
L 13.229416 197.565053 
L 13.626707 197.560286 
L 22.707638 197.47718 
L 22.934661 197.504611 
L 29.461581 197.608399 
L 29.631848 197.79648 
L 30.710209 197.730644 
L 30.880476 197.549734 
L 33.491244 197.555376 
L 34.285825 197.571783 
L 34.62636 197.550007 
L 35.193918 197.548714 
L 35.534453 197.64138 
L 38.599267 197.602764 
L 40.415454 197.605084 
L 46.999129 197.578444 
L 47.282908 197.592228 
L 49.723408 197.496159 
L 50.007187 197.463996 
L 50.120699 197.526528 
L 50.347722 197.575707 
L 50.574745 197.547948 
L 50.745013 197.544132 
L 50.858524 197.420762 
L 51.085547 197.464582 
L 51.823373 197.472765 
L 54.547652 197.562408 
L 58.690827 197.515963 
L 58.91785 197.478581 
L 59.996211 197.493248 
L 62.663734 197.536954 
L 65.16099 197.432408 
L 65.331258 197.395455 
L 67.374467 197.390952 
L 67.487979 206.261901 
L 74.525701 206.395739 
L 74.639212 215.251233 
L 76.228375 215.201535 
L 82.358004 215.193172 
L 82.528271 215.126322 
L 83.039073 215.155945 
L 83.663387 215.211688 
L 85.082283 215.12432 
L 85.366062 215.095603 
L 87.239004 215.061589 
L 89.338969 214.964648 
L 91.0984 215.032843 
L 91.722714 215.033925 
L 95.468598 214.957151 
L 98.476656 214.950734 
L 103.811703 214.984681 
L 111.644006 214.889468 
L 119.703332 214.962762 
L 119.816844 214.727051 
L 121.349251 214.808369 
L 123.278949 214.80239 
L 124.243798 214.83236 
L 131.67881 214.838704 
L 131.792322 223.730771 
L 135.084159 223.697607 
L 135.424694 223.715039 
L 135.594961 223.563149 
L 138.262485 223.542559 
L 144.732648 223.552021 
L 146.151544 223.617454 
L 146.321811 223.66662 
L 155.118963 223.642754 
L 170.670057 223.587422 
L 171.351127 223.567183 
L 177.253732 223.516976 
L 182.588779 223.529124 
L 192.975094 223.46616 
L 193.145362 223.578928 
L 193.485897 223.576932 
L 193.656164 223.411796 
L 195.131815 223.307471 
L 195.415594 223.265101 
L 197.629071 223.15508 
L 197.91285 223.122207 
L 199.558769 223.129002 
L 199.729037 223.078063 
L 202.112781 223.153473 
L 203.07763 223.128616 
L 219.36655 222.978448 
L 221.920562 222.949624 
L 222.204341 222.924045 
L 226.347516 222.902973 
L 227.36912 222.88342 
L 228.504237 222.870806 
L 235.201423 222.919296 
L 237.812191 222.852135 
L 238.039214 222.816436 
L 246.552587 222.803106 
L 246.77961 222.886804 
L 274.362938 222.532886 
L 274.703473 222.509988 
L 277.484508 222.441645 
L 279.130427 222.437189 
L 288.495137 222.400132 
L 290.935637 222.453555 
L 295.192324 222.593213 
L 295.419347 222.657299 
L 295.930149 222.730224 
L 300.073324 222.589078 
L 300.527371 222.581378 
L 310.119104 222.675161 
L 310.346127 222.709943 
L 314.659569 222.645994 
L 314.943348 222.631246 
L 315.964953 222.587865 
L 316.135221 222.48548 
L 322.094582 222.384907 
L 323.513477 222.443479 
L 323.854012 222.472834 
L 325.272907 222.514539 
L 325.556687 222.553608 
L 337.815943 222.566265 
L 338.099722 222.59027 
L 346.840119 222.453922 
L 347.180653 222.434685 
L 350.018444 222.438454 
L 350.529247 222.439318 
L 352.969747 222.476383 
L 353.367038 222.502896 
L 356.829143 222.413885 
L 358.872352 222.379598 
L 368.237062 222.355787 
L 368.40733 222.54805 
L 371.642411 222.491973 
L 375.33154 222.592715 
L 376.636923 222.596134 
L 379.815249 222.564574 
L 380.439563 222.580311 
L 381.688191 222.603169 
L 382.142238 222.617127 
L 384.298959 222.652426 
L 406.263461 222.760093 
L 406.490484 222.780158 
L 417.217334 222.632451 
L 423.51723 222.821819 
L 423.857765 222.844109 
L 438.330498 223.044241 
L 442.757452 223.032595 
L 442.870964 223.083972 
L 443.041231 222.998367 
L 444.970929 223.070526 
L 445.197952 223.114824 
L 447.354673 223.159999 
L 447.524941 223.098634 
L 450.419488 223.205295 
L 452.916744 223.177429 
L 453.37079 223.1296 
L 454.165372 223.187439 
L 454.335639 223.252786 
L 462.05443 223.150997 
L 463.132791 223.133192 
L 463.813861 223.133038 
L 488.899933 223.064464 
L 489.524247 223.013066 
L 490.659363 222.920235 
L 491.226921 222.897961 
L 493.55391 222.842464 
L 495.199829 222.821097 
L 495.370096 222.737458 
L 504.451027 222.602808 
L 504.905074 222.581414 
L 507.686109 222.607246 
L 531.807332 222.588917 
L 532.034355 222.61626 
L 533.510006 222.628394 
L 539.185588 222.60251 
L 540.434216 222.565047 
L 541.001774 222.5761 
L 558.539322 222.481 
L 558.766346 222.433086 
L 559.39066 222.424995 
L 561.320357 222.407822 
L 565.066241 222.441894 
L 566.995939 222.373932 
L 568.75537 222.354723 
L 577.893056 222.432084 
L 578.12008 222.480771 
L 578.687638 222.499467 
L 584.930778 222.631574 
L 585.44158 222.635395 
L 590.492848 222.676475 
L 590.890139 222.657293 
L 603.376419 222.765695 
L 605.53314 222.739038 
L 605.816919 222.711385 
L 608.087152 222.793837 
L 608.257419 222.934891 
L 626.078746 222.975621 
L 626.249014 222.888923 
L 630.278677 222.941455 
L 635.67048 222.971099 
L 644.978434 223.064891 
L 645.205457 223.102004 
L 662.175447 222.793089 
L 662.629494 222.769711 
L 680.450821 222.776556 
L 680.677844 222.738364 
L 686.012891 222.601328 
L 688.623659 222.604549 
L 692.53981 222.664142 
L 696.910008 222.696947 
L 697.080276 222.631632 
L 702.869369 222.611558 
L 715.696184 222.56609 
L 715.866452 222.497957 
L 738.171488 222.606378 
L 738.455267 222.666263 
L 749.806431 222.797187 
L 750.657768 222.780308 
L 753.665827 222.833355 
L 755.027966 222.82975 
L 758.319804 222.813094 
L 758.887362 222.822686 
L 766.322374 222.775949 
L 766.549398 222.810178 
L 774.722236 222.862237 
L 774.949259 222.905849 
L 790.159818 223.027285 
L 790.330086 222.977133 
L 793.054365 222.931718 
L 793.792191 222.944818 
L 796.346202 222.889857 
L 797.19754 222.883874 
L 805.370378 222.898108 
L 806.448738 222.92032 
L 819.105286 222.890292 
L 823.816019 222.82964 
L 860.764057 222.710513 
L 861.445126 222.69814 
L 864.963987 222.783362 
L 866.212615 222.774585 
L 867.120708 222.747811 
L 887.098757 222.843876 
L 887.496047 222.776932 
L 889.596013 222.80543 
L 890.390594 222.810104 
L 891.014908 222.777631 
L 893.058117 222.779213 
L 893.341897 222.752294 
L 914.455061 222.820818 
L 914.909108 222.830305 
L 974.956764 223.071801 
L 975.297299 223.045955 
L 979.270206 223.004027 
L 980.745857 222.996498 
L 993.913207 222.973344 
L 993.969963 222.975586 
L 993.969963 222.975586 
" clip-path="url(#pa383907cde)" style="fill: none; stroke: #ffa500; stroke-width: 5; stroke-linecap: square"/>
    <defs>
     <path id="meaec2ec529" d="M 12.5 0 
L -12.5 -12.5 
L -12.5 12.5 
z
" style="stroke: #ffa500; stroke-linejoin: miter"/>
    </defs>
    <g clip-path="url(#pa383907cde)">
     <use xlink:href="#meaec2ec529" x="-1" y="193.00867" style="fill: #ffa500; stroke: #ffa500; stroke-linejoin: miter"/>
     <use xlink:href="#meaec2ec529" x="21.231987" y="197.496422" style="fill: #ffa500; stroke: #ffa500; stroke-linejoin: miter"/>
     <use xlink:href="#meaec2ec529" x="106.365715" y="214.89771" style="fill: #ffa500; stroke: #ffa500; stroke-linejoin: miter"/>
     <use xlink:href="#meaec2ec529" x="191.499443" y="223.421351" style="fill: #ffa500; stroke: #ffa500; stroke-linejoin: miter"/>
     <use xlink:href="#meaec2ec529" x="276.633171" y="222.448065" style="fill: #ffa500; stroke: #ffa500; stroke-linejoin: miter"/>
     <use xlink:href="#meaec2ec529" x="361.766899" y="222.359887" style="fill: #ffa500; stroke: #ffa500; stroke-linejoin: miter"/>
     <use xlink:href="#meaec2ec529" x="446.900627" y="223.161256" style="fill: #ffa500; stroke: #ffa500; stroke-linejoin: miter"/>
     <use xlink:href="#meaec2ec529" x="532.034355" y="222.61626" style="fill: #ffa500; stroke: #ffa500; stroke-linejoin: miter"/>
     <use xlink:href="#meaec2ec529" x="617.168083" y="222.897513" style="fill: #ffa500; stroke: #ffa500; stroke-linejoin: miter"/>
     <use xlink:href="#meaec2ec529" x="702.301811" y="222.603698" style="fill: #ffa500; stroke: #ffa500; stroke-linejoin: miter"/>
     <use xlink:href="#meaec2ec529" x="787.435539" y="223.038741" style="fill: #ffa500; stroke: #ffa500; stroke-linejoin: miter"/>
     <use xlink:href="#meaec2ec529" x="872.569267" y="222.81696" style="fill: #ffa500; stroke: #ffa500; stroke-linejoin: miter"/>
     <use xlink:href="#meaec2ec529" x="957.702995" y="223.059388" style="fill: #ffa500; stroke: #ffa500; stroke-linejoin: miter"/>
    </g>
   </g>
   <g id="line2d_32">
    <path d="M -1 203.978993 
L 0.516113 204.015815 
L 5.226846 203.949927 
L 5.453869 204.008192 
L 6.134939 204.048938 
L 6.53223 204.066455 
L 8.915974 204.012497 
L 10.505137 204.040261 
L 16.350986 203.993877 
L 16.521254 203.894795 
L 17.486103 203.867019 
L 18.961754 203.945899 
L 21.402254 204.036411 
L 22.480615 204.011887 
L 25.885964 204.028396 
L 26.169743 204.092446 
L 29.461581 204.015148 
L 29.631848 204.133386 
L 30.710209 204.085233 
L 30.880476 203.854064 
L 32.753418 203.881592 
L 34.002046 203.877971 
L 35.364186 203.911324 
L 35.647965 203.949749 
L 38.429 203.925918 
L 39.053314 203.952051 
L 43.820803 204.023423 
L 44.445117 204.008529 
L 45.523477 203.961417 
L 47.680198 204.002986 
L 49.723408 203.90423 
L 50.007187 203.875352 
L 54.434141 203.974907 
L 54.661164 204.036403 
L 54.888187 204.01925 
L 55.682769 204.037337 
L 56.250327 204.080288 
L 57.328688 204.074533 
L 59.769188 204.014819 
L 60.734037 204.02897 
L 60.904304 203.963847 
L 61.869153 204.049321 
L 62.096176 203.977488 
L 62.266444 204.060999 
L 64.025874 204.135182 
L 64.196142 204.067927 
L 67.374467 204.029096 
L 67.431223 212.711229 
L 67.487979 212.708703 
L 74.525701 212.766052 
L 74.639212 221.419131 
L 75.88784 221.411127 
L 76.114863 221.356296 
L 78.044561 221.404105 
L 78.839143 221.397452 
L 79.747236 221.325528 
L 79.917503 221.216931 
L 81.960713 221.201699 
L 92.630807 221.028899 
L 93.5389 221.023303 
L 93.709167 220.964367 
L 96.887493 220.921727 
L 97.34154 220.936445 
L 97.568563 220.897201 
L 103.017122 220.891004 
L 104.322505 220.933435 
L 104.776552 220.886413 
L 105.571133 220.938485 
L 107.557587 220.94145 
L 109.487285 220.832328 
L 110.50889 220.87105 
L 113.743971 220.962296 
L 113.970995 220.983269 
L 117.433099 220.936161 
L 118.51146 221.006491 
L 119.703332 220.963565 
L 119.8736 220.891296 
L 126.400519 221.064325 
L 126.968077 221.030354 
L 127.592391 220.984457 
L 127.762658 221.106873 
L 130.032891 221.109643 
L 131.67881 221.122837 
L 131.792322 229.840746 
L 134.573357 229.892386 
L 135.197671 229.9276 
L 135.367938 229.959126 
L 135.708473 229.694681 
L 136.900345 229.71583 
L 137.127369 229.746126 
L 137.751683 229.716106 
L 138.375997 229.660701 
L 138.659776 229.622571 
L 140.021915 229.543979 
L 140.248939 229.49264 
L 146.151544 229.515971 
L 146.378567 229.567777 
L 148.365021 229.60006 
L 150.124451 229.537633 
L 150.862277 229.439721 
L 157.899998 229.477692 
L 163.348557 229.402896 
L 164.767452 229.384615 
L 182.134733 229.601112 
L 182.98607 229.603194 
L 183.610384 229.607132 
L 188.888675 229.539441 
L 189.967036 229.614546 
L 190.477838 229.590526 
L 191.385931 229.590435 
L 192.975094 229.589166 
L 193.145362 229.686684 
L 193.485897 229.694536 
L 193.656164 229.567839 
L 194.110211 229.541856 
L 195.245327 229.527605 
L 195.926397 229.514209 
L 197.288536 229.466651 
L 198.934455 229.487833 
L 203.191142 229.630266 
L 204.83706 229.637197 
L 205.064084 229.608092 
L 206.255956 229.569418 
L 206.426223 229.694538 
L 206.88027 229.621787 
L 216.017957 229.680105 
L 216.188224 229.593573 
L 221.466515 229.603416 
L 222.147585 229.556885 
L 226.404271 229.528659 
L 230.547446 229.477418 
L 231.058248 229.463904 
L 235.541958 229.642408 
L 235.768981 229.665584 
L 237.925703 229.7139 
L 239.798645 229.680332 
L 240.820249 229.671239 
L 248.198506 229.740323 
L 249.333622 229.741335 
L 249.560645 229.786155 
L 250.695762 229.817406 
L 259.776693 229.848234 
L 260.344251 229.821197 
L 265.50903 229.878045 
L 268.460333 229.9435 
L 269.481938 229.919196 
L 269.879228 229.909144 
L 270.390031 229.893663 
L 272.262973 229.908989 
L 272.43324 229.951852 
L 280.606078 229.866033 
L 295.192324 230.046556 
L 295.362591 230.1686 
L 297.122021 230.13088 
L 297.632824 230.123597 
L 300.016568 230.175519 
L 303.875964 230.15619 
L 304.670545 230.181166 
L 306.032685 230.142488 
L 307.848871 230.189288 
L 311.992046 230.154459 
L 312.219069 230.120809 
L 320.448663 230.014759 
L 321.3 229.976742 
L 323.002675 230.072371 
L 323.513477 230.091711 
L 323.683745 230.181866 
L 329.813373 230.107228 
L 330.494443 230.106707 
L 334.297083 230.137647 
L 334.637618 230.115706 
L 337.759188 230.192525 
L 338.042967 230.258909 
L 342.810455 230.146346 
L 344.796909 230.102503 
L 345.080688 230.14607 
L 351.040049 230.080633 
L 352.288677 230.073443 
L 364.831713 229.793079 
L 365.966829 229.777962 
L 368.237062 229.721152 
L 368.40733 229.923681 
L 371.642411 229.844435 
L 383.731401 229.946972 
L 384.071936 229.980705 
L 387.307017 229.889205 
L 387.590796 229.861166 
L 389.917785 229.833065 
L 390.428587 229.824041 
L 392.982599 229.832991 
L 402.631088 229.903518 
L 403.141891 229.890747 
L 404.901321 229.941435 
L 405.1851 229.922153 
L 407.22831 229.919845 
L 407.568845 229.894416 
L 411.598508 229.870216 
L 411.882287 229.814912 
L 415.571415 229.723928 
L 415.91195 229.693638 
L 416.933555 229.727417 
L 420.963218 229.758741 
L 422.098334 229.776804 
L 422.325357 229.833398 
L 423.460474 229.817074 
L 424.652346 229.881313 
L 427.944183 229.860425 
L 434.073812 229.755057 
L 434.584614 229.694689 
L 437.308894 229.715753 
L 437.876452 229.720472 
L 445.311464 229.739008 
L 445.538487 229.792275 
L 446.333069 229.792976 
L 450.192464 230.020168 
L 450.703267 230.041361 
L 451.668116 230.05379 
L 453.200523 229.910135 
L 453.654569 229.892042 
L 453.881593 229.942326 
L 455.357244 229.920872 
L 455.868046 229.934284 
L 456.09507 229.871325 
L 458.081523 229.860208 
L 458.819349 229.874192 
L 459.954465 229.891992 
L 466.821919 229.773002 
L 467.105698 229.764368 
L 468.184059 229.807635 
L 470.738071 229.804557 
L 472.951548 229.912209 
L 475.90285 229.826287 
L 476.640676 229.835385 
L 478.740641 229.885525 
L 489.694514 229.975106 
L 489.864782 229.89339 
L 494.859294 229.92894 
L 496.221433 229.810991 
L 497.186282 229.791448 
L 498.491666 229.811599 
L 501.613236 229.823848 
L 502.067283 229.836513 
L 504.167248 229.845783 
L 506.153702 229.851363 
L 511.034702 229.75344 
L 512.056307 229.780396 
L 512.226574 229.681622 
L 514.04276 229.720377 
L 519.661586 229.613718 
L 520.399412 229.585299 
L 521.193994 229.539475 
L 526.018238 229.507462 
L 532.204622 229.574058 
L 533.396495 229.573856 
L 556.779892 229.655015 
L 559.39066 229.547164 
L 562.398718 229.646033 
L 582.603789 229.654388 
L 582.774057 229.726723 
L 586.917232 229.693554 
L 591.798232 229.699287 
L 603.262907 229.749461 
L 604.568291 229.721839 
L 609.733071 229.726805 
L 611.719524 229.681277 
L 612.287083 229.693335 
L 613.365443 229.688953 
L 614.727583 229.680067 
L 615.181629 229.732133 
L 615.919455 229.754483 
L 616.714036 229.758235 
L 616.94106 229.70615 
L 621.708548 229.829379 
L 621.935572 229.86147 
L 623.524735 229.858466 
L 629.086805 229.848903 
L 631.18677 229.825057 
L 631.640817 229.807068 
L 633.854294 229.841217 
L 634.024561 229.911619 
L 648.270272 230.076062 
L 648.83783 230.079419 
L 650.199969 230.091237 
L 650.937795 230.052761 
L 653.378295 230.049443 
L 653.945853 230.034534 
L 654.740435 230.051312 
L 660.983575 229.982231 
L 661.778156 229.94514 
L 662.061935 229.914955 
L 666.602401 229.925544 
L 666.829424 229.950677 
L 673.072564 229.869531 
L 694.98031 229.72441 
L 695.264089 229.740353 
L 696.910008 229.768166 
L 697.080276 229.677366 
L 699.293753 229.691231 
L 699.520776 229.712147 
L 700.599136 229.638788 
L 701.563985 229.650441 
L 702.926125 229.634176 
L 703.323416 229.674416 
L 706.217962 229.590223 
L 708.431439 229.490478 
L 717.11508 229.396887 
L 717.285347 229.326829 
L 717.51237 229.372198 
L 726.706813 229.366061 
L 728.466243 229.370774 
L 743.506535 229.453356 
L 743.903826 229.468351 
L 746.060547 229.479543 
L 754.346897 229.572753 
L 754.630676 229.553694 
L 755.709036 229.552496 
L 755.992815 229.5299 
L 766.322374 229.55102 
L 766.549398 229.482061 
L 768.025049 229.530112 
L 772.792538 229.475775 
L 773.076317 229.441695 
L 778.46812 229.495209 
L 782.724806 229.568828 
L 784.086946 229.534888 
L 785.051795 229.556159 
L 793.338144 229.551659 
L 794.359749 229.528807 
L 796.232691 229.503605 
L 824.553844 229.569399 
L 824.780868 229.524059 
L 825.348426 229.548417 
L 839.310357 229.645691 
L 839.594136 229.657978 
L 841.637346 229.661788 
L 844.418381 229.703364 
L 844.588648 229.754413 
L 849.18587 229.723632 
L 856.564126 229.707698 
L 860.877568 229.617256 
L 862.920778 229.694341 
L 863.147801 229.730369 
L 882.84207 229.748586 
L 883.52314 229.800894 
L 884.317721 229.807827 
L 886.474443 229.808626 
L 888.858187 229.787375 
L 889.539257 229.85915 
L 891.412199 229.935976 
L 892.547315 229.963342 
L 896.576978 230.017528 
L 900.606641 230.038258 
L 902.25256 229.97813 
L 902.536339 230.00845 
L 902.990386 230.002647 
L 906.963293 229.994529 
L 908.382189 230.035556 
L 908.609212 230.049263 
L 926.82783 230.020248 
L 928.814283 230.061909 
L 929.098062 230.096897 
L 935.000667 230.180186 
L 935.284447 230.207923 
L 941.527587 230.254805 
L 941.868122 230.287971 
L 952.538215 230.510556 
L 953.900355 230.504403 
L 954.638181 230.526792 
L 961.221856 230.651273 
L 965.478542 230.61572 
L 967.635263 230.619935 
L 973.140578 230.717242 
L 973.708136 230.729508 
L 981.426927 230.671312 
L 982.107997 230.702474 
L 983.526892 230.646765 
L 985.626858 230.603151 
L 989.997056 230.59134 
L 990.224079 230.644093 
L 991.869998 230.658814 
L 993.969963 230.665545 
L 993.969963 230.665545 
" clip-path="url(#pa383907cde)" style="fill: none; stroke: #ff1493; stroke-width: 5; stroke-linecap: square"/>
    <defs>
     <path id="ma31cbb7293" d="M -12.5 -0 
L 12.5 12.5 
L 12.5 -12.5 
z
" style="stroke: #ff1493; stroke-linejoin: miter"/>
    </defs>
    <g clip-path="url(#pa383907cde)">
     <use xlink:href="#ma31cbb7293" x="-1" y="199.578623" style="fill: #ff1493; stroke: #ff1493; stroke-linejoin: miter"/>
     <use xlink:href="#ma31cbb7293" x="21.231987" y="204.035217" style="fill: #ff1493; stroke: #ff1493; stroke-linejoin: miter"/>
     <use xlink:href="#ma31cbb7293" x="106.365715" y="220.962505" style="fill: #ff1493; stroke: #ff1493; stroke-linejoin: miter"/>
     <use xlink:href="#ma31cbb7293" x="191.499443" y="229.588083" style="fill: #ff1493; stroke: #ff1493; stroke-linejoin: miter"/>
     <use xlink:href="#ma31cbb7293" x="276.633171" y="229.873688" style="fill: #ff1493; stroke: #ff1493; stroke-linejoin: miter"/>
     <use xlink:href="#ma31cbb7293" x="361.766899" y="229.772415" style="fill: #ff1493; stroke: #ff1493; stroke-linejoin: miter"/>
     <use xlink:href="#ma31cbb7293" x="446.900627" y="229.802716" style="fill: #ff1493; stroke: #ff1493; stroke-linejoin: miter"/>
     <use xlink:href="#ma31cbb7293" x="532.034355" y="229.58027" style="fill: #ff1493; stroke: #ff1493; stroke-linejoin: miter"/>
     <use xlink:href="#ma31cbb7293" x="617.168083" y="229.703112" style="fill: #ff1493; stroke: #ff1493; stroke-linejoin: miter"/>
     <use xlink:href="#ma31cbb7293" x="702.301811" y="229.636022" style="fill: #ff1493; stroke: #ff1493; stroke-linejoin: miter"/>
     <use xlink:href="#ma31cbb7293" x="787.435539" y="229.550152" style="fill: #ff1493; stroke: #ff1493; stroke-linejoin: miter"/>
     <use xlink:href="#ma31cbb7293" x="872.569267" y="229.72411" style="fill: #ff1493; stroke: #ff1493; stroke-linejoin: miter"/>
     <use xlink:href="#ma31cbb7293" x="957.702995" y="230.64351" style="fill: #ff1493; stroke: #ff1493; stroke-linejoin: miter"/>
    </g>
   </g>
   <g id="line2d_33">
    <path d="M -1 400.794912 
L 5.113334 400.904631 
L 5.85116 400.916647 
L 6.872765 400.959915 
L 7.099788 401.02612 
L 11.242963 401.136272 
L 13.342928 401.13949 
L 14.421289 401.183126 
L 14.818579 401.200383 
L 31.845325 401.245727 
L 32.015592 401.34516 
L 32.980441 401.343877 
L 37.577663 401.444778 
L 37.918198 401.473821 
L 38.429 401.485833 
L 38.939802 401.491198 
L 43.082977 401.534924 
L 44.331605 401.524431 
L 45.012675 401.517089 
L 45.35321 401.554026 
L 47.396419 401.587548 
L 47.907222 401.621642 
L 49.609896 401.728939 
L 52.844978 401.850147 
L 55.39899 401.885764 
L 56.363839 401.923622 
L 59.031362 401.913499 
L 61.131327 401.965079 
L 67.374467 402.070604 
L 67.431223 412.224136 
L 67.487979 412.216335 
L 67.828514 412.239575 
L 73.504096 412.276611 
L 73.731119 412.315471 
L 74.525701 412.308842 
L 74.639212 422.474223 
L 76.228375 422.482371 
L 97.511807 422.902635 
L 98.476656 422.871147 
L 103.811703 422.917187 
L 104.436017 422.931445 
L 116.07096 423.049821 
L 116.468251 423.060367 
L 123.108681 423.07885 
L 124.130286 423.094905 
L 127.705903 423.201736 
L 128.443728 423.236661 
L 131.67881 423.310744 
L 131.792322 433.482217 
L 134.913892 433.431682 
L 142.916462 433.538359 
L 143.427264 433.55048 
L 146.321811 433.648821 
L 146.832614 433.662646 
L 171.975441 433.769113 
L 172.315976 433.788931 
L 180.602326 433.881851 
L 180.886105 433.909957 
L 186.561687 433.940773 
L 187.015733 433.939852 
L 189.399478 433.963449 
L 190.875129 433.959385 
L 192.691315 433.956546 
L 193.71292 433.959948 
L 203.418165 434.085906 
L 203.872211 434.118561 
L 209.036991 434.22204 
L 209.491037 434.23752 
L 221.750294 434.345285 
L 223.112434 434.330573 
L 226.347516 434.270922 
L 227.085341 434.297634 
L 229.866376 434.392547 
L 235.825737 434.492003 
L 237.017609 434.469542 
L 237.4149 434.503837 
L 244.168843 434.671375 
L 244.963424 434.711037 
L 248.028238 434.749834 
L 248.936331 434.793287 
L 251.94439 434.782732 
L 252.228169 434.813344 
L 267.495484 435.037463 
L 268.403577 435.037183 
L 272.546752 435.059457 
L 273.057554 435.10652 
L 276.633171 435.171847 
L 279.641229 435.22952 
L 281.003369 435.279918 
L 281.457415 435.346977 
L 282.138485 435.340452 
L 302.230045 435.586324 
L 303.024627 435.58838 
L 318.291942 435.79505 
L 320.22164 435.812693 
L 322.548628 435.844707 
L 344.115839 436.119647 
L 352.742724 436.229726 
L 356.545364 436.255992 
L 358.021015 436.244251 
L 359.04262 436.288615 
L 364.434422 436.391923 
L 364.774957 436.41866 
L 386.512436 436.582833 
L 386.852971 436.602352 
L 422.779404 436.711809 
L 425.730707 436.735016 
L 434.981905 436.758953 
L 436.457556 436.749157 
L 448.773569 436.845892 
L 449.17086 436.860768 
L 450.532999 436.847051 
L 452.68972 436.870759 
L 467.048943 436.90475 
L 467.843524 436.915854 
L 474.14342 436.932055 
L 474.654222 436.93689 
L 478.229839 436.956069 
L 478.797397 436.966977 
L 499.79705 437.068925 
L 500.364608 437.064747 
L 503.032132 437.120613 
L 507.40233 437.235209 
L 509.672562 437.246657 
L 516.76704 437.229351 
L 521.591284 437.264635 
L 526.358773 437.288709 
L 530.785727 437.285476 
L 536.688332 437.307159 
L 537.766693 437.287336 
L 546.336821 437.344468 
L 547.358426 437.367658 
L 556.66638 437.440268 
L 558.425811 437.420792 
L 568.75537 437.418926 
L 569.83373 437.393623 
L 573.409347 437.386885 
L 575.168777 437.446106 
L 576.247138 437.451281 
L 581.014626 437.523331 
L 584.817266 437.564454 
L 585.498336 437.608845 
L 644.637899 437.934426 
L 648.270272 437.913697 
L 683.231856 438.021885 
L 685.275065 438.046033 
L 689.872287 438.121404 
L 690.610112 438.129047 
L 694.29924 438.175176 
L 695.604624 438.188226 
L 696.058671 438.219007 
L 703.890974 438.30682 
L 707.75037 438.312653 
L 709.5098 438.322713 
L 719.782603 438.357069 
L 736.92286 438.458812 
L 737.490419 438.478792 
L 741.349814 438.476297 
L 746.741617 438.504545 
L 747.64971 438.507612 
L 750.146966 438.485902 
L 751.338838 438.472461 
L 756.730641 438.495474 
L 758.603583 438.481374 
L 768.592607 438.438121 
L 769.670968 438.454417 
L 926.998097 439.22133 
L 927.679167 439.232322 
L 932.560167 439.255084 
L 934.433109 439.24084 
L 939.654645 439.275328 
L 943.11675 439.281049 
L 944.081598 439.309846 
L 952.084169 439.309381 
L 952.935506 439.327509 
L 993.969963 439.546048 
L 993.969963 439.546048 
" clip-path="url(#pa383907cde)" style="fill: none; stroke: #008000; stroke-width: 5; stroke-linecap: square"/>
    <defs>
     <path id="mfc96f40ee9" d="M -0 12.5 
L 12.5 -12.5 
L -12.5 -12.5 
z
" style="stroke: #008000; stroke-linejoin: miter"/>
    </defs>
    <g clip-path="url(#pa383907cde)">
     <use xlink:href="#mfc96f40ee9" x="-1" y="395.576111" style="fill: #008000; stroke: #008000; stroke-linejoin: miter"/>
     <use xlink:href="#mfc96f40ee9" x="21.231987" y="401.227276" style="fill: #008000; stroke: #008000; stroke-linejoin: miter"/>
     <use xlink:href="#mfc96f40ee9" x="106.365715" y="422.942878" style="fill: #008000; stroke: #008000; stroke-linejoin: miter"/>
     <use xlink:href="#mfc96f40ee9" x="191.499443" y="433.978782" style="fill: #008000; stroke: #008000; stroke-linejoin: miter"/>
     <use xlink:href="#mfc96f40ee9" x="276.633171" y="435.171847" style="fill: #008000; stroke: #008000; stroke-linejoin: miter"/>
     <use xlink:href="#mfc96f40ee9" x="361.766899" y="436.341223" style="fill: #008000; stroke: #008000; stroke-linejoin: miter"/>
     <use xlink:href="#mfc96f40ee9" x="446.900627" y="436.853884" style="fill: #008000; stroke: #008000; stroke-linejoin: miter"/>
     <use xlink:href="#mfc96f40ee9" x="532.034355" y="437.270949" style="fill: #008000; stroke: #008000; stroke-linejoin: miter"/>
     <use xlink:href="#mfc96f40ee9" x="617.168083" y="437.863291" style="fill: #008000; stroke: #008000; stroke-linejoin: miter"/>
     <use xlink:href="#mfc96f40ee9" x="702.301811" y="438.279932" style="fill: #008000; stroke: #008000; stroke-linejoin: miter"/>
     <use xlink:href="#mfc96f40ee9" x="787.435539" y="438.520469" style="fill: #008000; stroke: #008000; stroke-linejoin: miter"/>
     <use xlink:href="#mfc96f40ee9" x="872.569267" y="438.897669" style="fill: #008000; stroke: #008000; stroke-linejoin: miter"/>
     <use xlink:href="#mfc96f40ee9" x="957.702995" y="439.330253" style="fill: #008000; stroke: #008000; stroke-linejoin: miter"/>
    </g>
   </g>
   <g id="line2d_34">
    <path d="M -1 424.07713 
L 9.937579 424.187719 
L 10.788916 424.195656 
L 51.199059 424.296193 
L 51.482838 424.324509 
L 51.880129 424.337326 
L 53.299024 424.349603 
L 56.307083 424.325096 
L 67.374467 424.311826 
L 67.487979 434.88662 
L 74.525701 434.896491 
L 74.582456 445.49239 
L 74.639212 445.491844 
L 85.93362 445.473873 
L 97.001005 445.584 
L 98.476656 445.589841 
L 101.427959 445.583867 
L 102.165784 445.596108 
L 118.114169 445.701661 
L 118.341193 445.72972 
L 129.805868 445.764369 
L 131.67881 445.766269 
L 131.792322 456.360897 
L 149.04609 456.375295 
L 155.289231 456.377703 
L 161.986417 456.421311 
L 185.937373 456.531884 
L 187.640047 456.544918 
L 207.050537 456.644422 
L 207.674851 456.674452 
L 220.558422 456.775384 
L 220.898957 456.795236 
L 222.942166 456.80022 
L 258.925355 456.90212 
L 259.322646 456.927273 
L 263.579333 457.003469 
L 269.425182 457.025334 
L 273.511601 456.992795 
L 285.884369 457.093091 
L 286.508683 457.103203 
L 297.292289 457.209284 
L 297.859847 457.242198 
L 302.059778 457.350723 
L 303.25165 457.402541 
L 308.075894 457.467793 
L 324.137791 457.583778 
L 324.762105 457.598517 
L 366.137097 457.785475 
L 367.612748 457.792712 
L 419.71459 457.898673 
L 420.452415 457.92035 
L 442.530429 458.027783 
L 443.438522 458.042648 
L 444.857417 458.047085 
L 521.250749 458.157207 
L 526.018238 458.203867 
L 549.912438 458.18507 
L 550.366484 458.195362 
L 561.320357 458.231523 
L 562.058183 458.249445 
L 702.699102 458.358958 
L 704.061241 458.384897 
L 776.595178 458.490226 
L 777.560026 458.495463 
L 795.494865 458.596773 
L 796.51647 458.602232 
L 798.95697 458.592195 
L 880.969128 458.699114 
L 882.444779 458.715107 
L 904.920084 458.794862 
L 906.168712 458.792243 
L 990.110567 458.902354 
L 993.969963 458.939262 
L 993.969963 458.939262 
" clip-path="url(#pa383907cde)" style="fill: none; stroke: #0000ff; stroke-width: 5; stroke-linecap: square"/>
    <defs>
     <path id="m2006d03acf" d="M 0 -12.5 
L -12.5 12.5 
L 12.5 12.5 
z
" style="stroke: #0000ff; stroke-linejoin: miter"/>
    </defs>
    <g clip-path="url(#pa383907cde)">
     <use xlink:href="#m2006d03acf" x="-1" y="418.561585" style="fill: #0000ff; stroke: #0000ff; stroke-linejoin: miter"/>
     <use xlink:href="#m2006d03acf" x="21.231987" y="424.19092" style="fill: #0000ff; stroke: #0000ff; stroke-linejoin: miter"/>
     <use xlink:href="#m2006d03acf" x="106.365715" y="445.625956" style="fill: #0000ff; stroke: #0000ff; stroke-linejoin: miter"/>
     <use xlink:href="#m2006d03acf" x="191.499443" y="456.526516" style="fill: #0000ff; stroke: #0000ff; stroke-linejoin: miter"/>
     <use xlink:href="#m2006d03acf" x="276.633171" y="457.011572" style="fill: #0000ff; stroke: #0000ff; stroke-linejoin: miter"/>
     <use xlink:href="#m2006d03acf" x="361.766899" y="457.726705" style="fill: #0000ff; stroke: #0000ff; stroke-linejoin: miter"/>
     <use xlink:href="#m2006d03acf" x="446.900627" y="458.076373" style="fill: #0000ff; stroke: #0000ff; stroke-linejoin: miter"/>
     <use xlink:href="#m2006d03acf" x="532.034355" y="458.23474" style="fill: #0000ff; stroke: #0000ff; stroke-linejoin: miter"/>
     <use xlink:href="#m2006d03acf" x="617.168083" y="458.294626" style="fill: #0000ff; stroke: #0000ff; stroke-linejoin: miter"/>
     <use xlink:href="#m2006d03acf" x="702.301811" y="458.352195" style="fill: #0000ff; stroke: #0000ff; stroke-linejoin: miter"/>
     <use xlink:href="#m2006d03acf" x="787.435539" y="458.503267" style="fill: #0000ff; stroke: #0000ff; stroke-linejoin: miter"/>
     <use xlink:href="#m2006d03acf" x="872.569267" y="458.646223" style="fill: #0000ff; stroke: #0000ff; stroke-linejoin: miter"/>
     <use xlink:href="#m2006d03acf" x="957.702995" y="458.806732" style="fill: #0000ff; stroke: #0000ff; stroke-linejoin: miter"/>
    </g>
   </g>
   <g id="patch_3">
    <path d="M 133.554928 535.61101 
L 133.554928 3.00024 
" style="fill: none; stroke: #000000; stroke-width: 0.8; stroke-linejoin: miter; stroke-linecap: square"/>
   </g>
   <g id="patch_4">
    <path d="M 1017.56941 535.61101 
L 1017.56941 3.00024 
" style="fill: none; stroke: #000000; stroke-width: 0.8; stroke-linejoin: miter; stroke-linecap: square"/>
   </g>
   <g id="patch_5">
    <path d="M 133.554927 535.61101 
L 1017.56941 535.61101 
" style="fill: none; stroke: #000000; stroke-width: 0.8; stroke-linejoin: miter; stroke-linecap: square"/>
   </g>
   <g id="patch_6">
    <path d="M 133.554927 3.00024 
L 1017.56941 3.00024 
" style="fill: none; stroke: #000000; stroke-width: 0.8; stroke-linejoin: miter; stroke-linecap: square"/>
   </g>
  </g>
 </g>
 <defs>
  <clipPath id="pa383907cde">
   <rect x="133.554928" y="3.00024" width="884.014483" height="532.61077"/>
  </clipPath>
 </defs>
</svg>
