<?xml version="1.0" encoding="utf-8" standalone="no"?>
<!DOCTYPE svg PUBLIC "-//W3C//DTD SVG 1.1//EN"
  "http://www.w3.org/Graphics/SVG/1.1/DTD/svg11.dtd">
<svg xmlns:xlink="http://www.w3.org/1999/xlink" width="1382.4pt" height="777.6pt" viewBox="0 0 1382.4 777.6" xmlns="http://www.w3.org/2000/svg" version="1.1">
 <metadata>
  <rdf:RDF xmlns:dc="http://purl.org/dc/elements/1.1/" xmlns:cc="http://creativecommons.org/ns#" xmlns:rdf="http://www.w3.org/1999/02/22-rdf-syntax-ns#">
   <cc:Work>
    <dc:type rdf:resource="http://purl.org/dc/dcmitype/StillImage"/>
    <dc:date>2024-04-13T12:08:54.104652</dc:date>
    <dc:format>image/svg+xml</dc:format>
    <dc:creator>
     <cc:Agent>
      <dc:title>Matplotlib v3.8.0, https://matplotlib.org/</dc:title>
     </cc:Agent>
    </dc:creator>
   </cc:Work>
  </rdf:RDF>
 </metadata>
 <defs>
  <style type="text/css">*{stroke-linejoin: round; stroke-linecap: butt}</style>
 </defs>
 <g id="figure_1">
  <g id="patch_1">
   <path d="M 0 777.6 
L 1382.4 777.6 
L 1382.4 0 
L 0 0 
z
" style="fill: #ffffff"/>
  </g>
  <g id="axes_1">
   <g id="patch_2">
    <path d="M 176.647115 688.110385 
L 1319.468466 688.110385 
L 1319.468466 3.00024 
L 176.647115 3.00024 
z
" style="fill: #ffffff"/>
   </g>
   <g id="matplotlib.axis_1">
    <g id="xtick_1">
     <g id="line2d_1">
      <path d="M 228.59354 688.110385 
L 228.59354 3.00024 
" clip-path="url(#pc17cd170fc)" style="fill: none; stroke: #b0b0b0; stroke-width: 0.8; stroke-linecap: square"/>
     </g>
     <g id="line2d_2">
      <defs>
       <path id="m02c6759f54" d="M 0 0 
L 0 3.5 
" style="stroke: #000000; stroke-width: 0.8"/>
      </defs>
      <g>
       <use xlink:href="#m02c6759f54" x="228.59354" y="688.110385" style="stroke: #000000; stroke-width: 0.8"/>
      </g>
     </g>
     <g id="text_1">
      <!-- 0 -->
      <g transform="translate(216.50479 723.984447) scale(0.38 -0.38)">
       <defs>
        <path id="DejaVuSans-30" d="M 2034 4250 
Q 1547 4250 1301 3770 
Q 1056 3291 1056 2328 
Q 1056 1369 1301 889 
Q 1547 409 2034 409 
Q 2525 409 2770 889 
Q 3016 1369 3016 2328 
Q 3016 3291 2770 3770 
Q 2525 4250 2034 4250 
z
M 2034 4750 
Q 2819 4750 3233 4129 
Q 3647 3509 3647 2328 
Q 3647 1150 3233 529 
Q 2819 -91 2034 -91 
Q 1250 -91 836 529 
Q 422 1150 422 2328 
Q 422 3509 836 4129 
Q 1250 4750 2034 4750 
z
" transform="scale(0.015625)"/>
       </defs>
       <use xlink:href="#DejaVuSans-30"/>
      </g>
     </g>
    </g>
    <g id="xtick_2">
     <g id="line2d_3">
      <path d="M 384.359605 688.110385 
L 384.359605 3.00024 
" clip-path="url(#pc17cd170fc)" style="fill: none; stroke: #b0b0b0; stroke-width: 0.8; stroke-linecap: square"/>
     </g>
     <g id="line2d_4">
      <g>
       <use xlink:href="#m02c6759f54" x="384.359605" y="688.110385" style="stroke: #000000; stroke-width: 0.8"/>
      </g>
     </g>
     <g id="text_2">
      <!-- 5000 -->
      <g transform="translate(336.004605 723.984447) scale(0.38 -0.38)">
       <defs>
        <path id="DejaVuSans-35" d="M 691 4666 
L 3169 4666 
L 3169 4134 
L 1269 4134 
L 1269 2991 
Q 1406 3038 1543 3061 
Q 1681 3084 1819 3084 
Q 2600 3084 3056 2656 
Q 3513 2228 3513 1497 
Q 3513 744 3044 326 
Q 2575 -91 1722 -91 
Q 1428 -91 1123 -41 
Q 819 9 494 109 
L 494 744 
Q 775 591 1075 516 
Q 1375 441 1709 441 
Q 2250 441 2565 725 
Q 2881 1009 2881 1497 
Q 2881 1984 2565 2268 
Q 2250 2553 1709 2553 
Q 1456 2553 1204 2497 
Q 953 2441 691 2322 
L 691 4666 
z
" transform="scale(0.015625)"/>
       </defs>
       <use xlink:href="#DejaVuSans-35"/>
       <use xlink:href="#DejaVuSans-30" x="63.623047"/>
       <use xlink:href="#DejaVuSans-30" x="127.246094"/>
       <use xlink:href="#DejaVuSans-30" x="190.869141"/>
      </g>
     </g>
    </g>
    <g id="xtick_3">
     <g id="line2d_5">
      <path d="M 540.12567 688.110385 
L 540.12567 3.00024 
" clip-path="url(#pc17cd170fc)" style="fill: none; stroke: #b0b0b0; stroke-width: 0.8; stroke-linecap: square"/>
     </g>
     <g id="line2d_6">
      <g>
       <use xlink:href="#m02c6759f54" x="540.12567" y="688.110385" style="stroke: #000000; stroke-width: 0.8"/>
      </g>
     </g>
     <g id="text_3">
      <!-- 10000 -->
      <g transform="translate(479.68192 723.984447) scale(0.38 -0.38)">
       <defs>
        <path id="DejaVuSans-31" d="M 794 531 
L 1825 531 
L 1825 4091 
L 703 3866 
L 703 4441 
L 1819 4666 
L 2450 4666 
L 2450 531 
L 3481 531 
L 3481 0 
L 794 0 
L 794 531 
z
" transform="scale(0.015625)"/>
       </defs>
       <use xlink:href="#DejaVuSans-31"/>
       <use xlink:href="#DejaVuSans-30" x="63.623047"/>
       <use xlink:href="#DejaVuSans-30" x="127.246094"/>
       <use xlink:href="#DejaVuSans-30" x="190.869141"/>
       <use xlink:href="#DejaVuSans-30" x="254.492188"/>
      </g>
     </g>
    </g>
    <g id="xtick_4">
     <g id="line2d_7">
      <path d="M 695.891735 688.110385 
L 695.891735 3.00024 
" clip-path="url(#pc17cd170fc)" style="fill: none; stroke: #b0b0b0; stroke-width: 0.8; stroke-linecap: square"/>
     </g>
     <g id="line2d_8">
      <g>
       <use xlink:href="#m02c6759f54" x="695.891735" y="688.110385" style="stroke: #000000; stroke-width: 0.8"/>
      </g>
     </g>
     <g id="text_4">
      <!-- 15000 -->
      <g transform="translate(635.447985 723.984447) scale(0.38 -0.38)">
       <use xlink:href="#DejaVuSans-31"/>
       <use xlink:href="#DejaVuSans-35" x="63.623047"/>
       <use xlink:href="#DejaVuSans-30" x="127.246094"/>
       <use xlink:href="#DejaVuSans-30" x="190.869141"/>
       <use xlink:href="#DejaVuSans-30" x="254.492188"/>
      </g>
     </g>
    </g>
    <g id="xtick_5">
     <g id="line2d_9">
      <path d="M 851.6578 688.110385 
L 851.6578 3.00024 
" clip-path="url(#pc17cd170fc)" style="fill: none; stroke: #b0b0b0; stroke-width: 0.8; stroke-linecap: square"/>
     </g>
     <g id="line2d_10">
      <g>
       <use xlink:href="#m02c6759f54" x="851.6578" y="688.110385" style="stroke: #000000; stroke-width: 0.8"/>
      </g>
     </g>
     <g id="text_5">
      <!-- 20000 -->
      <g transform="translate(791.21405 723.984447) scale(0.38 -0.38)">
       <defs>
        <path id="DejaVuSans-32" d="M 1228 531 
L 3431 531 
L 3431 0 
L 469 0 
L 469 531 
Q 828 903 1448 1529 
Q 2069 2156 2228 2338 
Q 2531 2678 2651 2914 
Q 2772 3150 2772 3378 
Q 2772 3750 2511 3984 
Q 2250 4219 1831 4219 
Q 1534 4219 1204 4116 
Q 875 4013 500 3803 
L 500 4441 
Q 881 4594 1212 4672 
Q 1544 4750 1819 4750 
Q 2544 4750 2975 4387 
Q 3406 4025 3406 3419 
Q 3406 3131 3298 2873 
Q 3191 2616 2906 2266 
Q 2828 2175 2409 1742 
Q 1991 1309 1228 531 
z
" transform="scale(0.015625)"/>
       </defs>
       <use xlink:href="#DejaVuSans-32"/>
       <use xlink:href="#DejaVuSans-30" x="63.623047"/>
       <use xlink:href="#DejaVuSans-30" x="127.246094"/>
       <use xlink:href="#DejaVuSans-30" x="190.869141"/>
       <use xlink:href="#DejaVuSans-30" x="254.492188"/>
      </g>
     </g>
    </g>
    <g id="xtick_6">
     <g id="line2d_11">
      <path d="M 1007.423865 688.110385 
L 1007.423865 3.00024 
" clip-path="url(#pc17cd170fc)" style="fill: none; stroke: #b0b0b0; stroke-width: 0.8; stroke-linecap: square"/>
     </g>
     <g id="line2d_12">
      <g>
       <use xlink:href="#m02c6759f54" x="1007.423865" y="688.110385" style="stroke: #000000; stroke-width: 0.8"/>
      </g>
     </g>
     <g id="text_6">
      <!-- 25000 -->
      <g transform="translate(946.980115 723.984447) scale(0.38 -0.38)">
       <use xlink:href="#DejaVuSans-32"/>
       <use xlink:href="#DejaVuSans-35" x="63.623047"/>
       <use xlink:href="#DejaVuSans-30" x="127.246094"/>
       <use xlink:href="#DejaVuSans-30" x="190.869141"/>
       <use xlink:href="#DejaVuSans-30" x="254.492188"/>
      </g>
     </g>
    </g>
    <g id="xtick_7">
     <g id="line2d_13">
      <path d="M 1163.189931 688.110385 
L 1163.189931 3.00024 
" clip-path="url(#pc17cd170fc)" style="fill: none; stroke: #b0b0b0; stroke-width: 0.8; stroke-linecap: square"/>
     </g>
     <g id="line2d_14">
      <g>
       <use xlink:href="#m02c6759f54" x="1163.189931" y="688.110385" style="stroke: #000000; stroke-width: 0.8"/>
      </g>
     </g>
     <g id="text_7">
      <!-- 30000 -->
      <g transform="translate(1102.746181 723.984447) scale(0.38 -0.38)">
       <defs>
        <path id="DejaVuSans-33" d="M 2597 2516 
Q 3050 2419 3304 2112 
Q 3559 1806 3559 1356 
Q 3559 666 3084 287 
Q 2609 -91 1734 -91 
Q 1441 -91 1130 -33 
Q 819 25 488 141 
L 488 750 
Q 750 597 1062 519 
Q 1375 441 1716 441 
Q 2309 441 2620 675 
Q 2931 909 2931 1356 
Q 2931 1769 2642 2001 
Q 2353 2234 1838 2234 
L 1294 2234 
L 1294 2753 
L 1863 2753 
Q 2328 2753 2575 2939 
Q 2822 3125 2822 3475 
Q 2822 3834 2567 4026 
Q 2313 4219 1838 4219 
Q 1578 4219 1281 4162 
Q 984 4106 628 3988 
L 628 4550 
Q 988 4650 1302 4700 
Q 1616 4750 1894 4750 
Q 2613 4750 3031 4423 
Q 3450 4097 3450 3541 
Q 3450 3153 3228 2886 
Q 3006 2619 2597 2516 
z
" transform="scale(0.015625)"/>
       </defs>
       <use xlink:href="#DejaVuSans-33"/>
       <use xlink:href="#DejaVuSans-30" x="63.623047"/>
       <use xlink:href="#DejaVuSans-30" x="127.246094"/>
       <use xlink:href="#DejaVuSans-30" x="190.869141"/>
       <use xlink:href="#DejaVuSans-30" x="254.492188"/>
      </g>
     </g>
    </g>
    <g id="xtick_8">
     <g id="line2d_15">
      <path d="M 1318.955996 688.110385 
L 1318.955996 3.00024 
" clip-path="url(#pc17cd170fc)" style="fill: none; stroke: #b0b0b0; stroke-width: 0.8; stroke-linecap: square"/>
     </g>
     <g id="line2d_16">
      <g>
       <use xlink:href="#m02c6759f54" x="1318.955996" y="688.110385" style="stroke: #000000; stroke-width: 0.8"/>
      </g>
     </g>
     <g id="text_8">
      <!-- 35000 -->
      <g transform="translate(1258.512246 723.984447) scale(0.38 -0.38)">
       <use xlink:href="#DejaVuSans-33"/>
       <use xlink:href="#DejaVuSans-35" x="63.623047"/>
       <use xlink:href="#DejaVuSans-30" x="127.246094"/>
       <use xlink:href="#DejaVuSans-30" x="190.869141"/>
       <use xlink:href="#DejaVuSans-30" x="254.492188"/>
      </g>
     </g>
    </g>
    <g id="text_9">
     <!-- customer_request -->
     <g transform="translate(567.86404 765.16851) scale(0.4 -0.4)">
      <defs>
       <path id="DejaVuSans-63" d="M 3122 3366 
L 3122 2828 
Q 2878 2963 2633 3030 
Q 2388 3097 2138 3097 
Q 1578 3097 1268 2742 
Q 959 2388 959 1747 
Q 959 1106 1268 751 
Q 1578 397 2138 397 
Q 2388 397 2633 464 
Q 2878 531 3122 666 
L 3122 134 
Q 2881 22 2623 -34 
Q 2366 -91 2075 -91 
Q 1284 -91 818 406 
Q 353 903 353 1747 
Q 353 2603 823 3093 
Q 1294 3584 2113 3584 
Q 2378 3584 2631 3529 
Q 2884 3475 3122 3366 
z
" transform="scale(0.015625)"/>
       <path id="DejaVuSans-75" d="M 544 1381 
L 544 3500 
L 1119 3500 
L 1119 1403 
Q 1119 906 1312 657 
Q 1506 409 1894 409 
Q 2359 409 2629 706 
Q 2900 1003 2900 1516 
L 2900 3500 
L 3475 3500 
L 3475 0 
L 2900 0 
L 2900 538 
Q 2691 219 2414 64 
Q 2138 -91 1772 -91 
Q 1169 -91 856 284 
Q 544 659 544 1381 
z
M 1991 3584 
L 1991 3584 
z
" transform="scale(0.015625)"/>
       <path id="DejaVuSans-73" d="M 2834 3397 
L 2834 2853 
Q 2591 2978 2328 3040 
Q 2066 3103 1784 3103 
Q 1356 3103 1142 2972 
Q 928 2841 928 2578 
Q 928 2378 1081 2264 
Q 1234 2150 1697 2047 
L 1894 2003 
Q 2506 1872 2764 1633 
Q 3022 1394 3022 966 
Q 3022 478 2636 193 
Q 2250 -91 1575 -91 
Q 1294 -91 989 -36 
Q 684 19 347 128 
L 347 722 
Q 666 556 975 473 
Q 1284 391 1588 391 
Q 1994 391 2212 530 
Q 2431 669 2431 922 
Q 2431 1156 2273 1281 
Q 2116 1406 1581 1522 
L 1381 1569 
Q 847 1681 609 1914 
Q 372 2147 372 2553 
Q 372 3047 722 3315 
Q 1072 3584 1716 3584 
Q 2034 3584 2315 3537 
Q 2597 3491 2834 3397 
z
" transform="scale(0.015625)"/>
       <path id="DejaVuSans-74" d="M 1172 4494 
L 1172 3500 
L 2356 3500 
L 2356 3053 
L 1172 3053 
L 1172 1153 
Q 1172 725 1289 603 
Q 1406 481 1766 481 
L 2356 481 
L 2356 0 
L 1766 0 
Q 1100 0 847 248 
Q 594 497 594 1153 
L 594 3053 
L 172 3053 
L 172 3500 
L 594 3500 
L 594 4494 
L 1172 4494 
z
" transform="scale(0.015625)"/>
       <path id="DejaVuSans-6f" d="M 1959 3097 
Q 1497 3097 1228 2736 
Q 959 2375 959 1747 
Q 959 1119 1226 758 
Q 1494 397 1959 397 
Q 2419 397 2687 759 
Q 2956 1122 2956 1747 
Q 2956 2369 2687 2733 
Q 2419 3097 1959 3097 
z
M 1959 3584 
Q 2709 3584 3137 3096 
Q 3566 2609 3566 1747 
Q 3566 888 3137 398 
Q 2709 -91 1959 -91 
Q 1206 -91 779 398 
Q 353 888 353 1747 
Q 353 2609 779 3096 
Q 1206 3584 1959 3584 
z
" transform="scale(0.015625)"/>
       <path id="DejaVuSans-6d" d="M 3328 2828 
Q 3544 3216 3844 3400 
Q 4144 3584 4550 3584 
Q 5097 3584 5394 3201 
Q 5691 2819 5691 2113 
L 5691 0 
L 5113 0 
L 5113 2094 
Q 5113 2597 4934 2840 
Q 4756 3084 4391 3084 
Q 3944 3084 3684 2787 
Q 3425 2491 3425 1978 
L 3425 0 
L 2847 0 
L 2847 2094 
Q 2847 2600 2669 2842 
Q 2491 3084 2119 3084 
Q 1678 3084 1418 2786 
Q 1159 2488 1159 1978 
L 1159 0 
L 581 0 
L 581 3500 
L 1159 3500 
L 1159 2956 
Q 1356 3278 1631 3431 
Q 1906 3584 2284 3584 
Q 2666 3584 2933 3390 
Q 3200 3197 3328 2828 
z
" transform="scale(0.015625)"/>
       <path id="DejaVuSans-65" d="M 3597 1894 
L 3597 1613 
L 953 1613 
Q 991 1019 1311 708 
Q 1631 397 2203 397 
Q 2534 397 2845 478 
Q 3156 559 3463 722 
L 3463 178 
Q 3153 47 2828 -22 
Q 2503 -91 2169 -91 
Q 1331 -91 842 396 
Q 353 884 353 1716 
Q 353 2575 817 3079 
Q 1281 3584 2069 3584 
Q 2775 3584 3186 3129 
Q 3597 2675 3597 1894 
z
M 3022 2063 
Q 3016 2534 2758 2815 
Q 2500 3097 2075 3097 
Q 1594 3097 1305 2825 
Q 1016 2553 972 2059 
L 3022 2063 
z
" transform="scale(0.015625)"/>
       <path id="DejaVuSans-72" d="M 2631 2963 
Q 2534 3019 2420 3045 
Q 2306 3072 2169 3072 
Q 1681 3072 1420 2755 
Q 1159 2438 1159 1844 
L 1159 0 
L 581 0 
L 581 3500 
L 1159 3500 
L 1159 2956 
Q 1341 3275 1631 3429 
Q 1922 3584 2338 3584 
Q 2397 3584 2469 3576 
Q 2541 3569 2628 3553 
L 2631 2963 
z
" transform="scale(0.015625)"/>
       <path id="DejaVuSans-5f" d="M 3263 -1063 
L 3263 -1509 
L -63 -1509 
L -63 -1063 
L 3263 -1063 
z
" transform="scale(0.015625)"/>
       <path id="DejaVuSans-71" d="M 947 1747 
Q 947 1113 1208 752 
Q 1469 391 1925 391 
Q 2381 391 2643 752 
Q 2906 1113 2906 1747 
Q 2906 2381 2643 2742 
Q 2381 3103 1925 3103 
Q 1469 3103 1208 2742 
Q 947 2381 947 1747 
z
M 2906 525 
Q 2725 213 2448 61 
Q 2172 -91 1784 -91 
Q 1150 -91 751 415 
Q 353 922 353 1747 
Q 353 2572 751 3078 
Q 1150 3584 1784 3584 
Q 2172 3584 2448 3432 
Q 2725 3281 2906 2969 
L 2906 3500 
L 3481 3500 
L 3481 -1331 
L 2906 -1331 
L 2906 525 
z
" transform="scale(0.015625)"/>
      </defs>
      <use xlink:href="#DejaVuSans-63"/>
      <use xlink:href="#DejaVuSans-75" x="54.980469"/>
      <use xlink:href="#DejaVuSans-73" x="118.359375"/>
      <use xlink:href="#DejaVuSans-74" x="170.458984"/>
      <use xlink:href="#DejaVuSans-6f" x="209.667969"/>
      <use xlink:href="#DejaVuSans-6d" x="270.849609"/>
      <use xlink:href="#DejaVuSans-65" x="368.261719"/>
      <use xlink:href="#DejaVuSans-72" x="429.785156"/>
      <use xlink:href="#DejaVuSans-5f" x="470.898438"/>
      <use xlink:href="#DejaVuSans-72" x="520.898438"/>
      <use xlink:href="#DejaVuSans-65" x="559.761719"/>
      <use xlink:href="#DejaVuSans-71" x="621.285156"/>
      <use xlink:href="#DejaVuSans-75" x="684.761719"/>
      <use xlink:href="#DejaVuSans-65" x="748.140625"/>
      <use xlink:href="#DejaVuSans-73" x="809.664062"/>
      <use xlink:href="#DejaVuSans-74" x="861.763672"/>
     </g>
    </g>
   </g>
   <g id="matplotlib.axis_2">
    <g id="ytick_1">
     <g id="line2d_17">
      <path d="M 176.647115 656.969025 
L 1319.468466 656.969025 
" clip-path="url(#pc17cd170fc)" style="fill: none; stroke: #b0b0b0; stroke-width: 0.8; stroke-linecap: square"/>
     </g>
     <g id="line2d_18">
      <defs>
       <path id="ma7390e3491" d="M 0 0 
L -3.5 0 
" style="stroke: #000000; stroke-width: 0.8"/>
      </defs>
      <g>
       <use xlink:href="#ma7390e3491" x="176.647115" y="656.969025" style="stroke: #000000; stroke-width: 0.8"/>
      </g>
     </g>
     <g id="text_10">
      <!-- 0 -->
      <g transform="translate(142.924615 672.925744) scale(0.42 -0.42)">
       <use xlink:href="#DejaVuSans-30"/>
      </g>
     </g>
    </g>
    <g id="ytick_2">
     <g id="line2d_19">
      <path d="M 176.647115 574.526521 
L 1319.468466 574.526521 
" clip-path="url(#pc17cd170fc)" style="fill: none; stroke: #b0b0b0; stroke-width: 0.8; stroke-linecap: square"/>
     </g>
     <g id="line2d_20">
      <g>
       <use xlink:href="#ma7390e3491" x="176.647115" y="574.526521" style="stroke: #000000; stroke-width: 0.8"/>
      </g>
     </g>
     <g id="text_11">
      <!-- 5000 -->
      <g transform="translate(62.757115 590.48324) scale(0.42 -0.42)">
       <use xlink:href="#DejaVuSans-35"/>
       <use xlink:href="#DejaVuSans-30" x="63.623047"/>
       <use xlink:href="#DejaVuSans-30" x="127.246094"/>
       <use xlink:href="#DejaVuSans-30" x="190.869141"/>
      </g>
     </g>
    </g>
    <g id="ytick_3">
     <g id="line2d_21">
      <path d="M 176.647115 492.084017 
L 1319.468466 492.084017 
" clip-path="url(#pc17cd170fc)" style="fill: none; stroke: #b0b0b0; stroke-width: 0.8; stroke-linecap: square"/>
     </g>
     <g id="line2d_22">
      <g>
       <use xlink:href="#ma7390e3491" x="176.647115" y="492.084017" style="stroke: #000000; stroke-width: 0.8"/>
      </g>
     </g>
     <g id="text_12">
      <!-- 10000 -->
      <g transform="translate(36.034615 508.040736) scale(0.42 -0.42)">
       <use xlink:href="#DejaVuSans-31"/>
       <use xlink:href="#DejaVuSans-30" x="63.623047"/>
       <use xlink:href="#DejaVuSans-30" x="127.246094"/>
       <use xlink:href="#DejaVuSans-30" x="190.869141"/>
       <use xlink:href="#DejaVuSans-30" x="254.492188"/>
      </g>
     </g>
    </g>
    <g id="ytick_4">
     <g id="line2d_23">
      <path d="M 176.647115 409.641513 
L 1319.468466 409.641513 
" clip-path="url(#pc17cd170fc)" style="fill: none; stroke: #b0b0b0; stroke-width: 0.8; stroke-linecap: square"/>
     </g>
     <g id="line2d_24">
      <g>
       <use xlink:href="#ma7390e3491" x="176.647115" y="409.641513" style="stroke: #000000; stroke-width: 0.8"/>
      </g>
     </g>
     <g id="text_13">
      <!-- 15000 -->
      <g transform="translate(36.034615 425.598232) scale(0.42 -0.42)">
       <use xlink:href="#DejaVuSans-31"/>
       <use xlink:href="#DejaVuSans-35" x="63.623047"/>
       <use xlink:href="#DejaVuSans-30" x="127.246094"/>
       <use xlink:href="#DejaVuSans-30" x="190.869141"/>
       <use xlink:href="#DejaVuSans-30" x="254.492188"/>
      </g>
     </g>
    </g>
    <g id="ytick_5">
     <g id="line2d_25">
      <path d="M 176.647115 327.199009 
L 1319.468466 327.199009 
" clip-path="url(#pc17cd170fc)" style="fill: none; stroke: #b0b0b0; stroke-width: 0.8; stroke-linecap: square"/>
     </g>
     <g id="line2d_26">
      <g>
       <use xlink:href="#ma7390e3491" x="176.647115" y="327.199009" style="stroke: #000000; stroke-width: 0.8"/>
      </g>
     </g>
     <g id="text_14">
      <!-- 20000 -->
      <g transform="translate(36.034615 343.155728) scale(0.42 -0.42)">
       <use xlink:href="#DejaVuSans-32"/>
       <use xlink:href="#DejaVuSans-30" x="63.623047"/>
       <use xlink:href="#DejaVuSans-30" x="127.246094"/>
       <use xlink:href="#DejaVuSans-30" x="190.869141"/>
       <use xlink:href="#DejaVuSans-30" x="254.492188"/>
      </g>
     </g>
    </g>
    <g id="ytick_6">
     <g id="line2d_27">
      <path d="M 176.647115 244.756505 
L 1319.468466 244.756505 
" clip-path="url(#pc17cd170fc)" style="fill: none; stroke: #b0b0b0; stroke-width: 0.8; stroke-linecap: square"/>
     </g>
     <g id="line2d_28">
      <g>
       <use xlink:href="#ma7390e3491" x="176.647115" y="244.756505" style="stroke: #000000; stroke-width: 0.8"/>
      </g>
     </g>
     <g id="text_15">
      <!-- 25000 -->
      <g transform="translate(36.034615 260.713224) scale(0.42 -0.42)">
       <use xlink:href="#DejaVuSans-32"/>
       <use xlink:href="#DejaVuSans-35" x="63.623047"/>
       <use xlink:href="#DejaVuSans-30" x="127.246094"/>
       <use xlink:href="#DejaVuSans-30" x="190.869141"/>
       <use xlink:href="#DejaVuSans-30" x="254.492188"/>
      </g>
     </g>
    </g>
    <g id="ytick_7">
     <g id="line2d_29">
      <path d="M 176.647115 162.314001 
L 1319.468466 162.314001 
" clip-path="url(#pc17cd170fc)" style="fill: none; stroke: #b0b0b0; stroke-width: 0.8; stroke-linecap: square"/>
     </g>
     <g id="line2d_30">
      <g>
       <use xlink:href="#ma7390e3491" x="176.647115" y="162.314001" style="stroke: #000000; stroke-width: 0.8"/>
      </g>
     </g>
     <g id="text_16">
      <!-- 30000 -->
      <g transform="translate(36.034615 178.27072) scale(0.42 -0.42)">
       <use xlink:href="#DejaVuSans-33"/>
       <use xlink:href="#DejaVuSans-30" x="63.623047"/>
       <use xlink:href="#DejaVuSans-30" x="127.246094"/>
       <use xlink:href="#DejaVuSans-30" x="190.869141"/>
       <use xlink:href="#DejaVuSans-30" x="254.492188"/>
      </g>
     </g>
    </g>
    <g id="ytick_8">
     <g id="line2d_31">
      <path d="M 176.647115 79.871497 
L 1319.468466 79.871497 
" clip-path="url(#pc17cd170fc)" style="fill: none; stroke: #b0b0b0; stroke-width: 0.8; stroke-linecap: square"/>
     </g>
     <g id="line2d_32">
      <g>
       <use xlink:href="#ma7390e3491" x="176.647115" y="79.871497" style="stroke: #000000; stroke-width: 0.8"/>
      </g>
     </g>
     <g id="text_17">
      <!-- 35000 -->
      <g transform="translate(36.034615 95.828216) scale(0.42 -0.42)">
       <use xlink:href="#DejaVuSans-33"/>
       <use xlink:href="#DejaVuSans-35" x="63.623047"/>
       <use xlink:href="#DejaVuSans-30" x="127.246094"/>
       <use xlink:href="#DejaVuSans-30" x="190.869141"/>
       <use xlink:href="#DejaVuSans-30" x="254.492188"/>
      </g>
     </g>
    </g>
    <g id="text_18">
     <!-- Variance of exposure -->
     <g transform="translate(25.795553 503.273281) rotate(-90) scale(0.3 -0.3)">
      <defs>
       <path id="DejaVuSans-56" d="M 1831 0 
L 50 4666 
L 709 4666 
L 2188 738 
L 3669 4666 
L 4325 4666 
L 2547 0 
L 1831 0 
z
" transform="scale(0.015625)"/>
       <path id="DejaVuSans-61" d="M 2194 1759 
Q 1497 1759 1228 1600 
Q 959 1441 959 1056 
Q 959 750 1161 570 
Q 1363 391 1709 391 
Q 2188 391 2477 730 
Q 2766 1069 2766 1631 
L 2766 1759 
L 2194 1759 
z
M 3341 1997 
L 3341 0 
L 2766 0 
L 2766 531 
Q 2569 213 2275 61 
Q 1981 -91 1556 -91 
Q 1019 -91 701 211 
Q 384 513 384 1019 
Q 384 1609 779 1909 
Q 1175 2209 1959 2209 
L 2766 2209 
L 2766 2266 
Q 2766 2663 2505 2880 
Q 2244 3097 1772 3097 
Q 1472 3097 1187 3025 
Q 903 2953 641 2809 
L 641 3341 
Q 956 3463 1253 3523 
Q 1550 3584 1831 3584 
Q 2591 3584 2966 3190 
Q 3341 2797 3341 1997 
z
" transform="scale(0.015625)"/>
       <path id="DejaVuSans-69" d="M 603 3500 
L 1178 3500 
L 1178 0 
L 603 0 
L 603 3500 
z
M 603 4863 
L 1178 4863 
L 1178 4134 
L 603 4134 
L 603 4863 
z
" transform="scale(0.015625)"/>
       <path id="DejaVuSans-6e" d="M 3513 2113 
L 3513 0 
L 2938 0 
L 2938 2094 
Q 2938 2591 2744 2837 
Q 2550 3084 2163 3084 
Q 1697 3084 1428 2787 
Q 1159 2491 1159 1978 
L 1159 0 
L 581 0 
L 581 3500 
L 1159 3500 
L 1159 2956 
Q 1366 3272 1645 3428 
Q 1925 3584 2291 3584 
Q 2894 3584 3203 3211 
Q 3513 2838 3513 2113 
z
" transform="scale(0.015625)"/>
       <path id="DejaVuSans-20" transform="scale(0.015625)"/>
       <path id="DejaVuSans-66" d="M 2375 4863 
L 2375 4384 
L 1825 4384 
Q 1516 4384 1395 4259 
Q 1275 4134 1275 3809 
L 1275 3500 
L 2222 3500 
L 2222 3053 
L 1275 3053 
L 1275 0 
L 697 0 
L 697 3053 
L 147 3053 
L 147 3500 
L 697 3500 
L 697 3744 
Q 697 4328 969 4595 
Q 1241 4863 1831 4863 
L 2375 4863 
z
" transform="scale(0.015625)"/>
       <path id="DejaVuSans-78" d="M 3513 3500 
L 2247 1797 
L 3578 0 
L 2900 0 
L 1881 1375 
L 863 0 
L 184 0 
L 1544 1831 
L 300 3500 
L 978 3500 
L 1906 2253 
L 2834 3500 
L 3513 3500 
z
" transform="scale(0.015625)"/>
       <path id="DejaVuSans-70" d="M 1159 525 
L 1159 -1331 
L 581 -1331 
L 581 3500 
L 1159 3500 
L 1159 2969 
Q 1341 3281 1617 3432 
Q 1894 3584 2278 3584 
Q 2916 3584 3314 3078 
Q 3713 2572 3713 1747 
Q 3713 922 3314 415 
Q 2916 -91 2278 -91 
Q 1894 -91 1617 61 
Q 1341 213 1159 525 
z
M 3116 1747 
Q 3116 2381 2855 2742 
Q 2594 3103 2138 3103 
Q 1681 3103 1420 2742 
Q 1159 2381 1159 1747 
Q 1159 1113 1420 752 
Q 1681 391 2138 391 
Q 2594 391 2855 752 
Q 3116 1113 3116 1747 
z
" transform="scale(0.015625)"/>
      </defs>
      <use xlink:href="#DejaVuSans-56"/>
      <use xlink:href="#DejaVuSans-61" x="60.658203"/>
      <use xlink:href="#DejaVuSans-72" x="121.9375"/>
      <use xlink:href="#DejaVuSans-69" x="163.050781"/>
      <use xlink:href="#DejaVuSans-61" x="190.833984"/>
      <use xlink:href="#DejaVuSans-6e" x="252.113281"/>
      <use xlink:href="#DejaVuSans-63" x="315.492188"/>
      <use xlink:href="#DejaVuSans-65" x="370.472656"/>
      <use xlink:href="#DejaVuSans-20" x="431.996094"/>
      <use xlink:href="#DejaVuSans-6f" x="463.783203"/>
      <use xlink:href="#DejaVuSans-66" x="524.964844"/>
      <use xlink:href="#DejaVuSans-20" x="560.169922"/>
      <use xlink:href="#DejaVuSans-65" x="591.957031"/>
      <use xlink:href="#DejaVuSans-78" x="651.730469"/>
      <use xlink:href="#DejaVuSans-70" x="710.910156"/>
      <use xlink:href="#DejaVuSans-6f" x="774.386719"/>
      <use xlink:href="#DejaVuSans-73" x="835.568359"/>
      <use xlink:href="#DejaVuSans-75" x="887.667969"/>
      <use xlink:href="#DejaVuSans-72" x="951.046875"/>
      <use xlink:href="#DejaVuSans-65" x="989.910156"/>
     </g>
    </g>
   </g>
   <g id="line2d_33">
    <path d="M 228.59354 656.969015 
L 242.519026 656.853063 
L 257.067577 656.486137 
L 269.310789 656.008816 
L 274.980674 655.729565 
L 285.635073 655.101925 
L 288.563475 654.898773 
L 291.367264 654.70422 
L 294.949884 654.434984 
L 297.847133 654.20369 
L 301.523212 653.897135 
L 305.604283 653.566207 
L 315.511004 652.611224 
L 317.255584 652.432125 
L 324.701202 651.652316 
L 327.660757 651.308545 
L 336.41481 650.25263 
L 340.838567 649.711005 
L 342.894679 649.454724 
L 344.421186 649.259626 
L 345.885387 649.071942 
L 353.237545 648.02985 
L 366.789193 645.937239 
L 368.004168 645.731699 
L 369.779901 645.447861 
L 375.854778 644.451912 
L 378.128963 644.086214 
L 384.359605 642.987904 
L 389.344119 642.074365 
L 390.777167 641.836225 
L 392.895585 641.439316 
L 394.141714 641.2198 
L 406.665306 638.74315 
L 407.475289 638.570498 
L 408.441039 638.367205 
L 414.95206 637.062068 
L 416.447415 636.725548 
L 418.129688 636.371284 
L 418.815059 636.223849 
L 428.846393 634.006959 
L 430.684433 633.617651 
L 431.650182 633.400467 
L 432.865158 633.121244 
L 433.893214 632.870939 
L 435.824713 632.414841 
L 439.002341 631.642512 
L 439.687711 631.480599 
L 441.556904 631.043456 
L 443.675323 630.485993 
L 445.700282 629.966322 
L 447.03987 629.64002 
L 448.130232 629.381132 
L 449.65674 629.021545 
L 456.790825 627.17689 
L 458.909244 626.577111 
L 477.258486 621.529134 
L 477.788091 621.364322 
L 479.314598 620.886093 
L 480.529574 620.528421 
L 482.243 620.020634 
L 484.797564 619.284073 
L 485.607547 619.018768 
L 486.261765 618.82302 
L 488.660562 618.112854 
L 489.750925 617.782888 
L 490.529755 617.543897 
L 492.80394 616.850714 
L 494.143528 616.449952 
L 500.592243 614.526616 
L 501.744912 614.094094 
L 507.35249 612.364509 
L 509.502062 611.634665 
L 510.530118 611.292347 
L 511.464714 611.000751 
L 511.869706 610.859988 
L 512.555077 610.664801 
L 514.424269 610.043647 
L 515.234253 609.78358 
L 516.200003 609.422697 
L 517.570744 608.979043 
L 518.287268 608.712936 
L 534.798471 603.1126 
L 535.234616 602.972885 
L 535.733067 602.793209 
L 538.349937 601.86611 
L 539.004155 601.615136 
L 540.873347 600.868207 
L 541.96371 600.478073 
L 542.836 600.171746 
L 546.636692 598.802254 
L 547.571288 598.477689 
L 548.06974 598.30597 
L 549.035489 597.991777 
L 552.742721 596.608754 
L 554.051156 596.083313 
L 558.630679 594.311271 
L 559.876807 593.811954 
L 562.587137 592.80843 
L 563.085588 592.61654 
L 563.646346 592.406051 
L 592.836907 580.387408 
L 593.553431 580.106814 
L 596.699905 578.728208 
L 597.22951 578.49062 
L 598.693711 577.889493 
L 600.53175 577.081919 
L 601.030202 576.90696 
L 601.746726 576.568347 
L 602.27633 576.30444 
L 604.363595 575.309781 
L 605.453958 574.808616 
L 606.419708 574.390751 
L 607.696989 573.83821 
L 609.067731 573.239577 
L 609.441569 573.059189 
L 610.03348 572.81064 
L 610.500778 572.650316 
L 611.217302 572.296039 
L 611.77806 572.048037 
L 612.806116 571.61043 
L 616.13951 570.144955 
L 616.91834 569.727164 
L 618.413695 569.059403 
L 618.974452 568.814563 
L 620.064815 568.352378 
L 620.563266 568.108844 
L 621.030564 567.872022 
L 623.398209 566.75541 
L 624.145886 566.39423 
L 625.54778 565.735833 
L 626.856215 565.127186 
L 632.588406 562.391296 
L 633.273777 562.112518 
L 633.678769 561.903571 
L 634.239527 561.67631 
L 634.644519 561.483428 
L 652.837995 552.787765 
L 653.305293 552.559515 
L 654.894107 551.770806 
L 655.454865 551.520897 
L 656.825606 550.870221 
L 657.199445 550.692094 
L 659.722855 549.414096 
L 666.825788 545.766421 
L 667.480005 545.427263 
L 667.853844 545.225756 
L 668.258835 545.010526 
L 673.492575 542.31682 
L 674.769857 541.666468 
L 675.424074 541.322887 
L 676.047139 540.977263 
L 705.113086 525.380749 
L 705.611538 525.11315 
L 706.888819 524.412261 
L 707.231505 524.21167 
L 707.729956 523.908246 
L 708.166101 523.660578 
L 712.216019 521.446011 
L 712.527551 521.278661 
L 713.088309 520.96347 
L 713.524454 520.715825 
L 714.801736 520.020119 
L 716.29709 519.217153 
L 716.639775 519.004959 
L 728.446843 512.219849 
L 728.976448 511.929707 
L 729.786431 511.504972 
L 730.627568 511.070871 
L 731.219479 510.726001 
L 745.269578 502.63618 
L 745.58111 502.419668 
L 751.500221 499.031276 
L 751.874059 498.810781 
L 752.621736 498.388938 
L 754.241703 497.407779 
L 758.135855 495.009059 
L 760.22312 493.677422 
L 761.438095 492.948821 
L 763.61882 491.624675 
L 764.241885 491.222035 
L 765.706086 490.275336 
L 766.453763 489.831031 
L 767.076827 489.462597 
L 769.070633 488.272317 
L 779.600419 481.728507 
L 780.503862 481.12848 
L 781.251539 480.674129 
L 781.718837 480.358953 
L 783.089579 479.460661 
L 783.930715 478.877092 
L 784.36686 478.588042 
L 785.831061 477.559164 
L 786.267206 477.205771 
L 791.563252 473.810993 
L 792.279776 473.347703 
L 793.463598 472.550336 
L 797.606976 469.741831 
L 798.790798 468.983839 
L 799.258096 468.662577 
L 799.97462 468.195752 
L 800.441918 467.847254 
L 800.971523 467.51262 
L 801.314208 467.284151 
L 801.594587 467.079531 
L 809.56981 461.781126 
L 810.005955 461.506968 
L 810.753632 460.982915 
L 811.750535 460.258665 
L 813.121276 459.387444 
L 813.775493 458.980334 
L 815.862759 457.511557 
L 816.174291 457.309721 
L 816.953121 456.822042 
L 817.825411 456.169511 
L 818.573088 455.676756 
L 819.164999 455.292144 
L 819.538838 455.045876 
L 819.725757 454.879557 
L 820.660353 454.224521 
L 826.236779 450.172973 
L 827.358294 449.386466 
L 827.981358 448.941754 
L 828.230584 448.731794 
L 828.760189 448.350357 
L 829.134027 448.10367 
L 829.663632 447.696633 
L 838.822677 441.476436 
L 839.601507 440.953266 
L 840.878789 440.077669 
L 841.751079 439.417675 
L 842.498756 438.916981 
L 842.872594 438.647014 
L 843.464505 438.297981 
L 847.514423 435.675792 
L 847.888262 435.410406 
L 856.143863 429.482132 
L 856.455395 429.236732 
L 856.735774 429.024511 
L 881.845264 410.616989 
L 882.187949 410.323734 
L 882.77986 409.940257 
L 883.278312 409.551167 
L 883.74561 409.191977 
L 884.150602 408.869315 
L 889.602414 404.68254 
L 890.132018 404.309278 
L 890.72393 403.867209 
L 891.253534 403.451542 
L 892.250437 402.679741 
L 892.811195 402.244416 
L 896.300355 399.524721 
L 896.64304 399.242979 
L 897.60879 398.524717 
L 901.68986 395.231704 
L 902.063699 394.906203 
L 909.447011 389.275142 
L 909.727389 389.030725 
L 911.098131 387.97608 
L 911.565429 387.529116 
L 911.845808 387.29288 
L 912.219646 386.953289 
L 912.468872 386.764768 
L 915.272661 384.581416 
L 922.344441 378.974212 
L 923.559416 377.968918 
L 924.27594 377.408019 
L 924.805545 376.995254 
L 925.708988 376.206112 
L 926.269746 375.753775 
L 927.547027 374.723261 
L 928.107785 374.29456 
L 931.472332 371.611454 
L 933.092299 370.297549 
L 933.559597 369.920814 
L 934.089202 369.470847 
L 935.335331 368.51897 
L 935.864935 368.083246 
L 936.332233 367.698394 
L 936.830685 367.316085 
L 937.111064 367.075637 
L 937.422596 366.815085 
L 938.82449 365.781323 
L 939.354095 365.278249 
L 939.541014 365.077344 
L 939.852546 364.79165 
L 940.849449 364.045966 
L 941.44136 363.576423 
L 941.659433 363.392285 
L 942.157884 362.972045 
L 942.50057 362.68294 
L 942.967868 362.268649 
L 943.902464 361.526416 
L 944.494375 361.046046 
L 945.522431 360.148269 
L 946.394721 359.392424 
L 947.578543 358.382264 
L 948.014688 358.006996 
L 948.700059 357.452857 
L 949.354276 356.92318 
L 951.067703 355.605896 
L 954.369944 352.879844 
L 954.743782 352.541863 
L 956.612975 350.98644 
L 957.111426 350.535825 
L 957.298346 350.3799 
L 959.292151 348.687677 
L 960.787506 347.409165 
L 960.974425 347.269533 
L 963.560142 344.968693 
L 964.338972 344.259309 
L 966.270471 342.49977 
L 967.111608 341.746575 
L 967.391987 341.490115 
L 967.983898 340.985237 
L 968.606962 340.49703 
L 969.759631 339.456143 
L 971.317292 338.118375 
L 971.878049 337.700815 
L 972.46996 337.225858 
L 973.124178 336.642389 
L 973.716089 336.140601 
L 974.494919 335.506534 
L 974.744145 335.315156 
L 975.211443 334.957148 
L 976.862563 333.521857 
L 977.205249 333.200838 
L 977.610241 332.832336 
L 980.819022 330.162035 
L 981.068247 329.985696 
L 983.467045 328.021934 
L 983.90319 327.625993 
L 985.772382 325.967597 
L 985.990455 325.758549 
L 988.358099 323.625381 
L 988.856551 323.16542 
L 990.164985 321.93368 
L 993.155694 319.457655 
L 994.931427 317.900135 
L 995.461032 317.469994 
L 996.052943 316.938849 
L 997.080999 316.067148 
L 997.610603 315.583664 
L 998.233668 315.074107 
L 998.514047 314.828036 
L 1000.134014 313.463744 
L 1000.601312 313.030672 
L 1001.442449 312.215458 
L 1002.595117 311.204946 
L 1002.968956 310.831397 
L 1003.155875 310.661161 
L 1003.467407 310.40378 
L 1004.215085 309.739207 
L 1006.115431 308.04809 
L 1006.645035 307.56525 
L 1007.018874 307.180986 
L 1007.95347 306.369057 
L 1008.950373 305.426863 
L 1010.321114 304.163617 
L 1010.6638 303.860494 
L 1011.941081 302.771198 
L 1012.190307 302.571525 
L 1013.09375 301.857789 
L 1013.28067 301.687421 
L 1013.685661 301.249742 
L 1014.371032 300.643836 
L 1016.925595 298.370271 
L 1017.4552 297.964907 
L 1027.860373 288.443507 
L 1028.327671 288.023457 
L 1028.576897 287.841264 
L 1029.262268 287.221043 
L 1029.760719 286.800375 
L 1039.916667 277.263124 
L 1040.321658 276.872945 
L 1040.72665 276.461794 
L 1040.944723 276.267196 
L 1041.412021 275.829487 
L 1048.296881 269.427408 
L 1048.733026 268.988222 
L 1049.729929 268.153076 
L 1050.197227 267.706734 
L 1050.882598 267.07796 
L 1051.162977 266.792719 
L 1053.094476 264.986967 
L 1053.374855 264.731119 
L 1053.686387 264.410898 
L 1054.465217 263.712821 
L 1055.057128 263.094866 
L 1062.502746 255.995536 
L 1062.689665 255.823288 
L 1063.032351 255.470215 
L 1063.904641 254.595416 
L 1064.621165 253.926274 
L 1065.119616 253.478367 
L 1065.618067 253.062495 
L 1066.209978 252.446351 
L 1067.206881 251.418691 
L 1067.674179 250.907581 
L 1068.079171 250.545681 
L 1070.477969 248.23884 
L 1070.789501 247.929306 
L 1071.287952 247.418613 
L 1071.568331 247.207257 
L 1072.035629 246.6928 
L 1072.253702 246.473578 
L 1072.721 245.993509 
L 1073.001379 245.712493 
L 1074.060588 244.596337 
L 1076.085547 242.63134 
L 1077.362829 241.275116 
L 1077.798974 240.866456 
L 1078.608957 240.057893 
L 1078.982796 239.651037 
L 1079.418941 239.209152 
L 1080.073158 238.548264 
L 1082.783488 235.895553 
L 1083.126173 235.535247 
L 1083.593471 235.144165 
L 1085.805349 232.90383 
L 1086.241494 232.483347 
L 1094.746322 224.153796 
L 1095.182467 223.64231 
L 1096.335135 222.502226 
L 1103.593834 215.196152 
L 1104.061132 214.710479 
L 1105.463027 213.348875 
L 1105.774559 213.035709 
L 1107.23876 211.562114 
L 1107.768365 210.979574 
L 1109.481791 209.192442 
L 1109.886783 208.737815 
L 1110.603307 208.089718 
L 1111.101758 207.585751 
L 1111.755976 206.955803 
L 1111.974048 206.753025 
L 1113.064411 205.673873 
L 1113.687475 204.944954 
L 1114.12362 204.542869 
L 1116.428958 202.309263 
L 1116.709337 202.058569 
L 1126.179913 192.388918 
L 1126.584905 192.025967 
L 1127.612961 190.980126 
L 1128.049106 190.483631 
L 1128.236026 190.324315 
L 1131.164428 187.045148 
L 1131.444806 186.826757 
L 1131.787492 186.493945 
L 1132.099024 186.13528 
L 1144.46685 172.742745 
L 1145.027607 172.002376 
L 1146.491808 170.514952 
L 1147.021413 169.948931 
L 1147.76909 169.12486 
L 1149.638283 167.083538 
L 1151.25825 165.310961 
L 1151.538629 165.014452 
L 1154.030886 162.465514 
L 1154.716257 161.697805 
L 1155.152402 161.249997 
L 1157.021594 159.352209 
L 1157.582352 158.757323 
L 1157.925038 158.410209 
L 1158.953094 157.198539 
L 1159.482698 156.575338 
L 1159.825384 156.188943 
L 1160.323835 155.663369 
L 1160.573061 155.345043 
L 1160.978052 154.969686 
L 1161.258431 154.658187 
L 1162.348794 153.510963 
L 1162.660326 153.214763 
L 1164.622978 151.087072 
L 1166.741397 148.854599 
L 1167.489074 148.034324 
L 1167.7383 147.77648 
L 1168.049832 147.426574 
L 1168.299057 147.159645 
L 1168.579436 146.825809 
L 1169.700952 145.615886 
L 1170.417476 144.839622 
L 1170.666702 144.568033 
L 1171.445532 143.692185 
L 1173.626257 141.374209 
L 1173.937789 141.041081 
L 1174.996998 140.019146 
L 1175.152764 139.82416 
L 1175.713522 139.171421 
L 1176.243127 138.61274 
L 1178.423852 136.368809 
L 1178.641924 136.134685 
L 1182.38031 131.90629 
L 1182.754148 131.463241 
L 1183.096834 131.062739 
L 1186.6483 127.135911 
L 1186.866372 126.895951 
L 1186.990985 126.784725 
L 1187.42713 126.199556 
L 1188.330573 125.178831 
L 1188.610952 124.863162 
L 1188.860178 124.552623 
L 1189.919387 123.369182 
L 1190.230919 123.059128 
L 1190.698218 122.622843 
L 1190.947443 122.393903 
L 1192.349338 120.772822 
L 1192.598564 120.476948 
L 1192.878943 120.21404 
L 1193.502007 119.512878 
L 1193.844692 119.094949 
L 1194.31199 118.596716 
L 1194.623522 118.158457 
L 1196.025417 116.636178 
L 1196.586175 116.078753 
L 1196.710788 115.925494 
L 1199.171892 113.210422 
L 1199.950722 112.377165 
L 1200.168794 112.161994 
L 1200.667246 111.652539 
L 1201.539536 110.701075 
L 1202.006834 110.202354 
L 1202.629898 109.48575 
L 1203.315269 108.689035 
L 1203.626801 108.435729 
L 1203.81372 108.241821 
L 1206.399437 105.391636 
L 1206.773276 105.016165 
L 1207.022501 104.778501 
L 1208.393243 103.247544 
L 1208.673622 102.904309 
L 1210.168976 101.190928 
L 1211.134725 100.087314 
L 1211.66433 99.427153 
L 1213.190837 97.835255 
L 1213.471216 97.497711 
L 1214.997724 95.78113 
L 1215.371562 95.324237 
L 1215.776554 94.815179 
L 1216.212699 94.320725 
L 1216.524231 94.019091 
L 1216.835763 93.625525 
L 1217.303062 93.022367 
L 1217.645747 92.735599 
L 1219.359174 90.695103 
L 1219.951085 89.994528 
L 1221.913737 87.883498 
L 1222.754874 86.912628 
L 1223.315632 86.261028 
L 1223.658317 85.86842 
L 1223.907543 85.622526 
L 1224.405994 85.106536 
L 1224.624067 84.830562 
L 1225.371744 83.867974 
L 1226.181727 82.902545 
L 1226.898251 81.993416 
L 1229.577427 78.808803 
L 1230.107032 78.248962 
L 1232.599289 75.457823 
L 1233.035434 74.967286 
L 1237.895335 69.273019 
L 1238.206867 68.912086 
L 1239.889141 66.952347 
L 1240.854891 65.862664 
L 1241.072963 65.59425 
L 1241.259882 65.407653 
L 1241.571415 65.057807 
L 1243.627527 62.715023 
L 1245.185187 60.76064 
L 1245.839405 59.966645 
L 1246.213243 59.477115 
L 1246.462469 59.197104 
L 1246.929767 58.633587 
L 1247.957823 57.503667 
L 1248.425121 56.94594 
L 1248.79896 56.463113 
L 1253.596555 50.856756 
L 1253.814627 50.612021 
L 1254.749224 49.430189 
L 1255.309981 48.793029 
L 1256.057659 47.819882 
L 1258.362996 44.972354 
L 1258.861448 44.389206 
L 1259.359899 43.813297 
L 1259.796044 43.278015 
L 1260.543721 42.411425 
L 1260.792947 42.076246 
L 1261.540624 41.212709 
L 1261.821003 40.896749 
L 1262.942519 39.494868 
L 1263.254051 39.089233 
L 1263.752502 38.606441 
L 1264.001728 38.291095 
L 1264.31326 37.893865 
L 1264.718252 37.488188 
L 1265.123244 37.045374 
L 1266.026687 35.979204 
L 1266.462832 35.368145 
L 1267.335122 34.414129 
L 1267.522041 34.14161 
L 1267.522041 34.14161 
" clip-path="url(#pc17cd170fc)" style="fill: none; stroke: #000000; stroke-width: 5; stroke-linecap: square"/>
    <defs>
     <path id="md4d9da6660" d="M 0 17.67767 
L 17.67767 0 
L 0 -17.67767 
L -17.67767 0 
z
" style="stroke: #000000; stroke-linejoin: miter"/>
    </defs>
    <g clip-path="url(#pc17cd170fc)">
     <use xlink:href="#md4d9da6660" x="228.59354" y="656.969015" style="stroke: #000000; stroke-linejoin: miter"/>
     <use xlink:href="#md4d9da6660" x="275.32336" y="655.712904" style="stroke: #000000; stroke-linejoin: miter"/>
     <use xlink:href="#md4d9da6660" x="322.053179" y="651.923155" style="stroke: #000000; stroke-linejoin: miter"/>
     <use xlink:href="#md4d9da6660" x="368.782999" y="645.611972" style="stroke: #000000; stroke-linejoin: miter"/>
     <use xlink:href="#md4d9da6660" x="415.512818" y="636.942897" style="stroke: #000000; stroke-linejoin: miter"/>
     <use xlink:href="#md4d9da6660" x="462.242638" y="625.676452" style="stroke: #000000; stroke-linejoin: miter"/>
     <use xlink:href="#md4d9da6660" x="508.972457" y="611.808101" style="stroke: #000000; stroke-linejoin: miter"/>
     <use xlink:href="#md4d9da6660" x="555.702277" y="595.466221" style="stroke: #000000; stroke-linejoin: miter"/>
     <use xlink:href="#md4d9da6660" x="602.432096" y="576.198218" style="stroke: #000000; stroke-linejoin: miter"/>
     <use xlink:href="#md4d9da6660" x="649.161916" y="554.612216" style="stroke: #000000; stroke-linejoin: miter"/>
     <use xlink:href="#md4d9da6660" x="695.891735" y="530.486243" style="stroke: #000000; stroke-linejoin: miter"/>
     <use xlink:href="#md4d9da6660" x="742.621555" y="504.1796" style="stroke: #000000; stroke-linejoin: miter"/>
     <use xlink:href="#md4d9da6660" x="789.351374" y="475.142363" style="stroke: #000000; stroke-linejoin: miter"/>
     <use xlink:href="#md4d9da6660" x="836.081194" y="443.426209" style="stroke: #000000; stroke-linejoin: miter"/>
     <use xlink:href="#md4d9da6660" x="882.811013" y="409.906235" style="stroke: #000000; stroke-linejoin: miter"/>
     <use xlink:href="#md4d9da6660" x="929.540833" y="373.110763" style="stroke: #000000; stroke-linejoin: miter"/>
     <use xlink:href="#md4d9da6660" x="976.270652" y="334.029564" style="stroke: #000000; stroke-linejoin: miter"/>
     <use xlink:href="#md4d9da6660" x="1023.000472" y="292.887076" style="stroke: #000000; stroke-linejoin: miter"/>
     <use xlink:href="#md4d9da6660" x="1069.730292" y="248.8647" style="stroke: #000000; stroke-linejoin: miter"/>
     <use xlink:href="#md4d9da6660" x="1116.460111" y="202.29386" style="stroke: #000000; stroke-linejoin: miter"/>
     <use xlink:href="#md4d9da6660" x="1163.189931" y="152.625255" style="stroke: #000000; stroke-linejoin: miter"/>
     <use xlink:href="#md4d9da6660" x="1209.91975" y="101.465231" style="stroke: #000000; stroke-linejoin: miter"/>
     <use xlink:href="#md4d9da6660" x="1256.64957" y="47.089277" style="stroke: #000000; stroke-linejoin: miter"/>
    </g>
   </g>
   <g id="line2d_34">
    <path d="M 228.59354 656.969015 
L 565.079394 656.968403 
L 1267.522041 656.968403 
L 1267.522041 656.968403 
" clip-path="url(#pc17cd170fc)" style="fill: none; stroke: #9400d3; stroke-width: 5; stroke-linecap: square"/>
    <defs>
     <path id="mfa9e89c2c5" d="M 0 12.5 
C 3.315039 12.5 6.494748 11.182921 8.838835 8.838835 
C 11.182921 6.494748 12.5 3.315039 12.5 0 
C 12.5 -3.315039 11.182921 -6.494748 8.838835 -8.838835 
C 6.494748 -11.182921 3.315039 -12.5 0 -12.5 
C -3.315039 -12.5 -6.494748 -11.182921 -8.838835 -8.838835 
C -11.182921 -6.494748 -12.5 -3.315039 -12.5 0 
C -12.5 3.315039 -11.182921 6.494748 -8.838835 8.838835 
C -6.494748 11.182921 -3.315039 12.5 0 12.5 
z
" style="stroke: #9400d3"/>
    </defs>
    <g clip-path="url(#pc17cd170fc)">
     <use xlink:href="#mfa9e89c2c5" x="228.59354" y="656.969015" style="fill: #9400d3; stroke: #9400d3"/>
     <use xlink:href="#mfa9e89c2c5" x="275.32336" y="656.968404" style="fill: #9400d3; stroke: #9400d3"/>
     <use xlink:href="#mfa9e89c2c5" x="322.053179" y="656.968403" style="fill: #9400d3; stroke: #9400d3"/>
     <use xlink:href="#mfa9e89c2c5" x="368.782999" y="656.968403" style="fill: #9400d3; stroke: #9400d3"/>
     <use xlink:href="#mfa9e89c2c5" x="415.512818" y="656.968403" style="fill: #9400d3; stroke: #9400d3"/>
     <use xlink:href="#mfa9e89c2c5" x="462.242638" y="656.968403" style="fill: #9400d3; stroke: #9400d3"/>
     <use xlink:href="#mfa9e89c2c5" x="508.972457" y="656.968403" style="fill: #9400d3; stroke: #9400d3"/>
     <use xlink:href="#mfa9e89c2c5" x="555.702277" y="656.968403" style="fill: #9400d3; stroke: #9400d3"/>
     <use xlink:href="#mfa9e89c2c5" x="602.432096" y="656.968403" style="fill: #9400d3; stroke: #9400d3"/>
     <use xlink:href="#mfa9e89c2c5" x="649.161916" y="656.968403" style="fill: #9400d3; stroke: #9400d3"/>
     <use xlink:href="#mfa9e89c2c5" x="695.891735" y="656.968403" style="fill: #9400d3; stroke: #9400d3"/>
     <use xlink:href="#mfa9e89c2c5" x="742.621555" y="656.968403" style="fill: #9400d3; stroke: #9400d3"/>
     <use xlink:href="#mfa9e89c2c5" x="789.351374" y="656.968403" style="fill: #9400d3; stroke: #9400d3"/>
     <use xlink:href="#mfa9e89c2c5" x="836.081194" y="656.968403" style="fill: #9400d3; stroke: #9400d3"/>
     <use xlink:href="#mfa9e89c2c5" x="882.811013" y="656.968403" style="fill: #9400d3; stroke: #9400d3"/>
     <use xlink:href="#mfa9e89c2c5" x="929.540833" y="656.968403" style="fill: #9400d3; stroke: #9400d3"/>
     <use xlink:href="#mfa9e89c2c5" x="976.270652" y="656.968403" style="fill: #9400d3; stroke: #9400d3"/>
     <use xlink:href="#mfa9e89c2c5" x="1023.000472" y="656.968403" style="fill: #9400d3; stroke: #9400d3"/>
     <use xlink:href="#mfa9e89c2c5" x="1069.730292" y="656.968403" style="fill: #9400d3; stroke: #9400d3"/>
     <use xlink:href="#mfa9e89c2c5" x="1116.460111" y="656.968403" style="fill: #9400d3; stroke: #9400d3"/>
     <use xlink:href="#mfa9e89c2c5" x="1163.189931" y="656.968403" style="fill: #9400d3; stroke: #9400d3"/>
     <use xlink:href="#mfa9e89c2c5" x="1209.91975" y="656.968403" style="fill: #9400d3; stroke: #9400d3"/>
     <use xlink:href="#mfa9e89c2c5" x="1256.64957" y="656.968403" style="fill: #9400d3; stroke: #9400d3"/>
    </g>
   </g>
   <g id="line2d_35">
    <path d="M 228.59354 656.969015 
L 1267.522041 656.623198 
L 1267.522041 656.623198 
" clip-path="url(#pc17cd170fc)" style="fill: none; stroke: #d2691e; stroke-width: 5; stroke-linecap: square"/>
    <defs>
     <path id="m9c5b8e12e4" d="M 0 -12.5 
L -2.806425 -3.862712 
L -11.888206 -3.862712 
L -4.540891 1.475425 
L -7.347316 10.112712 
L -0 4.774575 
L 7.347316 10.112712 
L 4.540891 1.475425 
L 11.888206 -3.862712 
L 2.806425 -3.862712 
z
" style="stroke: #d2691e; stroke-linejoin: bevel"/>
    </defs>
    <g clip-path="url(#pc17cd170fc)">
     <use xlink:href="#m9c5b8e12e4" x="228.59354" y="656.969015" style="fill: #d2691e; stroke: #d2691e; stroke-linejoin: bevel"/>
     <use xlink:href="#m9c5b8e12e4" x="275.32336" y="656.953467" style="fill: #d2691e; stroke: #d2691e; stroke-linejoin: bevel"/>
     <use xlink:href="#m9c5b8e12e4" x="322.053179" y="656.938152" style="fill: #d2691e; stroke: #d2691e; stroke-linejoin: bevel"/>
     <use xlink:href="#m9c5b8e12e4" x="368.782999" y="656.922913" style="fill: #d2691e; stroke: #d2691e; stroke-linejoin: bevel"/>
     <use xlink:href="#m9c5b8e12e4" x="415.512818" y="656.906968" style="fill: #d2691e; stroke: #d2691e; stroke-linejoin: bevel"/>
     <use xlink:href="#m9c5b8e12e4" x="462.242638" y="656.89076" style="fill: #d2691e; stroke: #d2691e; stroke-linejoin: bevel"/>
     <use xlink:href="#m9c5b8e12e4" x="508.972457" y="656.876036" style="fill: #d2691e; stroke: #d2691e; stroke-linejoin: bevel"/>
     <use xlink:href="#m9c5b8e12e4" x="555.702277" y="656.859249" style="fill: #d2691e; stroke: #d2691e; stroke-linejoin: bevel"/>
     <use xlink:href="#m9c5b8e12e4" x="602.432096" y="656.842328" style="fill: #d2691e; stroke: #d2691e; stroke-linejoin: bevel"/>
     <use xlink:href="#m9c5b8e12e4" x="649.161916" y="656.826289" style="fill: #d2691e; stroke: #d2691e; stroke-linejoin: bevel"/>
     <use xlink:href="#m9c5b8e12e4" x="695.891735" y="656.810678" style="fill: #d2691e; stroke: #d2691e; stroke-linejoin: bevel"/>
     <use xlink:href="#m9c5b8e12e4" x="742.621555" y="656.796346" style="fill: #d2691e; stroke: #d2691e; stroke-linejoin: bevel"/>
     <use xlink:href="#m9c5b8e12e4" x="789.351374" y="656.779168" style="fill: #d2691e; stroke: #d2691e; stroke-linejoin: bevel"/>
     <use xlink:href="#m9c5b8e12e4" x="836.081194" y="656.763248" style="fill: #d2691e; stroke: #d2691e; stroke-linejoin: bevel"/>
     <use xlink:href="#m9c5b8e12e4" x="882.811013" y="656.747757" style="fill: #d2691e; stroke: #d2691e; stroke-linejoin: bevel"/>
     <use xlink:href="#m9c5b8e12e4" x="929.540833" y="656.733209" style="fill: #d2691e; stroke: #d2691e; stroke-linejoin: bevel"/>
     <use xlink:href="#m9c5b8e12e4" x="976.270652" y="656.717071" style="fill: #d2691e; stroke: #d2691e; stroke-linejoin: bevel"/>
     <use xlink:href="#m9c5b8e12e4" x="1023.000472" y="656.701581" style="fill: #d2691e; stroke: #d2691e; stroke-linejoin: bevel"/>
     <use xlink:href="#m9c5b8e12e4" x="1069.730292" y="656.683945" style="fill: #d2691e; stroke: #d2691e; stroke-linejoin: bevel"/>
     <use xlink:href="#m9c5b8e12e4" x="1116.460111" y="656.668158" style="fill: #d2691e; stroke: #d2691e; stroke-linejoin: bevel"/>
     <use xlink:href="#m9c5b8e12e4" x="1163.189931" y="656.64919" style="fill: #d2691e; stroke: #d2691e; stroke-linejoin: bevel"/>
     <use xlink:href="#m9c5b8e12e4" x="1209.91975" y="656.637216" style="fill: #d2691e; stroke: #d2691e; stroke-linejoin: bevel"/>
     <use xlink:href="#m9c5b8e12e4" x="1256.64957" y="656.625396" style="fill: #d2691e; stroke: #d2691e; stroke-linejoin: bevel"/>
    </g>
   </g>
   <g id="line2d_36">
    <path d="M 228.59354 656.969015 
L 246.070493 656.852111 
L 261.024035 656.570721 
L 298.625963 655.169654 
L 335.386754 652.755931 
L 342.676606 652.168556 
L 345.791927 651.920873 
L 359.468188 650.648711 
L 360.527397 650.548608 
L 363.144267 650.286705 
L 381.836195 648.280107 
L 382.739638 648.165532 
L 391.618304 647.148413 
L 402.428469 645.822394 
L 403.456525 645.689235 
L 411.400594 644.635864 
L 412.33519 644.513294 
L 413.519013 644.356716 
L 434.267052 641.444857 
L 435.762407 641.220323 
L 458.535405 637.559388 
L 459.407695 637.397455 
L 463.052621 636.768067 
L 468.130595 635.875481 
L 469.875175 635.561144 
L 470.498239 635.435598 
L 474.610463 634.702245 
L 476.199277 634.435886 
L 481.495323 633.386968 
L 482.866065 633.138509 
L 483.769508 632.984188 
L 487.663659 632.22135 
L 492.648174 631.254774 
L 493.177778 631.151793 
L 501.651452 629.47045 
L 502.367976 629.325515 
L 507.321337 628.335772 
L 507.913248 628.203296 
L 512.991222 627.150206 
L 513.894665 626.964866 
L 515.265406 626.666585 
L 515.950777 626.500849 
L 520.34338 625.546434 
L 521.059904 625.386712 
L 522.274879 625.138878 
L 523.178322 624.938929 
L 525.234434 624.502957 
L 539.814138 621.203388 
L 540.374896 621.045927 
L 544.736346 620.026667 
L 547.664748 619.370783 
L 548.537038 619.176211 
L 549.658553 618.938576 
L 551.37198 618.528065 
L 551.839278 618.413475 
L 552.431189 618.258929 
L 552.773875 618.198366 
L 553.98885 617.889733 
L 555.328438 617.56009 
L 556.263035 617.330368 
L 557.228784 617.061721 
L 561.746 615.949698 
L 563.957878 615.391151 
L 565.951684 614.900374 
L 566.668208 614.718639 
L 567.509344 614.492305 
L 568.786626 614.154788 
L 571.24773 613.510519 
L 572.12002 613.299259 
L 572.805391 613.105818 
L 574.300745 612.685275 
L 577.197994 611.958505 
L 580.001783 611.193831 
L 581.123299 610.909476 
L 581.839822 610.736585 
L 582.618653 610.504607 
L 583.397483 610.325364 
L 586.948949 609.377403 
L 587.945852 609.074669 
L 591.403859 608.146657 
L 592.431915 607.886076 
L 593.678043 607.546714 
L 597.198356 606.554105 
L 597.946034 606.370539 
L 599.815226 605.847987 
L 600.500597 605.661154 
L 600.874436 605.578917 
L 605.453958 604.18073 
L 606.170482 603.970048 
L 607.977368 603.466628 
L 610.189246 602.870526 
L 612.868423 602.095724 
L 615.422986 601.370969 
L 616.762574 600.951972 
L 622.15208 599.377862 
L 623.927813 598.823472 
L 625.298555 598.403481 
L 625.983925 598.201413 
L 627.354667 597.763951 
L 627.853118 597.614339 
L 628.413876 597.432473 
L 629.223859 597.168721 
L 633.118011 596.018333 
L 634.395293 595.649806 
L 637.323695 594.754096 
L 638.133678 594.4744 
L 638.569823 594.334165 
L 639.130581 594.169376 
L 639.847105 593.951357 
L 640.28325 593.829772 
L 649.629214 591.035042 
L 650.252278 590.831153 
L 655.299099 589.230031 
L 656.514074 588.884051 
L 657.44867 588.584106 
L 673.05643 583.450098 
L 673.523728 583.311415 
L 673.959873 583.145277 
L 684.925804 579.418123 
L 685.766941 579.136962 
L 692.028737 577.077761 
L 693.212559 576.693816 
L 694.053696 576.389306 
L 702.838902 573.31448 
L 705.362312 572.447797 
L 707.200352 571.796272 
L 707.761109 571.552823 
L 708.695706 571.239867 
L 709.41223 570.975416 
L 709.754915 570.844886 
L 710.471439 570.59254 
L 714.240978 569.232246 
L 714.957502 569.018321 
L 725.767667 565.00996 
L 726.795723 564.617031 
L 727.5434 564.371664 
L 729.007601 563.83433 
L 730.035657 563.50895 
L 739.443927 560.030851 
L 740.503136 559.644954 
L 740.876975 559.505007 
L 743.338079 558.539322 
L 743.92999 558.339298 
L 745.051505 557.930329 
L 746.515706 557.336958 
L 755.207453 554.102088 
L 755.612445 553.939765 
L 757.294718 553.224799 
L 758.229315 552.866694 
L 769.351012 548.478073 
L 769.911769 548.260759 
L 770.628293 547.979041 
L 771.002132 547.81287 
L 771.749809 547.5265 
L 776.453944 545.675694 
L 776.827783 545.53819 
L 777.980452 545.047122 
L 778.44775 544.844266 
L 780.379249 544.025747 
L 780.940007 543.766262 
L 782.746893 543.008871 
L 783.276498 542.776679 
L 783.68149 542.595835 
L 788.385625 540.479296 
L 789.351374 540.040238 
L 794.335888 538.044229 
L 794.709727 537.885072 
L 795.488557 537.542059 
L 795.831243 537.363025 
L 796.703533 536.997684 
L 822.809925 525.651668 
L 823.401836 525.369468 
L 823.869134 525.181404 
L 824.616811 524.775409 
L 825.08411 524.535552 
L 825.395642 524.403067 
L 826.704077 523.815034 
L 827.015609 523.638242 
L 827.51406 523.413094 
L 828.542116 522.898553 
L 829.134027 522.656978 
L 833.464324 520.824509 
L 833.900469 520.632628 
L 835.707355 519.82841 
L 836.299266 519.564519 
L 845.396005 515.609188 
L 846.019069 515.396387 
L 846.61098 515.127866 
L 850.97243 513.245366 
L 851.502034 512.982615 
L 852.436631 512.555541 
L 853.184308 512.196636 
L 854.181211 511.67976 
L 854.804275 511.387913 
L 855.302726 511.145001 
L 856.548855 510.573224 
L 856.953847 510.358476 
L 857.888443 509.95469 
L 858.916499 509.49808 
L 860.006861 508.940107 
L 860.443006 508.781029 
L 861.034918 508.46373 
L 863.433715 507.374548 
L 863.932166 507.153628 
L 864.866763 506.668717 
L 871.377784 503.517896 
L 872.063155 503.252958 
L 872.343534 503.138792 
L 873.870041 502.43534 
L 874.306186 502.181439 
L 875.303089 501.729457 
L 875.676928 501.561339 
L 876.331145 501.237057 
L 876.580371 501.099028 
L 877.328048 500.774638 
L 878.013419 500.420621 
L 879.072628 499.939104 
L 879.539926 499.7267 
L 879.820305 499.597347 
L 880.381063 499.317872 
L 880.723748 499.14596 
L 881.12874 498.937932 
L 882.125643 498.415637 
L 882.592941 498.220361 
L 883.091392 497.966174 
L 884.181755 497.446399 
L 884.6179 497.236487 
L 885.272117 496.94093 
L 886.36248 496.347809 
L 886.954391 496.116157 
L 888.169366 495.508892 
L 889.041656 495.071787 
L 889.415495 494.909403 
L 890.817389 494.271046 
L 891.346994 493.991679 
L 893.091574 493.14829 
L 893.901557 492.735092 
L 894.400009 492.447002 
L 897.390717 490.985745 
L 897.889169 490.747003 
L 899.197603 490.106577 
L 900.007587 489.684903 
L 900.724111 489.297055 
L 901.191409 489.039082 
L 901.471788 488.865027 
L 902.188312 488.438972 
L 904.026351 487.544593 
L 904.49365 487.353863 
L 905.334786 486.946106 
L 906.487455 486.443738 
L 907.546665 485.867206 
L 908.107422 485.65057 
L 909.571623 484.849728 
L 909.883156 484.711276 
L 910.163534 484.576127 
L 912.2508 483.392981 
L 912.905017 483.066685 
L 919.91449 479.51813 
L 920.257175 479.322989 
L 920.662167 479.128206 
L 921.067159 478.944563 
L 921.939449 478.49443 
L 922.188675 478.346541 
L 922.936352 477.932723 
L 923.31019 477.704508 
L 939.541014 469.309375 
L 939.852546 469.136192 
L 940.880602 468.648757 
L 942.157884 467.977871 
L 942.594029 467.730076 
L 943.248247 467.405916 
L 946.76856 465.453604 
L 947.142398 465.260096 
L 948.139301 464.761658 
L 949.19851 464.206861 
L 952.594211 462.578108 
L 952.999202 462.357738 
L 954.774935 461.348539 
L 956.488362 460.433947 
L 974.744145 450.25159 
L 975.336056 449.949425 
L 976.862563 449.093678 
L 977.236402 448.855838 
L 978.513684 448.194881 
L 989.323849 442.303831 
L 991.161888 441.313981 
L 991.535727 441.147811 
L 991.909565 440.941176 
L 992.283404 440.742704 
L 992.906468 440.368863 
L 993.31146 440.132802 
L 994.059137 439.731129 
L 994.775661 439.300619 
L 995.492185 438.907869 
L 995.92833 438.67238 
L 996.333322 438.44656 
L 998.887885 437.048754 
L 999.168264 436.915688 
L 999.448643 436.749583 
L 999.884788 436.528376 
L 1000.539005 436.163165 
L 1002.190126 435.14718 
L 1002.563964 434.953915 
L 1003.747786 434.277029 
L 1005.118528 433.475833 
L 1005.741592 433.133271 
L 1007.95347 431.818873 
L 1008.576534 431.425359 
L 1009.635744 430.808467 
L 1010.134195 430.508467 
L 1010.881872 430.098971 
L 1011.53609 429.750638 
L 1013.062597 428.985117 
L 1013.529895 428.686917 
L 1013.934887 428.450987 
L 1014.308726 428.212962 
L 1015.835233 427.317943 
L 1017.673273 426.306487 
L 1018.047111 426.059376 
L 1019.604772 425.110598 
L 1019.885151 424.954708 
L 1023.000472 423.171145 
L 1024.931971 422.064109 
L 1025.274657 421.912168 
L 1026.209253 421.300964 
L 1033.530258 416.929608 
L 1034.340242 416.43675 
L 1035.212531 415.895641 
L 1036.520966 415.124201 
L 1037.891708 414.246546 
L 1038.514772 413.907134 
L 1038.857457 413.684824 
L 1039.200143 413.485692 
L 1039.511675 413.299145 
L 1045.025794 410.127781 
L 1045.337326 409.901274 
L 1045.804624 409.592867 
L 1046.427688 409.244879 
L 1046.770374 409.036885 
L 1047.175365 408.79471 
L 1047.518051 408.59849 
L 1048.265728 408.099679 
L 1049.605316 407.366655 
L 1062.035448 399.759134 
L 1062.720819 399.382148 
L 1063.873487 398.658606 
L 1065.991906 397.384463 
L 1067.456107 396.428479 
L 1070.166436 394.719387 
L 1070.696041 394.459276 
L 1071.132186 394.158283 
L 1071.568331 393.918069 
L 1072.316008 393.402607 
L 1072.596387 393.22723 
L 1073.468677 392.675583 
L 1073.998282 392.326541 
L 1074.496733 392.030137 
L 1074.808265 391.832891 
L 1076.365926 390.799863 
L 1076.957837 390.391599 
L 1078.048199 389.730832 
L 1091.070242 381.535413 
L 1091.288315 381.417457 
L 1091.693307 381.14024 
L 1092.721363 380.486255 
L 1114.372846 366.360984 
L 1114.777838 366.130654 
L 1115.276289 365.816831 
L 1121.413472 361.788806 
L 1121.693851 361.576083 
L 1122.129996 361.348978 
L 1126.429139 358.567247 
L 1126.927591 358.293986 
L 1129.046009 356.7387 
L 1129.513307 356.381322 
L 1129.73138 356.211324 
L 1133.313999 353.849753 
L 1133.687838 353.557662 
L 1139.980787 349.178904 
L 1140.510391 348.746157 
L 1142.161512 347.683498 
L 1145.370293 345.271879 
L 1158.859634 336.24722 
L 1161.974955 334.036186 
L 1162.193028 333.888979 
L 1163.345697 333.116353 
L 1163.812995 332.750404 
L 1164.467212 332.365872 
L 1165.682188 331.575285 
L 1165.869107 331.452554 
L 1166.616784 330.880289 
L 1166.990623 330.660811 
L 1167.395614 330.338633 
L 1169.887871 328.571955 
L 1170.105944 328.419714 
L 1170.35517 328.231882 
L 1172.504741 326.736099 
L 1173.345878 326.165301 
L 1177.208876 323.61737 
L 1177.426949 323.478564 
L 1178.299239 322.903371 
L 1178.641924 322.680008 
L 1183.875664 318.897622 
L 1185.121793 318.087452 
L 1185.713704 317.650416 
L 1186.461381 317.106576 
L 1187.489437 316.311319 
L 1187.738662 316.116769 
L 1190.698218 314.042343 
L 1190.947443 313.890925 
L 1194.000458 311.636185 
L 1194.31199 311.406355 
L 1194.592369 311.152962 
L 1194.966208 310.843485 
L 1195.3712 310.582159 
L 1195.713885 310.330152 
L 1195.994264 310.137514 
L 1196.492715 309.794786 
L 1196.773094 309.606449 
L 1198.642287 308.306144 
L 1198.984972 308.040715 
L 1199.296504 307.862151 
L 1200.075335 307.34534 
L 1200.542633 307.057761 
L 1205.714066 303.583678 
L 1206.056752 303.31353 
L 1207.022501 302.642604 
L 1207.583259 302.289708 
L 1208.050557 301.959114 
L 1209.016307 301.268914 
L 1209.390145 300.966016 
L 1210.324742 300.279854 
L 1210.916653 299.8487 
L 1211.165879 299.676106 
L 1211.477411 299.415724 
L 1213.190837 298.22863 
L 1213.471216 298.009969 
L 1215.028877 296.862771 
L 1216.088086 296.033391 
L 1216.555384 295.713857 
L 1217.303062 295.121838 
L 1217.708053 294.908484 
L 1218.704956 294.210434 
L 1219.483786 293.58803 
L 1221.820277 292.007142 
L 1222.754874 291.317143 
L 1223.035253 291.110691 
L 1223.564857 290.723044 
L 1223.969849 290.452296 
L 1224.405994 290.173304 
L 1224.624067 289.997064 
L 1225.122518 289.573031 
L 1228.518218 286.879141 
L 1229.141283 286.392904 
L 1230.169339 285.646443 
L 1231.353161 284.826246 
L 1232.163144 284.27505 
L 1232.941974 283.703272 
L 1235.340772 281.948379 
L 1236.119602 281.360734 
L 1236.306522 281.243312 
L 1236.77382 280.900717 
L 1237.147658 280.632485 
L 1237.770723 280.106495 
L 1238.705319 279.440667 
L 1242.817543 276.493222 
L 1243.129075 276.269422 
L 1243.689833 275.86484 
L 1244.219438 275.415335 
L 1244.468663 275.236808 
L 1250.169701 270.894473 
L 1252.724265 269.050694 
L 1253.004644 268.760327 
L 1254.71807 267.435376 
L 1255.123062 267.095844 
L 1255.434594 266.898271 
L 1255.68382 266.710357 
L 1256.338037 266.109517 
L 1256.711876 265.860495 
L 1259.204133 263.939982 
L 1259.546818 263.657538 
L 1264.531332 259.926365 
L 1264.780558 259.743064 
L 1265.403622 259.297322 
L 1266.182453 258.66718 
L 1266.493985 258.397217 
L 1267.397428 257.742252 
L 1267.522041 257.620674 
L 1267.522041 257.620674 
" clip-path="url(#pc17cd170fc)" style="fill: none; stroke: #800000; stroke-width: 5; stroke-linecap: square"/>
    <defs>
     <path id="me7b9c64744" d="M 0 -12.5 
L -11.888206 -3.862712 
L -7.347316 10.112712 
L 7.347316 10.112712 
L 11.888206 -3.862712 
z
" style="stroke: #800000; stroke-linejoin: miter"/>
    </defs>
    <g clip-path="url(#pc17cd170fc)">
     <use xlink:href="#me7b9c64744" x="228.59354" y="656.969015" style="fill: #800000; stroke: #800000; stroke-linejoin: miter"/>
     <use xlink:href="#me7b9c64744" x="275.32336" y="656.161052" style="fill: #800000; stroke: #800000; stroke-linejoin: miter"/>
     <use xlink:href="#me7b9c64744" x="322.053179" y="653.740563" style="fill: #800000; stroke: #800000; stroke-linejoin: miter"/>
     <use xlink:href="#me7b9c64744" x="368.782999" y="649.680475" style="fill: #800000; stroke: #800000; stroke-linejoin: miter"/>
     <use xlink:href="#me7b9c64744" x="415.512818" y="644.102353" style="fill: #800000; stroke: #800000; stroke-linejoin: miter"/>
     <use xlink:href="#me7b9c64744" x="462.242638" y="636.904852" style="fill: #800000; stroke: #800000; stroke-linejoin: miter"/>
     <use xlink:href="#me7b9c64744" x="508.972457" y="627.970752" style="fill: #800000; stroke: #800000; stroke-linejoin: miter"/>
     <use xlink:href="#me7b9c64744" x="555.702277" y="617.46377" style="fill: #800000; stroke: #800000; stroke-linejoin: miter"/>
     <use xlink:href="#me7b9c64744" x="602.432096" y="605.08099" style="fill: #800000; stroke: #800000; stroke-linejoin: miter"/>
     <use xlink:href="#me7b9c64744" x="649.161916" y="591.156849" style="fill: #800000; stroke: #800000; stroke-linejoin: miter"/>
     <use xlink:href="#me7b9c64744" x="695.891735" y="575.783703" style="fill: #800000; stroke: #800000; stroke-linejoin: miter"/>
     <use xlink:href="#me7b9c64744" x="742.621555" y="558.810987" style="fill: #800000; stroke: #800000; stroke-linejoin: miter"/>
     <use xlink:href="#me7b9c64744" x="789.351374" y="540.040238" style="fill: #800000; stroke: #800000; stroke-linejoin: miter"/>
     <use xlink:href="#me7b9c64744" x="836.081194" y="519.696858" style="fill: #800000; stroke: #800000; stroke-linejoin: miter"/>
     <use xlink:href="#me7b9c64744" x="882.811013" y="498.119122" style="fill: #800000; stroke: #800000; stroke-linejoin: miter"/>
     <use xlink:href="#me7b9c64744" x="929.540833" y="474.470015" style="fill: #800000; stroke: #800000; stroke-linejoin: miter"/>
     <use xlink:href="#me7b9c64744" x="976.270652" y="449.415679" style="fill: #800000; stroke: #800000; stroke-linejoin: miter"/>
     <use xlink:href="#me7b9c64744" x="1023.000472" y="423.171145" style="fill: #800000; stroke: #800000; stroke-linejoin: miter"/>
     <use xlink:href="#me7b9c64744" x="1069.730292" y="394.978096" style="fill: #800000; stroke: #800000; stroke-linejoin: miter"/>
     <use xlink:href="#me7b9c64744" x="1116.460111" y="365.096672" style="fill: #800000; stroke: #800000; stroke-linejoin: miter"/>
     <use xlink:href="#me7b9c64744" x="1163.189931" y="333.227245" style="fill: #800000; stroke: #800000; stroke-linejoin: miter"/>
     <use xlink:href="#me7b9c64744" x="1209.91975" y="300.556738" style="fill: #800000; stroke: #800000; stroke-linejoin: miter"/>
     <use xlink:href="#me7b9c64744" x="1256.64957" y="265.903566" style="fill: #800000; stroke: #800000; stroke-linejoin: miter"/>
    </g>
   </g>
   <g id="line2d_37">
    <path d="M 228.59354 656.969015 
L 355.979028 656.81338 
L 390.309869 656.793547 
L 510.93511 656.725529 
L 520.997597 656.723473 
L 639.815952 656.667328 
L 642.99358 656.655772 
L 794.522808 656.60444 
L 799.413862 656.603258 
L 947.422777 656.552274 
L 949.883881 656.548506 
L 1121.070787 656.503317 
L 1123.376124 656.498616 
L 1267.522041 656.48385 
L 1267.522041 656.48385 
" clip-path="url(#pc17cd170fc)" style="fill: none; stroke: #ff1493; stroke-width: 5; stroke-linecap: square"/>
    <defs>
     <path id="mb2d6dd7ad4" d="M -12.5 -0 
L 12.5 12.5 
L 12.5 -12.5 
z
" style="stroke: #ff1493; stroke-linejoin: miter"/>
    </defs>
    <g clip-path="url(#pc17cd170fc)">
     <use xlink:href="#mb2d6dd7ad4" x="228.59354" y="656.969015" style="fill: #ff1493; stroke: #ff1493; stroke-linejoin: miter"/>
     <use xlink:href="#mb2d6dd7ad4" x="275.32336" y="656.894171" style="fill: #ff1493; stroke: #ff1493; stroke-linejoin: miter"/>
     <use xlink:href="#mb2d6dd7ad4" x="322.053179" y="656.851655" style="fill: #ff1493; stroke: #ff1493; stroke-linejoin: miter"/>
     <use xlink:href="#mb2d6dd7ad4" x="368.782999" y="656.806673" style="fill: #ff1493; stroke: #ff1493; stroke-linejoin: miter"/>
     <use xlink:href="#mb2d6dd7ad4" x="415.512818" y="656.780384" style="fill: #ff1493; stroke: #ff1493; stroke-linejoin: miter"/>
     <use xlink:href="#mb2d6dd7ad4" x="462.242638" y="656.756847" style="fill: #ff1493; stroke: #ff1493; stroke-linejoin: miter"/>
     <use xlink:href="#mb2d6dd7ad4" x="508.972457" y="656.728603" style="fill: #ff1493; stroke: #ff1493; stroke-linejoin: miter"/>
     <use xlink:href="#mb2d6dd7ad4" x="555.702277" y="656.693401" style="fill: #ff1493; stroke: #ff1493; stroke-linejoin: miter"/>
     <use xlink:href="#mb2d6dd7ad4" x="602.432096" y="656.67444" style="fill: #ff1493; stroke: #ff1493; stroke-linejoin: miter"/>
     <use xlink:href="#mb2d6dd7ad4" x="649.161916" y="656.658228" style="fill: #ff1493; stroke: #ff1493; stroke-linejoin: miter"/>
     <use xlink:href="#mb2d6dd7ad4" x="695.891735" y="656.641424" style="fill: #ff1493; stroke: #ff1493; stroke-linejoin: miter"/>
     <use xlink:href="#mb2d6dd7ad4" x="742.621555" y="656.622359" style="fill: #ff1493; stroke: #ff1493; stroke-linejoin: miter"/>
     <use xlink:href="#mb2d6dd7ad4" x="789.351374" y="656.613752" style="fill: #ff1493; stroke: #ff1493; stroke-linejoin: miter"/>
     <use xlink:href="#mb2d6dd7ad4" x="836.081194" y="656.60046" style="fill: #ff1493; stroke: #ff1493; stroke-linejoin: miter"/>
     <use xlink:href="#mb2d6dd7ad4" x="882.811013" y="656.571434" style="fill: #ff1493; stroke: #ff1493; stroke-linejoin: miter"/>
     <use xlink:href="#mb2d6dd7ad4" x="929.540833" y="656.559559" style="fill: #ff1493; stroke: #ff1493; stroke-linejoin: miter"/>
     <use xlink:href="#mb2d6dd7ad4" x="976.270652" y="656.544355" style="fill: #ff1493; stroke: #ff1493; stroke-linejoin: miter"/>
     <use xlink:href="#mb2d6dd7ad4" x="1023.000472" y="656.538021" style="fill: #ff1493; stroke: #ff1493; stroke-linejoin: miter"/>
     <use xlink:href="#mb2d6dd7ad4" x="1069.730292" y="656.521941" style="fill: #ff1493; stroke: #ff1493; stroke-linejoin: miter"/>
     <use xlink:href="#mb2d6dd7ad4" x="1116.460111" y="656.504218" style="fill: #ff1493; stroke: #ff1493; stroke-linejoin: miter"/>
     <use xlink:href="#mb2d6dd7ad4" x="1163.189931" y="656.498881" style="fill: #ff1493; stroke: #ff1493; stroke-linejoin: miter"/>
     <use xlink:href="#mb2d6dd7ad4" x="1209.91975" y="656.485489" style="fill: #ff1493; stroke: #ff1493; stroke-linejoin: miter"/>
     <use xlink:href="#mb2d6dd7ad4" x="1256.64957" y="656.479363" style="fill: #ff1493; stroke: #ff1493; stroke-linejoin: miter"/>
    </g>
   </g>
   <g id="line2d_38">
    <path d="M 228.59354 656.969015 
L 679.287073 656.930489 
L 1267.522041 656.786876 
L 1267.522041 656.786876 
" clip-path="url(#pc17cd170fc)" style="fill: none; stroke: #008000; stroke-width: 5; stroke-linecap: square"/>
    <defs>
     <path id="m25fe8a0527" d="M -0 12.5 
L 12.5 -12.5 
L -12.5 -12.5 
z
" style="stroke: #008000; stroke-linejoin: miter"/>
    </defs>
    <g clip-path="url(#pc17cd170fc)">
     <use xlink:href="#m25fe8a0527" x="228.59354" y="656.969015" style="fill: #008000; stroke: #008000; stroke-linejoin: miter"/>
     <use xlink:href="#m25fe8a0527" x="275.32336" y="656.966195" style="fill: #008000; stroke: #008000; stroke-linejoin: miter"/>
     <use xlink:href="#m25fe8a0527" x="322.053179" y="656.964399" style="fill: #008000; stroke: #008000; stroke-linejoin: miter"/>
     <use xlink:href="#m25fe8a0527" x="368.782999" y="656.962267" style="fill: #008000; stroke: #008000; stroke-linejoin: miter"/>
     <use xlink:href="#m25fe8a0527" x="415.512818" y="656.959563" style="fill: #008000; stroke: #008000; stroke-linejoin: miter"/>
     <use xlink:href="#m25fe8a0527" x="462.242638" y="656.95577" style="fill: #008000; stroke: #008000; stroke-linejoin: miter"/>
     <use xlink:href="#m25fe8a0527" x="508.972457" y="656.952541" style="fill: #008000; stroke: #008000; stroke-linejoin: miter"/>
     <use xlink:href="#m25fe8a0527" x="555.702277" y="656.947586" style="fill: #008000; stroke: #008000; stroke-linejoin: miter"/>
     <use xlink:href="#m25fe8a0527" x="602.432096" y="656.941971" style="fill: #008000; stroke: #008000; stroke-linejoin: miter"/>
     <use xlink:href="#m25fe8a0527" x="649.161916" y="656.935113" style="fill: #008000; stroke: #008000; stroke-linejoin: miter"/>
     <use xlink:href="#m25fe8a0527" x="695.891735" y="656.927441" style="fill: #008000; stroke: #008000; stroke-linejoin: miter"/>
     <use xlink:href="#m25fe8a0527" x="742.621555" y="656.921048" style="fill: #008000; stroke: #008000; stroke-linejoin: miter"/>
     <use xlink:href="#m25fe8a0527" x="789.351374" y="656.911798" style="fill: #008000; stroke: #008000; stroke-linejoin: miter"/>
     <use xlink:href="#m25fe8a0527" x="836.081194" y="656.903338" style="fill: #008000; stroke: #008000; stroke-linejoin: miter"/>
     <use xlink:href="#m25fe8a0527" x="882.811013" y="656.893875" style="fill: #008000; stroke: #008000; stroke-linejoin: miter"/>
     <use xlink:href="#m25fe8a0527" x="929.540833" y="656.883175" style="fill: #008000; stroke: #008000; stroke-linejoin: miter"/>
     <use xlink:href="#m25fe8a0527" x="976.270652" y="656.872145" style="fill: #008000; stroke: #008000; stroke-linejoin: miter"/>
     <use xlink:href="#m25fe8a0527" x="1023.000472" y="656.861067" style="fill: #008000; stroke: #008000; stroke-linejoin: miter"/>
     <use xlink:href="#m25fe8a0527" x="1069.730292" y="656.84924" style="fill: #008000; stroke: #008000; stroke-linejoin: miter"/>
     <use xlink:href="#m25fe8a0527" x="1116.460111" y="656.836873" style="fill: #008000; stroke: #008000; stroke-linejoin: miter"/>
     <use xlink:href="#m25fe8a0527" x="1163.189931" y="656.82145" style="fill: #008000; stroke: #008000; stroke-linejoin: miter"/>
     <use xlink:href="#m25fe8a0527" x="1209.91975" y="656.805997" style="fill: #008000; stroke: #008000; stroke-linejoin: miter"/>
     <use xlink:href="#m25fe8a0527" x="1256.64957" y="656.790467" style="fill: #008000; stroke: #008000; stroke-linejoin: miter"/>
    </g>
   </g>
   <g id="patch_3">
    <path d="M 176.647115 688.110385 
L 176.647115 3.00024 
" style="fill: none; stroke: #000000; stroke-width: 0.8; stroke-linejoin: miter; stroke-linecap: square"/>
   </g>
   <g id="patch_4">
    <path d="M 1319.468466 688.110385 
L 1319.468466 3.00024 
" style="fill: none; stroke: #000000; stroke-width: 0.8; stroke-linejoin: miter; stroke-linecap: square"/>
   </g>
   <g id="patch_5">
    <path d="M 176.647115 688.110385 
L 1319.468466 688.110385 
" style="fill: none; stroke: #000000; stroke-width: 0.8; stroke-linejoin: miter; stroke-linecap: square"/>
   </g>
   <g id="patch_6">
    <path d="M 176.647115 3.00024 
L 1319.468466 3.00024 
" style="fill: none; stroke: #000000; stroke-width: 0.8; stroke-linejoin: miter; stroke-linecap: square"/>
   </g>
  </g>
 </g>
 <defs>
  <clipPath id="pc17cd170fc">
   <rect x="176.647115" y="3.00024" width="1142.821351" height="685.110145"/>
  </clipPath>
 </defs>
</svg>
