<?xml version="1.0" encoding="utf-8" standalone="no"?>
<!DOCTYPE svg PUBLIC "-//W3C//DTD SVG 1.1//EN"
  "http://www.w3.org/Graphics/SVG/1.1/DTD/svg11.dtd">
<svg xmlns:xlink="http://www.w3.org/1999/xlink" width="1382.4pt" height="777.6pt" viewBox="0 0 1382.4 777.6" xmlns="http://www.w3.org/2000/svg" version="1.1">
 <metadata>
  <rdf:RDF xmlns:dc="http://purl.org/dc/elements/1.1/" xmlns:cc="http://creativecommons.org/ns#" xmlns:rdf="http://www.w3.org/1999/02/22-rdf-syntax-ns#">
   <cc:Work>
    <dc:type rdf:resource="http://purl.org/dc/dcmitype/StillImage"/>
    <dc:date>2024-04-13T12:08:59.500796</dc:date>
    <dc:format>image/svg+xml</dc:format>
    <dc:creator>
     <cc:Agent>
      <dc:title>Matplotlib v3.8.0, https://matplotlib.org/</dc:title>
     </cc:Agent>
    </dc:creator>
   </cc:Work>
  </rdf:RDF>
 </metadata>
 <defs>
  <style type="text/css">*{stroke-linejoin: round; stroke-linecap: butt}</style>
 </defs>
 <g id="figure_1">
  <g id="patch_1">
   <path d="M 0 777.6 
L 1382.4 777.6 
L 1382.4 0 
L 0 0 
z
" style="fill: #ffffff"/>
  </g>
  <g id="axes_1">
   <g id="patch_2">
    <path d="M 149.924615 688.110385 
L 1319.480449 688.110385 
L 1319.480449 3.00024 
L 149.924615 3.00024 
z
" style="fill: #ffffff"/>
   </g>
   <g id="matplotlib.axis_1">
    <g id="xtick_1">
     <g id="line2d_1">
      <path d="M 203.086244 688.110385 
L 203.086244 3.00024 
" clip-path="url(#pf40d16d683)" style="fill: none; stroke: #b0b0b0; stroke-width: 0.8; stroke-linecap: square"/>
     </g>
     <g id="line2d_2">
      <defs>
       <path id="m845d9048e9" d="M 0 0 
L 0 3.5 
" style="stroke: #000000; stroke-width: 0.8"/>
      </defs>
      <g>
       <use xlink:href="#m845d9048e9" x="203.086244" y="688.110385" style="stroke: #000000; stroke-width: 0.8"/>
      </g>
     </g>
     <g id="text_1">
      <!-- 0 -->
      <g transform="translate(190.997494 723.984447) scale(0.38 -0.38)">
       <defs>
        <path id="DejaVuSans-30" d="M 2034 4250 
Q 1547 4250 1301 3770 
Q 1056 3291 1056 2328 
Q 1056 1369 1301 889 
Q 1547 409 2034 409 
Q 2525 409 2770 889 
Q 3016 1369 3016 2328 
Q 3016 3291 2770 3770 
Q 2525 4250 2034 4250 
z
M 2034 4750 
Q 2819 4750 3233 4129 
Q 3647 3509 3647 2328 
Q 3647 1150 3233 529 
Q 2819 -91 2034 -91 
Q 1250 -91 836 529 
Q 422 1150 422 2328 
Q 422 3509 836 4129 
Q 1250 4750 2034 4750 
z
" transform="scale(0.015625)"/>
       </defs>
       <use xlink:href="#DejaVuSans-30"/>
      </g>
     </g>
    </g>
    <g id="xtick_2">
     <g id="line2d_3">
      <path d="M 362.496208 688.110385 
L 362.496208 3.00024 
" clip-path="url(#pf40d16d683)" style="fill: none; stroke: #b0b0b0; stroke-width: 0.8; stroke-linecap: square"/>
     </g>
     <g id="line2d_4">
      <g>
       <use xlink:href="#m845d9048e9" x="362.496208" y="688.110385" style="stroke: #000000; stroke-width: 0.8"/>
      </g>
     </g>
     <g id="text_2">
      <!-- 5000 -->
      <g transform="translate(314.141208 723.984447) scale(0.38 -0.38)">
       <defs>
        <path id="DejaVuSans-35" d="M 691 4666 
L 3169 4666 
L 3169 4134 
L 1269 4134 
L 1269 2991 
Q 1406 3038 1543 3061 
Q 1681 3084 1819 3084 
Q 2600 3084 3056 2656 
Q 3513 2228 3513 1497 
Q 3513 744 3044 326 
Q 2575 -91 1722 -91 
Q 1428 -91 1123 -41 
Q 819 9 494 109 
L 494 744 
Q 775 591 1075 516 
Q 1375 441 1709 441 
Q 2250 441 2565 725 
Q 2881 1009 2881 1497 
Q 2881 1984 2565 2268 
Q 2250 2553 1709 2553 
Q 1456 2553 1204 2497 
Q 953 2441 691 2322 
L 691 4666 
z
" transform="scale(0.015625)"/>
       </defs>
       <use xlink:href="#DejaVuSans-35"/>
       <use xlink:href="#DejaVuSans-30" x="63.623047"/>
       <use xlink:href="#DejaVuSans-30" x="127.246094"/>
       <use xlink:href="#DejaVuSans-30" x="190.869141"/>
      </g>
     </g>
    </g>
    <g id="xtick_3">
     <g id="line2d_5">
      <path d="M 521.906171 688.110385 
L 521.906171 3.00024 
" clip-path="url(#pf40d16d683)" style="fill: none; stroke: #b0b0b0; stroke-width: 0.8; stroke-linecap: square"/>
     </g>
     <g id="line2d_6">
      <g>
       <use xlink:href="#m845d9048e9" x="521.906171" y="688.110385" style="stroke: #000000; stroke-width: 0.8"/>
      </g>
     </g>
     <g id="text_3">
      <!-- 10000 -->
      <g transform="translate(461.462421 723.984447) scale(0.38 -0.38)">
       <defs>
        <path id="DejaVuSans-31" d="M 794 531 
L 1825 531 
L 1825 4091 
L 703 3866 
L 703 4441 
L 1819 4666 
L 2450 4666 
L 2450 531 
L 3481 531 
L 3481 0 
L 794 0 
L 794 531 
z
" transform="scale(0.015625)"/>
       </defs>
       <use xlink:href="#DejaVuSans-31"/>
       <use xlink:href="#DejaVuSans-30" x="63.623047"/>
       <use xlink:href="#DejaVuSans-30" x="127.246094"/>
       <use xlink:href="#DejaVuSans-30" x="190.869141"/>
       <use xlink:href="#DejaVuSans-30" x="254.492188"/>
      </g>
     </g>
    </g>
    <g id="xtick_4">
     <g id="line2d_7">
      <path d="M 681.316135 688.110385 
L 681.316135 3.00024 
" clip-path="url(#pf40d16d683)" style="fill: none; stroke: #b0b0b0; stroke-width: 0.8; stroke-linecap: square"/>
     </g>
     <g id="line2d_8">
      <g>
       <use xlink:href="#m845d9048e9" x="681.316135" y="688.110385" style="stroke: #000000; stroke-width: 0.8"/>
      </g>
     </g>
     <g id="text_4">
      <!-- 15000 -->
      <g transform="translate(620.872385 723.984447) scale(0.38 -0.38)">
       <use xlink:href="#DejaVuSans-31"/>
       <use xlink:href="#DejaVuSans-35" x="63.623047"/>
       <use xlink:href="#DejaVuSans-30" x="127.246094"/>
       <use xlink:href="#DejaVuSans-30" x="190.869141"/>
       <use xlink:href="#DejaVuSans-30" x="254.492188"/>
      </g>
     </g>
    </g>
    <g id="xtick_5">
     <g id="line2d_9">
      <path d="M 840.726099 688.110385 
L 840.726099 3.00024 
" clip-path="url(#pf40d16d683)" style="fill: none; stroke: #b0b0b0; stroke-width: 0.8; stroke-linecap: square"/>
     </g>
     <g id="line2d_10">
      <g>
       <use xlink:href="#m845d9048e9" x="840.726099" y="688.110385" style="stroke: #000000; stroke-width: 0.8"/>
      </g>
     </g>
     <g id="text_5">
      <!-- 20000 -->
      <g transform="translate(780.282349 723.984447) scale(0.38 -0.38)">
       <defs>
        <path id="DejaVuSans-32" d="M 1228 531 
L 3431 531 
L 3431 0 
L 469 0 
L 469 531 
Q 828 903 1448 1529 
Q 2069 2156 2228 2338 
Q 2531 2678 2651 2914 
Q 2772 3150 2772 3378 
Q 2772 3750 2511 3984 
Q 2250 4219 1831 4219 
Q 1534 4219 1204 4116 
Q 875 4013 500 3803 
L 500 4441 
Q 881 4594 1212 4672 
Q 1544 4750 1819 4750 
Q 2544 4750 2975 4387 
Q 3406 4025 3406 3419 
Q 3406 3131 3298 2873 
Q 3191 2616 2906 2266 
Q 2828 2175 2409 1742 
Q 1991 1309 1228 531 
z
" transform="scale(0.015625)"/>
       </defs>
       <use xlink:href="#DejaVuSans-32"/>
       <use xlink:href="#DejaVuSans-30" x="63.623047"/>
       <use xlink:href="#DejaVuSans-30" x="127.246094"/>
       <use xlink:href="#DejaVuSans-30" x="190.869141"/>
       <use xlink:href="#DejaVuSans-30" x="254.492188"/>
      </g>
     </g>
    </g>
    <g id="xtick_6">
     <g id="line2d_11">
      <path d="M 1000.136063 688.110385 
L 1000.136063 3.00024 
" clip-path="url(#pf40d16d683)" style="fill: none; stroke: #b0b0b0; stroke-width: 0.8; stroke-linecap: square"/>
     </g>
     <g id="line2d_12">
      <g>
       <use xlink:href="#m845d9048e9" x="1000.136063" y="688.110385" style="stroke: #000000; stroke-width: 0.8"/>
      </g>
     </g>
     <g id="text_6">
      <!-- 25000 -->
      <g transform="translate(939.692313 723.984447) scale(0.38 -0.38)">
       <use xlink:href="#DejaVuSans-32"/>
       <use xlink:href="#DejaVuSans-35" x="63.623047"/>
       <use xlink:href="#DejaVuSans-30" x="127.246094"/>
       <use xlink:href="#DejaVuSans-30" x="190.869141"/>
       <use xlink:href="#DejaVuSans-30" x="254.492188"/>
      </g>
     </g>
    </g>
    <g id="xtick_7">
     <g id="line2d_13">
      <path d="M 1159.546026 688.110385 
L 1159.546026 3.00024 
" clip-path="url(#pf40d16d683)" style="fill: none; stroke: #b0b0b0; stroke-width: 0.8; stroke-linecap: square"/>
     </g>
     <g id="line2d_14">
      <g>
       <use xlink:href="#m845d9048e9" x="1159.546026" y="688.110385" style="stroke: #000000; stroke-width: 0.8"/>
      </g>
     </g>
     <g id="text_7">
      <!-- 30000 -->
      <g transform="translate(1099.102276 723.984447) scale(0.38 -0.38)">
       <defs>
        <path id="DejaVuSans-33" d="M 2597 2516 
Q 3050 2419 3304 2112 
Q 3559 1806 3559 1356 
Q 3559 666 3084 287 
Q 2609 -91 1734 -91 
Q 1441 -91 1130 -33 
Q 819 25 488 141 
L 488 750 
Q 750 597 1062 519 
Q 1375 441 1716 441 
Q 2309 441 2620 675 
Q 2931 909 2931 1356 
Q 2931 1769 2642 2001 
Q 2353 2234 1838 2234 
L 1294 2234 
L 1294 2753 
L 1863 2753 
Q 2328 2753 2575 2939 
Q 2822 3125 2822 3475 
Q 2822 3834 2567 4026 
Q 2313 4219 1838 4219 
Q 1578 4219 1281 4162 
Q 984 4106 628 3988 
L 628 4550 
Q 988 4650 1302 4700 
Q 1616 4750 1894 4750 
Q 2613 4750 3031 4423 
Q 3450 4097 3450 3541 
Q 3450 3153 3228 2886 
Q 3006 2619 2597 2516 
z
" transform="scale(0.015625)"/>
       </defs>
       <use xlink:href="#DejaVuSans-33"/>
       <use xlink:href="#DejaVuSans-30" x="63.623047"/>
       <use xlink:href="#DejaVuSans-30" x="127.246094"/>
       <use xlink:href="#DejaVuSans-30" x="190.869141"/>
       <use xlink:href="#DejaVuSans-30" x="254.492188"/>
      </g>
     </g>
    </g>
    <g id="xtick_8">
     <g id="line2d_15">
      <path d="M 1318.95599 688.110385 
L 1318.95599 3.00024 
" clip-path="url(#pf40d16d683)" style="fill: none; stroke: #b0b0b0; stroke-width: 0.8; stroke-linecap: square"/>
     </g>
     <g id="line2d_16">
      <g>
       <use xlink:href="#m845d9048e9" x="1318.95599" y="688.110385" style="stroke: #000000; stroke-width: 0.8"/>
      </g>
     </g>
     <g id="text_8">
      <!-- 35000 -->
      <g transform="translate(1258.51224 723.984447) scale(0.38 -0.38)">
       <use xlink:href="#DejaVuSans-33"/>
       <use xlink:href="#DejaVuSans-35" x="63.623047"/>
       <use xlink:href="#DejaVuSans-30" x="127.246094"/>
       <use xlink:href="#DejaVuSans-30" x="190.869141"/>
       <use xlink:href="#DejaVuSans-30" x="254.492188"/>
      </g>
     </g>
    </g>
    <g id="text_9">
     <!-- customer_request -->
     <g transform="translate(554.508782 765.16851) scale(0.4 -0.4)">
      <defs>
       <path id="DejaVuSans-63" d="M 3122 3366 
L 3122 2828 
Q 2878 2963 2633 3030 
Q 2388 3097 2138 3097 
Q 1578 3097 1268 2742 
Q 959 2388 959 1747 
Q 959 1106 1268 751 
Q 1578 397 2138 397 
Q 2388 397 2633 464 
Q 2878 531 3122 666 
L 3122 134 
Q 2881 22 2623 -34 
Q 2366 -91 2075 -91 
Q 1284 -91 818 406 
Q 353 903 353 1747 
Q 353 2603 823 3093 
Q 1294 3584 2113 3584 
Q 2378 3584 2631 3529 
Q 2884 3475 3122 3366 
z
" transform="scale(0.015625)"/>
       <path id="DejaVuSans-75" d="M 544 1381 
L 544 3500 
L 1119 3500 
L 1119 1403 
Q 1119 906 1312 657 
Q 1506 409 1894 409 
Q 2359 409 2629 706 
Q 2900 1003 2900 1516 
L 2900 3500 
L 3475 3500 
L 3475 0 
L 2900 0 
L 2900 538 
Q 2691 219 2414 64 
Q 2138 -91 1772 -91 
Q 1169 -91 856 284 
Q 544 659 544 1381 
z
M 1991 3584 
L 1991 3584 
z
" transform="scale(0.015625)"/>
       <path id="DejaVuSans-73" d="M 2834 3397 
L 2834 2853 
Q 2591 2978 2328 3040 
Q 2066 3103 1784 3103 
Q 1356 3103 1142 2972 
Q 928 2841 928 2578 
Q 928 2378 1081 2264 
Q 1234 2150 1697 2047 
L 1894 2003 
Q 2506 1872 2764 1633 
Q 3022 1394 3022 966 
Q 3022 478 2636 193 
Q 2250 -91 1575 -91 
Q 1294 -91 989 -36 
Q 684 19 347 128 
L 347 722 
Q 666 556 975 473 
Q 1284 391 1588 391 
Q 1994 391 2212 530 
Q 2431 669 2431 922 
Q 2431 1156 2273 1281 
Q 2116 1406 1581 1522 
L 1381 1569 
Q 847 1681 609 1914 
Q 372 2147 372 2553 
Q 372 3047 722 3315 
Q 1072 3584 1716 3584 
Q 2034 3584 2315 3537 
Q 2597 3491 2834 3397 
z
" transform="scale(0.015625)"/>
       <path id="DejaVuSans-74" d="M 1172 4494 
L 1172 3500 
L 2356 3500 
L 2356 3053 
L 1172 3053 
L 1172 1153 
Q 1172 725 1289 603 
Q 1406 481 1766 481 
L 2356 481 
L 2356 0 
L 1766 0 
Q 1100 0 847 248 
Q 594 497 594 1153 
L 594 3053 
L 172 3053 
L 172 3500 
L 594 3500 
L 594 4494 
L 1172 4494 
z
" transform="scale(0.015625)"/>
       <path id="DejaVuSans-6f" d="M 1959 3097 
Q 1497 3097 1228 2736 
Q 959 2375 959 1747 
Q 959 1119 1226 758 
Q 1494 397 1959 397 
Q 2419 397 2687 759 
Q 2956 1122 2956 1747 
Q 2956 2369 2687 2733 
Q 2419 3097 1959 3097 
z
M 1959 3584 
Q 2709 3584 3137 3096 
Q 3566 2609 3566 1747 
Q 3566 888 3137 398 
Q 2709 -91 1959 -91 
Q 1206 -91 779 398 
Q 353 888 353 1747 
Q 353 2609 779 3096 
Q 1206 3584 1959 3584 
z
" transform="scale(0.015625)"/>
       <path id="DejaVuSans-6d" d="M 3328 2828 
Q 3544 3216 3844 3400 
Q 4144 3584 4550 3584 
Q 5097 3584 5394 3201 
Q 5691 2819 5691 2113 
L 5691 0 
L 5113 0 
L 5113 2094 
Q 5113 2597 4934 2840 
Q 4756 3084 4391 3084 
Q 3944 3084 3684 2787 
Q 3425 2491 3425 1978 
L 3425 0 
L 2847 0 
L 2847 2094 
Q 2847 2600 2669 2842 
Q 2491 3084 2119 3084 
Q 1678 3084 1418 2786 
Q 1159 2488 1159 1978 
L 1159 0 
L 581 0 
L 581 3500 
L 1159 3500 
L 1159 2956 
Q 1356 3278 1631 3431 
Q 1906 3584 2284 3584 
Q 2666 3584 2933 3390 
Q 3200 3197 3328 2828 
z
" transform="scale(0.015625)"/>
       <path id="DejaVuSans-65" d="M 3597 1894 
L 3597 1613 
L 953 1613 
Q 991 1019 1311 708 
Q 1631 397 2203 397 
Q 2534 397 2845 478 
Q 3156 559 3463 722 
L 3463 178 
Q 3153 47 2828 -22 
Q 2503 -91 2169 -91 
Q 1331 -91 842 396 
Q 353 884 353 1716 
Q 353 2575 817 3079 
Q 1281 3584 2069 3584 
Q 2775 3584 3186 3129 
Q 3597 2675 3597 1894 
z
M 3022 2063 
Q 3016 2534 2758 2815 
Q 2500 3097 2075 3097 
Q 1594 3097 1305 2825 
Q 1016 2553 972 2059 
L 3022 2063 
z
" transform="scale(0.015625)"/>
       <path id="DejaVuSans-72" d="M 2631 2963 
Q 2534 3019 2420 3045 
Q 2306 3072 2169 3072 
Q 1681 3072 1420 2755 
Q 1159 2438 1159 1844 
L 1159 0 
L 581 0 
L 581 3500 
L 1159 3500 
L 1159 2956 
Q 1341 3275 1631 3429 
Q 1922 3584 2338 3584 
Q 2397 3584 2469 3576 
Q 2541 3569 2628 3553 
L 2631 2963 
z
" transform="scale(0.015625)"/>
       <path id="DejaVuSans-5f" d="M 3263 -1063 
L 3263 -1509 
L -63 -1509 
L -63 -1063 
L 3263 -1063 
z
" transform="scale(0.015625)"/>
       <path id="DejaVuSans-71" d="M 947 1747 
Q 947 1113 1208 752 
Q 1469 391 1925 391 
Q 2381 391 2643 752 
Q 2906 1113 2906 1747 
Q 2906 2381 2643 2742 
Q 2381 3103 1925 3103 
Q 1469 3103 1208 2742 
Q 947 2381 947 1747 
z
M 2906 525 
Q 2725 213 2448 61 
Q 2172 -91 1784 -91 
Q 1150 -91 751 415 
Q 353 922 353 1747 
Q 353 2572 751 3078 
Q 1150 3584 1784 3584 
Q 2172 3584 2448 3432 
Q 2725 3281 2906 2969 
L 2906 3500 
L 3481 3500 
L 3481 -1331 
L 2906 -1331 
L 2906 525 
z
" transform="scale(0.015625)"/>
      </defs>
      <use xlink:href="#DejaVuSans-63"/>
      <use xlink:href="#DejaVuSans-75" x="54.980469"/>
      <use xlink:href="#DejaVuSans-73" x="118.359375"/>
      <use xlink:href="#DejaVuSans-74" x="170.458984"/>
      <use xlink:href="#DejaVuSans-6f" x="209.667969"/>
      <use xlink:href="#DejaVuSans-6d" x="270.849609"/>
      <use xlink:href="#DejaVuSans-65" x="368.261719"/>
      <use xlink:href="#DejaVuSans-72" x="429.785156"/>
      <use xlink:href="#DejaVuSans-5f" x="470.898438"/>
      <use xlink:href="#DejaVuSans-72" x="520.898438"/>
      <use xlink:href="#DejaVuSans-65" x="559.761719"/>
      <use xlink:href="#DejaVuSans-71" x="621.285156"/>
      <use xlink:href="#DejaVuSans-75" x="684.761719"/>
      <use xlink:href="#DejaVuSans-65" x="748.140625"/>
      <use xlink:href="#DejaVuSans-73" x="809.664062"/>
      <use xlink:href="#DejaVuSans-74" x="861.763672"/>
     </g>
    </g>
   </g>
   <g id="matplotlib.axis_2">
    <g id="ytick_1">
     <g id="line2d_17">
      <path d="M 149.924615 656.969025 
L 1319.480449 656.969025 
" clip-path="url(#pf40d16d683)" style="fill: none; stroke: #b0b0b0; stroke-width: 0.8; stroke-linecap: square"/>
     </g>
     <g id="line2d_18">
      <defs>
       <path id="m4ae8b78cf7" d="M 0 0 
L -3.5 0 
" style="stroke: #000000; stroke-width: 0.8"/>
      </defs>
      <g>
       <use xlink:href="#m4ae8b78cf7" x="149.924615" y="656.969025" style="stroke: #000000; stroke-width: 0.8"/>
      </g>
     </g>
     <g id="text_10">
      <!-- 0 -->
      <g transform="translate(116.202115 672.925744) scale(0.42 -0.42)">
       <use xlink:href="#DejaVuSans-30"/>
      </g>
     </g>
    </g>
    <g id="ytick_2">
     <g id="line2d_19">
      <path d="M 149.924615 573.212931 
L 1319.480449 573.212931 
" clip-path="url(#pf40d16d683)" style="fill: none; stroke: #b0b0b0; stroke-width: 0.8; stroke-linecap: square"/>
     </g>
     <g id="line2d_20">
      <g>
       <use xlink:href="#m4ae8b78cf7" x="149.924615" y="573.212931" style="stroke: #000000; stroke-width: 0.8"/>
      </g>
     </g>
     <g id="text_11">
      <!-- 1000 -->
      <g transform="translate(36.034615 589.16965) scale(0.42 -0.42)">
       <use xlink:href="#DejaVuSans-31"/>
       <use xlink:href="#DejaVuSans-30" x="63.623047"/>
       <use xlink:href="#DejaVuSans-30" x="127.246094"/>
       <use xlink:href="#DejaVuSans-30" x="190.869141"/>
      </g>
     </g>
    </g>
    <g id="ytick_3">
     <g id="line2d_21">
      <path d="M 149.924615 489.456838 
L 1319.480449 489.456838 
" clip-path="url(#pf40d16d683)" style="fill: none; stroke: #b0b0b0; stroke-width: 0.8; stroke-linecap: square"/>
     </g>
     <g id="line2d_22">
      <g>
       <use xlink:href="#m4ae8b78cf7" x="149.924615" y="489.456838" style="stroke: #000000; stroke-width: 0.8"/>
      </g>
     </g>
     <g id="text_12">
      <!-- 2000 -->
      <g transform="translate(36.034615 505.413557) scale(0.42 -0.42)">
       <use xlink:href="#DejaVuSans-32"/>
       <use xlink:href="#DejaVuSans-30" x="63.623047"/>
       <use xlink:href="#DejaVuSans-30" x="127.246094"/>
       <use xlink:href="#DejaVuSans-30" x="190.869141"/>
      </g>
     </g>
    </g>
    <g id="ytick_4">
     <g id="line2d_23">
      <path d="M 149.924615 405.700745 
L 1319.480449 405.700745 
" clip-path="url(#pf40d16d683)" style="fill: none; stroke: #b0b0b0; stroke-width: 0.8; stroke-linecap: square"/>
     </g>
     <g id="line2d_24">
      <g>
       <use xlink:href="#m4ae8b78cf7" x="149.924615" y="405.700745" style="stroke: #000000; stroke-width: 0.8"/>
      </g>
     </g>
     <g id="text_13">
      <!-- 3000 -->
      <g transform="translate(36.034615 421.657463) scale(0.42 -0.42)">
       <use xlink:href="#DejaVuSans-33"/>
       <use xlink:href="#DejaVuSans-30" x="63.623047"/>
       <use xlink:href="#DejaVuSans-30" x="127.246094"/>
       <use xlink:href="#DejaVuSans-30" x="190.869141"/>
      </g>
     </g>
    </g>
    <g id="ytick_5">
     <g id="line2d_25">
      <path d="M 149.924615 321.944651 
L 1319.480449 321.944651 
" clip-path="url(#pf40d16d683)" style="fill: none; stroke: #b0b0b0; stroke-width: 0.8; stroke-linecap: square"/>
     </g>
     <g id="line2d_26">
      <g>
       <use xlink:href="#m4ae8b78cf7" x="149.924615" y="321.944651" style="stroke: #000000; stroke-width: 0.8"/>
      </g>
     </g>
     <g id="text_14">
      <!-- 4000 -->
      <g transform="translate(36.034615 337.90137) scale(0.42 -0.42)">
       <defs>
        <path id="DejaVuSans-34" d="M 2419 4116 
L 825 1625 
L 2419 1625 
L 2419 4116 
z
M 2253 4666 
L 3047 4666 
L 3047 1625 
L 3713 1625 
L 3713 1100 
L 3047 1100 
L 3047 0 
L 2419 0 
L 2419 1100 
L 313 1100 
L 313 1709 
L 2253 4666 
z
" transform="scale(0.015625)"/>
       </defs>
       <use xlink:href="#DejaVuSans-34"/>
       <use xlink:href="#DejaVuSans-30" x="63.623047"/>
       <use xlink:href="#DejaVuSans-30" x="127.246094"/>
       <use xlink:href="#DejaVuSans-30" x="190.869141"/>
      </g>
     </g>
    </g>
    <g id="ytick_6">
     <g id="line2d_27">
      <path d="M 149.924615 238.188558 
L 1319.480449 238.188558 
" clip-path="url(#pf40d16d683)" style="fill: none; stroke: #b0b0b0; stroke-width: 0.8; stroke-linecap: square"/>
     </g>
     <g id="line2d_28">
      <g>
       <use xlink:href="#m4ae8b78cf7" x="149.924615" y="238.188558" style="stroke: #000000; stroke-width: 0.8"/>
      </g>
     </g>
     <g id="text_15">
      <!-- 5000 -->
      <g transform="translate(36.034615 254.145276) scale(0.42 -0.42)">
       <use xlink:href="#DejaVuSans-35"/>
       <use xlink:href="#DejaVuSans-30" x="63.623047"/>
       <use xlink:href="#DejaVuSans-30" x="127.246094"/>
       <use xlink:href="#DejaVuSans-30" x="190.869141"/>
      </g>
     </g>
    </g>
    <g id="ytick_7">
     <g id="line2d_29">
      <path d="M 149.924615 154.432464 
L 1319.480449 154.432464 
" clip-path="url(#pf40d16d683)" style="fill: none; stroke: #b0b0b0; stroke-width: 0.8; stroke-linecap: square"/>
     </g>
     <g id="line2d_30">
      <g>
       <use xlink:href="#m4ae8b78cf7" x="149.924615" y="154.432464" style="stroke: #000000; stroke-width: 0.8"/>
      </g>
     </g>
     <g id="text_16">
      <!-- 6000 -->
      <g transform="translate(36.034615 170.389183) scale(0.42 -0.42)">
       <defs>
        <path id="DejaVuSans-36" d="M 2113 2584 
Q 1688 2584 1439 2293 
Q 1191 2003 1191 1497 
Q 1191 994 1439 701 
Q 1688 409 2113 409 
Q 2538 409 2786 701 
Q 3034 994 3034 1497 
Q 3034 2003 2786 2293 
Q 2538 2584 2113 2584 
z
M 3366 4563 
L 3366 3988 
Q 3128 4100 2886 4159 
Q 2644 4219 2406 4219 
Q 1781 4219 1451 3797 
Q 1122 3375 1075 2522 
Q 1259 2794 1537 2939 
Q 1816 3084 2150 3084 
Q 2853 3084 3261 2657 
Q 3669 2231 3669 1497 
Q 3669 778 3244 343 
Q 2819 -91 2113 -91 
Q 1303 -91 875 529 
Q 447 1150 447 2328 
Q 447 3434 972 4092 
Q 1497 4750 2381 4750 
Q 2619 4750 2861 4703 
Q 3103 4656 3366 4563 
z
" transform="scale(0.015625)"/>
       </defs>
       <use xlink:href="#DejaVuSans-36"/>
       <use xlink:href="#DejaVuSans-30" x="63.623047"/>
       <use xlink:href="#DejaVuSans-30" x="127.246094"/>
       <use xlink:href="#DejaVuSans-30" x="190.869141"/>
      </g>
     </g>
    </g>
    <g id="ytick_8">
     <g id="line2d_31">
      <path d="M 149.924615 70.676371 
L 1319.480449 70.676371 
" clip-path="url(#pf40d16d683)" style="fill: none; stroke: #b0b0b0; stroke-width: 0.8; stroke-linecap: square"/>
     </g>
     <g id="line2d_32">
      <g>
       <use xlink:href="#m4ae8b78cf7" x="149.924615" y="70.676371" style="stroke: #000000; stroke-width: 0.8"/>
      </g>
     </g>
     <g id="text_17">
      <!-- 7000 -->
      <g transform="translate(36.034615 86.63309) scale(0.42 -0.42)">
       <defs>
        <path id="DejaVuSans-37" d="M 525 4666 
L 3525 4666 
L 3525 4397 
L 1831 0 
L 1172 0 
L 2766 4134 
L 525 4134 
L 525 4666 
z
" transform="scale(0.015625)"/>
       </defs>
       <use xlink:href="#DejaVuSans-37"/>
       <use xlink:href="#DejaVuSans-30" x="63.623047"/>
       <use xlink:href="#DejaVuSans-30" x="127.246094"/>
       <use xlink:href="#DejaVuSans-30" x="190.869141"/>
      </g>
     </g>
    </g>
    <g id="text_18">
     <!-- Variance of the ratio of exposure and relevance -->
     <g transform="translate(25.795552 702.499062) rotate(-90) scale(0.3 -0.3)">
      <defs>
       <path id="DejaVuSans-56" d="M 1831 0 
L 50 4666 
L 709 4666 
L 2188 738 
L 3669 4666 
L 4325 4666 
L 2547 0 
L 1831 0 
z
" transform="scale(0.015625)"/>
       <path id="DejaVuSans-61" d="M 2194 1759 
Q 1497 1759 1228 1600 
Q 959 1441 959 1056 
Q 959 750 1161 570 
Q 1363 391 1709 391 
Q 2188 391 2477 730 
Q 2766 1069 2766 1631 
L 2766 1759 
L 2194 1759 
z
M 3341 1997 
L 3341 0 
L 2766 0 
L 2766 531 
Q 2569 213 2275 61 
Q 1981 -91 1556 -91 
Q 1019 -91 701 211 
Q 384 513 384 1019 
Q 384 1609 779 1909 
Q 1175 2209 1959 2209 
L 2766 2209 
L 2766 2266 
Q 2766 2663 2505 2880 
Q 2244 3097 1772 3097 
Q 1472 3097 1187 3025 
Q 903 2953 641 2809 
L 641 3341 
Q 956 3463 1253 3523 
Q 1550 3584 1831 3584 
Q 2591 3584 2966 3190 
Q 3341 2797 3341 1997 
z
" transform="scale(0.015625)"/>
       <path id="DejaVuSans-69" d="M 603 3500 
L 1178 3500 
L 1178 0 
L 603 0 
L 603 3500 
z
M 603 4863 
L 1178 4863 
L 1178 4134 
L 603 4134 
L 603 4863 
z
" transform="scale(0.015625)"/>
       <path id="DejaVuSans-6e" d="M 3513 2113 
L 3513 0 
L 2938 0 
L 2938 2094 
Q 2938 2591 2744 2837 
Q 2550 3084 2163 3084 
Q 1697 3084 1428 2787 
Q 1159 2491 1159 1978 
L 1159 0 
L 581 0 
L 581 3500 
L 1159 3500 
L 1159 2956 
Q 1366 3272 1645 3428 
Q 1925 3584 2291 3584 
Q 2894 3584 3203 3211 
Q 3513 2838 3513 2113 
z
" transform="scale(0.015625)"/>
       <path id="DejaVuSans-20" transform="scale(0.015625)"/>
       <path id="DejaVuSans-66" d="M 2375 4863 
L 2375 4384 
L 1825 4384 
Q 1516 4384 1395 4259 
Q 1275 4134 1275 3809 
L 1275 3500 
L 2222 3500 
L 2222 3053 
L 1275 3053 
L 1275 0 
L 697 0 
L 697 3053 
L 147 3053 
L 147 3500 
L 697 3500 
L 697 3744 
Q 697 4328 969 4595 
Q 1241 4863 1831 4863 
L 2375 4863 
z
" transform="scale(0.015625)"/>
       <path id="DejaVuSans-68" d="M 3513 2113 
L 3513 0 
L 2938 0 
L 2938 2094 
Q 2938 2591 2744 2837 
Q 2550 3084 2163 3084 
Q 1697 3084 1428 2787 
Q 1159 2491 1159 1978 
L 1159 0 
L 581 0 
L 581 4863 
L 1159 4863 
L 1159 2956 
Q 1366 3272 1645 3428 
Q 1925 3584 2291 3584 
Q 2894 3584 3203 3211 
Q 3513 2838 3513 2113 
z
" transform="scale(0.015625)"/>
       <path id="DejaVuSans-78" d="M 3513 3500 
L 2247 1797 
L 3578 0 
L 2900 0 
L 1881 1375 
L 863 0 
L 184 0 
L 1544 1831 
L 300 3500 
L 978 3500 
L 1906 2253 
L 2834 3500 
L 3513 3500 
z
" transform="scale(0.015625)"/>
       <path id="DejaVuSans-70" d="M 1159 525 
L 1159 -1331 
L 581 -1331 
L 581 3500 
L 1159 3500 
L 1159 2969 
Q 1341 3281 1617 3432 
Q 1894 3584 2278 3584 
Q 2916 3584 3314 3078 
Q 3713 2572 3713 1747 
Q 3713 922 3314 415 
Q 2916 -91 2278 -91 
Q 1894 -91 1617 61 
Q 1341 213 1159 525 
z
M 3116 1747 
Q 3116 2381 2855 2742 
Q 2594 3103 2138 3103 
Q 1681 3103 1420 2742 
Q 1159 2381 1159 1747 
Q 1159 1113 1420 752 
Q 1681 391 2138 391 
Q 2594 391 2855 752 
Q 3116 1113 3116 1747 
z
" transform="scale(0.015625)"/>
       <path id="DejaVuSans-64" d="M 2906 2969 
L 2906 4863 
L 3481 4863 
L 3481 0 
L 2906 0 
L 2906 525 
Q 2725 213 2448 61 
Q 2172 -91 1784 -91 
Q 1150 -91 751 415 
Q 353 922 353 1747 
Q 353 2572 751 3078 
Q 1150 3584 1784 3584 
Q 2172 3584 2448 3432 
Q 2725 3281 2906 2969 
z
M 947 1747 
Q 947 1113 1208 752 
Q 1469 391 1925 391 
Q 2381 391 2643 752 
Q 2906 1113 2906 1747 
Q 2906 2381 2643 2742 
Q 2381 3103 1925 3103 
Q 1469 3103 1208 2742 
Q 947 2381 947 1747 
z
" transform="scale(0.015625)"/>
       <path id="DejaVuSans-6c" d="M 603 4863 
L 1178 4863 
L 1178 0 
L 603 0 
L 603 4863 
z
" transform="scale(0.015625)"/>
       <path id="DejaVuSans-76" d="M 191 3500 
L 800 3500 
L 1894 563 
L 2988 3500 
L 3597 3500 
L 2284 0 
L 1503 0 
L 191 3500 
z
" transform="scale(0.015625)"/>
      </defs>
      <use xlink:href="#DejaVuSans-56"/>
      <use xlink:href="#DejaVuSans-61" x="60.658203"/>
      <use xlink:href="#DejaVuSans-72" x="121.9375"/>
      <use xlink:href="#DejaVuSans-69" x="163.050781"/>
      <use xlink:href="#DejaVuSans-61" x="190.833984"/>
      <use xlink:href="#DejaVuSans-6e" x="252.113281"/>
      <use xlink:href="#DejaVuSans-63" x="315.492188"/>
      <use xlink:href="#DejaVuSans-65" x="370.472656"/>
      <use xlink:href="#DejaVuSans-20" x="431.996094"/>
      <use xlink:href="#DejaVuSans-6f" x="463.783203"/>
      <use xlink:href="#DejaVuSans-66" x="524.964844"/>
      <use xlink:href="#DejaVuSans-20" x="560.169922"/>
      <use xlink:href="#DejaVuSans-74" x="591.957031"/>
      <use xlink:href="#DejaVuSans-68" x="631.166016"/>
      <use xlink:href="#DejaVuSans-65" x="694.544922"/>
      <use xlink:href="#DejaVuSans-20" x="756.068359"/>
      <use xlink:href="#DejaVuSans-72" x="787.855469"/>
      <use xlink:href="#DejaVuSans-61" x="828.96875"/>
      <use xlink:href="#DejaVuSans-74" x="890.248047"/>
      <use xlink:href="#DejaVuSans-69" x="929.457031"/>
      <use xlink:href="#DejaVuSans-6f" x="957.240234"/>
      <use xlink:href="#DejaVuSans-20" x="1018.421875"/>
      <use xlink:href="#DejaVuSans-6f" x="1050.208984"/>
      <use xlink:href="#DejaVuSans-66" x="1111.390625"/>
      <use xlink:href="#DejaVuSans-20" x="1146.595703"/>
      <use xlink:href="#DejaVuSans-65" x="1178.382812"/>
      <use xlink:href="#DejaVuSans-78" x="1238.15625"/>
      <use xlink:href="#DejaVuSans-70" x="1297.335938"/>
      <use xlink:href="#DejaVuSans-6f" x="1360.8125"/>
      <use xlink:href="#DejaVuSans-73" x="1421.994141"/>
      <use xlink:href="#DejaVuSans-75" x="1474.09375"/>
      <use xlink:href="#DejaVuSans-72" x="1537.472656"/>
      <use xlink:href="#DejaVuSans-65" x="1576.335938"/>
      <use xlink:href="#DejaVuSans-20" x="1637.859375"/>
      <use xlink:href="#DejaVuSans-61" x="1669.646484"/>
      <use xlink:href="#DejaVuSans-6e" x="1730.925781"/>
      <use xlink:href="#DejaVuSans-64" x="1794.304688"/>
      <use xlink:href="#DejaVuSans-20" x="1857.78125"/>
      <use xlink:href="#DejaVuSans-72" x="1889.568359"/>
      <use xlink:href="#DejaVuSans-65" x="1928.431641"/>
      <use xlink:href="#DejaVuSans-6c" x="1989.955078"/>
      <use xlink:href="#DejaVuSans-65" x="2017.738281"/>
      <use xlink:href="#DejaVuSans-76" x="2079.261719"/>
      <use xlink:href="#DejaVuSans-61" x="2138.441406"/>
      <use xlink:href="#DejaVuSans-6e" x="2199.720703"/>
      <use xlink:href="#DejaVuSans-63" x="2263.099609"/>
      <use xlink:href="#DejaVuSans-65" x="2318.080078"/>
     </g>
    </g>
   </g>
   <g id="line2d_33">
    <path d="M 203.086244 656.969015 
L 217.305613 656.852775 
L 234.617535 656.404156 
L 252.280159 655.635422 
L 260.983943 655.124019 
L 272.397696 654.323486 
L 288.051755 652.989809 
L 291.3356 652.671512 
L 295.735315 652.227624 
L 299.97562 651.796785 
L 305.618733 651.184178 
L 307.531652 650.970663 
L 319.774337 649.487058 
L 321.687257 649.252659 
L 327.904245 648.424695 
L 330.199749 648.099015 
L 333.674886 647.591861 
L 335.045812 647.399864 
L 351.465038 644.864484 
L 353.505486 644.524574 
L 355.322759 644.240822 
L 359.786238 643.478101 
L 368.808842 641.897653 
L 370.434824 641.600999 
L 372.220215 641.27959 
L 380.987763 639.63495 
L 382.167397 639.4028 
L 384.877367 638.85173 
L 386.21641 638.585692 
L 388.735088 638.086977 
L 390.743653 637.689089 
L 394.314436 636.978521 
L 397.151934 636.374713 
L 421.924242 630.836166 
L 423.199522 630.519474 
L 425.208087 630.01555 
L 427.025361 629.591431 
L 438.85358 626.591354 
L 440.894028 626.062136 
L 441.72296 625.846736 
L 442.615655 625.611462 
L 446.632786 624.546609 
L 448.258768 624.10634 
L 450.968737 623.355173 
L 452.180253 623.023643 
L 452.913539 622.836594 
L 456.898788 621.755554 
L 458.397242 621.319274 
L 461.298503 620.464299 
L 462.318727 620.156711 
L 463.944709 619.709859 
L 466.463386 618.952834 
L 467.898076 618.541089 
L 472.903549 617.07552 
L 473.700598 616.848289 
L 480.937811 614.718679 
L 483.01014 614.052923 
L 490.725582 611.631151 
L 515.752947 603.425472 
L 516.677525 603.108663 
L 518.590444 602.45002 
L 519.674432 602.067599 
L 520.91783 601.605336 
L 522.033699 601.17176 
L 523.277097 600.739516 
L 525.285663 600.026206 
L 526.146476 599.714274 
L 530.067962 598.340914 
L 534.276385 596.83548 
L 534.786496 596.657422 
L 536.44436 596.021693 
L 538.771746 595.182828 
L 539.600677 594.840655 
L 541.768653 594.02224 
L 544.414858 593.041302 
L 544.92497 592.855758 
L 546.04084 592.447682 
L 547.061064 592.044239 
L 550.886903 590.536055 
L 551.492661 590.287063 
L 554.52145 589.109615 
L 555.446028 588.748831 
L 556.211196 588.447826 
L 559.590687 587.125689 
L 561.376078 586.401554 
L 563.671582 585.509174 
L 565.265682 584.879238 
L 565.935203 584.606968 
L 569.410341 583.221271 
L 570.621856 582.702327 
L 571.450788 582.365199 
L 584.235467 577.090964 
L 584.936871 576.780218 
L 586.467207 576.071957 
L 587.614958 575.560474 
L 598.04037 571.079212 
L 598.709892 570.778945 
L 605.851458 567.593069 
L 607.190502 566.964803 
L 611.303279 565.085863 
L 611.972801 564.78165 
L 613.662547 563.975169 
L 615.416056 563.167305 
L 615.95805 562.929882 
L 622.68515 559.834597 
L 623.259026 559.576501 
L 623.832902 559.323188 
L 628.487673 557.154657 
L 629.380369 556.743892 
L 630.655649 556.168981 
L 631.580226 555.753245 
L 633.269972 554.993531 
L 634.959718 554.202853 
L 635.437948 553.989361 
L 636.011823 553.708939 
L 637.063929 553.193345 
L 637.669687 552.883956 
L 642.643278 550.510742 
L 643.089626 550.295268 
L 661.198598 541.182316 
L 661.740592 540.875161 
L 662.665169 540.368712 
L 677.904762 532.496146 
L 679.052514 531.902071 
L 685.269502 528.552342 
L 685.843378 528.249545 
L 688.904049 526.573405 
L 689.382279 526.325877 
L 691.422727 525.220591 
L 691.869075 524.979971 
L 692.347305 524.72359 
L 695.216684 523.15292 
L 695.694914 522.890499 
L 702.964008 518.981939 
L 703.697294 518.551021 
L 704.58999 518.069636 
L 705.195748 517.712079 
L 705.960916 517.262407 
L 707.108667 516.664291 
L 708.128891 516.09621 
L 719.765818 509.645197 
L 720.020874 509.500216 
L 720.467222 509.247252 
L 721.742502 508.534655 
L 722.571434 508.102163 
L 726.971149 505.566811 
L 727.321851 505.366616 
L 729.744882 503.940578 
L 730.382522 503.589481 
L 731.498392 502.965206 
L 734.718473 501.035499 
L 736.344455 500.140245 
L 738.0342 499.18192 
L 740.010884 498.030619 
L 740.552878 497.690763 
L 741.349928 497.212652 
L 742.306387 496.678302 
L 743.199083 496.094777 
L 744.346835 495.417214 
L 744.952593 495.037012 
L 746.227872 494.22787 
L 746.897394 493.825165 
L 747.375624 493.551379 
L 752.508625 490.464876 
L 753.496967 489.867018 
L 754.102725 489.521815 
L 754.899774 489.025069 
L 757.322806 487.598839 
L 759.044433 486.550344 
L 759.554545 486.24036 
L 760.511005 485.639164 
L 772.179815 478.296015 
L 773.040628 477.718586 
L 786.494829 469.048984 
L 787.036823 468.699939 
L 787.578817 468.356591 
L 787.961401 468.118079 
L 788.662805 467.65015 
L 790.607606 466.399435 
L 793.158166 464.731834 
L 794.17839 464.052805 
L 794.943557 463.512427 
L 797.908583 461.628609 
L 801.38372 459.324699 
L 802.117006 458.876474 
L 802.882174 458.315661 
L 803.328521 458.044341 
L 804.890739 457.056557 
L 805.751553 456.421948 
L 806.070373 456.200833 
L 806.484839 455.925395 
L 807.345653 455.369431 
L 814.901685 450.115208 
L 815.794381 449.511504 
L 816.27261 449.16796 
L 817.037778 448.61038 
L 817.452244 448.333308 
L 830.555743 439.465563 
L 831.799141 438.643598 
L 832.373017 438.300847 
L 834.732284 436.781021 
L 835.210514 436.487939 
L 836.74085 435.465848 
L 847.293789 428.05329 
L 848.345895 427.326143 
L 848.696597 427.0804 
L 849.621175 426.429636 
L 849.939995 426.197699 
L 850.418225 425.852907 
L 851.406567 425.129051 
L 855.391816 422.242958 
L 855.678754 422.035723 
L 857.527909 420.671131 
L 859.664003 419.193043 
L 860.492934 418.599633 
L 860.971164 418.29742 
L 861.481276 417.985112 
L 863.13914 416.84104 
L 863.904308 416.247212 
L 866.072283 414.670761 
L 866.518631 414.349067 
L 867.251917 413.837217 
L 868.367787 412.981611 
L 869.037308 412.494334 
L 870.631408 411.337668 
L 872.321154 410.1083 
L 872.73562 409.809929 
L 873.37326 409.323643 
L 874.712303 408.350434 
L 875.190533 407.988496 
L 876.146993 407.213207 
L 876.784633 406.782453 
L 878.474378 405.467292 
L 878.856962 405.195027 
L 879.877186 404.480984 
L 881.152466 403.52457 
L 883.033503 402.116898 
L 883.703025 401.64054 
L 884.149373 401.269131 
L 884.818895 400.764711 
L 886.859342 399.21194 
L 887.4651 398.760244 
L 888.070858 398.326331 
L 888.867908 397.777344 
L 891.418467 395.762005 
L 891.737287 395.488235 
L 892.215517 395.05845 
L 892.566219 394.784157 
L 893.044449 394.412187 
L 894.797959 393.170408 
L 895.754418 392.440458 
L 896.360176 391.99263 
L 896.710878 391.760294 
L 897.22099 391.373548 
L 898.01804 390.739511 
L 899.006382 390.004445 
L 900.472953 388.857047 
L 901.684469 387.886372 
L 903.916209 386.158664 
L 904.521966 385.706117 
L 906.403004 384.192434 
L 912.875049 379.160717 
L 914.118446 378.122442 
L 915.011142 377.481202 
L 915.680664 376.940332 
L 917.848639 375.186036 
L 918.773217 374.438903 
L 919.889087 373.5847 
L 920.367317 373.181914 
L 924.798914 369.694716 
L 925.564082 369.113379 
L 925.882902 368.867523 
L 926.711833 368.223531 
L 927.859585 367.315113 
L 928.879809 366.475094 
L 929.230511 366.211883 
L 931.812952 364.169288 
L 932.57812 363.565363 
L 936.467723 360.435663 
L 937.201009 359.775464 
L 949.794396 349.561161 
L 950.272626 349.205154 
L 950.942148 348.593136 
L 951.324732 348.274663 
L 953.811527 346.152663 
L 954.162229 345.822813 
L 955.054925 345.069813 
L 956.202677 344.062245 
L 956.712789 343.572401 
L 957.159136 343.256613 
L 958.243124 342.291013 
L 958.97641 341.673765 
L 960.219808 340.625189 
L 960.538628 340.379393 
L 965.097753 336.612145 
L 965.512219 336.288309 
L 975.29999 328.249941 
L 975.714456 327.896939 
L 982.983551 321.527805 
L 983.334253 321.295814 
L 983.716836 321.019435 
L 984.163184 320.638953 
L 984.768942 320.12501 
L 985.342818 319.605256 
L 985.948576 319.070856 
L 986.363042 318.756796 
L 986.9688 318.203542 
L 987.383266 317.865369 
L 992.133683 313.876059 
L 992.484384 313.595024 
L 993.504608 312.682653 
L 994.397304 311.884659 
L 994.748006 311.576503 
L 996.788453 309.793495 
L 997.649267 309.064634 
L 1017.958097 291.164164 
L 1018.6595 290.552377 
L 1020.317364 289.014579 
L 1021.21006 288.192462 
L 1021.465116 287.995611 
L 1021.783936 287.735082 
L 1022.549104 287.055133 
L 1026.821291 283.119995 
L 1027.203875 282.738136 
L 1027.713986 282.288694 
L 1028.064688 281.957258 
L 1029.339968 280.796224 
L 1029.945726 280.224124 
L 1030.48772 279.721605 
L 1031.476062 278.782605 
L 1031.699236 278.609777 
L 1033.388981 277.106257 
L 1033.867211 276.650943 
L 1036.41777 274.398639 
L 1037.820578 273.137281 
L 1038.362572 272.697328 
L 1052.996407 259.00459 
L 1053.538401 258.525607 
L 1055.865786 256.391637 
L 1056.535308 255.826489 
L 1057.52365 254.862462 
L 1062.305949 250.327668 
L 1062.656651 249.973334 
L 1063.007352 249.630859 
L 1063.900048 248.805625 
L 1064.41016 248.340071 
L 1064.952154 247.876777 
L 1065.621676 247.235569 
L 1066.131788 246.762417 
L 1068.714229 244.242512 
L 1069.096813 243.869748 
L 1073.624056 239.385742 
L 1074.357342 238.63944 
L 1074.9631 238.025253 
L 1078.438237 234.769841 
L 1078.948349 234.280686 
L 1079.267169 233.943219 
L 1079.809163 233.390374 
L 1080.191747 233.029535 
L 1080.701858 232.514398 
L 1083.379946 229.92248 
L 1084.049468 229.418045 
L 1084.527698 228.924432 
L 1084.814635 228.66036 
L 1086.663791 226.914875 
L 1087.301431 226.294728 
L 1088.481065 225.082463 
L 1124.443952 189.361536 
L 1125.04971 188.6723 
L 1125.336648 188.383877 
L 1125.84676 187.80427 
L 1127.377096 186.35273 
L 1127.60027 186.121981 
L 1129.194369 184.493921 
L 1129.576953 184.109782 
L 1129.959537 183.720675 
L 1132.828917 180.713118 
L 1133.785376 179.705294 
L 1134.16796 179.296932 
L 1134.391134 179.043336 
L 1135.60265 177.809465 
L 1135.92147 177.46607 
L 1136.3997 176.927152 
L 1137.164868 176.160473 
L 1141.150117 171.802638 
L 1141.628347 171.319623 
L 1143.860086 169.00588 
L 1144.338316 168.463559 
L 1145.709242 167.053972 
L 1146.187472 166.615291 
L 1147.207695 165.520227 
L 1147.781571 164.911796 
L 1148.610503 164.160872 
L 1149.088733 163.658202 
L 1151.161062 161.423052 
L 1151.989994 160.611305 
L 1152.24505 160.391421 
L 1152.691398 159.922392 
L 1153.329038 159.31387 
L 1154.413026 158.186234 
L 1155.337603 157.114646 
L 1156.039007 156.348423 
L 1157.760635 154.514995 
L 1158.717095 153.576382 
L 1159.386617 152.877716 
L 1159.7692 152.4546 
L 1160.151784 152.003794 
L 1160.598132 151.603798 
L 1160.88507 151.299261 
L 1161.458946 150.730058 
L 1163.59504 148.526501 
L 1164.264561 147.797631 
L 1164.647145 147.421627 
L 1165.157257 146.838578 
L 1165.444195 146.561117 
L 1165.954307 145.992472 
L 1166.560065 145.372685 
L 1168.759922 142.995558 
L 1177.240532 134.139944 
L 1178.0057 133.282173 
L 1178.96216 132.244284 
L 1181.385192 129.639237 
L 1181.608365 129.417851 
L 1182.118477 128.886334 
L 1185.211031 125.407309 
L 1187.028304 123.399784 
L 1187.857236 122.615809 
L 1189.004988 121.359432 
L 1189.67451 120.59686 
L 1190.599087 119.589608 
L 1192.001895 117.984497 
L 1192.448243 117.553063 
L 1193.245293 116.638965 
L 1193.468467 116.443663 
L 1194.361163 115.478939 
L 1195.094448 114.660804 
L 1195.413268 114.323168 
L 1196.178436 113.48536 
L 1196.465374 113.221227 
L 1197.99571 111.619629 
L 1198.250766 111.329646 
L 1200.928853 108.454859 
L 1201.152027 108.229044 
L 1202.108487 107.178352 
L 1206.731376 102.226302 
L 1207.337134 101.535339 
L 1208.548649 100.203403 
L 1208.931233 99.745145 
L 1209.409463 99.204405 
L 1210.015221 98.615703 
L 1210.525333 98.047911 
L 1210.780389 97.734999 
L 1213.649768 94.537785 
L 1214.096116 94.073928 
L 1214.383054 93.756282 
L 1214.925048 93.090269 
L 1215.339514 92.719666 
L 1216.104682 91.871399 
L 1217.124905 90.626882 
L 1217.794427 89.838703 
L 1218.463949 89.144508 
L 1219.643583 87.873186 
L 1220.313105 87.109562 
L 1232.23697 73.694268 
L 1232.523908 73.368614 
L 1233.161548 72.551406 
L 1233.35284 72.323436 
L 1234.054244 71.552869 
L 1236.796095 68.365716 
L 1240.111822 64.611813 
L 1240.71758 63.919845 
L 1241.35522 63.249566 
L 1242.024742 62.430769 
L 1243.300021 60.927254 
L 1243.746369 60.410845 
L 1244.670947 59.260755 
L 1245.117295 58.74985 
L 1245.786817 58.023149 
L 1246.041873 57.718667 
L 1247.60409 55.900849 
L 1247.859146 55.630178 
L 1254.713775 47.627278 
L 1255.733999 46.376521 
L 1256.754222 45.207221 
L 1257.6788 44.149864 
L 1257.965738 43.826658 
L 1258.507732 43.186782 
L 1258.699024 42.967575 
L 1263.194385 37.73946 
L 1263.417559 37.542193 
L 1263.991435 36.88571 
L 1264.374019 36.448138 
L 1265.171068 35.459411 
L 1266.31882 34.14161 
L 1266.31882 34.14161 
" clip-path="url(#pf40d16d683)" style="fill: none; stroke: #000000; stroke-width: 5; stroke-linecap: square"/>
    <defs>
     <path id="mbbef562e2c" d="M 0 17.67767 
L 17.67767 0 
L 0 -17.67767 
L -17.67767 0 
z
" style="stroke: #000000; stroke-linejoin: miter"/>
    </defs>
    <g clip-path="url(#pf40d16d683)">
     <use xlink:href="#mbbef562e2c" x="203.086244" y="656.969015" style="stroke: #000000; stroke-linejoin: miter"/>
     <use xlink:href="#mbbef562e2c" x="250.909233" y="655.707326" style="stroke: #000000; stroke-linejoin: miter"/>
     <use xlink:href="#mbbef562e2c" x="298.732222" y="651.921826" style="stroke: #000000; stroke-linejoin: miter"/>
     <use xlink:href="#mbbef562e2c" x="346.555211" y="645.636898" style="stroke: #000000; stroke-linejoin: miter"/>
     <use xlink:href="#mbbef562e2c" x="394.3782" y="636.964398" style="stroke: #000000; stroke-linejoin: miter"/>
     <use xlink:href="#mbbef562e2c" x="442.201189" y="625.708506" style="stroke: #000000; stroke-linejoin: miter"/>
     <use xlink:href="#mbbef562e2c" x="490.024179" y="611.862443" style="stroke: #000000; stroke-linejoin: miter"/>
     <use xlink:href="#mbbef562e2c" x="537.847168" y="595.514356" style="stroke: #000000; stroke-linejoin: miter"/>
     <use xlink:href="#mbbef562e2c" x="585.670157" y="576.416926" style="stroke: #000000; stroke-linejoin: miter"/>
     <use xlink:href="#mbbef562e2c" x="633.493146" y="554.888268" style="stroke: #000000; stroke-linejoin: miter"/>
     <use xlink:href="#mbbef562e2c" x="681.316135" y="530.703452" style="stroke: #000000; stroke-linejoin: miter"/>
     <use xlink:href="#mbbef562e2c" x="729.139124" y="504.296441" style="stroke: #000000; stroke-linejoin: miter"/>
     <use xlink:href="#mbbef562e2c" x="776.962113" y="475.099149" style="stroke: #000000; stroke-linejoin: miter"/>
     <use xlink:href="#mbbef562e2c" x="824.785103" y="443.469492" style="stroke: #000000; stroke-linejoin: miter"/>
     <use xlink:href="#mbbef562e2c" x="872.608092" y="409.913747" style="stroke: #000000; stroke-linejoin: miter"/>
     <use xlink:href="#mbbef562e2c" x="920.431081" y="373.131802" style="stroke: #000000; stroke-linejoin: miter"/>
     <use xlink:href="#mbbef562e2c" x="968.25407" y="334.069354" style="stroke: #000000; stroke-linejoin: miter"/>
     <use xlink:href="#mbbef562e2c" x="1016.077059" y="292.854622" style="stroke: #000000; stroke-linejoin: miter"/>
     <use xlink:href="#mbbef562e2c" x="1063.900048" y="248.805625" style="stroke: #000000; stroke-linejoin: miter"/>
     <use xlink:href="#mbbef562e2c" x="1111.723037" y="202.124666" style="stroke: #000000; stroke-linejoin: miter"/>
     <use xlink:href="#mbbef562e2c" x="1159.546026" y="152.705019" style="stroke: #000000; stroke-linejoin: miter"/>
     <use xlink:href="#mbbef562e2c" x="1207.369016" y="101.495682" style="stroke: #000000; stroke-linejoin: miter"/>
     <use xlink:href="#mbbef562e2c" x="1255.192005" y="47.079146" style="stroke: #000000; stroke-linejoin: miter"/>
    </g>
   </g>
   <g id="line2d_34">
    <path d="M 203.086244 656.969009 
L 1033.612155 656.440716 
L 1217.603135 656.179821 
L 1256.945514 656.119339 
L 1266.31882 656.103203 
L 1266.31882 656.103203 
" clip-path="url(#pf40d16d683)" style="fill: none; stroke: #9400d3; stroke-width: 5; stroke-linecap: square"/>
    <defs>
     <path id="m47456b1efb" d="M 0 12.5 
C 3.315039 12.5 6.494748 11.182921 8.838835 8.838835 
C 11.182921 6.494748 12.5 3.315039 12.5 0 
C 12.5 -3.315039 11.182921 -6.494748 8.838835 -8.838835 
C 6.494748 -11.182921 3.315039 -12.5 0 -12.5 
C -3.315039 -12.5 -6.494748 -11.182921 -8.838835 -8.838835 
C -11.182921 -6.494748 -12.5 -3.315039 -12.5 0 
C -12.5 3.315039 -11.182921 6.494748 -8.838835 8.838835 
C -6.494748 11.182921 -3.315039 12.5 0 12.5 
z
" style="stroke: #9400d3"/>
    </defs>
    <g clip-path="url(#pf40d16d683)">
     <use xlink:href="#m47456b1efb" x="203.086244" y="656.969009" style="fill: #9400d3; stroke: #9400d3"/>
     <use xlink:href="#m47456b1efb" x="250.909233" y="656.96645" style="fill: #9400d3; stroke: #9400d3"/>
     <use xlink:href="#m47456b1efb" x="298.732222" y="656.961117" style="fill: #9400d3; stroke: #9400d3"/>
     <use xlink:href="#m47456b1efb" x="346.555211" y="656.952396" style="fill: #9400d3; stroke: #9400d3"/>
     <use xlink:href="#m47456b1efb" x="394.3782" y="656.939748" style="fill: #9400d3; stroke: #9400d3"/>
     <use xlink:href="#m47456b1efb" x="442.201189" y="656.924381" style="fill: #9400d3; stroke: #9400d3"/>
     <use xlink:href="#m47456b1efb" x="490.024179" y="656.904664" style="fill: #9400d3; stroke: #9400d3"/>
     <use xlink:href="#m47456b1efb" x="537.847168" y="656.882326" style="fill: #9400d3; stroke: #9400d3"/>
     <use xlink:href="#m47456b1efb" x="585.670157" y="656.856555" style="fill: #9400d3; stroke: #9400d3"/>
     <use xlink:href="#m47456b1efb" x="633.493146" y="656.827049" style="fill: #9400d3; stroke: #9400d3"/>
     <use xlink:href="#m47456b1efb" x="681.316135" y="656.79298" style="fill: #9400d3; stroke: #9400d3"/>
     <use xlink:href="#m47456b1efb" x="729.139124" y="656.756212" style="fill: #9400d3; stroke: #9400d3"/>
     <use xlink:href="#m47456b1efb" x="776.962113" y="656.715904" style="fill: #9400d3; stroke: #9400d3"/>
     <use xlink:href="#m47456b1efb" x="824.785103" y="656.672641" style="fill: #9400d3; stroke: #9400d3"/>
     <use xlink:href="#m47456b1efb" x="872.608092" y="656.625459" style="fill: #9400d3; stroke: #9400d3"/>
     <use xlink:href="#m47456b1efb" x="920.431081" y="656.574743" style="fill: #9400d3; stroke: #9400d3"/>
     <use xlink:href="#m47456b1efb" x="968.25407" y="656.520596" style="fill: #9400d3; stroke: #9400d3"/>
     <use xlink:href="#m47456b1efb" x="1016.077059" y="656.462705" style="fill: #9400d3; stroke: #9400d3"/>
     <use xlink:href="#m47456b1efb" x="1063.900048" y="656.400717" style="fill: #9400d3; stroke: #9400d3"/>
     <use xlink:href="#m47456b1efb" x="1111.723037" y="656.336718" style="fill: #9400d3; stroke: #9400d3"/>
     <use xlink:href="#m47456b1efb" x="1159.546026" y="656.268593" style="fill: #9400d3; stroke: #9400d3"/>
     <use xlink:href="#m47456b1efb" x="1207.369016" y="656.19591" style="fill: #9400d3; stroke: #9400d3"/>
     <use xlink:href="#m47456b1efb" x="1255.192005" y="656.120859" style="fill: #9400d3; stroke: #9400d3"/>
    </g>
   </g>
   <g id="line2d_35">
    <path d="M 203.086244 656.969009 
L 590.579984 656.673021 
L 628.136971 656.631302 
L 665.725841 656.586487 
L 751.328991 656.475249 
L 758.789378 656.46393 
L 839.546465 656.343483 
L 849.366119 656.329194 
L 1222.7999 655.682819 
L 1249.03878 655.635749 
L 1266.31882 655.599358 
L 1266.31882 655.599358 
" clip-path="url(#pf40d16d683)" style="fill: none; stroke: #d2691e; stroke-width: 5; stroke-linecap: square"/>
    <defs>
     <path id="m64e5eaaf1c" d="M 0 -12.5 
L -2.806425 -3.862712 
L -11.888206 -3.862712 
L -4.540891 1.475425 
L -7.347316 10.112712 
L -0 4.774575 
L 7.347316 10.112712 
L 4.540891 1.475425 
L 11.888206 -3.862712 
L 2.806425 -3.862712 
z
" style="stroke: #d2691e; stroke-linejoin: bevel"/>
    </defs>
    <g clip-path="url(#pf40d16d683)">
     <use xlink:href="#m64e5eaaf1c" x="203.086244" y="656.969009" style="fill: #d2691e; stroke: #d2691e; stroke-linejoin: bevel"/>
     <use xlink:href="#m64e5eaaf1c" x="250.909233" y="656.944672" style="fill: #d2691e; stroke: #d2691e; stroke-linejoin: bevel"/>
     <use xlink:href="#m64e5eaaf1c" x="298.732222" y="656.917217" style="fill: #d2691e; stroke: #d2691e; stroke-linejoin: bevel"/>
     <use xlink:href="#m64e5eaaf1c" x="346.555211" y="656.886618" style="fill: #d2691e; stroke: #d2691e; stroke-linejoin: bevel"/>
     <use xlink:href="#m64e5eaaf1c" x="394.3782" y="656.851998" style="fill: #d2691e; stroke: #d2691e; stroke-linejoin: bevel"/>
     <use xlink:href="#m64e5eaaf1c" x="442.201189" y="656.811523" style="fill: #d2691e; stroke: #d2691e; stroke-linejoin: bevel"/>
     <use xlink:href="#m64e5eaaf1c" x="490.024179" y="656.772735" style="fill: #d2691e; stroke: #d2691e; stroke-linejoin: bevel"/>
     <use xlink:href="#m64e5eaaf1c" x="537.847168" y="656.727118" style="fill: #d2691e; stroke: #d2691e; stroke-linejoin: bevel"/>
     <use xlink:href="#m64e5eaaf1c" x="585.670157" y="656.678911" style="fill: #d2691e; stroke: #d2691e; stroke-linejoin: bevel"/>
     <use xlink:href="#m64e5eaaf1c" x="633.493146" y="656.626743" style="fill: #d2691e; stroke: #d2691e; stroke-linejoin: bevel"/>
     <use xlink:href="#m64e5eaaf1c" x="681.316135" y="656.566449" style="fill: #d2691e; stroke: #d2691e; stroke-linejoin: bevel"/>
     <use xlink:href="#m64e5eaaf1c" x="729.139124" y="656.50465" style="fill: #d2691e; stroke: #d2691e; stroke-linejoin: bevel"/>
     <use xlink:href="#m64e5eaaf1c" x="776.962113" y="656.435437" style="fill: #d2691e; stroke: #d2691e; stroke-linejoin: bevel"/>
     <use xlink:href="#m64e5eaaf1c" x="824.785103" y="656.36547" style="fill: #d2691e; stroke: #d2691e; stroke-linejoin: bevel"/>
     <use xlink:href="#m64e5eaaf1c" x="872.608092" y="656.296447" style="fill: #d2691e; stroke: #d2691e; stroke-linejoin: bevel"/>
     <use xlink:href="#m64e5eaaf1c" x="920.431081" y="656.224146" style="fill: #d2691e; stroke: #d2691e; stroke-linejoin: bevel"/>
     <use xlink:href="#m64e5eaaf1c" x="968.25407" y="656.144891" style="fill: #d2691e; stroke: #d2691e; stroke-linejoin: bevel"/>
     <use xlink:href="#m64e5eaaf1c" x="1016.077059" y="656.064739" style="fill: #d2691e; stroke: #d2691e; stroke-linejoin: bevel"/>
     <use xlink:href="#m64e5eaaf1c" x="1063.900048" y="655.974062" style="fill: #d2691e; stroke: #d2691e; stroke-linejoin: bevel"/>
     <use xlink:href="#m64e5eaaf1c" x="1111.723037" y="655.89118" style="fill: #d2691e; stroke: #d2691e; stroke-linejoin: bevel"/>
     <use xlink:href="#m64e5eaaf1c" x="1159.546026" y="655.790652" style="fill: #d2691e; stroke: #d2691e; stroke-linejoin: bevel"/>
     <use xlink:href="#m64e5eaaf1c" x="1207.369016" y="655.713758" style="fill: #d2691e; stroke: #d2691e; stroke-linejoin: bevel"/>
     <use xlink:href="#m64e5eaaf1c" x="1255.192005" y="655.62035" style="fill: #d2691e; stroke: #d2691e; stroke-linejoin: bevel"/>
    </g>
   </g>
   <g id="line2d_36">
    <path d="M 203.086244 656.969014 
L 221.003924 656.850993 
L 243.512611 656.383212 
L 269.560199 655.420065 
L 287.732935 654.463538 
L 292.387706 654.175485 
L 319.774337 652.203286 
L 321.464083 652.076215 
L 324.524754 651.818974 
L 328.095537 651.513713 
L 333.324184 651.045109 
L 335.874744 650.811956 
L 337.947073 650.612719 
L 344.227826 649.985726 
L 348.244957 649.584033 
L 349.74341 649.440164 
L 358.925424 648.463039 
L 361.0934 648.213053 
L 362.655618 648.040017 
L 366.322047 647.61974 
L 380.828353 645.930684 
L 394.473846 644.193367 
L 416.217365 641.174494 
L 417.396999 640.992779 
L 418.927335 640.75462 
L 433.433641 638.552945 
L 471.086275 631.890559 
L 471.915207 631.73985 
L 475.230934 631.119535 
L 477.622083 630.662673 
L 478.514779 630.499855 
L 479.407475 630.334306 
L 482.723202 629.665384 
L 497.325155 626.735529 
L 498.154087 626.556457 
L 509.982306 624.072436 
L 511.672052 623.696399 
L 512.628511 623.479174 
L 515.402245 622.885045 
L 516.422469 622.663669 
L 517.57022 622.424997 
L 518.622326 622.187635 
L 521.459823 621.517868 
L 523.850973 620.953752 
L 525.540719 620.562943 
L 534.276385 618.60669 
L 534.85026 618.487984 
L 537.56023 617.836946 
L 538.6761 617.569833 
L 540.939721 617.011718 
L 542.215001 616.705748 
L 545.945194 615.816572 
L 547.220474 615.499437 
L 549.611623 614.913811 
L 550.440555 614.680581 
L 551.492661 614.429314 
L 561.216668 611.969739 
L 562.077482 611.751 
L 563.033942 611.503271 
L 563.703464 611.350686 
L 570.143626 609.718797 
L 571.450788 609.369581 
L 580.250218 607.048668 
L 581.015386 606.854717 
L 596.637562 602.548537 
L 597.625904 602.278385 
L 599.698234 601.711957 
L 601.515507 601.151808 
L 602.631377 600.851112 
L 603.300899 600.673848 
L 605.915222 599.912733 
L 607.541204 599.416018 
L 608.465782 599.167031 
L 610.538111 598.534938 
L 611.207633 598.343093 
L 612.801733 597.865755 
L 613.375609 597.686926 
L 614.140776 597.446194 
L 614.84218 597.239407 
L 615.511702 597.0553 
L 617.23333 596.577013 
L 617.902852 596.383602 
L 619.528833 595.916744 
L 624.566188 594.407872 
L 626.096524 593.990849 
L 627.722505 593.465092 
L 629.284723 592.99251 
L 641.527408 589.392145 
L 642.962098 588.935113 
L 643.854794 588.669185 
L 646.628527 587.783968 
L 649.434142 586.873273 
L 650.294956 586.626301 
L 651.442708 586.259211 
L 651.920938 586.112156 
L 652.558578 585.887438 
L 653.515037 585.591401 
L 657.117703 584.463762 
L 658.20169 584.097121 
L 659.668262 583.61857 
L 661.262362 583.084994 
L 664.769381 581.893579 
L 665.407021 581.683504 
L 669.200978 580.407425 
L 669.966146 580.187751 
L 672.867407 579.253116 
L 673.441283 579.045335 
L 675.226675 578.449874 
L 675.64114 578.334399 
L 677.107712 577.856024 
L 677.904762 577.611451 
L 678.956868 577.269928 
L 679.7858 576.958268 
L 680.550967 576.717083 
L 681.507427 576.412914 
L 683.484111 575.721325 
L 684.791272 575.248923 
L 685.301384 575.065292 
L 687.182422 574.439858 
L 688.553348 573.948414 
L 689.382279 573.678506 
L 690.816969 573.188189 
L 691.741547 572.873549 
L 693.71823 572.167341 
L 696.013734 571.393437 
L 696.683256 571.143273 
L 699.074405 570.324816 
L 699.743927 570.082294 
L 700.477213 569.840723 
L 702.645188 569.139228 
L 704.175524 568.583276 
L 705.259512 568.192414 
L 708.160773 567.161251 
L 710.743214 566.240251 
L 711.4765 565.949069 
L 712.27355 565.637311 
L 725.695869 560.868316 
L 726.747975 560.468286 
L 727.417497 560.214814 
L 728.342074 559.833303 
L 729.649236 559.370855 
L 731.275218 558.79618 
L 732.550498 558.271876 
L 733.028727 558.096624 
L 733.730131 557.826486 
L 744.028015 553.967915 
L 745.271413 553.475631 
L 745.781525 553.286246 
L 748.395848 552.2907 
L 752.062277 550.891384 
L 752.540507 550.696044 
L 753.433203 550.366631 
L 755.15483 549.679556 
L 761.881931 547.106505 
L 762.615217 546.817843 
L 769.820547 543.871524 
L 770.362541 543.630984 
L 771.478411 543.163485 
L 773.773914 542.147076 
L 774.252144 541.980321 
L 777.631635 540.541964 
L 778.779387 540.113591 
L 785.634015 537.297222 
L 787.738227 536.498502 
L 788.088929 536.331866 
L 789.172917 535.884261 
L 790.03373 535.536597 
L 790.83078 535.206014 
L 791.46842 534.950961 
L 792.233588 534.640214 
L 794.911675 533.491218 
L 795.358023 533.339383 
L 795.900017 533.118848 
L 797.143415 532.573043 
L 797.589763 532.392161 
L 800.012794 531.373904 
L 801.288074 530.859727 
L 802.18077 530.511781 
L 803.105347 530.108675 
L 803.806751 529.818646 
L 805.145795 529.261825 
L 805.655907 529.009801 
L 806.580485 528.60849 
L 807.792 528.106976 
L 810.310678 526.964572 
L 810.916436 526.708276 
L 811.203374 526.566623 
L 811.713486 526.331778 
L 832.532427 517.321923 
L 836.90026 515.50845 
L 838.143658 514.994353 
L 838.558123 514.81514 
L 839.929049 514.23464 
L 840.471043 513.978676 
L 841.236211 513.643021 
L 841.746323 513.417492 
L 842.734664 512.940534 
L 843.340422 512.65058 
L 844.998286 511.911602 
L 846.369212 511.288587 
L 846.911206 511.044546 
L 848.600951 510.288335 
L 851.119629 509.118928 
L 852.171734 508.660466 
L 853.989008 507.793985 
L 854.786058 507.402862 
L 856.029455 506.814474 
L 856.571449 506.544712 
L 857.687319 506.03342 
L 861.22622 504.4683 
L 861.800096 504.255361 
L 862.437736 503.953892 
L 863.13914 503.665627 
L 864.031836 503.22554 
L 864.988295 502.78178 
L 865.466525 502.57662 
L 891.928579 489.985009 
L 892.438691 489.714571 
L 894.287847 488.811043 
L 894.829841 488.5968 
L 907.423228 482.366336 
L 908.124632 482.038688 
L 908.666625 481.770796 
L 909.431793 481.389187 
L 910.069433 481.071554 
L 910.930247 480.603015 
L 911.631651 480.29138 
L 913.672098 479.22072 
L 914.277856 478.908007 
L 915.871956 478.099189 
L 916.669006 477.667917 
L 921.546951 475.252395 
L 922.120826 474.971869 
L 923.045404 474.451564 
L 924.288802 473.844644 
L 924.703268 473.626866 
L 929.102983 471.420574 
L 930.218853 470.864899 
L 930.82461 470.533351 
L 931.334722 470.306507 
L 932.610002 469.663852 
L 932.928822 469.505344 
L 935.957611 467.981638 
L 936.850307 467.489415 
L 937.551711 467.087496 
L 942.525302 464.626382 
L 943.928109 463.940921 
L 945.043979 463.337086 
L 946.191731 462.721975 
L 947.180073 462.194269 
L 947.594539 462.00447 
L 948.327824 461.582987 
L 949.730632 460.840604 
L 952.40872 459.407722 
L 952.695657 459.253619 
L 953.142005 458.983144 
L 953.620235 458.720261 
L 954.225993 458.37291 
L 960.028516 455.166838 
L 960.4111 454.977888 
L 967.520784 451.282595 
L 967.871486 451.118254 
L 972.303083 448.775479 
L 973.004487 448.441211 
L 973.737773 448.075205 
L 974.120357 447.864862 
L 994.142248 437.08346 
L 994.779888 436.724731 
L 995.226236 436.494564 
L 995.92764 436.079688 
L 997.139155 435.41955 
L 997.840559 435.024568 
L 999.339013 434.179146 
L 1003.579318 431.752485 
L 1005.36471 430.858208 
L 1005.842939 430.619784 
L 1026.789409 418.575581 
L 1027.522694 418.128292 
L 1028.766092 417.400389 
L 1029.21244 417.132832 
L 1029.786316 416.805343 
L 1030.997832 416.052523 
L 1031.635472 415.675782 
L 1034.855553 413.806917 
L 1035.684485 413.350966 
L 1035.971423 413.205313 
L 1036.896 412.71862 
L 1037.437994 412.399418 
L 1037.884342 412.172013 
L 1038.203162 411.980079 
L 1038.745156 411.651923 
L 1040.434902 410.651668 
L 1042.156529 409.615068 
L 1042.698523 409.317883 
L 1044.420151 408.366837 
L 1045.249082 407.86669 
L 1045.69543 407.619302 
L 1072.540068 391.476173 
L 1072.858888 391.302847 
L 1075.377566 389.63353 
L 1075.792032 389.384557 
L 1076.078969 389.233654 
L 1076.589081 388.94072 
L 1077.226721 388.550393 
L 1078.884585 387.52056 
L 1079.554107 387.045534 
L 1081.881492 385.641319 
L 1082.551014 385.196535 
L 1083.858176 384.466543 
L 1084.176996 384.311017 
L 1088.736121 381.503136 
L 1089.023059 381.338464 
L 1090.138928 380.614692 
L 1090.48963 380.414334 
L 1090.96786 380.082119 
L 1091.573618 379.708533 
L 1093.486537 378.596654 
L 1094.666171 377.826425 
L 1095.271929 377.423312 
L 1096.260271 376.827317 
L 1096.610973 376.593027 
L 1097.025439 376.351231 
L 1098.01378 375.723825 
L 1098.300718 375.535698 
L 1098.97024 375.071115 
L 1099.735408 374.659701 
L 1102.317849 372.97109 
L 1103.529365 372.179216 
L 1103.752539 372.021417 
L 1115.867696 364.279929 
L 1116.122752 364.095574 
L 1117.238622 363.337963 
L 1122.116567 360.351749 
L 1122.435387 360.159536 
L 1128.524848 356.092779 
L 1129.449425 355.44933 
L 1133.84914 352.469782 
L 1134.741836 351.866919 
L 1139.141551 348.93389 
L 1140.767533 347.764564 
L 1141.150117 347.502709 
L 1141.564583 347.225985 
L 1143.190564 346.202381 
L 1144.051378 345.593633 
L 1144.56149 345.254979 
L 1145.071602 344.918588 
L 1147.462751 343.382904 
L 1147.813453 343.169565 
L 1148.514857 342.787573 
L 1150.108957 341.768147 
L 1150.491541 341.483479 
L 1151.575528 340.762364 
L 1151.894348 340.563605 
L 1152.40446 340.238223 
L 1153.36092 339.671814 
L 1153.743504 339.392882 
L 1154.094206 339.172383 
L 1156.421591 337.514295 
L 1156.867939 337.205494 
L 1157.282405 336.951941 
L 1157.856281 336.549247 
L 1158.206983 336.318027 
L 1160.438722 334.877167 
L 1160.72566 334.699082 
L 1161.777766 334.015723 
L 1162.224114 333.744203 
L 1171.406128 327.53022 
L 1171.724948 327.358464 
L 1173.223401 326.284554 
L 1173.669749 326.03033 
L 1173.924805 325.895494 
L 1174.403035 325.592469 
L 1176.092781 324.457919 
L 1176.602893 324.106319 
L 1176.826067 323.964024 
L 1177.304296 323.608363 
L 1177.782526 323.226805 
L 1183.011173 319.70646 
L 1183.744459 319.184754 
L 1184.063279 318.964309 
L 1184.413981 318.696861 
L 1184.764683 318.45108 
L 1185.561733 317.879671 
L 1186.135608 317.468932 
L 1187.538416 316.537129 
L 1187.793472 316.403876 
L 1188.303584 316.059913 
L 1191.077317 314.045603 
L 1191.459901 313.762227 
L 1192.288833 313.112669 
L 1194.233635 311.804757 
L 1196.592902 310.190449 
L 1197.103014 309.843593 
L 1200.099921 307.818255 
L 1213.012128 298.976302 
L 1213.586004 298.539598 
L 1214.127998 298.18151 
L 1214.542464 297.883141 
L 1215.371396 297.330514 
L 1215.817744 297.017547 
L 1218.974061 294.811359 
L 1219.229117 294.647346 
L 1219.834875 294.207597 
L 1221.428974 293.068217 
L 1221.715912 292.879644 
L 1222.16226 292.573758 
L 1222.449198 292.363 
L 1228.124193 288.151766 
L 1228.506777 287.902805 
L 1229.973348 286.887107 
L 1231.1211 286.105979 
L 1231.503684 285.84687 
L 1232.07756 285.490851 
L 1232.651436 285.047189 
L 1233.51225 284.369716 
L 1233.862952 284.158922 
L 1240.813226 279.160635 
L 1242.78991 277.730266 
L 1248.592432 273.43455 
L 1249.070662 273.135682 
L 1251.398048 271.417632 
L 1251.908159 271.029991 
L 1252.195097 270.809878 
L 1253.629787 269.701283 
L 1253.948607 269.50223 
L 1254.235545 269.285026 
L 1254.490601 269.076137 
L 1255.670235 268.145028 
L 1256.116583 267.892942 
L 1256.754222 267.377386 
L 1257.6788 266.676744 
L 1258.061384 266.401479 
L 1259.2729 265.527722 
L 1262.142279 263.35752 
L 1262.524863 263.152272 
L 1263.226267 262.625819 
L 1263.545087 262.410145 
L 1264.214609 261.929606 
L 1264.788485 261.502169 
L 1265.713062 260.811621 
L 1266.223174 260.417426 
L 1266.31882 260.32816 
L 1266.31882 260.32816 
" clip-path="url(#pf40d16d683)" style="fill: none; stroke: #800000; stroke-width: 5; stroke-linecap: square"/>
    <defs>
     <path id="mdbd8b4411f" d="M 0 -12.5 
L -11.888206 -3.862712 
L -7.347316 10.112712 
L 7.347316 10.112712 
L 11.888206 -3.862712 
z
" style="stroke: #800000; stroke-linejoin: miter"/>
    </defs>
    <g clip-path="url(#pf40d16d683)">
     <use xlink:href="#mdbd8b4411f" x="203.086244" y="656.969014" style="fill: #800000; stroke: #800000; stroke-linejoin: miter"/>
     <use xlink:href="#mdbd8b4411f" x="250.909233" y="656.160381" style="fill: #800000; stroke: #800000; stroke-linejoin: miter"/>
     <use xlink:href="#mdbd8b4411f" x="298.732222" y="653.755889" style="fill: #800000; stroke: #800000; stroke-linejoin: miter"/>
     <use xlink:href="#mdbd8b4411f" x="346.555211" y="649.746131" style="fill: #800000; stroke: #800000; stroke-linejoin: miter"/>
     <use xlink:href="#mdbd8b4411f" x="394.3782" y="644.204277" style="fill: #800000; stroke: #800000; stroke-linejoin: miter"/>
     <use xlink:href="#mdbd8b4411f" x="442.201189" y="637.06548" style="fill: #800000; stroke: #800000; stroke-linejoin: miter"/>
     <use xlink:href="#mdbd8b4411f" x="490.024179" y="628.205029" style="fill: #800000; stroke: #800000; stroke-linejoin: miter"/>
     <use xlink:href="#mdbd8b4411f" x="537.847168" y="617.767978" style="fill: #800000; stroke: #800000; stroke-linejoin: miter"/>
     <use xlink:href="#mdbd8b4411f" x="585.670157" y="605.595162" style="fill: #800000; stroke: #800000; stroke-linejoin: miter"/>
     <use xlink:href="#mdbd8b4411f" x="633.493146" y="591.798954" style="fill: #800000; stroke: #800000; stroke-linejoin: miter"/>
     <use xlink:href="#mdbd8b4411f" x="681.316135" y="576.470822" style="fill: #800000; stroke: #800000; stroke-linejoin: miter"/>
     <use xlink:href="#mdbd8b4411f" x="729.139124" y="559.550555" style="fill: #800000; stroke: #800000; stroke-linejoin: miter"/>
     <use xlink:href="#mdbd8b4411f" x="776.962113" y="540.794438" style="fill: #800000; stroke: #800000; stroke-linejoin: miter"/>
     <use xlink:href="#mdbd8b4411f" x="824.785103" y="520.658441" style="fill: #800000; stroke: #800000; stroke-linejoin: miter"/>
     <use xlink:href="#mdbd8b4411f" x="872.608092" y="499.248849" style="fill: #800000; stroke: #800000; stroke-linejoin: miter"/>
     <use xlink:href="#mdbd8b4411f" x="920.431081" y="475.769938" style="fill: #800000; stroke: #800000; stroke-linejoin: miter"/>
     <use xlink:href="#mdbd8b4411f" x="968.25407" y="450.917388" style="fill: #800000; stroke: #800000; stroke-linejoin: miter"/>
     <use xlink:href="#mdbd8b4411f" x="1016.077059" y="424.806499" style="fill: #800000; stroke: #800000; stroke-linejoin: miter"/>
     <use xlink:href="#mdbd8b4411f" x="1063.900048" y="396.748118" style="fill: #800000; stroke: #800000; stroke-linejoin: miter"/>
     <use xlink:href="#mdbd8b4411f" x="1111.723037" y="366.951679" style="fill: #800000; stroke: #800000; stroke-linejoin: miter"/>
     <use xlink:href="#mdbd8b4411f" x="1159.546026" y="335.457503" style="fill: #800000; stroke: #800000; stroke-linejoin: miter"/>
     <use xlink:href="#mdbd8b4411f" x="1207.369016" y="302.947323" style="fill: #800000; stroke: #800000; stroke-linejoin: miter"/>
     <use xlink:href="#mdbd8b4411f" x="1255.192005" y="268.545429" style="fill: #800000; stroke: #800000; stroke-linejoin: miter"/>
    </g>
   </g>
   <g id="line2d_37">
    <path d="M 203.086244 656.969015 
L 354.972057 656.798646 
L 361.922332 656.794179 
L 479.821941 656.740086 
L 488.047495 656.735097 
L 602.153147 656.684841 
L 606.457216 656.684053 
L 762.965919 656.647367 
L 771.637821 656.636682 
L 904.043737 656.59589 
L 1076.780373 656.552813 
L 1080.41492 656.551194 
L 1266.127528 656.507399 
L 1266.31882 656.506401 
L 1266.31882 656.506401 
" clip-path="url(#pf40d16d683)" style="fill: none; stroke: #ffa500; stroke-width: 5; stroke-linecap: square"/>
    <defs>
     <path id="mb0c3fcb49e" d="M 12.5 0 
L -12.5 -12.5 
L -12.5 12.5 
z
" style="stroke: #ffa500; stroke-linejoin: miter"/>
    </defs>
    <g clip-path="url(#pf40d16d683)">
     <use xlink:href="#mb0c3fcb49e" x="203.086244" y="656.969015" style="fill: #ffa500; stroke: #ffa500; stroke-linejoin: miter"/>
     <use xlink:href="#mb0c3fcb49e" x="250.909233" y="656.892089" style="fill: #ffa500; stroke: #ffa500; stroke-linejoin: miter"/>
     <use xlink:href="#mb0c3fcb49e" x="298.732222" y="656.849159" style="fill: #ffa500; stroke: #ffa500; stroke-linejoin: miter"/>
     <use xlink:href="#mb0c3fcb49e" x="346.555211" y="656.809965" style="fill: #ffa500; stroke: #ffa500; stroke-linejoin: miter"/>
     <use xlink:href="#mb0c3fcb49e" x="394.3782" y="656.778724" style="fill: #ffa500; stroke: #ffa500; stroke-linejoin: miter"/>
     <use xlink:href="#mb0c3fcb49e" x="442.201189" y="656.759524" style="fill: #ffa500; stroke: #ffa500; stroke-linejoin: miter"/>
     <use xlink:href="#mb0c3fcb49e" x="490.024179" y="656.734281" style="fill: #ffa500; stroke: #ffa500; stroke-linejoin: miter"/>
     <use xlink:href="#mb0c3fcb49e" x="537.847168" y="656.710922" style="fill: #ffa500; stroke: #ffa500; stroke-linejoin: miter"/>
     <use xlink:href="#mb0c3fcb49e" x="585.670157" y="656.691118" style="fill: #ffa500; stroke: #ffa500; stroke-linejoin: miter"/>
     <use xlink:href="#mb0c3fcb49e" x="633.493146" y="656.679012" style="fill: #ffa500; stroke: #ffa500; stroke-linejoin: miter"/>
     <use xlink:href="#mb0c3fcb49e" x="681.316135" y="656.667754" style="fill: #ffa500; stroke: #ffa500; stroke-linejoin: miter"/>
     <use xlink:href="#mb0c3fcb49e" x="729.139124" y="656.655523" style="fill: #ffa500; stroke: #ffa500; stroke-linejoin: miter"/>
     <use xlink:href="#mb0c3fcb49e" x="776.962113" y="656.63612" style="fill: #ffa500; stroke: #ffa500; stroke-linejoin: miter"/>
     <use xlink:href="#mb0c3fcb49e" x="824.785103" y="656.618701" style="fill: #ffa500; stroke: #ffa500; stroke-linejoin: miter"/>
     <use xlink:href="#mb0c3fcb49e" x="872.608092" y="656.614525" style="fill: #ffa500; stroke: #ffa500; stroke-linejoin: miter"/>
     <use xlink:href="#mb0c3fcb49e" x="920.431081" y="656.595352" style="fill: #ffa500; stroke: #ffa500; stroke-linejoin: miter"/>
     <use xlink:href="#mb0c3fcb49e" x="968.25407" y="656.585913" style="fill: #ffa500; stroke: #ffa500; stroke-linejoin: miter"/>
     <use xlink:href="#mb0c3fcb49e" x="1016.077059" y="656.573619" style="fill: #ffa500; stroke: #ffa500; stroke-linejoin: miter"/>
     <use xlink:href="#mb0c3fcb49e" x="1063.900048" y="656.557177" style="fill: #ffa500; stroke: #ffa500; stroke-linejoin: miter"/>
     <use xlink:href="#mb0c3fcb49e" x="1111.723037" y="656.549084" style="fill: #ffa500; stroke: #ffa500; stroke-linejoin: miter"/>
     <use xlink:href="#mb0c3fcb49e" x="1159.546026" y="656.54158" style="fill: #ffa500; stroke: #ffa500; stroke-linejoin: miter"/>
     <use xlink:href="#mb0c3fcb49e" x="1207.369016" y="656.525051" style="fill: #ffa500; stroke: #ffa500; stroke-linejoin: miter"/>
     <use xlink:href="#mb0c3fcb49e" x="1255.192005" y="656.515813" style="fill: #ffa500; stroke: #ffa500; stroke-linejoin: miter"/>
    </g>
   </g>
   <g id="line2d_38">
    <path d="M 203.086244 656.969013 
L 1174.689973 656.495994 
L 1266.31882 656.406344 
L 1266.31882 656.406344 
" clip-path="url(#pf40d16d683)" style="fill: none; stroke: #0000ff; stroke-width: 5; stroke-linecap: square"/>
    <defs>
     <path id="m2810088d7a" d="M 0 -12.5 
L -12.5 12.5 
L 12.5 12.5 
z
" style="stroke: #0000ff; stroke-linejoin: miter"/>
    </defs>
    <g clip-path="url(#pf40d16d683)">
     <use xlink:href="#m2810088d7a" x="203.086244" y="656.969013" style="fill: #0000ff; stroke: #0000ff; stroke-linejoin: miter"/>
     <use xlink:href="#m2810088d7a" x="250.909233" y="656.965483" style="fill: #0000ff; stroke: #0000ff; stroke-linejoin: miter"/>
     <use xlink:href="#m2810088d7a" x="298.732222" y="656.961382" style="fill: #0000ff; stroke: #0000ff; stroke-linejoin: miter"/>
     <use xlink:href="#m2810088d7a" x="346.555211" y="656.955315" style="fill: #0000ff; stroke: #0000ff; stroke-linejoin: miter"/>
     <use xlink:href="#m2810088d7a" x="394.3782" y="656.947157" style="fill: #0000ff; stroke: #0000ff; stroke-linejoin: miter"/>
     <use xlink:href="#m2810088d7a" x="442.201189" y="656.936956" style="fill: #0000ff; stroke: #0000ff; stroke-linejoin: miter"/>
     <use xlink:href="#m2810088d7a" x="490.024179" y="656.924352" style="fill: #0000ff; stroke: #0000ff; stroke-linejoin: miter"/>
     <use xlink:href="#m2810088d7a" x="537.847168" y="656.909763" style="fill: #0000ff; stroke: #0000ff; stroke-linejoin: miter"/>
     <use xlink:href="#m2810088d7a" x="585.670157" y="656.891873" style="fill: #0000ff; stroke: #0000ff; stroke-linejoin: miter"/>
     <use xlink:href="#m2810088d7a" x="633.493146" y="656.871326" style="fill: #0000ff; stroke: #0000ff; stroke-linejoin: miter"/>
     <use xlink:href="#m2810088d7a" x="681.316135" y="656.848472" style="fill: #0000ff; stroke: #0000ff; stroke-linejoin: miter"/>
     <use xlink:href="#m2810088d7a" x="729.139124" y="656.825583" style="fill: #0000ff; stroke: #0000ff; stroke-linejoin: miter"/>
     <use xlink:href="#m2810088d7a" x="776.962113" y="656.798392" style="fill: #0000ff; stroke: #0000ff; stroke-linejoin: miter"/>
     <use xlink:href="#m2810088d7a" x="824.785103" y="656.768883" style="fill: #0000ff; stroke: #0000ff; stroke-linejoin: miter"/>
     <use xlink:href="#m2810088d7a" x="872.608092" y="656.738835" style="fill: #0000ff; stroke: #0000ff; stroke-linejoin: miter"/>
     <use xlink:href="#m2810088d7a" x="920.431081" y="656.704863" style="fill: #0000ff; stroke: #0000ff; stroke-linejoin: miter"/>
     <use xlink:href="#m2810088d7a" x="968.25407" y="656.668846" style="fill: #0000ff; stroke: #0000ff; stroke-linejoin: miter"/>
     <use xlink:href="#m2810088d7a" x="1016.077059" y="656.63396" style="fill: #0000ff; stroke: #0000ff; stroke-linejoin: miter"/>
     <use xlink:href="#m2810088d7a" x="1063.900048" y="656.59689" style="fill: #0000ff; stroke: #0000ff; stroke-linejoin: miter"/>
     <use xlink:href="#m2810088d7a" x="1111.723037" y="656.55623" style="fill: #0000ff; stroke: #0000ff; stroke-linejoin: miter"/>
     <use xlink:href="#m2810088d7a" x="1159.546026" y="656.511094" style="fill: #0000ff; stroke: #0000ff; stroke-linejoin: miter"/>
     <use xlink:href="#m2810088d7a" x="1207.369016" y="656.465882" style="fill: #0000ff; stroke: #0000ff; stroke-linejoin: miter"/>
     <use xlink:href="#m2810088d7a" x="1255.192005" y="656.419007" style="fill: #0000ff; stroke: #0000ff; stroke-linejoin: miter"/>
    </g>
   </g>
   <g id="patch_3">
    <path d="M 149.924615 688.110385 
L 149.924615 3.00024 
" style="fill: none; stroke: #000000; stroke-width: 0.8; stroke-linejoin: miter; stroke-linecap: square"/>
   </g>
   <g id="patch_4">
    <path d="M 1319.480449 688.110385 
L 1319.480449 3.00024 
" style="fill: none; stroke: #000000; stroke-width: 0.8; stroke-linejoin: miter; stroke-linecap: square"/>
   </g>
   <g id="patch_5">
    <path d="M 149.924615 688.110385 
L 1319.480449 688.110385 
" style="fill: none; stroke: #000000; stroke-width: 0.8; stroke-linejoin: miter; stroke-linecap: square"/>
   </g>
   <g id="patch_6">
    <path d="M 149.924615 3.00024 
L 1319.480449 3.00024 
" style="fill: none; stroke: #000000; stroke-width: 0.8; stroke-linejoin: miter; stroke-linecap: square"/>
   </g>
  </g>
 </g>
 <defs>
  <clipPath id="pf40d16d683">
   <rect x="149.924615" y="3.00024" width="1169.555834" height="685.110145"/>
  </clipPath>
 </defs>
</svg>
