<?xml version="1.0" encoding="utf-8" standalone="no"?>
<!DOCTYPE svg PUBLIC "-//W3C//DTD SVG 1.1//EN"
  "http://www.w3.org/Graphics/SVG/1.1/DTD/svg11.dtd">
<svg xmlns:xlink="http://www.w3.org/1999/xlink" width="1038.24pt" height="609.12pt" viewBox="0 0 1038.24 609.12" xmlns="http://www.w3.org/2000/svg" version="1.1">
 <metadata>
  <rdf:RDF xmlns:dc="http://purl.org/dc/elements/1.1/" xmlns:cc="http://creativecommons.org/ns#" xmlns:rdf="http://www.w3.org/1999/02/22-rdf-syntax-ns#">
   <cc:Work>
    <dc:type rdf:resource="http://purl.org/dc/dcmitype/StillImage"/>
    <dc:date>2024-04-13T11:42:34.792215</dc:date>
    <dc:format>image/svg+xml</dc:format>
    <dc:creator>
     <cc:Agent>
      <dc:title>Matplotlib v3.8.0, https://matplotlib.org/</dc:title>
     </cc:Agent>
    </dc:creator>
   </cc:Work>
  </rdf:RDF>
 </metadata>
 <defs>
  <style type="text/css">*{stroke-linejoin: round; stroke-linecap: butt}</style>
 </defs>
 <g id="figure_1">
  <g id="patch_1">
   <path d="M 0 609.12 
L 1038.24 609.12 
L 1038.24 0 
L 0 0 
z
" style="fill: #ffffff"/>
  </g>
  <g id="axes_1">
   <g id="patch_2">
    <path d="M 133.554928 537.05101 
L 1035.23976 537.05101 
L 1035.23976 3.067274 
L 133.554928 3.067274 
z
" style="fill: #ffffff"/>
   </g>
   <g id="matplotlib.axis_1">
    <g id="xtick_1">
     <g id="line2d_1">
      <path d="M 145.759064 537.05101 
L 145.759064 3.067274 
" clip-path="url(#p2226ff0f4f)" style="fill: none; stroke: #b0b0b0; stroke-width: 0.8; stroke-linecap: square"/>
     </g>
     <g id="line2d_2">
      <defs>
       <path id="mdcae543928" d="M 0 0 
L 0 3.5 
" style="stroke: #000000; stroke-width: 0.8"/>
      </defs>
      <g>
       <use xlink:href="#mdcae543928" x="145.759064" y="537.05101" style="stroke: #000000; stroke-width: 0.8"/>
      </g>
     </g>
     <g id="text_1">
      <!-- 22000 -->
      <g transform="translate(98.040314 566.846323) scale(0.3 -0.3)">
       <defs>
        <path id="DejaVuSans-32" d="M 1228 531 
L 3431 531 
L 3431 0 
L 469 0 
L 469 531 
Q 828 903 1448 1529 
Q 2069 2156 2228 2338 
Q 2531 2678 2651 2914 
Q 2772 3150 2772 3378 
Q 2772 3750 2511 3984 
Q 2250 4219 1831 4219 
Q 1534 4219 1204 4116 
Q 875 4013 500 3803 
L 500 4441 
Q 881 4594 1212 4672 
Q 1544 4750 1819 4750 
Q 2544 4750 2975 4387 
Q 3406 4025 3406 3419 
Q 3406 3131 3298 2873 
Q 3191 2616 2906 2266 
Q 2828 2175 2409 1742 
Q 1991 1309 1228 531 
z
" transform="scale(0.015625)"/>
        <path id="DejaVuSans-30" d="M 2034 4250 
Q 1547 4250 1301 3770 
Q 1056 3291 1056 2328 
Q 1056 1369 1301 889 
Q 1547 409 2034 409 
Q 2525 409 2770 889 
Q 3016 1369 3016 2328 
Q 3016 3291 2770 3770 
Q 2525 4250 2034 4250 
z
M 2034 4750 
Q 2819 4750 3233 4129 
Q 3647 3509 3647 2328 
Q 3647 1150 3233 529 
Q 2819 -91 2034 -91 
Q 1250 -91 836 529 
Q 422 1150 422 2328 
Q 422 3509 836 4129 
Q 1250 4750 2034 4750 
z
" transform="scale(0.015625)"/>
       </defs>
       <use xlink:href="#DejaVuSans-32"/>
       <use xlink:href="#DejaVuSans-32" x="63.623047"/>
       <use xlink:href="#DejaVuSans-30" x="127.246094"/>
       <use xlink:href="#DejaVuSans-30" x="190.869141"/>
       <use xlink:href="#DejaVuSans-30" x="254.492188"/>
      </g>
     </g>
    </g>
    <g id="xtick_2">
     <g id="line2d_3">
      <path d="M 299.513261 537.05101 
L 299.513261 3.067274 
" clip-path="url(#p2226ff0f4f)" style="fill: none; stroke: #b0b0b0; stroke-width: 0.8; stroke-linecap: square"/>
     </g>
     <g id="line2d_4">
      <g>
       <use xlink:href="#mdcae543928" x="299.513261" y="537.05101" style="stroke: #000000; stroke-width: 0.8"/>
      </g>
     </g>
     <g id="text_2">
      <!-- 24000 -->
      <g transform="translate(251.794511 566.846323) scale(0.3 -0.3)">
       <defs>
        <path id="DejaVuSans-34" d="M 2419 4116 
L 825 1625 
L 2419 1625 
L 2419 4116 
z
M 2253 4666 
L 3047 4666 
L 3047 1625 
L 3713 1625 
L 3713 1100 
L 3047 1100 
L 3047 0 
L 2419 0 
L 2419 1100 
L 313 1100 
L 313 1709 
L 2253 4666 
z
" transform="scale(0.015625)"/>
       </defs>
       <use xlink:href="#DejaVuSans-32"/>
       <use xlink:href="#DejaVuSans-34" x="63.623047"/>
       <use xlink:href="#DejaVuSans-30" x="127.246094"/>
       <use xlink:href="#DejaVuSans-30" x="190.869141"/>
       <use xlink:href="#DejaVuSans-30" x="254.492188"/>
      </g>
     </g>
    </g>
    <g id="xtick_3">
     <g id="line2d_5">
      <path d="M 453.267458 537.05101 
L 453.267458 3.067274 
" clip-path="url(#p2226ff0f4f)" style="fill: none; stroke: #b0b0b0; stroke-width: 0.8; stroke-linecap: square"/>
     </g>
     <g id="line2d_6">
      <g>
       <use xlink:href="#mdcae543928" x="453.267458" y="537.05101" style="stroke: #000000; stroke-width: 0.8"/>
      </g>
     </g>
     <g id="text_3">
      <!-- 26000 -->
      <g transform="translate(405.548708 566.846323) scale(0.3 -0.3)">
       <defs>
        <path id="DejaVuSans-36" d="M 2113 2584 
Q 1688 2584 1439 2293 
Q 1191 2003 1191 1497 
Q 1191 994 1439 701 
Q 1688 409 2113 409 
Q 2538 409 2786 701 
Q 3034 994 3034 1497 
Q 3034 2003 2786 2293 
Q 2538 2584 2113 2584 
z
M 3366 4563 
L 3366 3988 
Q 3128 4100 2886 4159 
Q 2644 4219 2406 4219 
Q 1781 4219 1451 3797 
Q 1122 3375 1075 2522 
Q 1259 2794 1537 2939 
Q 1816 3084 2150 3084 
Q 2853 3084 3261 2657 
Q 3669 2231 3669 1497 
Q 3669 778 3244 343 
Q 2819 -91 2113 -91 
Q 1303 -91 875 529 
Q 447 1150 447 2328 
Q 447 3434 972 4092 
Q 1497 4750 2381 4750 
Q 2619 4750 2861 4703 
Q 3103 4656 3366 4563 
z
" transform="scale(0.015625)"/>
       </defs>
       <use xlink:href="#DejaVuSans-32"/>
       <use xlink:href="#DejaVuSans-36" x="63.623047"/>
       <use xlink:href="#DejaVuSans-30" x="127.246094"/>
       <use xlink:href="#DejaVuSans-30" x="190.869141"/>
       <use xlink:href="#DejaVuSans-30" x="254.492188"/>
      </g>
     </g>
    </g>
    <g id="xtick_4">
     <g id="line2d_7">
      <path d="M 607.021656 537.05101 
L 607.021656 3.067274 
" clip-path="url(#p2226ff0f4f)" style="fill: none; stroke: #b0b0b0; stroke-width: 0.8; stroke-linecap: square"/>
     </g>
     <g id="line2d_8">
      <g>
       <use xlink:href="#mdcae543928" x="607.021656" y="537.05101" style="stroke: #000000; stroke-width: 0.8"/>
      </g>
     </g>
     <g id="text_4">
      <!-- 28000 -->
      <g transform="translate(559.302906 566.846323) scale(0.3 -0.3)">
       <defs>
        <path id="DejaVuSans-38" d="M 2034 2216 
Q 1584 2216 1326 1975 
Q 1069 1734 1069 1313 
Q 1069 891 1326 650 
Q 1584 409 2034 409 
Q 2484 409 2743 651 
Q 3003 894 3003 1313 
Q 3003 1734 2745 1975 
Q 2488 2216 2034 2216 
z
M 1403 2484 
Q 997 2584 770 2862 
Q 544 3141 544 3541 
Q 544 4100 942 4425 
Q 1341 4750 2034 4750 
Q 2731 4750 3128 4425 
Q 3525 4100 3525 3541 
Q 3525 3141 3298 2862 
Q 3072 2584 2669 2484 
Q 3125 2378 3379 2068 
Q 3634 1759 3634 1313 
Q 3634 634 3220 271 
Q 2806 -91 2034 -91 
Q 1263 -91 848 271 
Q 434 634 434 1313 
Q 434 1759 690 2068 
Q 947 2378 1403 2484 
z
M 1172 3481 
Q 1172 3119 1398 2916 
Q 1625 2713 2034 2713 
Q 2441 2713 2670 2916 
Q 2900 3119 2900 3481 
Q 2900 3844 2670 4047 
Q 2441 4250 2034 4250 
Q 1625 4250 1398 4047 
Q 1172 3844 1172 3481 
z
" transform="scale(0.015625)"/>
       </defs>
       <use xlink:href="#DejaVuSans-32"/>
       <use xlink:href="#DejaVuSans-38" x="63.623047"/>
       <use xlink:href="#DejaVuSans-30" x="127.246094"/>
       <use xlink:href="#DejaVuSans-30" x="190.869141"/>
       <use xlink:href="#DejaVuSans-30" x="254.492188"/>
      </g>
     </g>
    </g>
    <g id="xtick_5">
     <g id="line2d_9">
      <path d="M 760.775853 537.05101 
L 760.775853 3.067274 
" clip-path="url(#p2226ff0f4f)" style="fill: none; stroke: #b0b0b0; stroke-width: 0.8; stroke-linecap: square"/>
     </g>
     <g id="line2d_10">
      <g>
       <use xlink:href="#mdcae543928" x="760.775853" y="537.05101" style="stroke: #000000; stroke-width: 0.8"/>
      </g>
     </g>
     <g id="text_5">
      <!-- 30000 -->
      <g transform="translate(713.057103 566.846323) scale(0.3 -0.3)">
       <defs>
        <path id="DejaVuSans-33" d="M 2597 2516 
Q 3050 2419 3304 2112 
Q 3559 1806 3559 1356 
Q 3559 666 3084 287 
Q 2609 -91 1734 -91 
Q 1441 -91 1130 -33 
Q 819 25 488 141 
L 488 750 
Q 750 597 1062 519 
Q 1375 441 1716 441 
Q 2309 441 2620 675 
Q 2931 909 2931 1356 
Q 2931 1769 2642 2001 
Q 2353 2234 1838 2234 
L 1294 2234 
L 1294 2753 
L 1863 2753 
Q 2328 2753 2575 2939 
Q 2822 3125 2822 3475 
Q 2822 3834 2567 4026 
Q 2313 4219 1838 4219 
Q 1578 4219 1281 4162 
Q 984 4106 628 3988 
L 628 4550 
Q 988 4650 1302 4700 
Q 1616 4750 1894 4750 
Q 2613 4750 3031 4423 
Q 3450 4097 3450 3541 
Q 3450 3153 3228 2886 
Q 3006 2619 2597 2516 
z
" transform="scale(0.015625)"/>
       </defs>
       <use xlink:href="#DejaVuSans-33"/>
       <use xlink:href="#DejaVuSans-30" x="63.623047"/>
       <use xlink:href="#DejaVuSans-30" x="127.246094"/>
       <use xlink:href="#DejaVuSans-30" x="190.869141"/>
       <use xlink:href="#DejaVuSans-30" x="254.492188"/>
      </g>
     </g>
    </g>
    <g id="xtick_6">
     <g id="line2d_11">
      <path d="M 914.530051 537.05101 
L 914.530051 3.067274 
" clip-path="url(#p2226ff0f4f)" style="fill: none; stroke: #b0b0b0; stroke-width: 0.8; stroke-linecap: square"/>
     </g>
     <g id="line2d_12">
      <g>
       <use xlink:href="#mdcae543928" x="914.530051" y="537.05101" style="stroke: #000000; stroke-width: 0.8"/>
      </g>
     </g>
     <g id="text_6">
      <!-- 32000 -->
      <g transform="translate(866.811301 566.846323) scale(0.3 -0.3)">
       <use xlink:href="#DejaVuSans-33"/>
       <use xlink:href="#DejaVuSans-32" x="63.623047"/>
       <use xlink:href="#DejaVuSans-30" x="127.246094"/>
       <use xlink:href="#DejaVuSans-30" x="190.869141"/>
       <use xlink:href="#DejaVuSans-30" x="254.492188"/>
      </g>
     </g>
    </g>
    <g id="text_7">
     <!-- customer_request -->
     <g transform="translate(449.252031 599.046323) scale(0.3 -0.3)">
      <defs>
       <path id="DejaVuSans-63" d="M 3122 3366 
L 3122 2828 
Q 2878 2963 2633 3030 
Q 2388 3097 2138 3097 
Q 1578 3097 1268 2742 
Q 959 2388 959 1747 
Q 959 1106 1268 751 
Q 1578 397 2138 397 
Q 2388 397 2633 464 
Q 2878 531 3122 666 
L 3122 134 
Q 2881 22 2623 -34 
Q 2366 -91 2075 -91 
Q 1284 -91 818 406 
Q 353 903 353 1747 
Q 353 2603 823 3093 
Q 1294 3584 2113 3584 
Q 2378 3584 2631 3529 
Q 2884 3475 3122 3366 
z
" transform="scale(0.015625)"/>
       <path id="DejaVuSans-75" d="M 544 1381 
L 544 3500 
L 1119 3500 
L 1119 1403 
Q 1119 906 1312 657 
Q 1506 409 1894 409 
Q 2359 409 2629 706 
Q 2900 1003 2900 1516 
L 2900 3500 
L 3475 3500 
L 3475 0 
L 2900 0 
L 2900 538 
Q 2691 219 2414 64 
Q 2138 -91 1772 -91 
Q 1169 -91 856 284 
Q 544 659 544 1381 
z
M 1991 3584 
L 1991 3584 
z
" transform="scale(0.015625)"/>
       <path id="DejaVuSans-73" d="M 2834 3397 
L 2834 2853 
Q 2591 2978 2328 3040 
Q 2066 3103 1784 3103 
Q 1356 3103 1142 2972 
Q 928 2841 928 2578 
Q 928 2378 1081 2264 
Q 1234 2150 1697 2047 
L 1894 2003 
Q 2506 1872 2764 1633 
Q 3022 1394 3022 966 
Q 3022 478 2636 193 
Q 2250 -91 1575 -91 
Q 1294 -91 989 -36 
Q 684 19 347 128 
L 347 722 
Q 666 556 975 473 
Q 1284 391 1588 391 
Q 1994 391 2212 530 
Q 2431 669 2431 922 
Q 2431 1156 2273 1281 
Q 2116 1406 1581 1522 
L 1381 1569 
Q 847 1681 609 1914 
Q 372 2147 372 2553 
Q 372 3047 722 3315 
Q 1072 3584 1716 3584 
Q 2034 3584 2315 3537 
Q 2597 3491 2834 3397 
z
" transform="scale(0.015625)"/>
       <path id="DejaVuSans-74" d="M 1172 4494 
L 1172 3500 
L 2356 3500 
L 2356 3053 
L 1172 3053 
L 1172 1153 
Q 1172 725 1289 603 
Q 1406 481 1766 481 
L 2356 481 
L 2356 0 
L 1766 0 
Q 1100 0 847 248 
Q 594 497 594 1153 
L 594 3053 
L 172 3053 
L 172 3500 
L 594 3500 
L 594 4494 
L 1172 4494 
z
" transform="scale(0.015625)"/>
       <path id="DejaVuSans-6f" d="M 1959 3097 
Q 1497 3097 1228 2736 
Q 959 2375 959 1747 
Q 959 1119 1226 758 
Q 1494 397 1959 397 
Q 2419 397 2687 759 
Q 2956 1122 2956 1747 
Q 2956 2369 2687 2733 
Q 2419 3097 1959 3097 
z
M 1959 3584 
Q 2709 3584 3137 3096 
Q 3566 2609 3566 1747 
Q 3566 888 3137 398 
Q 2709 -91 1959 -91 
Q 1206 -91 779 398 
Q 353 888 353 1747 
Q 353 2609 779 3096 
Q 1206 3584 1959 3584 
z
" transform="scale(0.015625)"/>
       <path id="DejaVuSans-6d" d="M 3328 2828 
Q 3544 3216 3844 3400 
Q 4144 3584 4550 3584 
Q 5097 3584 5394 3201 
Q 5691 2819 5691 2113 
L 5691 0 
L 5113 0 
L 5113 2094 
Q 5113 2597 4934 2840 
Q 4756 3084 4391 3084 
Q 3944 3084 3684 2787 
Q 3425 2491 3425 1978 
L 3425 0 
L 2847 0 
L 2847 2094 
Q 2847 2600 2669 2842 
Q 2491 3084 2119 3084 
Q 1678 3084 1418 2786 
Q 1159 2488 1159 1978 
L 1159 0 
L 581 0 
L 581 3500 
L 1159 3500 
L 1159 2956 
Q 1356 3278 1631 3431 
Q 1906 3584 2284 3584 
Q 2666 3584 2933 3390 
Q 3200 3197 3328 2828 
z
" transform="scale(0.015625)"/>
       <path id="DejaVuSans-65" d="M 3597 1894 
L 3597 1613 
L 953 1613 
Q 991 1019 1311 708 
Q 1631 397 2203 397 
Q 2534 397 2845 478 
Q 3156 559 3463 722 
L 3463 178 
Q 3153 47 2828 -22 
Q 2503 -91 2169 -91 
Q 1331 -91 842 396 
Q 353 884 353 1716 
Q 353 2575 817 3079 
Q 1281 3584 2069 3584 
Q 2775 3584 3186 3129 
Q 3597 2675 3597 1894 
z
M 3022 2063 
Q 3016 2534 2758 2815 
Q 2500 3097 2075 3097 
Q 1594 3097 1305 2825 
Q 1016 2553 972 2059 
L 3022 2063 
z
" transform="scale(0.015625)"/>
       <path id="DejaVuSans-72" d="M 2631 2963 
Q 2534 3019 2420 3045 
Q 2306 3072 2169 3072 
Q 1681 3072 1420 2755 
Q 1159 2438 1159 1844 
L 1159 0 
L 581 0 
L 581 3500 
L 1159 3500 
L 1159 2956 
Q 1341 3275 1631 3429 
Q 1922 3584 2338 3584 
Q 2397 3584 2469 3576 
Q 2541 3569 2628 3553 
L 2631 2963 
z
" transform="scale(0.015625)"/>
       <path id="DejaVuSans-5f" d="M 3263 -1063 
L 3263 -1509 
L -63 -1509 
L -63 -1063 
L 3263 -1063 
z
" transform="scale(0.015625)"/>
       <path id="DejaVuSans-71" d="M 947 1747 
Q 947 1113 1208 752 
Q 1469 391 1925 391 
Q 2381 391 2643 752 
Q 2906 1113 2906 1747 
Q 2906 2381 2643 2742 
Q 2381 3103 1925 3103 
Q 1469 3103 1208 2742 
Q 947 2381 947 1747 
z
M 2906 525 
Q 2725 213 2448 61 
Q 2172 -91 1784 -91 
Q 1150 -91 751 415 
Q 353 922 353 1747 
Q 353 2572 751 3078 
Q 1150 3584 1784 3584 
Q 2172 3584 2448 3432 
Q 2725 3281 2906 2969 
L 2906 3500 
L 3481 3500 
L 3481 -1331 
L 2906 -1331 
L 2906 525 
z
" transform="scale(0.015625)"/>
      </defs>
      <use xlink:href="#DejaVuSans-63"/>
      <use xlink:href="#DejaVuSans-75" x="54.980469"/>
      <use xlink:href="#DejaVuSans-73" x="118.359375"/>
      <use xlink:href="#DejaVuSans-74" x="170.458984"/>
      <use xlink:href="#DejaVuSans-6f" x="209.667969"/>
      <use xlink:href="#DejaVuSans-6d" x="270.849609"/>
      <use xlink:href="#DejaVuSans-65" x="368.261719"/>
      <use xlink:href="#DejaVuSans-72" x="429.785156"/>
      <use xlink:href="#DejaVuSans-5f" x="470.898438"/>
      <use xlink:href="#DejaVuSans-72" x="520.898438"/>
      <use xlink:href="#DejaVuSans-65" x="559.761719"/>
      <use xlink:href="#DejaVuSans-71" x="621.285156"/>
      <use xlink:href="#DejaVuSans-75" x="684.761719"/>
      <use xlink:href="#DejaVuSans-65" x="748.140625"/>
      <use xlink:href="#DejaVuSans-73" x="809.664062"/>
      <use xlink:href="#DejaVuSans-74" x="861.763672"/>
     </g>
    </g>
   </g>
   <g id="matplotlib.axis_2">
    <g id="ytick_1">
     <g id="line2d_13">
      <path d="M 133.554928 502.895459 
L 1035.23976 502.895459 
" clip-path="url(#p2226ff0f4f)" style="fill: none; stroke: #b0b0b0; stroke-width: 0.8; stroke-linecap: square"/>
     </g>
     <g id="line2d_14">
      <defs>
       <path id="m4e92f2a46e" d="M 0 0 
L -3.5 0 
" style="stroke: #000000; stroke-width: 0.8"/>
      </defs>
      <g>
       <use xlink:href="#m4e92f2a46e" x="133.554928" y="502.895459" style="stroke: #000000; stroke-width: 0.8"/>
      </g>
     </g>
     <g id="text_8">
      <!-- 0.000 -->
      <g transform="translate(26.35649 516.192725) scale(0.35 -0.35)">
       <defs>
        <path id="DejaVuSans-2e" d="M 684 794 
L 1344 794 
L 1344 0 
L 684 0 
L 684 794 
z
" transform="scale(0.015625)"/>
       </defs>
       <use xlink:href="#DejaVuSans-30"/>
       <use xlink:href="#DejaVuSans-2e" x="63.623047"/>
       <use xlink:href="#DejaVuSans-30" x="95.410156"/>
       <use xlink:href="#DejaVuSans-30" x="159.033203"/>
       <use xlink:href="#DejaVuSans-30" x="222.65625"/>
      </g>
     </g>
    </g>
    <g id="ytick_2">
     <g id="line2d_15">
      <path d="M 133.554928 405.575924 
L 1035.23976 405.575924 
" clip-path="url(#p2226ff0f4f)" style="fill: none; stroke: #b0b0b0; stroke-width: 0.8; stroke-linecap: square"/>
     </g>
     <g id="line2d_16">
      <g>
       <use xlink:href="#m4e92f2a46e" x="133.554928" y="405.575924" style="stroke: #000000; stroke-width: 0.8"/>
      </g>
     </g>
     <g id="text_9">
      <!-- 0.001 -->
      <g transform="translate(26.35649 418.87319) scale(0.35 -0.35)">
       <defs>
        <path id="DejaVuSans-31" d="M 794 531 
L 1825 531 
L 1825 4091 
L 703 3866 
L 703 4441 
L 1819 4666 
L 2450 4666 
L 2450 531 
L 3481 531 
L 3481 0 
L 794 0 
L 794 531 
z
" transform="scale(0.015625)"/>
       </defs>
       <use xlink:href="#DejaVuSans-30"/>
       <use xlink:href="#DejaVuSans-2e" x="63.623047"/>
       <use xlink:href="#DejaVuSans-30" x="95.410156"/>
       <use xlink:href="#DejaVuSans-30" x="159.033203"/>
       <use xlink:href="#DejaVuSans-31" x="222.65625"/>
      </g>
     </g>
    </g>
    <g id="ytick_3">
     <g id="line2d_17">
      <path d="M 133.554928 308.256389 
L 1035.23976 308.256389 
" clip-path="url(#p2226ff0f4f)" style="fill: none; stroke: #b0b0b0; stroke-width: 0.8; stroke-linecap: square"/>
     </g>
     <g id="line2d_18">
      <g>
       <use xlink:href="#m4e92f2a46e" x="133.554928" y="308.256389" style="stroke: #000000; stroke-width: 0.8"/>
      </g>
     </g>
     <g id="text_10">
      <!-- 0.002 -->
      <g transform="translate(26.35649 321.553655) scale(0.35 -0.35)">
       <use xlink:href="#DejaVuSans-30"/>
       <use xlink:href="#DejaVuSans-2e" x="63.623047"/>
       <use xlink:href="#DejaVuSans-30" x="95.410156"/>
       <use xlink:href="#DejaVuSans-30" x="159.033203"/>
       <use xlink:href="#DejaVuSans-32" x="222.65625"/>
      </g>
     </g>
    </g>
    <g id="ytick_4">
     <g id="line2d_19">
      <path d="M 133.554928 210.936854 
L 1035.23976 210.936854 
" clip-path="url(#p2226ff0f4f)" style="fill: none; stroke: #b0b0b0; stroke-width: 0.8; stroke-linecap: square"/>
     </g>
     <g id="line2d_20">
      <g>
       <use xlink:href="#m4e92f2a46e" x="133.554928" y="210.936854" style="stroke: #000000; stroke-width: 0.8"/>
      </g>
     </g>
     <g id="text_11">
      <!-- 0.003 -->
      <g transform="translate(26.35649 224.23412) scale(0.35 -0.35)">
       <use xlink:href="#DejaVuSans-30"/>
       <use xlink:href="#DejaVuSans-2e" x="63.623047"/>
       <use xlink:href="#DejaVuSans-30" x="95.410156"/>
       <use xlink:href="#DejaVuSans-30" x="159.033203"/>
       <use xlink:href="#DejaVuSans-33" x="222.65625"/>
      </g>
     </g>
    </g>
    <g id="ytick_5">
     <g id="line2d_21">
      <path d="M 133.554928 113.617319 
L 1035.23976 113.617319 
" clip-path="url(#p2226ff0f4f)" style="fill: none; stroke: #b0b0b0; stroke-width: 0.8; stroke-linecap: square"/>
     </g>
     <g id="line2d_22">
      <g>
       <use xlink:href="#m4e92f2a46e" x="133.554928" y="113.617319" style="stroke: #000000; stroke-width: 0.8"/>
      </g>
     </g>
     <g id="text_12">
      <!-- 0.004 -->
      <g transform="translate(26.35649 126.914585) scale(0.35 -0.35)">
       <use xlink:href="#DejaVuSans-30"/>
       <use xlink:href="#DejaVuSans-2e" x="63.623047"/>
       <use xlink:href="#DejaVuSans-30" x="95.410156"/>
       <use xlink:href="#DejaVuSans-30" x="159.033203"/>
       <use xlink:href="#DejaVuSans-34" x="222.65625"/>
      </g>
     </g>
    </g>
    <g id="ytick_6">
     <g id="line2d_23">
      <path d="M 133.554928 16.297784 
L 1035.23976 16.297784 
" clip-path="url(#p2226ff0f4f)" style="fill: none; stroke: #b0b0b0; stroke-width: 0.8; stroke-linecap: square"/>
     </g>
     <g id="line2d_24">
      <g>
       <use xlink:href="#m4e92f2a46e" x="133.554928" y="16.297784" style="stroke: #000000; stroke-width: 0.8"/>
      </g>
     </g>
     <g id="text_13">
      <!-- 0.005 -->
      <g transform="translate(26.35649 29.59505) scale(0.35 -0.35)">
       <defs>
        <path id="DejaVuSans-35" d="M 691 4666 
L 3169 4666 
L 3169 4134 
L 1269 4134 
L 1269 2991 
Q 1406 3038 1543 3061 
Q 1681 3084 1819 3084 
Q 2600 3084 3056 2656 
Q 3513 2228 3513 1497 
Q 3513 744 3044 326 
Q 2575 -91 1722 -91 
Q 1428 -91 1123 -41 
Q 819 9 494 109 
L 494 744 
Q 775 591 1075 516 
Q 1375 441 1709 441 
Q 2250 441 2565 725 
Q 2881 1009 2881 1497 
Q 2881 1984 2565 2268 
Q 2250 2553 1709 2553 
Q 1456 2553 1204 2497 
Q 953 2441 691 2322 
L 691 4666 
z
" transform="scale(0.015625)"/>
       </defs>
       <use xlink:href="#DejaVuSans-30"/>
       <use xlink:href="#DejaVuSans-2e" x="63.623047"/>
       <use xlink:href="#DejaVuSans-30" x="95.410156"/>
       <use xlink:href="#DejaVuSans-30" x="159.033203"/>
       <use xlink:href="#DejaVuSans-35" x="222.65625"/>
      </g>
     </g>
    </g>
    <g id="text_14">
     <!-- Variance of NDCG -->
     <g transform="translate(18.197115 359.166954) rotate(-90) scale(0.2 -0.2)">
      <defs>
       <path id="DejaVuSans-56" d="M 1831 0 
L 50 4666 
L 709 4666 
L 2188 738 
L 3669 4666 
L 4325 4666 
L 2547 0 
L 1831 0 
z
" transform="scale(0.015625)"/>
       <path id="DejaVuSans-61" d="M 2194 1759 
Q 1497 1759 1228 1600 
Q 959 1441 959 1056 
Q 959 750 1161 570 
Q 1363 391 1709 391 
Q 2188 391 2477 730 
Q 2766 1069 2766 1631 
L 2766 1759 
L 2194 1759 
z
M 3341 1997 
L 3341 0 
L 2766 0 
L 2766 531 
Q 2569 213 2275 61 
Q 1981 -91 1556 -91 
Q 1019 -91 701 211 
Q 384 513 384 1019 
Q 384 1609 779 1909 
Q 1175 2209 1959 2209 
L 2766 2209 
L 2766 2266 
Q 2766 2663 2505 2880 
Q 2244 3097 1772 3097 
Q 1472 3097 1187 3025 
Q 903 2953 641 2809 
L 641 3341 
Q 956 3463 1253 3523 
Q 1550 3584 1831 3584 
Q 2591 3584 2966 3190 
Q 3341 2797 3341 1997 
z
" transform="scale(0.015625)"/>
       <path id="DejaVuSans-69" d="M 603 3500 
L 1178 3500 
L 1178 0 
L 603 0 
L 603 3500 
z
M 603 4863 
L 1178 4863 
L 1178 4134 
L 603 4134 
L 603 4863 
z
" transform="scale(0.015625)"/>
       <path id="DejaVuSans-6e" d="M 3513 2113 
L 3513 0 
L 2938 0 
L 2938 2094 
Q 2938 2591 2744 2837 
Q 2550 3084 2163 3084 
Q 1697 3084 1428 2787 
Q 1159 2491 1159 1978 
L 1159 0 
L 581 0 
L 581 3500 
L 1159 3500 
L 1159 2956 
Q 1366 3272 1645 3428 
Q 1925 3584 2291 3584 
Q 2894 3584 3203 3211 
Q 3513 2838 3513 2113 
z
" transform="scale(0.015625)"/>
       <path id="DejaVuSans-20" transform="scale(0.015625)"/>
       <path id="DejaVuSans-66" d="M 2375 4863 
L 2375 4384 
L 1825 4384 
Q 1516 4384 1395 4259 
Q 1275 4134 1275 3809 
L 1275 3500 
L 2222 3500 
L 2222 3053 
L 1275 3053 
L 1275 0 
L 697 0 
L 697 3053 
L 147 3053 
L 147 3500 
L 697 3500 
L 697 3744 
Q 697 4328 969 4595 
Q 1241 4863 1831 4863 
L 2375 4863 
z
" transform="scale(0.015625)"/>
       <path id="DejaVuSans-4e" d="M 628 4666 
L 1478 4666 
L 3547 763 
L 3547 4666 
L 4159 4666 
L 4159 0 
L 3309 0 
L 1241 3903 
L 1241 0 
L 628 0 
L 628 4666 
z
" transform="scale(0.015625)"/>
       <path id="DejaVuSans-44" d="M 1259 4147 
L 1259 519 
L 2022 519 
Q 2988 519 3436 956 
Q 3884 1394 3884 2338 
Q 3884 3275 3436 3711 
Q 2988 4147 2022 4147 
L 1259 4147 
z
M 628 4666 
L 1925 4666 
Q 3281 4666 3915 4102 
Q 4550 3538 4550 2338 
Q 4550 1131 3912 565 
Q 3275 0 1925 0 
L 628 0 
L 628 4666 
z
" transform="scale(0.015625)"/>
       <path id="DejaVuSans-43" d="M 4122 4306 
L 4122 3641 
Q 3803 3938 3442 4084 
Q 3081 4231 2675 4231 
Q 1875 4231 1450 3742 
Q 1025 3253 1025 2328 
Q 1025 1406 1450 917 
Q 1875 428 2675 428 
Q 3081 428 3442 575 
Q 3803 722 4122 1019 
L 4122 359 
Q 3791 134 3420 21 
Q 3050 -91 2638 -91 
Q 1578 -91 968 557 
Q 359 1206 359 2328 
Q 359 3453 968 4101 
Q 1578 4750 2638 4750 
Q 3056 4750 3426 4639 
Q 3797 4528 4122 4306 
z
" transform="scale(0.015625)"/>
       <path id="DejaVuSans-47" d="M 3809 666 
L 3809 1919 
L 2778 1919 
L 2778 2438 
L 4434 2438 
L 4434 434 
Q 4069 175 3628 42 
Q 3188 -91 2688 -91 
Q 1594 -91 976 548 
Q 359 1188 359 2328 
Q 359 3472 976 4111 
Q 1594 4750 2688 4750 
Q 3144 4750 3555 4637 
Q 3966 4525 4313 4306 
L 4313 3634 
Q 3963 3931 3569 4081 
Q 3175 4231 2741 4231 
Q 1884 4231 1454 3753 
Q 1025 3275 1025 2328 
Q 1025 1384 1454 906 
Q 1884 428 2741 428 
Q 3075 428 3337 486 
Q 3600 544 3809 666 
z
" transform="scale(0.015625)"/>
      </defs>
      <use xlink:href="#DejaVuSans-56"/>
      <use xlink:href="#DejaVuSans-61" x="60.658203"/>
      <use xlink:href="#DejaVuSans-72" x="121.9375"/>
      <use xlink:href="#DejaVuSans-69" x="163.050781"/>
      <use xlink:href="#DejaVuSans-61" x="190.833984"/>
      <use xlink:href="#DejaVuSans-6e" x="252.113281"/>
      <use xlink:href="#DejaVuSans-63" x="315.492188"/>
      <use xlink:href="#DejaVuSans-65" x="370.472656"/>
      <use xlink:href="#DejaVuSans-20" x="431.996094"/>
      <use xlink:href="#DejaVuSans-6f" x="463.783203"/>
      <use xlink:href="#DejaVuSans-66" x="524.964844"/>
      <use xlink:href="#DejaVuSans-20" x="560.169922"/>
      <use xlink:href="#DejaVuSans-4e" x="591.957031"/>
      <use xlink:href="#DejaVuSans-44" x="666.761719"/>
      <use xlink:href="#DejaVuSans-43" x="743.763672"/>
      <use xlink:href="#DejaVuSans-47" x="813.587891"/>
     </g>
    </g>
   </g>
   <g id="line2d_25">
    <path d="M -1 444.567919 
L 15.144873 444.567919 
L 15.298627 473.722939 
L 110.703107 473.722939 
L 110.856861 502.895459 
L 1018.237257 502.895459 
L 1018.237257 502.895459 
" clip-path="url(#p2226ff0f4f)" style="fill: none; stroke: #000000; stroke-width: 5; stroke-linecap: square"/>
    <defs>
     <path id="m681b1921aa" d="M 0 17.67767 
L 17.67767 0 
L 0 -17.67767 
L -17.67767 0 
z
" style="stroke: #000000; stroke-linejoin: miter"/>
    </defs>
    <g clip-path="url(#p2226ff0f4f)">
     <use xlink:href="#m681b1921aa" x="-1" y="456.054825" style="stroke: #000000; stroke-linejoin: miter"/>
     <use xlink:href="#m681b1921aa" x="68.881965" y="473.722939" style="stroke: #000000; stroke-linejoin: miter"/>
     <use xlink:href="#m681b1921aa" x="184.197613" y="502.895459" style="stroke: #000000; stroke-linejoin: miter"/>
     <use xlink:href="#m681b1921aa" x="299.513261" y="502.895459" style="stroke: #000000; stroke-linejoin: miter"/>
     <use xlink:href="#m681b1921aa" x="414.828909" y="502.895459" style="stroke: #000000; stroke-linejoin: miter"/>
     <use xlink:href="#m681b1921aa" x="530.144557" y="502.895459" style="stroke: #000000; stroke-linejoin: miter"/>
     <use xlink:href="#m681b1921aa" x="645.460205" y="502.895459" style="stroke: #000000; stroke-linejoin: miter"/>
     <use xlink:href="#m681b1921aa" x="760.775853" y="502.895459" style="stroke: #000000; stroke-linejoin: miter"/>
     <use xlink:href="#m681b1921aa" x="876.091501" y="502.895459" style="stroke: #000000; stroke-linejoin: miter"/>
     <use xlink:href="#m681b1921aa" x="991.40715" y="502.895459" style="stroke: #000000; stroke-linejoin: miter"/>
    </g>
   </g>
   <g id="line2d_26">
    <path d="M -1 2.028636 
L 0.000084 2.08069 
L 1.614503 2.126801 
L 2.22952 2.150149 
L 2.844537 2.146319 
L 3.3058 2.135228 
L 3.613308 2.194707 
L 6.227129 2.036547 
L 6.380884 1.969319 
L 6.611515 2.018375 
L 7.072777 1.943103 
L 7.457163 1.910509 
L 7.610917 1.855669 
L 7.841548 1.915387 
L 9.225336 1.86733 
L 9.532845 1.897632 
L 9.686599 1.739418 
L 10.45537 1.708332 
L 11.301018 1.776258 
L 11.685403 1.803791 
L 14.606733 1.912469 
L 15.144873 1.958595 
L 15.298627 13.273878 
L 15.836767 13.318601 
L 16.298029 13.309754 
L 16.605538 13.356148 
L 16.682415 13.51353 
L 16.759292 13.44595 
L 17.528063 13.499869 
L 17.912448 13.49515 
L 20.756901 13.770305 
L 21.064409 13.720169 
L 21.448795 13.796893 
L 21.602549 13.744132 
L 22.063812 13.92024 
L 22.37132 13.900956 
L 22.755706 13.890071 
L 23.063214 13.90177 
L 23.601354 13.968868 
L 23.985739 13.776959 
L 24.75451 13.801893 
L 25.753912 13.828408 
L 25.907667 13.651985 
L 27.060823 13.635179 
L 27.368331 13.54285 
L 27.522086 13.654623 
L 28.290857 13.733671 
L 30.05903 13.673825 
L 30.212784 13.588065 
L 31.135309 13.664371 
L 31.289064 13.761984 
L 33.826008 13.884513 
L 34.056639 13.838483 
L 37.2086 13.781565 
L 37.439231 13.739675 
L 38.208002 13.799484 
L 38.823019 13.791173 
L 39.05365 13.84872 
L 40.514315 13.939792 
L 40.66807 14.110973 
L 41.206209 14.116193 
L 42.589997 13.991985 
L 43.128137 13.926501 
L 46.664483 14.100006 
L 47.740763 14.143624 
L 48.893919 14.074581 
L 49.278305 14.081382 
L 49.432059 14.28226 
L 55.889735 14.589113 
L 56.197244 14.690204 
L 58.349802 14.55659 
L 58.503556 14.698832 
L 60.27173 14.87417 
L 60.425484 14.753917 
L 62.039903 14.636549 
L 64.807479 14.605565 
L 65.191864 14.53884 
L 65.960635 14.593323 
L 66.268143 14.501643 
L 67.4213 14.567819 
L 68.805088 14.46104 
L 69.496982 14.511294 
L 71.572663 14.551203 
L 71.726417 14.611841 
L 72.495188 14.653091 
L 72.879574 14.699892 
L 73.033328 14.634251 
L 73.263959 14.691813 
L 74.955256 14.815402 
L 75.647149 14.776925 
L 76.185289 14.775751 
L 77.261569 14.732805 
L 77.415323 14.776357 
L 78.645356 14.786842 
L 78.875988 14.755945 
L 79.721636 14.794894 
L 79.952267 14.79868 
L 81.182301 14.732356 
L 82.104826 14.788209 
L 83.257982 14.736289 
L 84.564893 14.74083 
L 84.795524 14.774234 
L 86.871206 14.589403 
L 87.178714 14.559013 
L 88.716256 14.574017 
L 89.638781 14.597517 
L 90.561307 14.595734 
L 90.791938 14.531866 
L 91.637586 14.588948 
L 91.868217 14.528009 
L 93.713268 14.445518 
L 93.867022 14.518289 
L 94.635793 14.528939 
L 98.479648 14.739915 
L 98.633402 14.657653 
L 99.940313 14.867425 
L 100.862838 14.911527 
L 101.016592 14.795008 
L 103.169151 14.847038 
L 103.476659 14.869599 
L 103.861045 14.853778 
L 104.552939 14.865468 
L 104.860447 14.907251 
L 105.091078 14.89068 
L 106.167358 14.9781 
L 106.782374 15.007825 
L 109.857458 15.065074 
L 110.164967 15.153849 
L 110.395598 15.080735 
L 110.703107 15.076632 
L 110.856861 26.415087 
L 111.779386 26.386788 
L 112.855665 26.502713 
L 113.009419 26.607077 
L 113.470682 26.636259 
L 113.931945 26.709464 
L 114.546961 26.693945 
L 118.467693 26.821524 
L 118.698325 26.885211 
L 119.236464 26.885206 
L 123.695336 26.74249 
L 124.156599 26.699013 
L 124.540984 26.742527 
L 125.002247 26.767465 
L 125.232878 26.835363 
L 126.309158 26.75069 
L 127.001051 26.831484 
L 128.154208 26.840345 
L 128.384839 26.787414 
L 137.840722 26.550518 
L 137.994477 26.666557 
L 138.840125 26.63087 
L 140.30079 26.643853 
L 140.454544 26.56156 
L 140.915806 26.480597 
L 141.146438 26.399062 
L 141.992086 26.338967 
L 142.222717 26.263131 
L 146.527835 26.48418 
L 146.681589 26.342024 
L 148.219131 26.285415 
L 148.372885 26.428801 
L 149.679796 26.442737 
L 151.447969 26.427738 
L 151.6786 26.518338 
L 152.293617 26.589339 
L 153.062388 26.596128 
L 153.446773 26.479449 
L 153.908036 26.574863 
L 155.214947 26.497576 
L 156.598734 26.537991 
L 157.059997 26.48539 
L 158.290031 26.536399 
L 158.520662 26.550389 
L 158.674416 26.420929 
L 163.978936 26.470299 
L 164.209567 26.425733 
L 169.898473 26.311954 
L 170.436612 26.277387 
L 171.051629 26.236316 
L 171.436015 26.200356 
L 172.512294 26.201119 
L 174.434221 26.138427 
L 174.664853 26.221907 
L 175.049238 26.251085 
L 180.276881 26.311652 
L 184.428244 26.370459 
L 184.735753 26.365407 
L 186.042663 26.615336 
L 188.195222 26.685276 
L 188.656485 26.722795 
L 189.348379 26.662569 
L 189.502133 26.558963 
L 192.346585 26.856073 
L 192.884725 26.782238 
L 193.345988 27.00198 
L 196.882334 27.075256 
L 197.036088 27.041929 
L 198.035491 27.118063 
L 198.342999 27.033892 
L 200.034295 27.090046 
L 200.803066 27.147703 
L 201.725591 27.130537 
L 204.877552 27.18898 
L 205.031307 27.250134 
L 205.723201 27.254649 
L 205.953832 27.333608 
L 206.338217 27.313445 
L 206.491972 27.455617 
L 206.876357 27.423696 
L 207.183865 27.381986 
L 207.798882 27.382564 
L 208.183268 27.414567 
L 220.252972 27.468605 
L 220.406726 27.313835 
L 220.714235 27.328094 
L 221.252374 27.271439 
L 222.098023 27.229853 
L 223.48181 27.241408 
L 223.635565 27.342133 
L 227.402542 27.275081 
L 227.556297 27.346602 
L 228.094436 27.268497 
L 228.325068 27.221537 
L 228.709453 27.322379 
L 229.401347 27.236461 
L 229.86261 27.235883 
L 231.246397 27.266635 
L 232.015168 27.304736 
L 232.322677 27.359439 
L 237.934705 27.676 
L 238.165336 27.75972 
L 239.472247 27.779241 
L 239.702878 27.788028 
L 240.70228 27.889199 
L 240.856035 27.977249 
L 241.547929 27.936259 
L 241.701683 28.0214 
L 242.624208 27.994593 
L 243.239225 27.98448 
L 244.853644 28.044395 
L 245.161152 27.958063 
L 245.545538 27.919087 
L 249.158761 27.957182 
L 249.389393 28.072038 
L 249.773778 28.090898 
L 252.080091 28.163008 
L 252.310722 28.192494 
L 252.771985 28.283005 
L 253.387002 28.342982 
L 253.617633 28.409172 
L 253.848264 28.371579 
L 255.923946 28.294693 
L 258.537767 28.419034 
L 258.845276 28.448334 
L 260.075309 28.407591 
L 261.38222 28.337545 
L 262.074114 28.351925 
L 262.612254 28.410389 
L 263.842287 28.349277 
L 264.072918 28.286495 
L 264.764812 28.307252 
L 265.072321 28.307788 
L 267.071125 28.293243 
L 267.916773 28.191497 
L 268.301159 28.232145 
L 272.913785 28.263196 
L 273.067539 28.315738 
L 273.528802 28.324417 
L 273.759433 28.307533 
L 275.373852 28.335116 
L 275.527606 28.418762 
L 278.756444 28.34243 
L 279.14083 28.391227 
L 279.371461 28.402631 
L 279.602092 28.309995 
L 280.909003 28.362712 
L 281.139634 28.260517 
L 281.831528 28.319864 
L 285.906015 28.35771 
L 286.136646 28.496243 
L 286.2904 28.441755 
L 286.905417 28.422218 
L 287.136048 28.445007 
L 288.366082 28.453654 
L 288.750467 28.484636 
L 291.979305 28.432866 
L 292.440568 28.487658 
L 292.671199 28.472 
L 292.824953 28.595021 
L 293.43997 28.521873 
L 293.593724 28.807409 
L 293.97811 28.838295 
L 294.362495 28.781804 
L 295.361898 28.724159 
L 295.900037 28.691485 
L 296.822563 28.662479 
L 297.360702 28.552718 
L 298.74449 28.683669 
L 298.975121 28.631351 
L 300.128278 28.659368 
L 301.512066 28.595974 
L 302.203959 28.66395 
L 302.511468 28.763207 
L 304.894658 28.854749 
L 305.202166 28.867721 
L 305.970937 28.826265 
L 306.278446 28.847259 
L 306.585954 28.826905 
L 306.739708 28.640376 
L 308.200373 28.693607 
L 308.431004 28.71906 
L 308.892267 28.769507 
L 312.736122 28.782312 
L 312.966753 28.856189 
L 313.889278 28.923807 
L 314.043033 28.998352 
L 314.350541 29.056159 
L 321.115726 29.229668 
L 321.192603 29.235502 
L 321.346357 29.394369 
L 322.115128 29.373042 
L 322.345759 29.338345 
L 322.653268 29.301064 
L 331.724765 29.265281 
L 332.493536 29.252948 
L 333.72357 29.299305 
L 333.954201 29.234404 
L 334.492341 29.22515 
L 334.646095 29.356107 
L 335.184235 29.423377 
L 336.029883 29.516334 
L 336.260514 29.510178 
L 336.337391 29.803104 
L 336.414268 29.77153 
L 336.491145 29.642614 
L 336.6449 29.77281 
L 339.335598 29.860841 
L 339.489352 29.797653 
L 340.027492 29.817553 
L 340.796263 29.883585 
L 342.256928 29.969739 
L 342.410682 30.003485 
L 343.640716 29.999709 
L 343.871347 29.940127 
L 344.563241 30.020714 
L 344.793872 29.993863 
L 348.407096 30.123441 
L 348.637727 30.067813 
L 349.175867 30.010957 
L 358.63175 30.262692 
L 359.554275 30.251504 
L 362.398728 30.375413 
L 363.705638 30.401109 
L 365.012549 30.504504 
L 366.626968 30.445655 
L 367.549493 30.445475 
L 368.010756 30.415162 
L 368.779527 30.361192 
L 369.163912 30.413 
L 370.624577 30.499035 
L 370.855209 30.540386 
L 379.696075 30.817014 
L 379.849829 30.7415 
L 380.157338 30.76465 
L 380.387969 30.760898 
L 380.6186 30.772537 
L 381.079863 30.773375 
L 381.387371 30.78134 
L 381.848634 30.718083 
L 385.077472 30.706569 
L 385.308103 30.798875 
L 387.460662 30.84722 
L 387.537539 30.746055 
L 387.614416 30.805942 
L 387.845047 30.809992 
L 391.765779 30.89714 
L 392.073288 30.999131 
L 392.457673 31.036598 
L 393.764584 31.064884 
L 393.918338 30.865718 
L 394.225847 30.927703 
L 394.533355 30.944257 
L 397.685316 31.048657 
L 397.83907 30.955361 
L 399.222858 30.851787 
L 399.453489 30.867018 
L 400.452892 30.959125 
L 401.990434 30.848831 
L 402.221065 30.803027 
L 402.759205 30.82028 
L 405.449903 30.74026 
L 406.141797 30.644029 
L 407.218076 30.610074 
L 407.448708 30.509056 
L 408.98625 30.49973 
L 409.216881 30.57607 
L 409.524389 30.575252 
L 410.446914 30.577472 
L 410.8313 30.553296 
L 413.598876 30.480199 
L 413.829507 30.494363 
L 414.060138 30.449158 
L 418.442133 30.288218 
L 419.441535 30.259021 
L 419.749043 30.254823 
L 420.056552 30.325427 
L 421.055954 30.29053 
L 422.132233 30.347966 
L 422.285988 30.326413 
L 422.901004 30.240221 
L 423.208513 30.228843 
L 423.977284 30.255964 
L 424.131038 30.332474 
L 425.207317 30.338742 
L 425.437949 30.372322 
L 426.591105 30.285695 
L 427.052368 30.312826 
L 427.51363 30.341837 
L 428.05177 30.405897 
L 428.513033 30.393959 
L 428.897418 30.394865 
L 429.589312 30.50006 
L 429.819943 30.516125 
L 430.050575 30.471631 
L 430.127452 30.474676 
L 430.204329 30.674973 
L 430.281206 30.598822 
L 430.511837 30.660211 
L 433.048781 30.726331 
L 433.202536 30.585578 
L 433.740675 30.572703 
L 436.738882 30.717739 
L 437.430776 30.723448 
L 437.58453 30.842281 
L 441.197754 30.759152 
L 441.812771 30.728951 
L 442.120279 30.697167 
L 442.88905 30.758722 
L 443.811575 30.809702 
L 444.580346 30.829937 
L 445.27224 30.865581 
L 445.733503 30.797051 
L 446.194765 30.738998 
L 448.270447 30.711661 
L 448.962341 30.725163 
L 449.500481 30.851771 
L 451.960548 30.666717 
L 452.652442 30.660224 
L 453.49809 30.60581 
L 453.959352 30.66617 
L 454.189984 30.722396 
L 454.805 30.708302 
L 456.111911 30.616519 
L 456.573174 30.663721 
L 457.956961 30.737972 
L 458.341347 30.777926 
L 458.725732 30.72039 
L 462.031448 30.832278 
L 463.261481 30.834611 
L 463.876498 30.746805 
L 464.184006 30.713933 
L 467.950984 30.731569 
L 471.487331 30.928933 
L 471.717962 30.862693 
L 486.708996 30.989787 
L 487.862153 30.912623 
L 500.777505 30.562069 
L 501.238768 30.660735 
L 501.930662 30.558303 
L 502.468802 30.54106 
L 508.08083 30.37785 
L 511.617176 30.523811 
L 511.770931 30.593165 
L 512.385947 30.674742 
L 512.770333 30.743195 
L 513.308473 30.720924 
L 513.846612 30.75668 
L 514.154121 30.854082 
L 514.307875 30.967476 
L 517.152327 30.894853 
L 517.997976 30.910624 
L 522.994987 30.825123 
L 523.302495 30.740495 
L 523.994389 30.786351 
L 527.223227 30.816057 
L 527.68449 30.844112 
L 527.991998 30.787744 
L 528.299507 30.750007 
L 529.913926 30.791969 
L 530.221434 30.804305 
L 531.374591 30.77347 
L 531.528345 30.790761 
L 531.91273 30.817266 
L 532.373993 30.809661 
L 533.373395 30.891849 
L 533.52715 30.735842 
L 536.525356 30.770818 
L 537.75539 30.70344 
L 539.754195 30.61898 
L 540.907351 30.39198 
L 541.599245 30.474205 
L 541.98363 30.440507 
L 548.748815 30.388163 
L 549.210078 30.37647 
L 549.67134 30.416705 
L 551.823899 30.445709 
L 553.207687 30.420754 
L 553.592072 30.451738 
L 553.976458 30.454883 
L 555.129614 30.472664 
L 556.052139 30.532088 
L 556.82091 30.607434 
L 558.204698 30.58146 
L 558.512207 30.54626 
L 559.357855 30.565394 
L 560.587888 30.573532 
L 562.12543 30.629554 
L 562.356062 30.637921 
L 563.047955 30.619758 
L 563.20171 30.381021 
L 563.816726 30.304173 
L 564.50862 30.294656 
L 564.739252 30.358687 
L 565.661777 30.415691 
L 565.969285 30.531341 
L 567.353073 30.575978 
L 567.583704 30.504313 
L 568.813738 30.487848 
L 572.426961 30.620157 
L 572.811347 30.648118 
L 573.349487 30.691153 
L 573.656995 30.665367 
L 574.041381 30.636544 
L 574.656397 30.614055 
L 575.732677 30.658697 
L 576.270816 30.621925 
L 578.269621 30.617249 
L 578.500252 30.68502 
L 578.730884 30.638535 
L 579.038392 30.638125 
L 580.729688 30.667737 
L 581.190951 30.695376 
L 582.728493 30.659193 
L 582.882247 30.76742 
L 585.649822 30.809527 
L 586.034208 30.847161 
L 587.648627 30.887604 
L 588.10989 30.906018 
L 588.571152 30.918316 
L 591.031219 31.023001 
L 591.184974 31.152082 
L 594.260058 31.058397 
L 594.875074 31.062522 
L 595.413214 31.071946 
L 596.56637 31.005657 
L 599.4877 31.207175 
L 599.641454 31.27531 
L 600.487103 31.207699 
L 600.871488 31.17575 
L 601.717136 31.157872 
L 602.332153 31.223853 
L 607.790427 31.158244 
L 608.328567 31.130739 
L 611.711159 31.129529 
L 615.478137 31.039596 
L 615.631891 31.188449 
L 617.78445 31.118997 
L 618.860729 31.054858 
L 619.014483 30.911926 
L 624.011495 30.955542 
L 624.242126 30.904088 
L 624.857143 31.035285 
L 626.932824 31.10575 
L 627.163456 31.019944 
L 630.853557 31.011609 
L 633.006115 31.039654 
L 633.467378 31.061491 
L 635.00492 31.065774 
L 635.466182 31.0633 
L 636.388708 31.071683 
L 637.234356 31.034486 
L 637.92625 31.066659 
L 638.848775 31.054846 
L 639.156283 30.990515 
L 640.924456 30.923374 
L 641.462596 30.959333 
L 641.693227 30.949183 
L 643.845786 30.928231 
L 643.99954 31.003346 
L 644.230172 30.951781 
L 649.227183 30.880279 
L 649.611569 30.950253 
L 653.378546 31.163922 
L 654.454826 31.318216 
L 656.838016 31.407969 
L 657.068647 31.458876 
L 658.452435 31.421717 
L 660.220608 31.532393 
L 660.758748 31.535901 
L 662.219413 31.578224 
L 662.680675 31.578317 
L 662.83443 31.491651 
L 663.449446 31.450969 
L 664.218217 31.450983 
L 664.602603 31.507081 
L 664.910111 31.484264 
L 665.678882 31.517733 
L 667.60081 31.507873 
L 669.599614 31.525389 
L 669.753368 31.649146 
L 670.137754 31.645874 
L 672.982207 31.643956 
L 674.058486 31.691631 
L 674.21224 31.63715 
L 674.442872 31.702297 
L 675.28852 31.699405 
L 675.903536 31.737731 
L 677.67171 31.711691 
L 678.056095 31.713635 
L 678.440481 31.709627 
L 679.824268 31.846242 
L 684.052509 31.998468 
L 684.360017 31.989699 
L 684.82128 32.034538 
L 694.35404 32.215288 
L 694.969057 32.17183 
L 695.353442 32.195865 
L 695.584074 32.164756 
L 700.427331 32.180029 
L 700.734839 32.243105 
L 701.887996 32.174371 
L 705.578096 32.235341 
L 706.885007 32.297697 
L 707.038761 32.347139 
L 707.653778 32.406907 
L 707.961287 32.350334 
L 708.268795 32.281548 
L 708.422549 32.422208 
L 709.345074 32.487646 
L 709.652583 32.49292 
L 712.497035 32.535156 
L 713.035175 32.558228 
L 721.876041 32.660053 
L 722.106673 32.730407 
L 723.029198 32.731026 
L 723.413583 32.723964 
L 728.256841 32.848383 
L 728.487472 32.871203 
L 729.179366 32.932337 
L 729.563751 32.921838 
L 729.794383 32.985236 
L 733.407606 32.794145 
L 734.330131 32.813218 
L 734.483886 32.922224 
L 734.945148 32.897764 
L 741.018439 33.08825 
L 741.325947 33.008429 
L 742.402227 32.991883 
L 744.862294 32.908843 
L 746.322959 32.898164 
L 749.47492 32.88713 
L 754.625685 33.003093 
L 755.471334 32.983541 
L 755.701965 33.019547 
L 756.855121 33.008487 
L 757.085753 33.076416 
L 757.393261 33.108238 
L 760.160837 33.216235 
L 764.235323 33.314347 
L 767.848546 33.435811 
L 768.232932 33.435295 
L 768.463563 33.328632 
L 769.001703 33.267581 
L 769.232334 33.31137 
L 769.539843 33.289693 
L 769.924228 33.294599 
L 770.231737 33.308345 
L 770.462368 33.290996 
L 771.000508 33.279814 
L 771.154262 33.256642 
L 771.384893 33.376908 
L 772.230541 33.394186 
L 776.381904 33.393387 
L 776.996921 33.335517 
L 777.458184 33.37155 
L 778.918849 33.305114 
L 790.296659 32.95621 
L 790.834799 32.933786 
L 794.140514 32.946682 
L 795.678056 32.878827 
L 797.061844 32.866092 
L 798.215 32.856624 
L 798.368755 32.726505 
L 799.29128 32.807838 
L 799.906297 32.837203 
L 800.751945 32.802499 
L 800.828822 32.808045 
L 800.982576 33.03151 
L 802.981381 33.109222 
L 803.135135 32.991363 
L 803.673274 32.990136 
L 807.363375 32.972896 
L 807.517129 32.880745 
L 810.899722 32.854566 
L 811.053476 32.757213 
L 812.28351 32.75389 
L 814.282314 32.782145 
L 814.589822 32.840223 
L 817.588029 32.837445 
L 819.125571 32.905971 
L 820.355605 33.011069 
L 821.047499 33.022881 
L 824.353214 33.170419 
L 824.814477 33.201528 
L 825.506371 33.113606 
L 829.734611 33.093493 
L 829.888365 33.059745 
L 839.882388 33.359439 
L 840.113019 33.296546 
L 840.497405 33.262345 
L 840.651159 33.317737 
L 841.112422 33.300651 
L 844.187505 33.498611 
L 847.646975 33.569147 
L 847.800729 33.465002 
L 867.096881 33.339137 
L 868.7113 33.398179 
L 869.24944 33.405991 
L 872.401401 33.550876 
L 872.785786 33.609141 
L 873.708311 33.589218 
L 874.861468 33.636813 
L 875.937747 33.612272 
L 877.321535 33.542154 
L 877.475289 33.592853 
L 878.705323 33.524749 
L 880.473496 33.462833 
L 880.857882 33.425528 
L 881.319144 33.479156 
L 882.318546 33.489617 
L 888.31496 33.511403 
L 889.083731 33.527975 
L 890.851904 33.545549 
L 891.466921 33.510487 
L 893.773234 33.692359 
L 895.46453 33.713661 
L 895.848916 33.789272 
L 896.54081 33.706175 
L 897.002072 33.699734 
L 898.308983 33.69965 
L 898.693368 33.726386 
L 900.845927 33.749609 
L 902.460346 33.828229 
L 902.690978 33.911705 
L 903.229117 33.880192 
L 903.459749 33.932545 
L 905.227922 33.934117 
L 905.53543 33.938077 
L 905.996693 33.89015 
L 906.688587 33.816449 
L 906.996095 33.781042 
L 908.841146 33.832806 
L 915.145068 33.593961 
L 915.529453 33.595068 
L 919.373308 33.821828 
L 919.757694 33.824262 
L 922.909655 33.856112 
L 923.678426 33.80621 
L 923.985934 33.836354 
L 924.293442 33.810105 
L 925.215968 33.833294 
L 925.600353 33.871335 
L 927.983543 33.86136 
L 928.906068 33.813581 
L 929.290454 33.768824 
L 930.059225 33.747403 
L 930.827996 33.781185 
L 930.98175 33.888009 
L 932.442415 33.911691 
L 932.673046 33.958446 
L 933.134309 33.964023 
L 934.441219 34.072812 
L 937.746935 34.097237 
L 938.592583 34.102813 
L 939.591985 34.011571 
L 940.053248 33.999739 
L 942.052052 34.109683 
L 942.359561 34.094102 
L 944.358365 34.08696 
L 944.588996 34.11609 
L 945.357767 34.120675 
L 945.511522 33.998443 
L 946.895309 33.908647 
L 946.972187 33.89143 
L 947.125941 34.021289 
L 953.891125 33.924923 
L 954.736773 33.874749 
L 957.73498 33.973546 
L 959.964416 33.978729 
L 965.96083 34.046052 
L 967.037109 34.031579 
L 967.267741 34.046675 
L 968.88216 33.952231 
L 970.573456 33.804386 
L 971.419104 33.751363 
L 974.417311 33.866548 
L 975.570467 33.882616 
L 975.877976 33.818633 
L 977.261763 33.819645 
L 977.415518 33.913903 
L 979.337445 33.942962 
L 979.721831 33.934002 
L 980.029339 33.995791 
L 981.874389 33.889324 
L 982.181898 33.832568 
L 985.256982 33.857661 
L 986.256384 33.881819 
L 990.715256 33.929836 
L 990.86901 33.96092 
L 995.866021 33.890094 
L 996.250407 33.838833 
L 996.634792 33.892478 
L 999.248614 34.043774 
L 999.556122 34.015983 
L 1012.778983 34.062891 
L 1013.394 34.100758 
L 1015.930944 34.039186 
L 1016.469084 34.005301 
L 1017.545363 34.083703 
L 1018.237257 34.103836 
L 1018.237257 34.103836 
" clip-path="url(#p2226ff0f4f)" style="fill: none; stroke: #9400d3; stroke-width: 5; stroke-linecap: square"/>
    <defs>
     <path id="mb80b950294" d="M 0 12.5 
C 3.315039 12.5 6.494748 11.182921 8.838835 8.838835 
C 11.182921 6.494748 12.5 3.315039 12.5 0 
C 12.5 -3.315039 11.182921 -6.494748 8.838835 -8.838835 
C 6.494748 -11.182921 3.315039 -12.5 0 -12.5 
C -3.315039 -12.5 -6.494748 -11.182921 -8.838835 -8.838835 
C -11.182921 -6.494748 -12.5 -3.315039 -12.5 0 
C -12.5 3.315039 -11.182921 6.494748 -8.838835 8.838835 
C -6.494748 11.182921 -3.315039 12.5 0 12.5 
z
" style="stroke: #9400d3"/>
    </defs>
    <g clip-path="url(#p2226ff0f4f)">
     <use xlink:href="#mb80b950294" x="-1" y="6.636009" style="fill: #9400d3; stroke: #9400d3"/>
     <use xlink:href="#mb80b950294" x="68.881965" y="14.454694" style="fill: #9400d3; stroke: #9400d3"/>
     <use xlink:href="#mb80b950294" x="184.197613" y="26.404187" style="fill: #9400d3; stroke: #9400d3"/>
     <use xlink:href="#mb80b950294" x="299.513261" y="28.634177" style="fill: #9400d3; stroke: #9400d3"/>
     <use xlink:href="#mb80b950294" x="414.828909" y="30.369677" style="fill: #9400d3; stroke: #9400d3"/>
     <use xlink:href="#mb80b950294" x="530.144557" y="30.804333" style="fill: #9400d3; stroke: #9400d3"/>
     <use xlink:href="#mb80b950294" x="645.460205" y="30.924445" style="fill: #9400d3; stroke: #9400d3"/>
     <use xlink:href="#mb80b950294" x="760.775853" y="33.224032" style="fill: #9400d3; stroke: #9400d3"/>
     <use xlink:href="#mb80b950294" x="876.091501" y="33.603678" style="fill: #9400d3; stroke: #9400d3"/>
     <use xlink:href="#mb80b950294" x="991.40715" y="33.944607" style="fill: #9400d3; stroke: #9400d3"/>
    </g>
   </g>
   <g id="line2d_27">
    <path d="M -1 400.894451 
L 5.15085 401.022019 
L 5.996498 400.979249 
L 6.227129 401.030309 
L 7.149655 401.051245 
L 10.993509 401.194199 
L 15.144873 401.251338 
L 15.22175 421.5556 
L 15.298627 421.554461 
L 17.143677 421.5946 
L 22.832583 421.731994 
L 32.134712 421.942598 
L 38.823019 421.998074 
L 39.207405 422.028022 
L 41.052455 422.095737 
L 59.502959 422.49577 
L 60.732992 422.463849 
L 62.11678 422.452278 
L 65.57625 422.551036 
L 66.114389 422.565437 
L 81.412932 422.817562 
L 82.719843 422.82263 
L 83.411736 422.78763 
L 84.180507 422.772694 
L 84.488016 422.805936 
L 86.948083 422.812041 
L 87.947485 422.854095 
L 93.636391 422.926047 
L 94.251407 422.91773 
L 100.247821 423.060625 
L 101.86224 423.112815 
L 105.091078 423.136645 
L 105.475464 423.166492 
L 106.705497 423.166087 
L 108.396794 423.218664 
L 110.703107 423.221578 
L 110.779984 443.590668 
L 110.856861 443.58712 
L 117.698922 443.662394 
L 120.850884 443.717866 
L 122.00404 443.738524 
L 130.921783 443.896884 
L 134.611884 443.929463 
L 136.149426 443.978958 
L 136.84132 443.983578 
L 139.839527 443.930139 
L 141.530823 444.03355 
L 141.992086 444.066855 
L 142.222717 444.025161 
L 148.065376 444.000272 
L 152.21674 444.110199 
L 154.369299 444.146212 
L 161.980131 444.226077 
L 190.962798 444.696874 
L 192.346585 444.713856 
L 194.114759 444.850924 
L 200.803066 444.929281 
L 201.725591 444.949297 
L 207.568251 444.974806 
L 209.643933 445.006074 
L 222.866794 445.262499 
L 233.091448 445.354745 
L 234.398358 445.40687 
L 263.842287 445.714353 
L 264.072918 445.757425 
L 265.149198 445.724928 
L 266.68674 445.718325 
L 269.454315 445.75602 
L 286.059769 445.908251 
L 291.979305 445.990866 
L 367.780125 446.771101 
L 370.5477 446.833648 
L 372.315873 446.902635 
L 377.927902 446.883015 
L 378.542918 446.872119 
L 410.29316 447.251109 
L 412.138211 447.252094 
L 418.903395 447.2775 
L 424.746055 447.337902 
L 425.053563 447.328247 
L 425.284195 447.406877 
L 428.436156 447.412245 
L 452.037425 447.531802 
L 452.575565 447.550227 
L 464.107129 447.704524 
L 469.64228 447.801793 
L 480.405074 447.871772 
L 485.094577 447.918158 
L 485.402086 447.962397 
L 487.093382 447.932724 
L 488.092784 447.929931 
L 521.380568 448.118213 
L 527.14635 448.120154 
L 533.834658 448.211703 
L 536.986619 448.240476 
L 549.825094 448.317526 
L 550.286357 448.337718 
L 560.81852 448.443462 
L 563.124833 448.406019 
L 567.506827 448.348962 
L 577.577727 448.378887 
L 578.192744 448.40089 
L 591.338728 448.568909 
L 606.867902 448.714942 
L 607.482919 448.710392 
L 612.633684 448.720702 
L 632.160467 448.792324 
L 635.081797 448.762944 
L 638.618143 448.827327 
L 653.609178 448.958214 
L 654.762334 448.950158 
L 662.988184 449.04804 
L 663.372569 449.084541 
L 670.368385 449.118612 
L 671.752173 449.106744 
L 672.982207 449.123382 
L 678.594235 449.147241 
L 690.587062 449.330386 
L 692.047727 449.329581 
L 692.739621 449.331606 
L 699.427929 449.403696 
L 704.194309 449.430421 
L 711.57451 449.507969 
L 712.189527 449.520284 
L 715.03398 449.534509 
L 725.412388 449.658266 
L 726.488667 449.637296 
L 745.631065 449.798798 
L 746.092328 449.81388 
L 760.929608 449.919069 
L 761.544624 449.939188 
L 764.927217 450.006353 
L 767.156653 450.037669 
L 768.232932 450.066605 
L 780.610145 450.230694 
L 781.378916 450.217198 
L 789.374134 450.231396 
L 793.371743 450.268905 
L 810.899722 450.334244 
L 811.284107 450.37123 
L 815.051085 450.404779 
L 815.819856 450.438015 
L 867.173758 450.714411 
L 867.865652 450.741893 
L 869.864456 450.739993 
L 878.7822 450.826712 
L 885.624262 450.79935 
L 887.392435 450.811875 
L 904.612905 450.920318 
L 906.919218 450.906246 
L 911.454967 450.908091 
L 1018.237257 451.226844 
L 1018.237257 451.226844 
" clip-path="url(#p2226ff0f4f)" style="fill: none; stroke: #ffa500; stroke-width: 5; stroke-linecap: square"/>
    <defs>
     <path id="mbc29fa4e15" d="M 12.5 0 
L -12.5 -12.5 
L -12.5 12.5 
z
" style="stroke: #ffa500; stroke-linejoin: miter"/>
    </defs>
    <g clip-path="url(#p2226ff0f4f)">
     <use xlink:href="#mbc29fa4e15" x="-1" y="408.962269" style="fill: #ffa500; stroke: #ffa500; stroke-linejoin: miter"/>
     <use xlink:href="#mbc29fa4e15" x="68.881965" y="422.5636" style="fill: #ffa500; stroke: #ffa500; stroke-linejoin: miter"/>
     <use xlink:href="#mbc29fa4e15" x="184.197613" y="444.630334" style="fill: #ffa500; stroke: #ffa500; stroke-linejoin: miter"/>
     <use xlink:href="#mbc29fa4e15" x="299.513261" y="446.044096" style="fill: #ffa500; stroke: #ffa500; stroke-linejoin: miter"/>
     <use xlink:href="#mbc29fa4e15" x="414.828909" y="447.269382" style="fill: #ffa500; stroke: #ffa500; stroke-linejoin: miter"/>
     <use xlink:href="#mbc29fa4e15" x="530.144557" y="448.135172" style="fill: #ffa500; stroke: #ffa500; stroke-linejoin: miter"/>
     <use xlink:href="#mbc29fa4e15" x="645.460205" y="448.884744" style="fill: #ffa500; stroke: #ffa500; stroke-linejoin: miter"/>
     <use xlink:href="#mbc29fa4e15" x="760.775853" y="449.926446" style="fill: #ffa500; stroke: #ffa500; stroke-linejoin: miter"/>
     <use xlink:href="#mbc29fa4e15" x="876.091501" y="450.798152" style="fill: #ffa500; stroke: #ffa500; stroke-linejoin: miter"/>
     <use xlink:href="#mbc29fa4e15" x="991.40715" y="451.111423" style="fill: #ffa500; stroke: #ffa500; stroke-linejoin: miter"/>
    </g>
   </g>
   <g id="line2d_28">
    <path d="M -1 414.005321 
L 9.071582 414.043552 
L 9.37909 414.088378 
L 15.144873 414.114461 
L 15.298627 434.654653 
L 29.136505 434.918192 
L 30.05903 434.943199 
L 30.904678 434.949112 
L 32.057835 434.982548 
L 37.2086 435.078675 
L 39.284282 435.138619 
L 43.589399 435.208288 
L 48.278902 435.279656 
L 49.278305 435.279303 
L 58.503556 435.352544 
L 65.883758 435.268973 
L 67.882563 435.316482 
L 78.337848 435.418368 
L 81.259178 435.457909 
L 85.794927 435.515082 
L 94.635793 435.626338 
L 94.866424 435.681345 
L 110.703107 436.003792 
L 110.779984 456.532447 
L 110.856861 456.530437 
L 127.154806 456.556014 
L 131.306169 456.62984 
L 131.998063 456.625443 
L 135.226901 456.708627 
L 154.753684 456.894609 
L 156.137472 456.918243 
L 166.51588 457.052295 
L 166.823389 456.991054 
L 172.051031 456.900306 
L 173.281065 456.863175 
L 173.66545 456.913193 
L 219.868587 457.474593 
L 220.791112 457.500062 
L 222.251777 457.573082 
L 222.713039 457.63479 
L 223.251179 457.62983 
L 224.173704 457.623414 
L 225.788123 457.628173 
L 226.40314 457.662391 
L 227.325665 457.652593 
L 232.015168 457.671369 
L 248.543745 457.783552 
L 252.310722 457.84971 
L 283.138439 457.906095 
L 284.214718 457.90928 
L 329.649084 458.421015 
L 330.340978 458.451691 
L 360.323046 458.729137 
L 388.536941 458.894124 
L 389.228835 458.89246 
L 395.225249 458.846175 
L 404.911763 458.916021 
L 407.064322 458.936582 
L 411.676948 458.977224 
L 465.95218 459.305999 
L 467.720353 459.340751 
L 492.936041 459.499928 
L 497.47179 459.448501 
L 498.855578 459.437314 
L 625.395283 460.305912 
L 628.239735 460.321184 
L 639.694423 460.431325 
L 642.846384 460.45708 
L 648.996552 460.514113 
L 654.224195 460.521122 
L 654.916088 460.505834 
L 679.670514 460.581406 
L 681.592442 460.602866 
L 699.581683 460.709165 
L 707.730655 460.721162 
L 708.038164 460.761861 
L 715.648996 460.818521 
L 716.264013 460.831129 
L 723.49046 460.876629 
L 726.181159 460.914528 
L 735.406411 461.003477 
L 737.251461 461.016818 
L 817.972415 461.622216 
L 820.432482 461.62644 
L 825.198862 461.695191 
L 826.04451 461.712138 
L 836.422919 461.721047 
L 838.806109 461.736337 
L 850.183919 461.791063 
L 851.952092 461.804865 
L 858.409769 461.802332 
L 862.176747 461.821696 
L 865.78997 461.819104 
L 868.634423 461.822104 
L 899.000877 461.965563 
L 900.154033 461.981185 
L 906.842341 461.984709 
L 907.687989 462.004055 
L 913.069386 462.019964 
L 928.291052 462.028557 
L 936.132516 462.039615 
L 938.438829 462.046434 
L 958.349997 462.144358 
L 959.580031 462.150676 
L 968.651528 462.177151 
L 969.804685 462.167737 
L 971.803489 462.194819 
L 987.717049 462.391037 
L 1001.939312 462.448737 
L 1009.550145 462.496322 
L 1014.085894 462.534917 
L 1015.392804 462.536357 
L 1018.237257 462.555002 
L 1018.237257 462.555002 
" clip-path="url(#p2226ff0f4f)" style="fill: none; stroke: #ff1493; stroke-width: 5; stroke-linecap: square"/>
    <defs>
     <path id="mbad7ba17cc" d="M -12.5 -0 
L 12.5 12.5 
L 12.5 -12.5 
z
" style="stroke: #ff1493; stroke-linejoin: miter"/>
    </defs>
    <g clip-path="url(#p2226ff0f4f)">
     <use xlink:href="#mbad7ba17cc" x="-1" y="421.830293" style="fill: #ff1493; stroke: #ff1493; stroke-linejoin: miter"/>
     <use xlink:href="#mbad7ba17cc" x="68.881965" y="435.291412" style="fill: #ff1493; stroke: #ff1493; stroke-linejoin: miter"/>
     <use xlink:href="#mbad7ba17cc" x="184.197613" y="457.025002" style="fill: #ff1493; stroke: #ff1493; stroke-linejoin: miter"/>
     <use xlink:href="#mbad7ba17cc" x="299.513261" y="458.111303" style="fill: #ff1493; stroke: #ff1493; stroke-linejoin: miter"/>
     <use xlink:href="#mbad7ba17cc" x="414.828909" y="458.963567" style="fill: #ff1493; stroke: #ff1493; stroke-linejoin: miter"/>
     <use xlink:href="#mbad7ba17cc" x="530.144557" y="459.625512" style="fill: #ff1493; stroke: #ff1493; stroke-linejoin: miter"/>
     <use xlink:href="#mbad7ba17cc" x="645.460205" y="460.483002" style="fill: #ff1493; stroke: #ff1493; stroke-linejoin: miter"/>
     <use xlink:href="#mbad7ba17cc" x="760.775853" y="461.117156" style="fill: #ff1493; stroke: #ff1493; stroke-linejoin: miter"/>
     <use xlink:href="#mbad7ba17cc" x="876.091501" y="461.861996" style="fill: #ff1493; stroke: #ff1493; stroke-linejoin: miter"/>
     <use xlink:href="#mbad7ba17cc" x="991.40715" y="462.414404" style="fill: #ff1493; stroke: #ff1493; stroke-linejoin: miter"/>
    </g>
   </g>
   <g id="line2d_29">
    <path d="M -1 456.066147 
L 15.144873 456.09791 
L 15.298627 477.704123 
L 86.409943 477.849797 
L 88.716256 477.854676 
L 108.166162 477.911371 
L 110.703107 477.919466 
L 110.856861 499.52987 
L 140.30079 499.583482 
L 142.453348 499.591916 
L 179.431233 499.647397 
L 253.233248 499.776358 
L 447.578553 500.091228 
L 448.039816 500.109264 
L 488.169661 500.164545 
L 489.707203 500.174734 
L 603.869695 500.308095 
L 614.094349 500.318022 
L 650.072831 500.367549 
L 692.816498 500.443191 
L 697.967264 500.457204 
L 745.246679 500.499822 
L 796.984967 500.546772 
L 801.366962 500.553894 
L 923.447794 500.667166 
L 934.133711 500.687676 
L 1007.243832 500.754286 
L 1018.237257 500.759506 
L 1018.237257 500.759506 
" clip-path="url(#p2226ff0f4f)" style="fill: none; stroke: #008000; stroke-width: 5; stroke-linecap: square"/>
    <defs>
     <path id="m70841f3323" d="M -0 12.5 
L 12.5 -12.5 
L -12.5 -12.5 
z
" style="stroke: #008000; stroke-linejoin: miter"/>
    </defs>
    <g clip-path="url(#p2226ff0f4f)">
     <use xlink:href="#m70841f3323" x="-1" y="464.549865" style="fill: #008000; stroke: #008000; stroke-linejoin: miter"/>
     <use xlink:href="#m70841f3323" x="68.881965" y="477.809166" style="fill: #008000; stroke: #008000; stroke-linejoin: miter"/>
     <use xlink:href="#m70841f3323" x="184.197613" y="499.6557" style="fill: #008000; stroke: #008000; stroke-linejoin: miter"/>
     <use xlink:href="#m70841f3323" x="299.513261" y="499.849817" style="fill: #008000; stroke: #008000; stroke-linejoin: miter"/>
     <use xlink:href="#m70841f3323" x="414.828909" y="500.052794" style="fill: #008000; stroke: #008000; stroke-linejoin: miter"/>
     <use xlink:href="#m70841f3323" x="530.144557" y="500.221558" style="fill: #008000; stroke: #008000; stroke-linejoin: miter"/>
     <use xlink:href="#m70841f3323" x="645.460205" y="500.364439" style="fill: #008000; stroke: #008000; stroke-linejoin: miter"/>
     <use xlink:href="#m70841f3323" x="760.775853" y="500.507585" style="fill: #008000; stroke: #008000; stroke-linejoin: miter"/>
     <use xlink:href="#m70841f3323" x="876.091501" y="500.630614" style="fill: #008000; stroke: #008000; stroke-linejoin: miter"/>
     <use xlink:href="#m70841f3323" x="991.40715" y="500.742637" style="fill: #008000; stroke: #008000; stroke-linejoin: miter"/>
    </g>
   </g>
   <g id="line2d_30">
    <path d="M -1 458.778846 
L 15.144873 458.790635 
L 15.298627 480.123232 
L 110.703107 480.23523 
L 110.856861 501.573949 
L 185.120138 501.646889 
L 197.112965 501.66216 
L 306.585954 501.751082 
L 309.046021 501.755622 
L 476.868728 501.880991 
L 534.680306 501.912894 
L 1018.237257 502.145931 
L 1018.237257 502.145931 
" clip-path="url(#p2226ff0f4f)" style="fill: none; stroke: #0000ff; stroke-width: 5; stroke-linecap: square"/>
    <defs>
     <path id="m06a645ad8d" d="M 0 -12.5 
L -12.5 12.5 
L 12.5 12.5 
z
" style="stroke: #0000ff; stroke-linejoin: miter"/>
    </defs>
    <g clip-path="url(#p2226ff0f4f)">
     <use xlink:href="#m06a645ad8d" x="-1" y="467.177206" style="fill: #0000ff; stroke: #0000ff; stroke-linejoin: miter"/>
     <use xlink:href="#m06a645ad8d" x="68.881965" y="480.193641" style="fill: #0000ff; stroke: #0000ff; stroke-linejoin: miter"/>
     <use xlink:href="#m06a645ad8d" x="184.197613" y="501.644932" style="fill: #0000ff; stroke: #0000ff; stroke-linejoin: miter"/>
     <use xlink:href="#m06a645ad8d" x="299.513261" y="501.744451" style="fill: #0000ff; stroke: #0000ff; stroke-linejoin: miter"/>
     <use xlink:href="#m06a645ad8d" x="414.828909" y="501.833506" style="fill: #0000ff; stroke: #0000ff; stroke-linejoin: miter"/>
     <use xlink:href="#m06a645ad8d" x="530.144557" y="501.909289" style="fill: #0000ff; stroke: #0000ff; stroke-linejoin: miter"/>
     <use xlink:href="#m06a645ad8d" x="645.460205" y="501.977815" style="fill: #0000ff; stroke: #0000ff; stroke-linejoin: miter"/>
     <use xlink:href="#m06a645ad8d" x="760.775853" y="502.033938" style="fill: #0000ff; stroke: #0000ff; stroke-linejoin: miter"/>
     <use xlink:href="#m06a645ad8d" x="876.091501" y="502.092159" style="fill: #0000ff; stroke: #0000ff; stroke-linejoin: miter"/>
     <use xlink:href="#m06a645ad8d" x="991.40715" y="502.133096" style="fill: #0000ff; stroke: #0000ff; stroke-linejoin: miter"/>
    </g>
   </g>
   <g id="patch_3">
    <path d="M 133.554928 537.05101 
L 133.554928 3.067274 
" style="fill: none; stroke: #000000; stroke-width: 0.8; stroke-linejoin: miter; stroke-linecap: square"/>
   </g>
   <g id="patch_4">
    <path d="M 1035.23976 537.05101 
L 1035.23976 3.067274 
" style="fill: none; stroke: #000000; stroke-width: 0.8; stroke-linejoin: miter; stroke-linecap: square"/>
   </g>
   <g id="patch_5">
    <path d="M 133.554928 537.05101 
L 1035.23976 537.05101 
" style="fill: none; stroke: #000000; stroke-width: 0.8; stroke-linejoin: miter; stroke-linecap: square"/>
   </g>
   <g id="patch_6">
    <path d="M 133.554928 3.067274 
L 1035.23976 3.067274 
" style="fill: none; stroke: #000000; stroke-width: 0.8; stroke-linejoin: miter; stroke-linecap: square"/>
   </g>
  </g>
 </g>
 <defs>
  <clipPath id="p2226ff0f4f">
   <rect x="133.554928" y="3.067274" width="901.684832" height="533.983736"/>
  </clipPath>
 </defs>
</svg>
